<?xml version="1.0" encoding="UTF-8"?>
<!DOCTYPE svg PUBLIC "-//W3C//DTD SVG 1.1//EN" "http://www.w3.org/Graphics/SVG/1.1/DTD/svg11.dtd">
<svg xmlns="http://www.w3.org/2000/svg" version="1.1" width="231px" height="231px" style="shape-rendering:geometricPrecision; text-rendering:geometricPrecision; image-rendering:optimizeQuality; fill-rule:evenodd; clip-rule:evenodd" xmlns:xlink="http://www.w3.org/1999/xlink">
<g><path style="opacity:0.711" fill="#a29886" d="M 113.5,13.5 C 113.5,13.1667 113.5,12.8333 113.5,12.5C 119.862,14.6858 126.195,16.8524 132.5,19C 136.717,23.3793 139.384,28.5459 140.5,34.5C 137.987,32.4674 136.487,29.8007 136,26.5C 134.612,26.7856 133.112,26.4523 131.5,25.5C 131.167,24.5 130.5,23.8333 129.5,23.5C 128.766,22.2921 128.433,20.9587 128.5,19.5C 126.5,19.5 124.5,19.5 122.5,19.5C 122.5,18.5 122.5,17.5 122.5,16.5C 119.208,16.3531 116.208,15.3531 113.5,13.5 Z"/></g>
<g><path style="opacity:1" fill="#3c3027" d="M 113.5,12.5 C 113.5,12.8333 113.5,13.1667 113.5,13.5C 111.376,14.0312 109.876,15.3645 109,17.5C 108.617,16.944 108.117,16.6107 107.5,16.5C 108.463,15.6365 108.463,14.9698 107.5,14.5C 102.602,16.8965 98.1024,19.8965 94,23.5C 92.4029,22.1153 90.5695,21.4486 88.5,21.5C 87.1938,20.5326 86.5271,19.1993 86.5,17.5C 89.3203,14.9193 92.6536,13.0859 96.5,12C 102.249,11.2153 107.916,11.3819 113.5,12.5 Z"/></g>
<g><path style="opacity:1" fill="#2d231e" d="M 113.5,13.5 C 116.208,15.3531 119.208,16.3531 122.5,16.5C 122.5,17.5 122.5,18.5 122.5,19.5C 124.5,19.5 126.5,19.5 128.5,19.5C 128.433,20.9587 128.766,22.2921 129.5,23.5C 129.631,24.2389 129.464,24.9056 129,25.5C 127.89,23.9632 126.39,23.2965 124.5,23.5C 124.357,25.2624 124.691,26.9291 125.5,28.5C 124.767,29.087 123.767,29.087 122.5,28.5C 121.542,28.0472 120.708,27.3805 120,26.5C 119.692,27.3081 119.192,27.9747 118.5,28.5C 113.753,25.0201 108.753,24.6868 103.5,27.5C 103.751,25.8297 104.418,24.3297 105.5,23C 105.167,22.8333 104.833,22.6667 104.5,22.5C 103.416,23.6651 102.583,24.9984 102,26.5C 101.982,24.2028 102.149,21.8695 102.5,19.5C 104.664,19.2785 106.33,18.2785 107.5,16.5C 108.117,16.6107 108.617,16.944 109,17.5C 109.876,15.3645 111.376,14.0312 113.5,13.5 Z"/></g>
<g><path style="opacity:1" fill="#4c3d32" d="M 86.5,17.5 C 86.5271,19.1993 87.1938,20.5326 88.5,21.5C 86.8409,24.1922 84.8409,26.6922 82.5,29C 81.3922,30.6773 81.3922,32.1773 82.5,33.5C 81.1667,35.5 79.8333,37.5 78.5,39.5C 77.4706,41.5168 76.4706,43.5168 75.5,45.5C 74.8333,46.8333 74.1667,48.1667 73.5,49.5C 73.4001,46.333 74.0668,43.333 75.5,40.5C 76.5388,36.0656 78.5388,31.7323 81.5,27.5C 79.7408,26.246 78.2408,26.5794 77,28.5C 76.7265,30.3289 75.8932,31.8289 74.5,33C 74.8333,33.3333 75.1667,33.6667 75.5,34C 72.149,36.5067 70.9823,39.6734 72,43.5C 71.6667,43.8333 71.3333,44.1667 71,44.5C 70.7104,42.9559 70.0437,41.6226 69,40.5C 68.2618,44.7097 68.4285,48.8764 69.5,53C 68.3132,55.7236 67.6465,58.5569 67.5,61.5C 64.7442,47.6308 67.7442,35.1308 76.5,24C 79.4645,21.1903 82.7978,19.0236 86.5,17.5 Z"/></g>
<g><path style="opacity:1" fill="#38231c" d="M 122.5,28.5 C 124.351,32.1469 126.351,35.8136 128.5,39.5C 128.137,40.1835 127.804,40.8501 127.5,41.5C 125.845,38.9436 124.179,36.2769 122.5,33.5C 121.264,34.2458 119.93,34.5792 118.5,34.5C 118.29,30.1146 115.957,28.1146 111.5,28.5C 107.818,29.5318 104.151,30.5318 100.5,31.5C 101.512,30.1283 102.512,28.795 103.5,27.5C 108.753,24.6868 113.753,25.0201 118.5,28.5C 119.192,27.9747 119.692,27.3081 120,26.5C 120.708,27.3805 121.542,28.0472 122.5,28.5 Z"/></g>
<g><path style="opacity:1" fill="#251c19" d="M 107.5,16.5 C 106.33,18.2785 104.664,19.2785 102.5,19.5C 102.149,21.8695 101.982,24.2028 102,26.5C 102.583,24.9984 103.416,23.6651 104.5,22.5C 104.833,22.6667 105.167,22.8333 105.5,23C 104.418,24.3297 103.751,25.8297 103.5,27.5C 102.512,28.795 101.512,30.1283 100.5,31.5C 97.223,33.7174 93.5563,35.3841 89.5,36.5C 88.7689,32.8282 87.2689,32.1615 85,34.5C 84.0814,31.5984 83.2481,31.2651 82.5,33.5C 81.3922,32.1773 81.3922,30.6773 82.5,29C 84.8409,26.6922 86.8409,24.1922 88.5,21.5C 90.5695,21.4486 92.4029,22.1153 94,23.5C 98.1024,19.8965 102.602,16.8965 107.5,14.5C 108.463,14.9698 108.463,15.6365 107.5,16.5 Z"/></g>
<g><path style="opacity:1" fill="#1d1714" d="M 129.5,23.5 C 130.5,23.8333 131.167,24.5 131.5,25.5C 131.062,25.4346 130.728,25.6012 130.5,26C 131.333,28.1667 132.833,29.6667 135,30.5C 136.119,33.0571 136.285,35.5571 135.5,38C 138.341,39.5818 139.341,41.7485 138.5,44.5C 139.441,44.4895 140.108,44.9895 140.5,46C 138.899,49.3669 137.899,52.5335 137.5,55.5C 136.942,50.6538 135.442,45.9872 133,41.5C 132.667,42.5 132.333,43.5 132,44.5C 131.302,41.5894 129.802,40.9227 127.5,42.5C 127.5,42.1667 127.5,41.8333 127.5,41.5C 127.804,40.8501 128.137,40.1835 128.5,39.5C 126.351,35.8136 124.351,32.1469 122.5,28.5C 123.767,29.087 124.767,29.087 125.5,28.5C 124.691,26.9291 124.357,25.2624 124.5,23.5C 126.39,23.2965 127.89,23.9632 129,25.5C 129.464,24.9056 129.631,24.2389 129.5,23.5 Z"/></g>
<g><path style="opacity:1" fill="#57372c" d="M 127.5,41.5 C 127.5,41.8333 127.5,42.1667 127.5,42.5C 127.5,42.8333 127.5,43.1667 127.5,43.5C 125.222,41.2334 123.389,38.5668 122,35.5C 121.15,36.4239 120.15,36.4239 119,35.5C 114.88,29.0803 110.88,29.0803 107,35.5C 105.431,34.8778 103.764,34.5445 102,34.5C 97.1042,35.9067 92.2709,37.24 87.5,38.5C 87.5,37.5 87.5,36.5 87.5,35.5C 85.8762,35.3601 84.7096,36.0267 84,37.5C 83.79,35.9419 83.29,34.6085 82.5,33.5C 83.2481,31.2651 84.0814,31.5984 85,34.5C 87.2689,32.1615 88.7689,32.8282 89.5,36.5C 93.5563,35.3841 97.223,33.7174 100.5,31.5C 104.151,30.5318 107.818,29.5318 111.5,28.5C 115.957,28.1146 118.29,30.1146 118.5,34.5C 119.93,34.5792 121.264,34.2458 122.5,33.5C 124.179,36.2769 125.845,38.9436 127.5,41.5 Z"/></g>
<g><path style="opacity:1" fill="#2f2820" d="M 131.5,25.5 C 133.112,26.4523 134.612,26.7856 136,26.5C 136.487,29.8007 137.987,32.4674 140.5,34.5C 140.755,38.8003 141.755,42.8003 143.5,46.5C 144.794,50.9339 144.794,55.2673 143.5,59.5C 143.663,57.1432 143.497,54.8098 143,52.5C 142.632,51.09 141.799,50.09 140.5,49.5C 141.466,51.8628 141.466,54.3628 140.5,57C 136.918,57.5954 136.584,58.9288 139.5,61C 138.667,61.8333 137.833,62.6667 137,63.5C 136.278,60.7395 136.445,58.0728 137.5,55.5C 137.899,52.5335 138.899,49.3669 140.5,46C 140.108,44.9895 139.441,44.4895 138.5,44.5C 139.341,41.7485 138.341,39.5818 135.5,38C 136.285,35.5571 136.119,33.0571 135,30.5C 132.833,29.6667 131.333,28.1667 130.5,26C 130.728,25.6012 131.062,25.4346 131.5,25.5 Z"/></g>
<g><path style="opacity:1" fill="#9a695a" d="M 127.5,43.5 C 128.723,46.2739 130.223,48.9406 132,51.5C 132.499,56.1548 132.666,60.8215 132.5,65.5C 132.167,65.5 131.833,65.5 131.5,65.5C 131.666,61.4862 131.499,57.4862 131,53.5C 128.626,50.7368 126.792,47.7368 125.5,44.5C 124.243,42.5778 123.077,40.5778 122,38.5C 118.883,39.3997 116.383,38.3997 114.5,35.5C 113.522,35.9767 112.689,36.6433 112,37.5C 111.667,36.5 111.333,35.5 111,34.5C 108.482,36.9519 105.982,38.6185 103.5,39.5C 98.6105,39.3631 93.6105,40.0297 88.5,41.5C 87.2011,40.91 86.3678,39.91 86,38.5C 84.4374,41.0443 82.9374,41.0443 81.5,38.5C 80.5832,39.1272 79.5832,39.4606 78.5,39.5C 79.8333,37.5 81.1667,35.5 82.5,33.5C 83.29,34.6085 83.79,35.9419 84,37.5C 84.7096,36.0267 85.8762,35.3601 87.5,35.5C 87.5,36.5 87.5,37.5 87.5,38.5C 92.2709,37.24 97.1042,35.9067 102,34.5C 103.764,34.5445 105.431,34.8778 107,35.5C 110.88,29.0803 114.88,29.0803 119,35.5C 120.15,36.4239 121.15,36.4239 122,35.5C 123.389,38.5668 125.222,41.2334 127.5,43.5 Z"/></g>
<g><path style="opacity:1" fill="#c58f7f" d="M 112.5,45.5 C 108.944,44.6149 105.777,44.6149 103,45.5C 102.51,44.2068 102.343,42.8734 102.5,41.5C 97.4767,42.006 92.4767,42.6727 87.5,43.5C 85.5294,43.1362 83.5294,42.8028 81.5,42.5C 79.6984,43.9856 77.6984,44.9856 75.5,45.5C 76.4706,43.5168 77.4706,41.5168 78.5,39.5C 79.5832,39.4606 80.5832,39.1272 81.5,38.5C 82.9374,41.0443 84.4374,41.0443 86,38.5C 86.3678,39.91 87.2011,40.91 88.5,41.5C 93.6105,40.0297 98.6105,39.3631 103.5,39.5C 106.368,39.915 108.535,38.915 110,36.5C 111.047,39.4662 111.881,42.4662 112.5,45.5 Z"/></g>
<g><path style="opacity:1" fill="#6d6255" d="M 140.5,34.5 C 142.416,38.1629 143.416,42.1629 143.5,46.5C 141.755,42.8003 140.755,38.8003 140.5,34.5 Z"/></g>
<g><path style="opacity:1" fill="#daaa98" d="M 87.5,43.5 C 88.4293,44.3149 89.4293,45.1482 90.5,46C 88.5874,48.5778 86.5874,51.0778 84.5,53.5C 83.2905,53.9321 82.2905,54.5987 81.5,55.5C 79.8608,56.4725 78.5274,57.8058 77.5,59.5C 76.2651,61.017 76.2651,62.6837 77.5,64.5C 75.9806,66.5563 75.1472,68.8896 75,71.5C 74.5836,62.8259 74.7503,54.1593 75.5,45.5C 77.6984,44.9856 79.6984,43.9856 81.5,42.5C 83.5294,42.8028 85.5294,43.1362 87.5,43.5 Z"/></g>
<g><path style="opacity:1" fill="#d99a8b" d="M 112.5,45.5 C 112.291,46.9217 111.791,48.255 111,49.5C 110.667,49.1667 110.333,48.8333 110,48.5C 108.75,50.1935 107.25,51.5268 105.5,52.5C 101.703,51.5607 98.0364,50.8941 94.5,50.5C 91.5682,52.7343 88.2349,53.7343 84.5,53.5C 86.5874,51.0778 88.5874,48.5778 90.5,46C 89.4293,45.1482 88.4293,44.3149 87.5,43.5C 92.4767,42.6727 97.4767,42.006 102.5,41.5C 102.343,42.8734 102.51,44.2068 103,45.5C 105.777,44.6149 108.944,44.6149 112.5,45.5 Z"/></g>
<g><path style="opacity:1" fill="#c98e73" d="M 125.5,44.5 C 126.792,47.7368 128.626,50.7368 131,53.5C 131.499,57.4862 131.666,61.4862 131.5,65.5C 130.5,65.5 129.5,65.5 128.5,65.5C 128.585,62.3511 127.585,59.6845 125.5,57.5C 123.77,56.9744 122.436,55.9744 121.5,54.5C 125.736,52.0269 125.403,50.6935 120.5,50.5C 120.281,49.325 120.614,48.325 121.5,47.5C 123.16,46.8284 124.493,45.8284 125.5,44.5 Z"/></g>
<g><path style="opacity:1" fill="#3b2c24" d="M 73.5,49.5 C 72.8074,56.8426 72.474,64.176 72.5,71.5C 70.0266,68.8812 68.3599,65.8812 67.5,62.5C 67.5,62.1667 67.5,61.8333 67.5,61.5C 67.6465,58.5569 68.3132,55.7236 69.5,53C 68.4285,48.8764 68.2618,44.7097 69,40.5C 70.0437,41.6226 70.7104,42.9559 71,44.5C 71.3333,44.1667 71.6667,43.8333 72,43.5C 70.9823,39.6734 72.149,36.5067 75.5,34C 75.1667,33.6667 74.8333,33.3333 74.5,33C 75.8932,31.8289 76.7265,30.3289 77,28.5C 78.2408,26.5794 79.7408,26.246 81.5,27.5C 78.5388,31.7323 76.5388,36.0656 75.5,40.5C 74.0668,43.333 73.4001,46.333 73.5,49.5 Z"/></g>
<g><path style="opacity:1" fill="#c88c78" d="M 125.5,44.5 C 124.493,45.8284 123.16,46.8284 121.5,47.5C 120.614,48.325 120.281,49.325 120.5,50.5C 125.403,50.6935 125.736,52.0269 121.5,54.5C 116.5,54.5 111.5,54.5 106.5,54.5C 105.5,54.5 104.5,54.5 103.5,54.5C 104.167,53.8333 104.833,53.1667 105.5,52.5C 107.25,51.5268 108.75,50.1935 110,48.5C 110.333,48.8333 110.667,49.1667 111,49.5C 111.791,48.255 112.291,46.9217 112.5,45.5C 111.881,42.4662 111.047,39.4662 110,36.5C 108.535,38.915 106.368,39.915 103.5,39.5C 105.982,38.6185 108.482,36.9519 111,34.5C 111.333,35.5 111.667,36.5 112,37.5C 112.689,36.6433 113.522,35.9767 114.5,35.5C 116.383,38.3997 118.883,39.3997 122,38.5C 123.077,40.5778 124.243,42.5778 125.5,44.5 Z"/></g>
<g><path style="opacity:1" fill="#ce8a7d" d="M 105.5,52.5 C 104.833,53.1667 104.167,53.8333 103.5,54.5C 103.5,55.5 103.5,56.5 103.5,57.5C 99.5089,56.872 98.1755,58.2053 99.5,61.5C 98.0387,60.3143 96.7054,60.3143 95.5,61.5C 94.6981,60.0484 94.1981,58.3817 94,56.5C 93.3292,55.7476 92.4959,55.4142 91.5,55.5C 88.1667,55.5 84.8333,55.5 81.5,55.5C 82.2905,54.5987 83.2905,53.9321 84.5,53.5C 88.2349,53.7343 91.5682,52.7343 94.5,50.5C 98.0364,50.8941 101.703,51.5607 105.5,52.5 Z"/></g>
<g><path style="opacity:1" fill="#603a2b" d="M 81.5,55.5 C 84.8333,55.5 88.1667,55.5 91.5,55.5C 91.8039,56.1499 92.1373,56.8165 92.5,57.5C 88.8776,58.3253 85.211,58.8253 81.5,59C 80.5842,59.2784 79.9175,59.7784 79.5,60.5C 78.5084,60.6716 77.8417,60.3382 77.5,59.5C 78.5274,57.8058 79.8608,56.4725 81.5,55.5 Z"/></g>
<g><path style="opacity:1" fill="#7f4633" d="M 106.5,54.5 C 111.5,54.5 116.5,54.5 121.5,54.5C 122.436,55.9744 123.77,56.9744 125.5,57.5C 124.787,61.1479 123.287,61.8146 121,59.5C 119.211,58.5909 117.377,58.4242 115.5,59C 118.595,59.9354 120.929,61.7687 122.5,64.5C 120.968,66.4562 118.801,67.4562 116,67.5C 113.837,67.5053 112.337,66.5053 111.5,64.5C 111.233,66.3 110.567,68.3 109.5,70.5C 107.446,70.6347 105.779,69.968 104.5,68.5C 103.387,67.0536 103.22,65.3869 104,63.5C 105.771,62.6959 107.271,61.5292 108.5,60C 107.437,58.8118 106.103,58.3118 104.5,58.5C 104.527,56.8007 105.194,55.4674 106.5,54.5 Z"/></g>
<g><path style="opacity:1" fill="#573426" d="M 127.5,43.5 C 130.382,44.6966 132.549,46.6966 134,49.5C 133.728,54.7885 133.561,60.1218 133.5,65.5C 136.518,65.2962 139.518,64.9629 142.5,64.5C 140.226,65.7372 137.893,67.0705 135.5,68.5C 134.817,68.1373 134.15,67.8039 133.5,67.5C 132.662,67.1583 132.328,66.4916 132.5,65.5C 132.666,60.8215 132.499,56.1548 132,51.5C 130.223,48.9406 128.723,46.2739 127.5,43.5 Z"/></g>
<g><path style="opacity:1" fill="#241812" d="M 137.5,55.5 C 136.445,58.0728 136.278,60.7395 137,63.5C 137.833,62.6667 138.667,61.8333 139.5,61C 136.584,58.9288 136.918,57.5954 140.5,57C 141.466,54.3628 141.466,51.8628 140.5,49.5C 141.799,50.09 142.632,51.09 143,52.5C 143.497,54.8098 143.663,57.1432 143.5,59.5C 143.5,59.8333 143.5,60.1667 143.5,60.5C 142.566,61.5676 142.232,62.901 142.5,64.5C 139.518,64.9629 136.518,65.2962 133.5,65.5C 133.561,60.1218 133.728,54.7885 134,49.5C 132.549,46.6966 130.382,44.6966 127.5,43.5C 127.5,43.1667 127.5,42.8333 127.5,42.5C 129.802,40.9227 131.302,41.5894 132,44.5C 132.333,43.5 132.667,42.5 133,41.5C 135.442,45.9872 136.942,50.6538 137.5,55.5 Z"/></g>
<g><path style="opacity:1" fill="#a16b5e" d="M 91.5,55.5 C 92.4959,55.4142 93.3292,55.7476 94,56.5C 94.1981,58.3817 94.6981,60.0484 95.5,61.5C 95.8799,63.698 95.2132,65.3646 93.5,66.5C 93.634,68.2915 93.3007,69.9582 92.5,71.5C 89.4816,71.6646 86.4816,71.498 83.5,71C 84.6405,70.2588 84.6405,69.4255 83.5,68.5C 82.3112,67.5713 80.9778,67.238 79.5,67.5C 79.317,65.0637 79.9837,62.897 81.5,61C 80.9056,60.5357 80.2389,60.369 79.5,60.5C 79.9175,59.7784 80.5842,59.2784 81.5,59C 85.211,58.8253 88.8776,58.3253 92.5,57.5C 92.1373,56.8165 91.8039,56.1499 91.5,55.5 Z"/></g>
<g><path style="opacity:1" fill="#65362b" d="M 93.5,66.5 C 92.5041,66.5858 91.6708,66.2524 91,65.5C 87.9018,68.3472 85.4018,67.8472 83.5,64C 86.0852,61.7325 89.0852,60.5658 92.5,60.5C 92.8333,62.5 93.1667,64.5 93.5,66.5 Z"/></g>
<g><path style="opacity:1" fill="#ca9886" d="M 75.5,45.5 C 74.7503,54.1593 74.5836,62.8259 75,71.5C 75.1472,68.8896 75.9806,66.5563 77.5,64.5C 76.2651,62.6837 76.2651,61.017 77.5,59.5C 77.8417,60.3382 78.5084,60.6716 79.5,60.5C 80.2389,60.369 80.9056,60.5357 81.5,61C 79.9837,62.897 79.317,65.0637 79.5,67.5C 80.9778,67.238 82.3112,67.5713 83.5,68.5C 84.6405,69.4255 84.6405,70.2588 83.5,71C 86.4816,71.498 89.4816,71.6646 92.5,71.5C 91.217,73.8147 89.217,75.1481 86.5,75.5C 83.7595,75.0359 82.0929,74.0359 81.5,72.5C 81.3385,70.1756 80.1718,68.5089 78,67.5C 77.5045,69.4727 77.3379,71.4727 77.5,73.5C 76.1667,73.5 74.8333,73.5 73.5,73.5C 72.7562,78.7019 73.9228,83.3686 77,87.5C 77.4935,89.1341 77.6602,90.8008 77.5,92.5C 74.1541,91.7821 72.1541,89.7821 71.5,86.5C 70.0769,82.0607 68.7436,77.5607 67.5,73C 68.3063,69.5433 68.3063,66.0433 67.5,62.5C 68.3599,65.8812 70.0266,68.8812 72.5,71.5C 72.474,64.176 72.8074,56.8426 73.5,49.5C 74.1667,48.1667 74.8333,46.8333 75.5,45.5 Z"/></g>
<g><path style="opacity:1" fill="#c8866c" d="M 125.5,57.5 C 127.585,59.6845 128.585,62.3511 128.5,65.5C 128.591,70.059 128.091,74.7257 127,79.5C 126.333,80.8333 125.667,80.8333 125,79.5C 123.02,83.6957 123.187,87.6957 125.5,91.5C 125.5,92.8333 125.5,94.1667 125.5,95.5C 124.5,95.5 123.5,95.5 122.5,95.5C 122.357,97.2624 122.691,98.9291 123.5,100.5C 122.645,101.293 121.811,100.96 121,99.5C 119.632,97.5065 119.132,95.5065 119.5,93.5C 120.616,93.598 121.616,93.098 122.5,92C 122.252,90.2509 121.252,89.4176 119.5,89.5C 118.962,87.8828 118.629,86.2161 118.5,84.5C 119.502,82.9891 120.169,81.3224 120.5,79.5C 121.552,79.6495 122.552,79.4828 123.5,79C 122.862,77.2933 122.862,75.46 123.5,73.5C 120.918,73.9746 118.918,73.3079 117.5,71.5C 120.989,71.3889 123.322,69.7223 124.5,66.5C 124.145,65.4777 123.478,64.811 122.5,64.5C 120.929,61.7687 118.595,59.9354 115.5,59C 117.377,58.4242 119.211,58.5909 121,59.5C 123.287,61.8146 124.787,61.1479 125.5,57.5 Z"/></g>
<g><path style="opacity:1" fill="#d29488" d="M 95.5,61.5 C 98.9053,67.5465 97.7386,72.5465 92,76.5C 91.51,77.7932 91.3433,79.1266 91.5,80.5C 95.7954,80.2787 96.4621,81.6121 93.5,84.5C 93.6236,85.1067 93.9569,85.44 94.5,85.5C 94.5,86.1667 94.5,86.8333 94.5,87.5C 93.5326,88.8062 92.1993,89.4729 90.5,89.5C 90.631,88.7611 90.4643,88.0944 90,87.5C 88.4452,89.1458 86.7785,89.4791 85,88.5C 83.9298,83.3291 82.0964,78.4958 79.5,74C 80.0442,73.2828 80.7109,72.7828 81.5,72.5C 82.0929,74.0359 83.7595,75.0359 86.5,75.5C 89.217,75.1481 91.217,73.8147 92.5,71.5C 93.3007,69.9582 93.634,68.2915 93.5,66.5C 95.2132,65.3646 95.8799,63.698 95.5,61.5 Z"/></g>
<g><path style="opacity:1" fill="#c68272" d="M 117.5,71.5 C 118.918,73.3079 120.918,73.9746 123.5,73.5C 122.862,75.46 122.862,77.2933 123.5,79C 122.552,79.4828 121.552,79.6495 120.5,79.5C 120.169,81.3224 119.502,82.9891 118.5,84.5C 117.082,82.8133 115.749,80.98 114.5,79C 111.833,77.6667 109.167,76.3333 106.5,75C 109.604,72.1461 113.27,70.9795 117.5,71.5 Z"/></g>
<g><path style="opacity:1" fill="#de9e90" d="M 95.5,61.5 C 96.7054,60.3143 98.0387,60.3143 99.5,61.5C 99.791,65.2783 101.124,68.6117 103.5,71.5C 102.167,73.8333 102.167,76.1667 103.5,78.5C 101.904,81.4562 100.404,84.4562 99,87.5C 97.8904,85.9632 96.3904,85.2965 94.5,85.5C 93.9569,85.44 93.6236,85.1067 93.5,84.5C 96.4621,81.6121 95.7954,80.2787 91.5,80.5C 91.3433,79.1266 91.51,77.7932 92,76.5C 97.7386,72.5465 98.9053,67.5465 95.5,61.5 Z"/></g>
<g><path style="opacity:1" fill="#ce9174" d="M 128.5,65.5 C 129.5,65.5 130.5,65.5 131.5,65.5C 131.833,65.5 132.167,65.5 132.5,65.5C 132.328,66.4916 132.662,67.1583 133.5,67.5C 134.334,71.0328 133.668,74.3661 131.5,77.5C 131.12,80.0222 131.12,82.6889 131.5,85.5C 129.563,87.0398 128.396,89.0398 128,91.5C 126.445,86.407 125.612,86.407 125.5,91.5C 123.187,87.6957 123.02,83.6957 125,79.5C 125.667,80.8333 126.333,80.8333 127,79.5C 128.091,74.7257 128.591,70.059 128.5,65.5 Z"/></g>
<g><path style="opacity:1" fill="#c67f6d" d="M 103.5,54.5 C 104.5,54.5 105.5,54.5 106.5,54.5C 105.194,55.4674 104.527,56.8007 104.5,58.5C 106.103,58.3118 107.437,58.8118 108.5,60C 107.271,61.5292 105.771,62.6959 104,63.5C 103.22,65.3869 103.387,67.0536 104.5,68.5C 104.572,71.1933 104.905,73.8599 105.5,76.5C 107.622,79.0833 108.955,82.0833 109.5,85.5C 107.402,84.0374 105.402,84.2041 103.5,86C 101.796,88.2375 100.796,90.7375 100.5,93.5C 104.544,92.5755 108.544,92.2422 112.5,92.5C 114.976,92.2326 115.643,92.8993 114.5,94.5C 109.463,94.4126 104.463,94.746 99.5,95.5C 98.9478,93.6693 98.9478,92.0026 99.5,90.5C 97.9713,89.2371 96.3046,88.2371 94.5,87.5C 94.5,86.8333 94.5,86.1667 94.5,85.5C 96.3904,85.2965 97.8904,85.9632 99,87.5C 100.404,84.4562 101.904,81.4562 103.5,78.5C 102.167,76.1667 102.167,73.8333 103.5,71.5C 101.124,68.6117 99.791,65.2783 99.5,61.5C 98.1755,58.2053 99.5089,56.872 103.5,57.5C 103.5,56.5 103.5,55.5 103.5,54.5 Z"/></g>
<g><path style="opacity:1" fill="#b9725e" d="M 122.5,64.5 C 123.478,64.811 124.145,65.4777 124.5,66.5C 123.322,69.7223 120.989,71.3889 117.5,71.5C 113.27,70.9795 109.604,72.1461 106.5,75C 109.167,76.3333 111.833,77.6667 114.5,79C 115.749,80.98 117.082,82.8133 118.5,84.5C 118.629,86.2161 118.962,87.8828 119.5,89.5C 118.662,89.8417 118.328,90.5084 118.5,91.5C 115.313,89.0974 112.313,87.0974 109.5,85.5C 108.955,82.0833 107.622,79.0833 105.5,76.5C 104.905,73.8599 104.572,71.1933 104.5,68.5C 105.779,69.968 107.446,70.6347 109.5,70.5C 110.567,68.3 111.233,66.3 111.5,64.5C 112.337,66.5053 113.837,67.5053 116,67.5C 118.801,67.4562 120.968,66.4562 122.5,64.5 Z"/></g>
<g><path style="opacity:1" fill="#c5886e" d="M 143.5,60.5 C 144.466,65.9967 144.466,71.33 143.5,76.5C 141.905,80.7834 140.405,85.1168 139,89.5C 136.723,90.1172 134.556,90.7839 132.5,91.5C 131.209,91.2627 130.209,91.596 129.5,92.5C 128.842,93.3984 128.176,94.3984 127.5,95.5C 126.828,94.0508 126.161,92.7175 125.5,91.5C 125.612,86.407 126.445,86.407 128,91.5C 128.396,89.0398 129.563,87.0398 131.5,85.5C 131.12,82.6889 131.12,80.0222 131.5,77.5C 133.668,74.3661 134.334,71.0328 133.5,67.5C 134.15,67.8039 134.817,68.1373 135.5,68.5C 137.893,67.0705 140.226,65.7372 142.5,64.5C 142.232,62.901 142.566,61.5676 143.5,60.5 Z"/></g>
<g><path style="opacity:1" fill="#b6654b" d="M 143.5,76.5 C 140.848,78.3962 138.181,80.3962 135.5,82.5C 135.167,82.1667 134.833,81.8333 134.5,81.5C 136.682,79.2664 137.015,76.7664 135.5,74C 136.63,72.2399 137.63,70.4066 138.5,68.5C 140.071,67.6906 141.738,67.3573 143.5,67.5C 143.5,70.5 143.5,73.5 143.5,76.5 Z"/></g>
<g><path style="opacity:1" fill="#d69e8c" d="M 81.5,72.5 C 80.7109,72.7828 80.0442,73.2828 79.5,74C 82.0964,78.4958 83.9298,83.3291 85,88.5C 86.7785,89.4791 88.4452,89.1458 90,87.5C 90.4643,88.0944 90.631,88.7611 90.5,89.5C 89.1336,91.2713 87.6336,92.9379 86,94.5C 85.3985,97.2205 85.5651,99.8872 86.5,102.5C 85.8826,102.389 85.3826,102.056 85,101.5C 84.6667,99.1667 84.3333,96.8333 84,94.5C 83.6667,94.8333 83.3333,95.1667 83,95.5C 80.0992,88.1978 78.2659,80.8644 77.5,73.5C 77.3379,71.4727 77.5045,69.4727 78,67.5C 80.1718,68.5089 81.3385,70.1756 81.5,72.5 Z"/></g>
<g><path style="opacity:1" fill="#b06c5b" d="M 109.5,85.5 C 112.313,87.0974 115.313,89.0974 118.5,91.5C 118.663,93.8568 118.497,96.1902 118,98.5C 117.329,99.2524 116.496,99.5858 115.5,99.5C 114.778,98.4489 113.778,97.7822 112.5,97.5C 113.718,96.8386 115.051,96.1719 116.5,95.5C 116.043,94.7025 115.376,94.3691 114.5,94.5C 115.643,92.8993 114.976,92.2326 112.5,92.5C 108.544,92.2422 104.544,92.5755 100.5,93.5C 100.796,90.7375 101.796,88.2375 103.5,86C 105.402,84.2041 107.402,84.0374 109.5,85.5 Z"/></g>
<g><path style="opacity:1" fill="#c68f84" d="M 94.5,87.5 C 96.3046,88.2371 97.9713,89.2371 99.5,90.5C 98.9478,92.0026 98.9478,93.6693 99.5,95.5C 97.323,95.5861 95.323,96.2528 93.5,97.5C 91.9017,96.5153 90.235,96.3486 88.5,97C 92.7909,97.8843 96.7909,99.3843 100.5,101.5C 99.0605,103.588 98.3939,105.921 98.5,108.5C 95.4311,107.225 92.7644,107.225 90.5,108.5C 87.9558,107.292 86.6225,105.292 86.5,102.5C 85.5651,99.8872 85.3985,97.2205 86,94.5C 87.6336,92.9379 89.1336,91.2713 90.5,89.5C 92.1993,89.4729 93.5326,88.8062 94.5,87.5 Z"/></g>
<g><path style="opacity:1" fill="#aa5a52" d="M 114.5,94.5 C 115.376,94.3691 116.043,94.7025 116.5,95.5C 115.051,96.1719 113.718,96.8386 112.5,97.5C 109.099,100.529 105.099,101.862 100.5,101.5C 96.7909,99.3843 92.7909,97.8843 88.5,97C 90.235,96.3486 91.9017,96.5153 93.5,97.5C 95.323,96.2528 97.323,95.5861 99.5,95.5C 104.463,94.746 109.463,94.4126 114.5,94.5 Z"/></g>
<g><path style="opacity:1" fill="#d6a794" d="M 77.5,73.5 C 78.2659,80.8644 80.0992,88.1978 83,95.5C 83.3333,95.1667 83.6667,94.8333 84,94.5C 84.3333,96.8333 84.6667,99.1667 85,101.5C 85.3826,102.056 85.8826,102.389 86.5,102.5C 86.6225,105.292 87.9558,107.292 90.5,108.5C 90.6716,109.492 90.3382,110.158 89.5,110.5C 84.3205,105.314 80.3205,99.3142 77.5,92.5C 77.6602,90.8008 77.4935,89.1341 77,87.5C 73.9228,83.3686 72.7562,78.7019 73.5,73.5C 74.8333,73.5 76.1667,73.5 77.5,73.5 Z"/></g>
<g><path style="opacity:1" fill="#bb8367" d="M 119.5,89.5 C 121.252,89.4176 122.252,90.2509 122.5,92C 121.616,93.098 120.616,93.598 119.5,93.5C 119.132,95.5065 119.632,97.5065 121,99.5C 121.811,100.96 122.645,101.293 123.5,100.5C 122.691,98.9291 122.357,97.2624 122.5,95.5C 123.5,95.5 124.5,95.5 125.5,95.5C 125.5,94.1667 125.5,92.8333 125.5,91.5C 126.161,92.7175 126.828,94.0508 127.5,95.5C 128.176,94.3984 128.842,93.3984 129.5,92.5C 129.763,96.6002 129.43,100.6 128.5,104.5C 127.221,106.123 125.887,107.79 124.5,109.5C 123.914,109.291 123.414,108.957 123,108.5C 121.489,110.862 119.989,113.195 118.5,115.5C 118.167,115.5 117.833,115.5 117.5,115.5C 117.375,112.929 117.042,110.263 116.5,107.5C 114.805,106.826 113.138,106.159 111.5,105.5C 113.429,103.94 114.762,101.94 115.5,99.5C 116.496,99.5858 117.329,99.2524 118,98.5C 118.497,96.1902 118.663,93.8568 118.5,91.5C 118.328,90.5084 118.662,89.8417 119.5,89.5 Z"/></g>
<g><path style="opacity:1" fill="#b77565" d="M 112.5,97.5 C 113.778,97.7822 114.778,98.4489 115.5,99.5C 114.762,101.94 113.429,103.94 111.5,105.5C 110.972,106.721 110.305,107.887 109.5,109C 106.183,109.498 102.85,109.665 99.5,109.5C 98.8333,109.5 98.5,109.167 98.5,108.5C 98.3939,105.921 99.0605,103.588 100.5,101.5C 105.099,101.862 109.099,100.529 112.5,97.5 Z"/></g>
<g><path style="opacity:1" fill="#b67b61" d="M 128.5,104.5 C 128.359,110.151 128.359,115.651 128.5,121C 127.333,122.167 126.167,123.333 125,124.5C 123.855,123.316 122.688,123.316 121.5,124.5C 121.055,121.635 121.722,119.135 123.5,117C 123,116.5 122.5,116 122,115.5C 120.708,116.791 119.542,116.791 118.5,115.5C 119.989,113.195 121.489,110.862 123,108.5C 123.414,108.957 123.914,109.291 124.5,109.5C 125.887,107.79 127.221,106.123 128.5,104.5 Z"/></g>
<g><path style="opacity:1" fill="#a8796a" d="M 111.5,105.5 C 113.138,106.159 114.805,106.826 116.5,107.5C 117.042,110.263 117.375,112.929 117.5,115.5C 115.584,117.116 114.084,116.782 113,114.5C 111.461,117.521 108.961,118.854 105.5,118.5C 106.108,117.2 106.775,115.867 107.5,114.5C 107.32,113.446 106.987,112.446 106.5,111.5C 104.031,110.832 101.698,110.165 99.5,109.5C 102.85,109.665 106.183,109.498 109.5,109C 110.305,107.887 110.972,106.721 111.5,105.5 Z"/></g>
<g><path style="opacity:1" fill="#d5af9c" d="M 71.5,86.5 C 72.1541,89.7821 74.1541,91.7821 77.5,92.5C 80.3205,99.3142 84.3205,105.314 89.5,110.5C 90.3267,113.132 91.16,115.798 92,118.5C 93.9893,120.839 96.4893,122.173 99.5,122.5C 101.059,123.829 102.725,125.162 104.5,126.5C 105.466,128.396 105.799,130.396 105.5,132.5C 104.833,133.5 104.167,134.5 103.5,135.5C 102.778,135.918 102.278,136.584 102,137.5C 101.333,136.167 100.667,134.833 100,133.5C 99.6667,134.167 99.3333,134.833 99,135.5C 98,134.167 97,134.167 96,135.5C 95.0266,133.608 94.3599,131.608 94,129.5C 91.8162,131.871 89.6495,131.704 87.5,129C 87.8333,128.667 88.1667,128.333 88.5,128C 86.3073,124.39 84.9739,120.556 84.5,116.5C 83.7589,113.587 83.2589,110.587 83,107.5C 79.6596,103.817 77.6596,99.4839 77,94.5C 72.9586,93.4329 71.1253,90.7663 71.5,86.5 Z"/></g>
<g><path style="opacity:1" fill="#b0877a" d="M 98.5,108.5 C 98.5,109.167 98.8333,109.5 99.5,109.5C 101.698,110.165 104.031,110.832 106.5,111.5C 106.987,112.446 107.32,113.446 107.5,114.5C 106.775,115.867 106.108,117.2 105.5,118.5C 103.565,119.15 101.565,119.483 99.5,119.5C 99.5,120.5 99.5,121.5 99.5,122.5C 96.4893,122.173 93.9893,120.839 92,118.5C 91.16,115.798 90.3267,113.132 89.5,110.5C 90.3382,110.158 90.6716,109.492 90.5,108.5C 92.7644,107.225 95.4311,107.225 98.5,108.5 Z"/></g>
<g><path style="opacity:1" fill="#ae775f" d="M 117.5,115.5 C 117.833,115.5 118.167,115.5 118.5,115.5C 119.542,116.791 120.708,116.791 122,115.5C 122.5,116 123,116.5 123.5,117C 121.722,119.135 121.055,121.635 121.5,124.5C 120.585,127.086 118.918,129.086 116.5,130.5C 115.153,131.171 113.986,131.171 113,130.5C 111.667,133.167 109.667,135.167 107,136.5C 106.79,134.942 106.29,133.609 105.5,132.5C 105.799,130.396 105.466,128.396 104.5,126.5C 102.725,125.162 101.059,123.829 99.5,122.5C 99.5,121.5 99.5,120.5 99.5,119.5C 101.565,119.483 103.565,119.15 105.5,118.5C 108.961,118.854 111.461,117.521 113,114.5C 114.084,116.782 115.584,117.116 117.5,115.5 Z"/></g>
<g><path style="opacity:1" fill="#b3836c" d="M 132.5,91.5 C 131.363,100.422 131.196,109.422 132,118.5C 132.513,119.527 133.013,120.527 133.5,121.5C 132.566,122.568 132.232,123.901 132.5,125.5C 130.813,129.416 127.813,131.749 123.5,132.5C 121.721,130.656 119.388,129.99 116.5,130.5C 118.918,129.086 120.585,127.086 121.5,124.5C 122.688,123.316 123.855,123.316 125,124.5C 126.167,123.333 127.333,122.167 128.5,121C 128.359,115.651 128.359,110.151 128.5,104.5C 129.43,100.6 129.763,96.6002 129.5,92.5C 130.209,91.596 131.209,91.2627 132.5,91.5 Z"/></g>
<g><path style="opacity:1" fill="#4e3c38" d="M 133.5,121.5 C 133.833,121.5 134.167,121.5 134.5,121.5C 135.765,124.003 135.432,126.337 133.5,128.5C 132.596,127.791 132.263,126.791 132.5,125.5C 132.232,123.901 132.566,122.568 133.5,121.5 Z"/></g>
<g><path style="opacity:1" fill="#aaa5bb" d="M 134.5,121.5 C 137.842,124.992 140.842,128.825 143.5,133C 150.331,135.586 156.998,138.419 163.5,141.5C 159.459,141.325 155.459,141.158 151.5,141C 150.692,141.308 150.025,141.808 149.5,142.5C 150.705,143.995 150.705,145.328 149.5,146.5C 148.206,145.71 147.039,144.71 146,143.5C 145.909,140.984 145.409,139.318 144.5,138.5C 143.193,137.847 141.86,137.18 140.5,136.5C 138.642,140.29 136.975,140.29 135.5,136.5C 136.782,134.378 136.282,132.711 134,131.5C 131.065,134.136 128.565,137.136 126.5,140.5C 124.322,142.858 122.655,145.525 121.5,148.5C 119.273,149.401 118.273,151.067 118.5,153.5C 117.5,153.5 116.5,153.5 115.5,153.5C 120.245,146.353 125.245,139.353 130.5,132.5C 131.5,131.167 132.5,129.833 133.5,128.5C 135.432,126.337 135.765,124.003 134.5,121.5 Z"/></g>
<g><path style="opacity:1" fill="#ccac9f" d="M 84.5,116.5 C 84.9739,120.556 86.3073,124.39 88.5,128C 88.1667,128.333 87.8333,128.667 87.5,129C 89.6495,131.704 91.8162,131.871 94,129.5C 94.3599,131.608 95.0266,133.608 96,135.5C 97,134.167 98,134.167 99,135.5C 99.3333,134.833 99.6667,134.167 100,133.5C 100.667,134.833 101.333,136.167 102,137.5C 102.278,136.584 102.778,135.918 103.5,135.5C 103.302,138.906 104.302,141.906 106.5,144.5C 104.234,145.314 101.9,145.814 99.5,146C 98.8742,146.75 98.3742,147.584 98,148.5C 96.6703,147.418 95.1703,146.751 93.5,146.5C 87.4438,142.182 84.1105,136.515 83.5,129.5C 84.436,125.265 84.7693,120.931 84.5,116.5 Z"/></g>
<g><path style="opacity:1" fill="#ad7e6f" d="M 116.5,130.5 C 119.388,129.99 121.721,130.656 123.5,132.5C 122.346,136.499 119.846,139.499 116,141.5C 114.289,140.419 112.789,140.752 111.5,142.5C 110.082,140.692 108.082,140.025 105.5,140.5C 105.5,137.833 105.5,135.167 105.5,132.5C 106.29,133.609 106.79,134.942 107,136.5C 109.667,135.167 111.667,133.167 113,130.5C 113.986,131.171 115.153,131.171 116.5,130.5 Z"/></g>
<g><path style="opacity:1" fill="#a27e75" d="M 132.5,125.5 C 132.263,126.791 132.596,127.791 133.5,128.5C 132.5,129.833 131.5,131.167 130.5,132.5C 128.201,133.778 125.868,135.111 123.5,136.5C 122.066,138.22 121.233,140.22 121,142.5C 118.74,143.673 116.574,145.006 114.5,146.5C 113.614,147.325 113.281,148.325 113.5,149.5C 112.193,150.153 110.86,150.82 109.5,151.5C 107.927,147.915 108.594,144.915 111.5,142.5C 112.789,140.752 114.289,140.419 116,141.5C 119.846,139.499 122.346,136.499 123.5,132.5C 127.813,131.749 130.813,129.416 132.5,125.5 Z"/></g>
<g><path style="opacity:1" fill="#b8bdd7" d="M 78.5,136.5 C 78.8333,136.5 79.1667,136.5 79.5,136.5C 82.2818,141.301 84.6151,146.301 86.5,151.5C 82.9898,150.155 80.6564,147.655 79.5,144C 77.9562,144.487 76.2895,144.987 74.5,145.5C 68.3304,146.782 62.3304,148.449 56.5,150.5C 63.1924,147.644 69.8591,144.477 76.5,141C 77.5822,139.67 78.2488,138.17 78.5,136.5 Z"/></g>
<g><path style="opacity:1" fill="#a3a2c1" d="M 144.5,138.5 C 143.568,144.287 142.235,149.954 140.5,155.5C 139.508,155.672 138.842,155.338 138.5,154.5C 138.5,152.5 138.5,150.5 138.5,148.5C 135.543,148.477 133.043,147.477 131,145.5C 130.586,145.957 130.086,146.291 129.5,146.5C 128.769,144.599 128.769,142.599 129.5,140.5C 128.5,140.5 127.5,140.5 126.5,140.5C 128.565,137.136 131.065,134.136 134,131.5C 136.282,132.711 136.782,134.378 135.5,136.5C 136.975,140.29 138.642,140.29 140.5,136.5C 141.86,137.18 143.193,137.847 144.5,138.5 Z"/></g>
<g><path style="opacity:1" fill="#4a3c48" d="M 84.5,140.5 C 85.2931,144.713 86.9598,148.546 89.5,152C 89.4301,152.765 89.0967,153.265 88.5,153.5C 88.1667,152.5 87.5,151.833 86.5,151.5C 84.6151,146.301 82.2818,141.301 79.5,136.5C 79.8301,133.891 81.3301,132.224 84,131.5C 84.498,134.482 84.6646,137.482 84.5,140.5 Z"/></g>
<g><path style="opacity:1" fill="#a4a4c6" d="M 126.5,140.5 C 127.5,140.5 128.5,140.5 129.5,140.5C 128.769,142.599 128.769,144.599 129.5,146.5C 130.086,146.291 130.586,145.957 131,145.5C 133.043,147.477 135.543,148.477 138.5,148.5C 138.5,150.5 138.5,152.5 138.5,154.5C 136.063,154.244 133.729,153.577 131.5,152.5C 130.468,154.04 129.135,154.54 127.5,154C 125.61,151.938 123.61,150.105 121.5,148.5C 122.655,145.525 124.322,142.858 126.5,140.5 Z"/></g>
<g><path style="opacity:1" fill="#a3a6cf" d="M 163.5,142.5 C 165.954,143.227 168.287,144.227 170.5,145.5C 170.5,146.167 170.5,146.833 170.5,147.5C 169.06,148.363 167.726,148.363 166.5,147.5C 165.575,148.357 164.908,149.357 164.5,150.5C 161.734,151.232 159.068,151.232 156.5,150.5C 152.911,149.628 152.577,147.961 155.5,145.5C 157.578,143.014 160.245,142.014 163.5,142.5 Z"/></g>
<g><path style="opacity:1" fill="#6e5354" d="M 84.5,140.5 C 88.8838,145.215 92.8838,150.215 96.5,155.5C 96.4142,156.496 96.7476,157.329 97.5,158C 96.9056,158.464 96.2389,158.631 95.5,158.5C 92.3257,157.99 89.9923,156.323 88.5,153.5C 89.0967,153.265 89.4301,152.765 89.5,152C 86.9598,148.546 85.2931,144.713 84.5,140.5 Z"/></g>
<g><path style="opacity:1" fill="#9d8180" d="M 130.5,132.5 C 125.245,139.353 120.245,146.353 115.5,153.5C 110.36,156.072 105.027,158.072 99.5,159.5C 97.901,159.768 96.5676,159.434 95.5,158.5C 96.2389,158.631 96.9056,158.464 97.5,158C 96.7476,157.329 96.4142,156.496 96.5,155.5C 96.0293,153.421 95.3627,151.421 94.5,149.5C 97.5678,150.916 100.734,152.25 104,153.5C 106.795,152.815 109.628,152.315 112.5,152C 113.252,151.329 113.586,150.496 113.5,149.5C 113.281,148.325 113.614,147.325 114.5,146.5C 116.574,145.006 118.74,143.673 121,142.5C 121.233,140.22 122.066,138.22 123.5,136.5C 125.868,135.111 128.201,133.778 130.5,132.5 Z"/></g>
<g><path style="opacity:1" fill="#866b64" d="M 83.5,129.5 C 84.1105,136.515 87.4438,142.182 93.5,146.5C 93.5569,147.609 93.8902,148.609 94.5,149.5C 95.3627,151.421 96.0293,153.421 96.5,155.5C 92.8838,150.215 88.8838,145.215 84.5,140.5C 84.6646,137.482 84.498,134.482 84,131.5C 81.3301,132.224 79.8301,133.891 79.5,136.5C 79.1667,136.5 78.8333,136.5 78.5,136.5C 78.2407,132.763 79.9074,130.43 83.5,129.5 Z"/></g>
<g><path style="opacity:1" fill="#b9c7f5" d="M 86.5,151.5 C 86.9349,153.703 86.9349,155.703 86.5,157.5C 85.2993,159.909 83.6326,161.909 81.5,163.5C 80.2794,162.972 79.1127,162.305 78,161.5C 77.5757,159.485 76.7424,157.651 75.5,156C 76.3295,154.535 76.4962,153.035 76,151.5C 73.9836,153.608 71.8169,153.942 69.5,152.5C 71.1667,150.167 72.8333,147.833 74.5,145.5C 76.2895,144.987 77.9562,144.487 79.5,144C 80.6564,147.655 82.9898,150.155 86.5,151.5 Z"/></g>
<g><path style="opacity:1" fill="#b6958a" d="M 105.5,132.5 C 105.5,135.167 105.5,137.833 105.5,140.5C 108.082,140.025 110.082,140.692 111.5,142.5C 108.594,144.915 107.927,147.915 109.5,151.5C 110.86,150.82 112.193,150.153 113.5,149.5C 113.586,150.496 113.252,151.329 112.5,152C 109.628,152.315 106.795,152.815 104,153.5C 100.734,152.25 97.5678,150.916 94.5,149.5C 93.8902,148.609 93.5569,147.609 93.5,146.5C 95.1703,146.751 96.6703,147.418 98,148.5C 98.3742,147.584 98.8742,146.75 99.5,146C 101.9,145.814 104.234,145.314 106.5,144.5C 104.302,141.906 103.302,138.906 103.5,135.5C 104.167,134.5 104.833,133.5 105.5,132.5 Z"/></g>
<g><path style="opacity:1" fill="#9da2ca" d="M 156.5,150.5 C 159.068,151.232 161.734,151.232 164.5,150.5C 165.239,150.369 165.906,150.536 166.5,151C 165.594,152.699 165.261,154.533 165.5,156.5C 164.357,156.908 163.357,157.575 162.5,158.5C 161.403,162.627 159.57,166.294 157,169.5C 153.658,171.354 150.824,173.687 148.5,176.5C 147.272,177.306 146.272,178.306 145.5,179.5C 145.5,178.5 145.5,177.5 145.5,176.5C 147.714,172.63 151.047,170.13 155.5,169C 155.167,168.667 154.833,168.333 154.5,168C 157.463,165.605 158.463,162.772 157.5,159.5C 160.04,158.639 162.04,156.972 163.5,154.5C 161.389,153.152 159.555,153.485 158,155.5C 156.833,154.333 155.667,153.167 154.5,152C 155.416,151.722 156.082,151.222 156.5,150.5 Z"/></g>
<g><path style="opacity:1" fill="#a7acd5" d="M 170.5,147.5 C 173.253,147.879 175.253,149.379 176.5,152C 182.093,152.087 187.093,153.753 191.5,157C 190.469,160.417 189.135,163.584 187.5,166.5C 185.776,169.345 184.442,172.345 183.5,175.5C 183.865,172.921 183.865,170.588 183.5,168.5C 184.901,165.366 186.568,162.366 188.5,159.5C 187.838,156.839 186.171,155.673 183.5,156C 181.959,157.579 180.792,159.413 180,161.5C 178.871,163.141 177.371,164.141 175.5,164.5C 174.895,162.519 173.895,162.185 172.5,163.5C 172.5,162.167 172.5,160.833 172.5,159.5C 171.766,158.292 171.433,156.959 171.5,155.5C 169.379,155.325 167.379,155.659 165.5,156.5C 165.261,154.533 165.594,152.699 166.5,151C 165.906,150.536 165.239,150.369 164.5,150.5C 164.908,149.357 165.575,148.357 166.5,147.5C 167.726,148.363 169.06,148.363 170.5,147.5 Z"/></g>
<g><path style="opacity:1" fill="#a5a6cc" d="M 121.5,148.5 C 123.61,150.105 125.61,151.938 127.5,154C 129.135,154.54 130.468,154.04 131.5,152.5C 133.729,153.577 136.063,154.244 138.5,154.5C 138.842,155.338 139.508,155.672 140.5,155.5C 140.453,158.568 139.953,161.568 139,164.5C 138.329,165.252 137.496,165.586 136.5,165.5C 130.189,162.008 124.189,158.008 118.5,153.5C 118.273,151.067 119.273,149.401 121.5,148.5 Z"/></g>
<g><path style="opacity:1" fill="#9fa1c7" d="M 163.5,141.5 C 163.5,141.833 163.5,142.167 163.5,142.5C 160.245,142.014 157.578,143.014 155.5,145.5C 152.577,147.961 152.911,149.628 156.5,150.5C 156.082,151.222 155.416,151.722 154.5,152C 155.667,153.167 156.833,154.333 158,155.5C 159.555,153.485 161.389,153.152 163.5,154.5C 162.04,156.972 160.04,158.639 157.5,159.5C 155.647,161.375 153.813,163.375 152,165.5C 151.667,164.167 151.333,162.833 151,161.5C 150.107,162.711 149.274,162.711 148.5,161.5C 149.641,160.575 149.641,159.741 148.5,159C 149.563,157.812 150.897,157.312 152.5,157.5C 151.62,155.389 151.62,153.389 152.5,151.5C 152.69,149.041 151.69,147.374 149.5,146.5C 150.705,145.328 150.705,143.995 149.5,142.5C 150.025,141.808 150.692,141.308 151.5,141C 155.459,141.158 159.459,141.325 163.5,141.5 Z"/></g>
<g><path style="opacity:1" fill="#a5afdb" d="M 74.5,145.5 C 72.8333,147.833 71.1667,150.167 69.5,152.5C 68.5041,152.586 67.6708,152.252 67,151.5C 66.5357,152.094 66.369,152.761 66.5,153.5C 66.6399,155.124 65.9733,156.29 64.5,157C 61.2397,157.784 58.0731,157.617 55,156.5C 54.5026,159.146 54.3359,161.813 54.5,164.5C 53.5206,161.375 53.1872,158.042 53.5,154.5C 54.5,153.167 55.5,151.833 56.5,150.5C 62.3304,148.449 68.3304,146.782 74.5,145.5 Z"/></g>
<g><path style="opacity:1" fill="#a0aadb" d="M 66.5,153.5 C 68.2535,154.925 69.9201,156.591 71.5,158.5C 72.7362,159.246 74.0695,159.579 75.5,159.5C 75.719,160.675 75.3857,161.675 74.5,162.5C 70.641,162.171 67.3076,160.838 64.5,158.5C 61.9512,162.292 61.9512,166.292 64.5,170.5C 63.8333,170.833 63.1667,171.167 62.5,171.5C 60.8228,170.813 59.1561,170.146 57.5,169.5C 57.4077,167.152 56.4077,165.486 54.5,164.5C 54.3359,161.813 54.5026,159.146 55,156.5C 58.0731,157.617 61.2397,157.784 64.5,157C 65.9733,156.29 66.6399,155.124 66.5,153.5 Z"/></g>
<g><path style="opacity:1" fill="#7c7ba3" d="M 115.5,153.5 C 116.5,153.5 117.5,153.5 118.5,153.5C 124.189,158.008 130.189,162.008 136.5,165.5C 137.091,166.151 137.757,166.818 138.5,167.5C 137.412,168.934 136.078,169.934 134.5,170.5C 134.167,170.5 133.833,170.5 133.5,170.5C 133.5,169.5 133.5,168.5 133.5,167.5C 132.448,167.351 131.448,167.517 130.5,168C 130.026,169.729 129.026,170.895 127.5,171.5C 120.724,167.964 115.391,169.297 111.5,175.5C 110.566,174.432 110.232,173.099 110.5,171.5C 114.896,166.358 116.563,160.358 115.5,153.5 Z"/></g>
<g><path style="opacity:1" fill="#9697b7" d="M 149.5,146.5 C 151.69,147.374 152.69,149.041 152.5,151.5C 149.748,154.558 147.081,157.725 144.5,161C 145.406,162.699 145.739,164.533 145.5,166.5C 142.771,167.389 140.771,169.223 139.5,172C 138.667,172.167 137.833,172.333 137,172.5C 135.624,172.316 134.791,171.649 134.5,170.5C 136.078,169.934 137.412,168.934 138.5,167.5C 137.757,166.818 137.091,166.151 136.5,165.5C 137.496,165.586 138.329,165.252 139,164.5C 139.953,161.568 140.453,158.568 140.5,155.5C 142.235,149.954 143.568,144.287 144.5,138.5C 145.409,139.318 145.909,140.984 146,143.5C 147.039,144.71 148.206,145.71 149.5,146.5 Z"/></g>
<g><path style="opacity:1" fill="#3f426f" d="M 86.5,157.5 C 91.1703,157.504 93.5037,159.837 93.5,164.5C 89.5828,165.637 85.5828,166.47 81.5,167C 80.7445,168.38 80.0778,168.547 79.5,167.5C 80.6005,166.395 81.2671,165.062 81.5,163.5C 83.6326,161.909 85.2993,159.909 86.5,157.5 Z"/></g>
<g><path style="opacity:1" fill="#b3c1f2" d="M 69.5,152.5 C 71.8169,153.942 73.9836,153.608 76,151.5C 76.4962,153.035 76.3295,154.535 75.5,156C 76.7424,157.651 77.5757,159.485 78,161.5C 79.1127,162.305 80.2794,162.972 81.5,163.5C 81.2671,165.062 80.6005,166.395 79.5,167.5C 78.5,167.833 77.8333,168.5 77.5,169.5C 76.8333,169.5 76.5,169.833 76.5,170.5C 75.3569,170.908 74.3569,171.575 73.5,172.5C 74.5063,173.396 74.5063,174.062 73.5,174.5C 67.9957,172.134 64.6624,168.134 63.5,162.5C 63.8457,161.151 64.179,159.817 64.5,158.5C 67.3076,160.838 70.641,162.171 74.5,162.5C 75.3857,161.675 75.719,160.675 75.5,159.5C 74.0695,159.579 72.7362,159.246 71.5,158.5C 69.9201,156.591 68.2535,154.925 66.5,153.5C 66.369,152.761 66.5357,152.094 67,151.5C 67.6708,152.252 68.5041,152.586 69.5,152.5 Z"/></g>
<g><path style="opacity:1" fill="#646b99" d="M 93.5,164.5 C 95.1788,164.285 96.1788,164.952 96.5,166.5C 91.1795,167.83 85.8462,169.163 80.5,170.5C 79.2739,170.48 78.2739,170.147 77.5,169.5C 77.8333,168.5 78.5,167.833 79.5,167.5C 80.0778,168.547 80.7445,168.38 81.5,167C 85.5828,166.47 89.5828,165.637 93.5,164.5 Z"/></g>
<g><path style="opacity:1" fill="#a6a7c9" d="M 170.5,145.5 C 172.937,145.886 174.937,147.053 176.5,149C 185.845,149.997 192.845,154.497 197.5,162.5C 196.489,166.199 196.489,169.866 197.5,173.5C 197.192,174.308 196.692,174.975 196,175.5C 195.825,180.019 195.325,184.353 194.5,188.5C 195.055,184.988 194.388,181.988 192.5,179.5C 191.209,178.527 191.209,177.527 192.5,176.5C 190.955,175.548 189.288,175.215 187.5,175.5C 188.112,172.304 188.112,169.304 187.5,166.5C 189.135,163.584 190.469,160.417 191.5,157C 187.093,153.753 182.093,152.087 176.5,152C 175.253,149.379 173.253,147.879 170.5,147.5C 170.5,146.833 170.5,146.167 170.5,145.5 Z"/></g>
<g><path style="opacity:1" fill="#9c9fc2" d="M 152.5,151.5 C 151.62,153.389 151.62,155.389 152.5,157.5C 150.897,157.312 149.563,157.812 148.5,159C 149.641,159.741 149.641,160.575 148.5,161.5C 149.274,162.711 150.107,162.711 151,161.5C 151.333,162.833 151.667,164.167 152,165.5C 153.813,163.375 155.647,161.375 157.5,159.5C 158.463,162.772 157.463,165.605 154.5,168C 154.833,168.333 155.167,168.667 155.5,169C 151.047,170.13 147.714,172.63 145.5,176.5C 146.118,172.652 146.118,169.319 145.5,166.5C 145.739,164.533 145.406,162.699 144.5,161C 147.081,157.725 149.748,154.558 152.5,151.5 Z"/></g>
<g><path style="opacity:1" fill="#a4aede" d="M 183.5,168.5 C 180.21,172.081 177.876,176.081 176.5,180.5C 175.606,175.099 175.272,169.766 175.5,164.5C 177.371,164.141 178.871,163.141 180,161.5C 180.792,159.413 181.959,157.579 183.5,156C 186.171,155.673 187.838,156.839 188.5,159.5C 186.568,162.366 184.901,165.366 183.5,168.5 Z"/></g>
<g><path style="opacity:1" fill="#bfc6e0" d="M 56.5,150.5 C 55.5,151.833 54.5,153.167 53.5,154.5C 49.9356,154.725 47.2689,156.392 45.5,159.5C 42.1567,160.099 39.1567,161.432 36.5,163.5C 35.3336,165.167 35.3336,166.834 36.5,168.5C 38.129,170.196 37.7957,171.196 35.5,171.5C 34.5944,169.086 32.9278,168.253 30.5,169C 27.8519,171.812 25.8519,174.979 24.5,178.5C 22.8984,182.239 21.8984,186.239 21.5,190.5C 21.5,191.167 21.1667,191.5 20.5,191.5C 20.3167,177.692 25.9834,167.192 37.5,160C 43.8144,156.733 50.1478,153.566 56.5,150.5 Z"/></g>
<g><path style="opacity:1" fill="#a1a1c3" d="M 86.5,151.5 C 87.5,151.833 88.1667,152.5 88.5,153.5C 89.9923,156.323 92.3257,157.99 95.5,158.5C 96.5676,159.434 97.901,159.768 99.5,159.5C 100.125,161.77 99.1248,162.104 96.5,160.5C 95.1667,161.167 95.1667,161.833 96.5,162.5C 99.3384,163.262 102.005,163.595 104.5,163.5C 104.423,164.75 103.756,165.583 102.5,166C 103.376,167.586 104.376,169.086 105.5,170.5C 105.054,172.368 104.721,174.201 104.5,176C 105.989,177.468 107.323,178.968 108.5,180.5C 107.16,184.915 104.327,186.581 100,185.5C 100.211,178.862 100.378,172.196 100.5,165.5C 99.209,165.263 98.209,165.596 97.5,166.5C 97.1667,166.5 96.8333,166.5 96.5,166.5C 96.1788,164.952 95.1788,164.285 93.5,164.5C 93.5037,159.837 91.1703,157.504 86.5,157.5C 86.9349,155.703 86.9349,153.703 86.5,151.5 Z"/></g>
<g><path style="opacity:1" fill="#9a92aa" d="M 115.5,153.5 C 116.563,160.358 114.896,166.358 110.5,171.5C 109.677,168.023 109.177,164.356 109,160.5C 108.667,160.167 108.333,159.833 108,159.5C 107.34,161.324 106.173,162.657 104.5,163.5C 102.005,163.595 99.3384,163.262 96.5,162.5C 95.1667,161.833 95.1667,161.167 96.5,160.5C 99.1248,162.104 100.125,161.77 99.5,159.5C 105.027,158.072 110.36,156.072 115.5,153.5 Z"/></g>
<g><path style="opacity:1" fill="#9897bc" d="M 110.5,171.5 C 110.232,173.099 110.566,174.432 111.5,175.5C 110.701,180.325 109.701,184.992 108.5,189.5C 108.5,188.5 108.5,187.5 108.5,186.5C 108.954,184.259 108.954,182.259 108.5,180.5C 107.323,178.968 105.989,177.468 104.5,176C 104.721,174.201 105.054,172.368 105.5,170.5C 104.376,169.086 103.376,167.586 102.5,166C 103.756,165.583 104.423,164.75 104.5,163.5C 106.173,162.657 107.34,161.324 108,159.5C 108.333,159.833 108.667,160.167 109,160.5C 109.177,164.356 109.677,168.023 110.5,171.5 Z"/></g>
<g><path style="opacity:1" fill="#a5b0e1" d="M 64.5,158.5 C 64.179,159.817 63.8457,161.151 63.5,162.5C 64.6624,168.134 67.9957,172.134 73.5,174.5C 74.5063,174.062 74.5063,173.396 73.5,172.5C 74.3569,171.575 75.3569,170.908 76.5,170.5C 76.5,171.5 76.5,172.5 76.5,173.5C 81.1971,172.276 86.0304,171.276 91,170.5C 92.7352,172.062 94.2352,173.729 95.5,175.5C 92.6322,174.983 89.9655,174.65 87.5,174.5C 87.2514,175.582 87.0848,176.915 87,178.5C 85.9887,179.337 84.8221,179.67 83.5,179.5C 83.2267,181.451 83.8934,182.951 85.5,184C 84.9558,184.717 84.2891,185.217 83.5,185.5C 81.265,185.682 79.265,185.015 77.5,183.5C 76.8333,183.833 76.1667,184.167 75.5,184.5C 74.0953,183.006 72.4287,182.006 70.5,181.5C 65.5138,178.179 61.1804,174.179 57.5,169.5C 59.1561,170.146 60.8228,170.813 62.5,171.5C 63.1667,171.167 63.8333,170.833 64.5,170.5C 61.9512,166.292 61.9512,162.292 64.5,158.5 Z"/></g>
<g><path style="opacity:1" fill="#a4a9d7" d="M 172.5,159.5 C 169.537,161.417 167.537,164.084 166.5,167.5C 166.209,166.351 165.376,165.684 164,165.5C 163.167,165.667 162.333,165.833 161.5,166C 156.856,170.445 154.356,175.612 154,181.5C 153.667,181.833 153.333,182.167 153,182.5C 152.167,181.5 151.333,180.5 150.5,179.5C 149.478,179.855 148.811,180.522 148.5,181.5C 147.833,181.833 147.167,182.167 146.5,182.5C 147.167,180.5 147.833,178.5 148.5,176.5C 150.824,173.687 153.658,171.354 157,169.5C 159.57,166.294 161.403,162.627 162.5,158.5C 163.357,157.575 164.357,156.908 165.5,156.5C 167.379,155.659 169.379,155.325 171.5,155.5C 171.433,156.959 171.766,158.292 172.5,159.5 Z"/></g>
<g><path style="opacity:1" fill="#b8b3ba" d="M 163.5,142.5 C 163.5,142.167 163.5,141.833 163.5,141.5C 173.025,144.508 182.358,148.008 191.5,152C 197.931,155.513 202.931,160.346 206.5,166.5C 211.784,187.533 215.784,208.866 218.5,230.5C 217.167,230.5 215.833,230.5 214.5,230.5C 214.821,224.974 214.488,219.64 213.5,214.5C 213.773,203.301 211.773,192.634 207.5,182.5C 207.466,176.828 206.466,171.328 204.5,166C 202.966,164.065 200.966,162.899 198.5,162.5C 198.167,162.5 197.833,162.5 197.5,162.5C 192.845,154.497 185.845,149.997 176.5,149C 174.937,147.053 172.937,145.886 170.5,145.5C 168.287,144.227 165.954,143.227 163.5,142.5 Z"/></g>
<g><path style="opacity:1" fill="#8089bd" d="M 96.5,166.5 C 96.8333,166.5 97.1667,166.5 97.5,166.5C 99.2809,169.183 99.7809,172.183 99,175.5C 98.0138,176.171 96.8471,176.171 95.5,175.5C 94.2352,173.729 92.7352,172.062 91,170.5C 86.0304,171.276 81.1971,172.276 76.5,173.5C 76.5,172.5 76.5,171.5 76.5,170.5C 76.5,169.833 76.8333,169.5 77.5,169.5C 78.2739,170.147 79.2739,170.48 80.5,170.5C 85.8462,169.163 91.1795,167.83 96.5,166.5 Z"/></g>
<g><path style="opacity:1" fill="#a6aee0" d="M 166.5,167.5 C 165.949,170.807 165.616,174.14 165.5,177.5C 164.857,179.076 163.857,180.41 162.5,181.5C 163.167,178.167 163.833,174.833 164.5,171.5C 162.712,171.215 161.045,171.548 159.5,172.5C 158.905,177.103 157.572,181.436 155.5,185.5C 154.808,184.975 154.308,184.308 154,183.5C 152.937,184.438 151.77,185.438 150.5,186.5C 149.702,186.043 149.369,185.376 149.5,184.5C 149.443,183.391 149.11,182.391 148.5,181.5C 148.811,180.522 149.478,179.855 150.5,179.5C 151.333,180.5 152.167,181.5 153,182.5C 153.333,182.167 153.667,181.833 154,181.5C 154.356,175.612 156.856,170.445 161.5,166C 162.333,165.833 163.167,165.667 164,165.5C 165.376,165.684 166.209,166.351 166.5,167.5 Z"/></g>
<g><path style="opacity:1" fill="#9ba0ca" d="M 172.5,159.5 C 172.5,160.833 172.5,162.167 172.5,163.5C 171.861,168.003 171.194,172.503 170.5,177C 171,177.5 171.5,178 172,178.5C 173.002,187.302 172.502,195.969 170.5,204.5C 169.671,197.679 169.171,190.679 169,183.5C 167.871,185.141 166.371,186.141 164.5,186.5C 165.159,183.545 165.492,180.545 165.5,177.5C 165.616,174.14 165.949,170.807 166.5,167.5C 167.537,164.084 169.537,161.417 172.5,159.5 Z"/></g>
<g><path style="opacity:1" fill="#9e9fc0" d="M 145.5,166.5 C 146.118,169.319 146.118,172.652 145.5,176.5C 145.5,177.5 145.5,178.5 145.5,179.5C 144.883,179.611 144.383,179.944 144,180.5C 143.202,183.893 142.202,187.226 141,190.5C 139.989,191.337 138.822,191.67 137.5,191.5C 137.167,191.5 136.833,191.5 136.5,191.5C 137.198,185.378 136.198,179.712 133.5,174.5C 133.5,173.167 133.5,171.833 133.5,170.5C 133.833,170.5 134.167,170.5 134.5,170.5C 134.791,171.649 135.624,172.316 137,172.5C 137.833,172.333 138.667,172.167 139.5,172C 140.771,169.223 142.771,167.389 145.5,166.5 Z"/></g>
<g><path style="opacity:1" fill="#adb7e6" d="M 53.5,154.5 C 53.1872,158.042 53.5206,161.375 54.5,164.5C 56.4077,165.486 57.4077,167.152 57.5,169.5C 61.1804,174.179 65.5138,178.179 70.5,181.5C 72.3691,183.33 74.2025,185.33 76,187.5C 76.4935,189.134 76.6602,190.801 76.5,192.5C 78.8056,192.007 81.139,191.674 83.5,191.5C 83.5674,192.959 83.2341,194.292 82.5,195.5C 81.391,195.557 80.391,195.89 79.5,196.5C 79.44,195.957 79.1067,195.624 78.5,195.5C 77.483,197.837 75.8163,199.504 73.5,200.5C 72.3192,198.865 72.3192,197.198 73.5,195.5C 72.5754,194.438 71.5754,194.438 70.5,195.5C 70.5106,193.983 71.1772,192.816 72.5,192C 70.8891,183.89 66.2224,178.39 58.5,175.5C 56.9212,172.753 55.5879,169.753 54.5,166.5C 51.8124,165.541 49.4791,164.041 47.5,162C 45.9343,161.235 44.6009,161.402 43.5,162.5C 42.5041,162.414 41.6708,162.748 41,163.5C 40.5017,166.817 40.335,170.15 40.5,173.5C 39.5149,171.494 38.1816,169.827 36.5,168.5C 35.3336,166.834 35.3336,165.167 36.5,163.5C 39.1567,161.432 42.1567,160.099 45.5,159.5C 47.2689,156.392 49.9356,154.725 53.5,154.5 Z"/></g>
<g><path style="opacity:1" fill="#b4c0ef" d="M 43.5,162.5 C 44.6009,161.402 45.9343,161.235 47.5,162C 49.4791,164.041 51.8124,165.541 54.5,166.5C 55.5879,169.753 56.9212,172.753 58.5,175.5C 59.5,176.833 60.5,178.167 61.5,179.5C 62.1608,181.887 61.6608,184.22 60,186.5C 59.5172,185.552 59.3505,184.552 59.5,183.5C 57.8333,183.5 56.1667,183.5 54.5,183.5C 53.2341,180.699 52.4008,177.699 52,174.5C 51.6174,173.944 51.1174,173.611 50.5,173.5C 49.1522,171.641 47.9855,169.641 47,167.5C 46.3292,166.748 45.4959,166.414 44.5,166.5C 44.7678,164.901 44.4345,163.568 43.5,162.5 Z"/></g>
<g><path style="opacity:1" fill="#b4c0ed" d="M 58.5,175.5 C 66.2224,178.39 70.8891,183.89 72.5,192C 71.1772,192.816 70.5106,193.983 70.5,195.5C 69.624,200.711 66.624,204.044 61.5,205.5C 59.3385,208.494 56.8385,211.161 54,213.5C 51.3101,219.344 48.4768,225.011 45.5,230.5C 43.8333,230.5 42.1667,230.5 40.5,230.5C 40.5,226.833 40.5,223.167 40.5,219.5C 41.3413,218.991 41.8413,219.657 42,221.5C 42.4998,212.84 42.6664,204.173 42.5,195.5C 43.1829,198.527 44.1829,201.527 45.5,204.5C 45.3918,205.442 45.0585,206.275 44.5,207C 46.0412,208.579 47.2078,210.413 48,212.5C 48.6667,208.5 49.3333,208.5 50,212.5C 51.7884,210.977 51.9551,209.31 50.5,207.5C 54.4896,208.384 57.3229,207.051 59,203.5C 59.089,199.972 59.7556,196.638 61,193.5C 61.3599,195.608 62.0266,197.608 63,199.5C 64.6667,199.167 66.3333,198.833 68,198.5C 68.2565,195.443 68.7565,192.443 69.5,189.5C 68.3446,188.05 66.8446,187.05 65,186.5C 64.5779,184.645 64.0779,182.811 63.5,181C 63.1639,179.97 62.4972,179.47 61.5,179.5C 60.5,178.167 59.5,176.833 58.5,175.5 Z"/></g>
<g><path style="opacity:1" fill="#aab4e9" d="M 95.5,175.5 C 97.6088,177.122 98.6088,179.288 98.5,182C 96.9673,183.019 95.9673,185.519 95.5,189.5C 94.7582,186.45 92.7582,184.783 89.5,184.5C 87.6055,186.486 85.6055,186.819 83.5,185.5C 84.2891,185.217 84.9558,184.717 85.5,184C 83.8934,182.951 83.2267,181.451 83.5,179.5C 84.8221,179.67 85.9887,179.337 87,178.5C 87.0848,176.915 87.2514,175.582 87.5,174.5C 89.9655,174.65 92.6322,174.983 95.5,175.5 Z"/></g>
<g><path style="opacity:1" fill="#9fa7d5" d="M 43.5,162.5 C 44.4345,163.568 44.7678,164.901 44.5,166.5C 44.3433,167.873 44.51,169.207 45,170.5C 49.8826,176.261 51.716,182.928 50.5,190.5C 49.1266,190.343 47.7932,190.51 46.5,191C 47.7383,191.69 47.7383,192.19 46.5,192.5C 45.0689,192.119 44.2355,191.119 44,189.5C 42.9325,184.134 41.7658,178.801 40.5,173.5C 40.335,170.15 40.5017,166.817 41,163.5C 41.6708,162.748 42.5041,162.414 43.5,162.5 Z"/></g>
<g><path style="opacity:1" fill="#b4c0ee" d="M 50.5,173.5 C 51.1174,173.611 51.6174,173.944 52,174.5C 52.4008,177.699 53.2341,180.699 54.5,183.5C 56.1667,183.5 57.8333,183.5 59.5,183.5C 59.3505,184.552 59.5172,185.552 60,186.5C 61.6608,184.22 62.1608,181.887 61.5,179.5C 62.4972,179.47 63.1639,179.97 63.5,181C 64.0779,182.811 64.5779,184.645 65,186.5C 66.8446,187.05 68.3446,188.05 69.5,189.5C 68.7565,192.443 68.2565,195.443 68,198.5C 66.3333,198.833 64.6667,199.167 63,199.5C 62.0266,197.608 61.3599,195.608 61,193.5C 59.7556,196.638 59.089,199.972 59,203.5C 57.3229,207.051 54.4896,208.384 50.5,207.5C 52.6633,202.238 53.9966,196.738 54.5,191C 53.7117,187.924 53.2117,184.758 53,181.5C 52.6174,180.944 52.1174,180.611 51.5,180.5C 51.552,178.097 51.2186,175.764 50.5,173.5 Z"/></g>
<g><path style="opacity:1" fill="#9ba1c9" d="M 127.5,171.5 C 127.719,172.675 127.386,173.675 126.5,174.5C 121.078,176.675 118.745,180.675 119.5,186.5C 118.527,185.209 117.527,185.209 116.5,186.5C 116.167,185.667 115.833,184.833 115.5,184C 116.426,180.861 116.592,177.694 116,174.5C 114.644,175.38 113.144,175.714 111.5,175.5C 115.391,169.297 120.724,167.964 127.5,171.5 Z"/></g>
<g><path style="opacity:1" fill="#919dcf" d="M 39.5,181.5 C 40.9813,186.012 41.648,190.678 41.5,195.5C 41.8076,197.924 41.4742,200.257 40.5,202.5C 39.1758,198.46 38.1758,194.46 37.5,190.5C 36.818,186.802 35.318,183.469 33,180.5C 32.0033,177.199 31.6699,173.866 32,170.5C 32.4709,172.246 33.1376,173.913 34,175.5C 36.7773,176.771 38.6106,178.771 39.5,181.5 Z"/></g>
<g><path style="opacity:1" fill="#b4bff4" d="M 183.5,168.5 C 183.865,170.588 183.865,172.921 183.5,175.5C 183.5,176.167 183.5,176.833 183.5,177.5C 182.883,177.611 182.383,177.944 182,178.5C 179.629,188.057 178.129,197.723 177.5,207.5C 176.467,210.986 175.633,214.653 175,218.5C 173.513,219.741 172.68,219.241 172.5,217C 173.498,204.627 174.831,192.46 176.5,180.5C 177.876,176.081 180.21,172.081 183.5,168.5 Z"/></g>
<g><path style="opacity:1" fill="#b2beed" d="M 35.5,171.5 C 36.2512,173.713 37.4179,175.713 39,177.5C 39.49,178.793 39.6567,180.127 39.5,181.5C 38.6106,178.771 36.7773,176.771 34,175.5C 33.1376,173.913 32.4709,172.246 32,170.5C 31.6699,173.866 32.0033,177.199 33,180.5C 35.318,183.469 36.818,186.802 37.5,190.5C 37.7678,192.099 37.4345,193.432 36.5,194.5C 36.6495,193.448 36.4828,192.448 36,191.5C 34.4284,193.563 32.595,194.229 30.5,193.5C 35.3024,190.901 35.8024,187.568 32,183.5C 30.9207,185.394 29.5874,185.727 28,184.5C 27.4177,187.668 26.4177,188.001 25,185.5C 24.5034,183.19 24.3367,180.857 24.5,178.5C 25.8519,174.979 27.8519,171.812 30.5,169C 32.9278,168.253 34.5944,169.086 35.5,171.5 Z"/></g>
<g><path style="opacity:1" fill="#abb4e7" d="M 162.5,181.5 C 160.165,183.694 158.332,186.361 157,189.5C 156.085,188.672 155.419,187.672 155,186.5C 153.819,190.891 152.486,195.224 151,199.5C 150.333,196.833 149.667,196.833 149,199.5C 148.362,198.391 147.862,197.225 147.5,196C 148.758,193.815 148.758,191.648 147.5,189.5C 148.028,187.664 148.694,185.997 149.5,184.5C 149.369,185.376 149.702,186.043 150.5,186.5C 151.77,185.438 152.937,184.438 154,183.5C 154.308,184.308 154.808,184.975 155.5,185.5C 157.572,181.436 158.905,177.103 159.5,172.5C 161.045,171.548 162.712,171.215 164.5,171.5C 163.833,174.833 163.167,178.167 162.5,181.5 Z"/></g>
<g><path style="opacity:1" fill="#a19ead" d="M 198.5,162.5 C 200.966,162.899 202.966,164.065 204.5,166C 206.466,171.328 207.466,176.828 207.5,182.5C 206.778,182.082 206.278,181.416 206,180.5C 202.645,185.057 201.478,190.057 202.5,195.5C 202.243,197.692 201.243,199.359 199.5,200.5C 199.305,196.453 199.638,192.453 200.5,188.5C 200.132,186.825 199.132,185.825 197.5,185.5C 199.898,180.084 199.898,174.917 197.5,170C 199.262,167.597 199.595,165.097 198.5,162.5 Z"/></g>
<g><path style="opacity:1" fill="#a6addc" d="M 133.5,170.5 C 133.5,171.833 133.5,173.167 133.5,174.5C 133.013,175.473 132.513,176.473 132,177.5C 129.833,178.488 128,179.821 126.5,181.5C 125.811,184.189 124.144,185.856 121.5,186.5C 121.649,185.448 121.483,184.448 121,183.5C 120.768,184.737 120.268,185.737 119.5,186.5C 118.745,180.675 121.078,176.675 126.5,174.5C 127.386,173.675 127.719,172.675 127.5,171.5C 129.026,170.895 130.026,169.729 130.5,168C 131.448,167.517 132.448,167.351 133.5,167.5C 133.5,168.5 133.5,169.5 133.5,170.5 Z"/></g>
<g><path style="opacity:1" fill="#b8b0ab" d="M 206.5,166.5 C 210.054,173.007 212.554,180.007 214,187.5C 215.763,201.949 217.93,216.282 220.5,230.5C 219.833,230.5 219.167,230.5 218.5,230.5C 215.784,208.866 211.784,187.533 206.5,166.5 Z"/></g>
<g><path style="opacity:1" fill="#a3a6c9" d="M 126.5,181.5 C 127.5,181.5 128.5,181.5 129.5,181.5C 129.309,184.983 128.643,188.316 127.5,191.5C 127.029,193.579 126.363,195.579 125.5,197.5C 123.374,201.464 120.207,204.13 116,205.5C 113.361,208.914 111.527,212.58 110.5,216.5C 109.761,216.631 109.094,216.464 108.5,216C 109.928,213.217 111.262,210.383 112.5,207.5C 115.066,204.079 118.232,201.412 122,199.5C 122.233,197.22 123.066,195.22 124.5,193.5C 124,192.5 123.5,191.5 123,190.5C 121.117,191.653 120.284,193.319 120.5,195.5C 117.5,196.833 114.5,198.167 111.5,199.5C 111.5,198.167 111.5,196.833 111.5,195.5C 112.552,195.649 113.552,195.483 114.5,195C 116.208,192.957 118.208,191.29 120.5,190C 121.337,188.989 121.67,187.822 121.5,186.5C 124.144,185.856 125.811,184.189 126.5,181.5 Z"/></g>
<g><path style="opacity:1" fill="#aab1de" d="M 165.5,177.5 C 165.492,180.545 165.159,183.545 164.5,186.5C 163.833,186.833 163.167,187.167 162.5,187.5C 160.273,188.401 159.273,190.067 159.5,192.5C 157.856,192.286 156.356,192.62 155,193.5C 154.767,195.78 153.934,197.78 152.5,199.5C 152.709,200.086 153.043,200.586 153.5,201C 152.244,201.417 151.577,202.25 151.5,203.5C 149.926,203.937 148.759,204.937 148,206.5C 145.372,198.703 144.872,190.703 146.5,182.5C 147.167,182.167 147.833,181.833 148.5,181.5C 149.11,182.391 149.443,183.391 149.5,184.5C 148.694,185.997 148.028,187.664 147.5,189.5C 148.758,191.648 148.758,193.815 147.5,196C 147.862,197.225 148.362,198.391 149,199.5C 149.667,196.833 150.333,196.833 151,199.5C 152.486,195.224 153.819,190.891 155,186.5C 155.419,187.672 156.085,188.672 157,189.5C 158.332,186.361 160.165,183.694 162.5,181.5C 163.857,180.41 164.857,179.076 165.5,177.5 Z"/></g>
<g><path style="opacity:1" fill="#abb6e5" d="M 70.5,181.5 C 72.4287,182.006 74.0953,183.006 75.5,184.5C 76.1667,184.167 76.8333,183.833 77.5,183.5C 79.265,185.015 81.265,185.682 83.5,185.5C 85.6055,186.819 87.6055,186.486 89.5,184.5C 92.7582,184.783 94.7582,186.45 95.5,189.5C 93.9254,191.114 93.2587,193.114 93.5,195.5C 92.2963,198.138 90.6296,200.471 88.5,202.5C 88.4208,201.07 88.7542,199.736 89.5,198.5C 88.6798,196.889 87.3464,196.222 85.5,196.5C 85.067,199.166 84.567,201.832 84,204.5C 80.0141,210.143 75.1808,214.81 69.5,218.5C 70.0656,216.922 71.0656,215.588 72.5,214.5C 73.4519,212.955 73.7852,211.288 73.5,209.5C 76.7067,208.974 79.2067,207.308 81,204.5C 82.4191,202.121 83.5858,199.621 84.5,197C 84.1639,195.97 83.4972,195.47 82.5,195.5C 83.2341,194.292 83.5674,192.959 83.5,191.5C 81.139,191.674 78.8056,192.007 76.5,192.5C 76.6602,190.801 76.4935,189.134 76,187.5C 74.2025,185.33 72.3691,183.33 70.5,181.5 Z"/></g>
<g><path style="opacity:1" fill="#a7a4be" d="M 197.5,162.5 C 197.833,162.5 198.167,162.5 198.5,162.5C 199.595,165.097 199.262,167.597 197.5,170C 199.898,174.917 199.898,180.084 197.5,185.5C 194.749,200.429 192.415,215.429 190.5,230.5C 189.5,230.5 188.5,230.5 187.5,230.5C 189.184,225.324 189.85,219.991 189.5,214.5C 189.5,214.167 189.5,213.833 189.5,213.5C 190.778,205.208 192.445,196.875 194.5,188.5C 195.325,184.353 195.825,180.019 196,175.5C 196.692,174.975 197.192,174.308 197.5,173.5C 196.489,169.866 196.489,166.199 197.5,162.5 Z"/></g>
<g><path style="opacity:1" fill="#a7b1e2" d="M 24.5,178.5 C 24.3367,180.857 24.5034,183.19 25,185.5C 26.4177,188.001 27.4177,187.668 28,184.5C 29.5874,185.727 30.9207,185.394 32,183.5C 35.8024,187.568 35.3024,190.901 30.5,193.5C 32.595,194.229 34.4284,193.563 36,191.5C 36.4828,192.448 36.6495,193.448 36.5,194.5C 35.1347,197.78 34.1347,201.114 33.5,204.5C 31.9071,202.342 30.0738,200.342 28,198.5C 28.6012,207.487 30.7679,216.154 34.5,224.5C 34.0234,225.931 33.3567,227.264 32.5,228.5C 30.3679,224.27 28.7013,219.937 27.5,215.5C 27.1156,210.963 25.9489,206.629 24,202.5C 23.6667,197.5 23.3333,192.5 23,187.5C 22.7679,188.737 22.2679,189.737 21.5,190.5C 21.8984,186.239 22.8984,182.239 24.5,178.5 Z"/></g>
<g><path style="opacity:1" fill="#a6afde" d="M 44.5,166.5 C 45.4959,166.414 46.3292,166.748 47,167.5C 47.9855,169.641 49.1522,171.641 50.5,173.5C 51.2186,175.764 51.552,178.097 51.5,180.5C 51.8905,187.921 51.3905,195.254 50,202.5C 49.6667,202.833 49.3333,203.167 49,203.5C 48.7051,201.069 47.5384,199.236 45.5,198C 46.4061,196.301 46.7394,194.467 46.5,192.5C 47.7383,192.19 47.7383,191.69 46.5,191C 47.7932,190.51 49.1266,190.343 50.5,190.5C 51.716,182.928 49.8826,176.261 45,170.5C 44.51,169.207 44.3433,167.873 44.5,166.5 Z"/></g>
<g><path style="opacity:1" fill="#a1a9d8" d="M 97.5,166.5 C 98.209,165.596 99.209,165.263 100.5,165.5C 100.378,172.196 100.211,178.862 100,185.5C 104.327,186.581 107.16,184.915 108.5,180.5C 108.954,182.259 108.954,184.259 108.5,186.5C 107.883,186.389 107.383,186.056 107,185.5C 104,188.167 101,190.833 98,193.5C 97.1588,196.628 96.3254,199.628 95.5,202.5C 95.4968,200.377 94.8301,198.044 93.5,195.5C 93.2587,193.114 93.9254,191.114 95.5,189.5C 95.9673,185.519 96.9673,183.019 98.5,182C 98.6088,179.288 97.6088,177.122 95.5,175.5C 96.8471,176.171 98.0138,176.171 99,175.5C 99.7809,172.183 99.2809,169.183 97.5,166.5 Z"/></g>
<g><path style="opacity:1" fill="#a7aed9" d="M 119.5,186.5 C 120.268,185.737 120.768,184.737 121,183.5C 121.483,184.448 121.649,185.448 121.5,186.5C 121.67,187.822 121.337,188.989 120.5,190C 118.208,191.29 116.208,192.957 114.5,195C 113.552,195.483 112.552,195.649 111.5,195.5C 111.5,196.833 111.5,198.167 111.5,199.5C 110.533,200.806 109.199,201.473 107.5,201.5C 107.505,197.466 107.838,193.466 108.5,189.5C 109.701,184.992 110.701,180.325 111.5,175.5C 113.144,175.714 114.644,175.38 116,174.5C 116.592,177.694 116.426,180.861 115.5,184C 115.833,184.833 116.167,185.667 116.5,186.5C 117.527,185.209 118.527,185.209 119.5,186.5 Z"/></g>
<g><path style="opacity:1" fill="#b0b8e8" d="M 131.5,207.5 C 128.818,210.692 126.985,214.359 126,218.5C 124.795,217.929 123.628,217.262 122.5,216.5C 125.799,208.512 127.799,200.178 128.5,191.5C 129.679,187.791 131.012,184.125 132.5,180.5C 136.378,190 136.045,199 131.5,207.5 Z"/></g>
<g><path style="opacity:1" fill="#9f9db9" d="M 164.5,223.5 C 162.256,224.93 159.756,225.93 157,226.5C 156.833,226.167 156.667,225.833 156.5,225.5C 157.689,224.571 159.022,224.238 160.5,224.5C 160.5,222.833 160.5,221.167 160.5,219.5C 163.39,219.473 164.39,218.307 163.5,216C 164.167,213 164.833,210 165.5,207C 164.667,206.833 163.833,206.667 163,206.5C 160.096,207.31 157.262,207.643 154.5,207.5C 152.719,210.956 151.719,214.622 151.5,218.5C 152.452,220.112 152.786,221.612 152.5,223C 151.906,223.464 151.239,223.631 150.5,223.5C 150.018,220.698 149.684,217.865 149.5,215C 151.203,211.077 152.203,206.911 152.5,202.5C 157.613,204.264 160.279,202.264 160.5,196.5C 161.268,197.263 161.768,198.263 162,199.5C 162.253,196.21 163.253,193.21 165,190.5C 165.324,195.754 166.158,200.921 167.5,206C 166.621,211.867 165.621,217.7 164.5,223.5 Z"/></g>
<g><path style="opacity:1" fill="#a2a4cc" d="M 183.5,177.5 C 181.302,187.026 180.302,196.692 180.5,206.5C 180.276,210.179 179.942,213.846 179.5,217.5C 178.592,221.758 177.925,226.092 177.5,230.5C 176.833,230.5 176.167,230.5 175.5,230.5C 175.645,222.781 176.311,215.114 177.5,207.5C 178.129,197.723 179.629,188.057 182,178.5C 182.383,177.944 182.883,177.611 183.5,177.5 Z"/></g>
<g><path style="opacity:1" fill="#8382a7" d="M 187.5,166.5 C 188.112,169.304 188.112,172.304 187.5,175.5C 186.186,185.262 185.352,195.262 185,205.5C 184.308,206.025 183.808,206.692 183.5,207.5C 185.26,210.212 185.927,213.212 185.5,216.5C 187.199,216.473 188.533,215.806 189.5,214.5C 189.85,219.991 189.184,225.324 187.5,230.5C 187.167,230.5 186.833,230.5 186.5,230.5C 186.66,228.801 186.494,227.134 186,225.5C 181.763,223.214 180.597,219.88 182.5,215.5C 183.391,214.739 184.058,213.739 184.5,212.5C 182.646,210.776 181.312,208.776 180.5,206.5C 180.302,196.692 181.302,187.026 183.5,177.5C 183.5,176.833 183.5,176.167 183.5,175.5C 184.442,172.345 185.776,169.345 187.5,166.5 Z"/></g>
<g><path style="opacity:1" fill="#9b9ec8" d="M 187.5,175.5 C 189.288,175.215 190.955,175.548 192.5,176.5C 191.209,177.527 191.209,178.527 192.5,179.5C 192.074,182.063 191.074,184.397 189.5,186.5C 190.479,192.308 189.812,197.974 187.5,203.5C 187.919,204.672 188.585,205.672 189.5,206.5C 188.5,208.5 187.5,210.5 186.5,212.5C 187.472,212.593 188.472,212.926 189.5,213.5C 189.5,213.833 189.5,214.167 189.5,214.5C 188.533,215.806 187.199,216.473 185.5,216.5C 185.927,213.212 185.26,210.212 183.5,207.5C 183.808,206.692 184.308,206.025 185,205.5C 185.352,195.262 186.186,185.262 187.5,175.5 Z"/></g>
<g><path style="opacity:1" fill="#a9b3de" d="M 79.5,196.5 C 79.67,197.822 79.3366,198.989 78.5,200C 75.9221,202.207 73.0887,204.04 70,205.5C 68.8687,204.396 68.0354,204.729 67.5,206.5C 68.6293,208.529 68.1293,208.863 66,207.5C 63.7963,212.884 62.963,218.551 63.5,224.5C 64.5,224.5 65.5,224.5 66.5,224.5C 66.7413,226.886 66.0746,228.886 64.5,230.5C 63.1667,230.5 61.8333,230.5 60.5,230.5C 61.0306,225.28 61.6973,220.113 62.5,215C 62.1667,214.833 61.8333,214.667 61.5,214.5C 58.9952,216.506 56.6619,218.672 54.5,221C 53.6328,224.105 53.2994,227.272 53.5,230.5C 50.8333,230.5 48.1667,230.5 45.5,230.5C 48.4768,225.011 51.3101,219.344 54,213.5C 56.8385,211.161 59.3385,208.494 61.5,205.5C 66.624,204.044 69.624,200.711 70.5,195.5C 71.5754,194.438 72.5754,194.438 73.5,195.5C 72.3192,197.198 72.3192,198.865 73.5,200.5C 75.8163,199.504 77.483,197.837 78.5,195.5C 79.1067,195.624 79.44,195.957 79.5,196.5 Z"/></g>
<g><path style="opacity:1" fill="#9f9fc2" d="M 170.5,204.5 C 169.799,213.158 169.132,221.825 168.5,230.5C 165.5,230.5 162.5,230.5 159.5,230.5C 161.157,227.404 163.824,225.737 167.5,225.5C 166.643,224.575 165.643,223.908 164.5,223.5C 165.621,217.7 166.621,211.867 167.5,206C 166.158,200.921 165.324,195.754 165,190.5C 163.253,193.21 162.253,196.21 162,199.5C 161.768,198.263 161.268,197.263 160.5,196.5C 161.776,193.664 162.442,190.664 162.5,187.5C 163.167,187.167 163.833,186.833 164.5,186.5C 166.371,186.141 167.871,185.141 169,183.5C 169.171,190.679 169.671,197.679 170.5,204.5 Z"/></g>
<g><path style="opacity:1" fill="#a2a3c6" d="M 213.5,214.5 C 214.488,219.64 214.821,224.974 214.5,230.5C 211.167,230.5 207.833,230.5 204.5,230.5C 205.027,215.407 205.194,200.407 205,185.5C 205.333,185.167 205.667,184.833 206,184.5C 207.275,186.717 208.275,189.051 209,191.5C 210.372,199.299 211.872,206.965 213.5,214.5 Z"/></g>
<g><path style="opacity:1" fill="#b1bdeb" d="M 36.5,168.5 C 38.1816,169.827 39.5149,171.494 40.5,173.5C 41.7658,178.801 42.9325,184.134 44,189.5C 44.2355,191.119 45.0689,192.119 46.5,192.5C 46.7394,194.467 46.4061,196.301 45.5,198C 47.5384,199.236 48.7051,201.069 49,203.5C 49.3333,203.167 49.6667,202.833 50,202.5C 51.3905,195.254 51.8905,187.921 51.5,180.5C 52.1174,180.611 52.6174,180.944 53,181.5C 53.2117,184.758 53.7117,187.924 54.5,191C 53.9966,196.738 52.6633,202.238 50.5,207.5C 51.9551,209.31 51.7884,210.977 50,212.5C 49.3333,208.5 48.6667,208.5 48,212.5C 47.2078,210.413 46.0412,208.579 44.5,207C 45.0585,206.275 45.3918,205.442 45.5,204.5C 44.1829,201.527 43.1829,198.527 42.5,195.5C 42.1667,195.5 41.8333,195.5 41.5,195.5C 41.648,190.678 40.9813,186.012 39.5,181.5C 39.6567,180.127 39.49,178.793 39,177.5C 37.4179,175.713 36.2512,173.713 35.5,171.5C 37.7957,171.196 38.129,170.196 36.5,168.5 Z"/></g>
<g><path style="opacity:1" fill="#abafd7" d="M 136.5,191.5 C 136.833,191.5 137.167,191.5 137.5,191.5C 138.045,194.813 138.545,198.146 139,201.5C 145.745,208.142 147.579,215.808 144.5,224.5C 143.094,224.027 142.427,223.027 142.5,221.5C 140.47,217.483 138.47,213.483 136.5,209.5C 136.753,203.753 136.753,197.753 136.5,191.5 Z"/></g>
<g><path style="opacity:1" fill="#8e899b" d="M 197.5,185.5 C 199.132,185.825 200.132,186.825 200.5,188.5C 199.638,192.453 199.305,196.453 199.5,200.5C 198.975,210.778 197.308,220.778 194.5,230.5C 193.167,230.5 191.833,230.5 190.5,230.5C 192.415,215.429 194.749,200.429 197.5,185.5 Z"/></g>
<g><path style="opacity:1" fill="#9c99b1" d="M 207.5,182.5 C 211.773,192.634 213.773,203.301 213.5,214.5C 211.872,206.965 210.372,199.299 209,191.5C 208.275,189.051 207.275,186.717 206,184.5C 205.667,184.833 205.333,185.167 205,185.5C 205.194,200.407 205.027,215.407 204.5,230.5C 201.167,230.5 197.833,230.5 194.5,230.5C 197.308,220.778 198.975,210.778 199.5,200.5C 201.243,199.359 202.243,197.692 202.5,195.5C 201.478,190.057 202.645,185.057 206,180.5C 206.278,181.416 206.778,182.082 207.5,182.5 Z"/></g>
<g><path style="opacity:1" fill="#aab2e5" d="M 108.5,186.5 C 108.5,187.5 108.5,188.5 108.5,189.5C 107.838,193.466 107.505,197.466 107.5,201.5C 107.5,203.5 107.5,205.5 107.5,207.5C 106.898,210.142 105.564,212.475 103.5,214.5C 104.326,215.451 104.492,216.451 104,217.5C 98.3211,219.026 96.1545,222.692 97.5,228.5C 100.513,228.893 103.18,228.226 105.5,226.5C 105.5,227.833 105.5,229.167 105.5,230.5C 101.167,230.5 96.8333,230.5 92.5,230.5C 92.7837,227.368 93.617,224.368 95,221.5C 95.4995,215.175 95.6662,208.842 95.5,202.5C 96.3254,199.628 97.1588,196.628 98,193.5C 101,190.833 104,188.167 107,185.5C 107.383,186.056 107.883,186.389 108.5,186.5 Z"/></g>
<g><path style="opacity:1" fill="#999bbc" d="M 110.5,216.5 C 110.5,217.167 110.5,217.833 110.5,218.5C 108.883,220.121 107.716,222.121 107,224.5C 106.601,224.272 106.435,223.938 106.5,223.5C 106.833,218.167 107.167,212.833 107.5,207.5C 107.5,205.5 107.5,203.5 107.5,201.5C 109.199,201.473 110.533,200.806 111.5,199.5C 114.5,198.167 117.5,196.833 120.5,195.5C 120.284,193.319 121.117,191.653 123,190.5C 123.5,191.5 124,192.5 124.5,193.5C 123.066,195.22 122.233,197.22 122,199.5C 118.232,201.412 115.066,204.079 112.5,207.5C 111.262,210.383 109.928,213.217 108.5,216C 109.094,216.464 109.761,216.631 110.5,216.5 Z"/></g>
<g><path style="opacity:1" fill="#a6a9d0" d="M 148.5,176.5 C 147.833,178.5 147.167,180.5 146.5,182.5C 144.872,190.703 145.372,198.703 148,206.5C 148.759,204.937 149.926,203.937 151.5,203.5C 151.649,204.552 151.483,205.552 151,206.5C 149.488,207.257 148.154,208.257 147,209.5C 147.418,214.465 147.418,219.465 147,224.5C 146.023,225.774 145.189,225.774 144.5,224.5C 147.579,215.808 145.745,208.142 139,201.5C 138.545,198.146 138.045,194.813 137.5,191.5C 138.822,191.67 139.989,191.337 141,190.5C 142.202,187.226 143.202,183.893 144,180.5C 144.383,179.944 144.883,179.611 145.5,179.5C 146.272,178.306 147.272,177.306 148.5,176.5 Z"/></g>
<g><path style="opacity:1" fill="#adb0db" d="M 192.5,179.5 C 194.388,181.988 195.055,184.988 194.5,188.5C 192.445,196.875 190.778,205.208 189.5,213.5C 188.472,212.926 187.472,212.593 186.5,212.5C 187.5,210.5 188.5,208.5 189.5,206.5C 188.585,205.672 187.919,204.672 187.5,203.5C 189.812,197.974 190.479,192.308 189.5,186.5C 191.074,184.397 192.074,182.063 192.5,179.5 Z"/></g>
<g><path style="opacity:1" fill="#a9aed6" d="M 125.5,197.5 C 123.937,201.661 123.271,205.995 123.5,210.5C 121.425,210.302 119.425,210.135 117.5,210C 117.833,210.333 118.167,210.667 118.5,211C 115.994,212.507 114.328,214.673 113.5,217.5C 112.583,218.127 111.583,218.461 110.5,218.5C 110.5,217.833 110.5,217.167 110.5,216.5C 111.527,212.58 113.361,208.914 116,205.5C 120.207,204.13 123.374,201.464 125.5,197.5 Z"/></g>
<g><path style="opacity:1" fill="#a8aed9" d="M 133.5,174.5 C 136.198,179.712 137.198,185.378 136.5,191.5C 136.753,197.753 136.753,203.753 136.5,209.5C 135.778,209.082 135.278,208.416 135,207.5C 134.581,208.672 133.915,209.672 133,210.5C 132.667,215.167 132.333,219.833 132,224.5C 130.215,225.24 128.382,225.907 126.5,226.5C 125.808,225.975 125.308,225.308 125,224.5C 123.853,226.819 122.019,228.152 119.5,228.5C 121.102,224.991 123.602,223.658 127,224.5C 127.317,222.699 127.984,222.366 129,223.5C 129.496,221.965 129.33,220.465 128.5,219C 130.07,215.315 131.07,211.482 131.5,207.5C 136.045,199 136.378,190 132.5,180.5C 131.012,184.125 129.679,187.791 128.5,191.5C 128.167,191.5 127.833,191.5 127.5,191.5C 128.643,188.316 129.309,184.983 129.5,181.5C 128.5,181.5 127.5,181.5 126.5,181.5C 128,179.821 129.833,178.488 132,177.5C 132.513,176.473 133.013,175.473 133.5,174.5 Z"/></g>
<g><path style="opacity:1" fill="#a8b1dd" d="M 82.5,195.5 C 83.4972,195.47 84.1639,195.97 84.5,197C 83.5858,199.621 82.4191,202.121 81,204.5C 79.2067,207.308 76.7067,208.974 73.5,209.5C 73.7852,211.288 73.4519,212.955 72.5,214.5C 71.0656,215.588 70.0656,216.922 69.5,218.5C 68.2008,220.412 67.2008,222.412 66.5,224.5C 65.5,224.5 64.5,224.5 63.5,224.5C 62.963,218.551 63.7963,212.884 66,207.5C 68.1293,208.863 68.6293,208.529 67.5,206.5C 68.0354,204.729 68.8687,204.396 70,205.5C 73.0887,204.04 75.9221,202.207 78.5,200C 79.3366,198.989 79.67,197.822 79.5,196.5C 80.391,195.89 81.391,195.557 82.5,195.5 Z"/></g>
<g><path style="opacity:1" fill="#aeb7e8" d="M 175.5,164.5 C 175.272,169.766 175.606,175.099 176.5,180.5C 174.831,192.46 173.498,204.627 172.5,217C 172.68,219.241 173.513,219.741 175,218.5C 175.633,214.653 176.467,210.986 177.5,207.5C 176.311,215.114 175.645,222.781 175.5,230.5C 173.167,230.5 170.833,230.5 168.5,230.5C 169.132,221.825 169.799,213.158 170.5,204.5C 172.502,195.969 173.002,187.302 172,178.5C 171.5,178 171,177.5 170.5,177C 171.194,172.503 171.861,168.003 172.5,163.5C 173.895,162.185 174.895,162.519 175.5,164.5 Z"/></g>
<g><path style="opacity:1" fill="#9f9db4" d="M 160.5,219.5 C 158.409,219.318 156.409,219.652 154.5,220.5C 153.735,219.388 152.735,218.721 151.5,218.5C 151.719,214.622 152.719,210.956 154.5,207.5C 157.262,207.643 160.096,207.31 163,206.5C 163.833,206.667 164.667,206.833 165.5,207C 164.833,210 164.167,213 163.5,216C 164.39,218.307 163.39,219.473 160.5,219.5 Z"/></g>
<g><path style="opacity:1" fill="#a9b1de" d="M 127.5,191.5 C 127.833,191.5 128.167,191.5 128.5,191.5C 127.799,200.178 125.799,208.512 122.5,216.5C 123.628,217.262 124.795,217.929 126,218.5C 126.985,214.359 128.818,210.692 131.5,207.5C 131.07,211.482 130.07,215.315 128.5,219C 129.33,220.465 129.496,221.965 129,223.5C 127.984,222.366 127.317,222.699 127,224.5C 123.602,223.658 121.102,224.991 119.5,228.5C 119.167,229.167 118.833,229.833 118.5,230.5C 114.167,230.5 109.833,230.5 105.5,230.5C 105.5,229.167 105.5,227.833 105.5,226.5C 105.263,225.209 105.596,224.209 106.5,223.5C 106.435,223.938 106.601,224.272 107,224.5C 107.716,222.121 108.883,220.121 110.5,218.5C 111.583,218.461 112.583,218.127 113.5,217.5C 114.328,214.673 115.994,212.507 118.5,211C 118.167,210.667 117.833,210.333 117.5,210C 119.425,210.135 121.425,210.302 123.5,210.5C 123.271,205.995 123.937,201.661 125.5,197.5C 126.363,195.579 127.029,193.579 127.5,191.5 Z"/></g>
<g><path style="opacity:1" fill="#46446a" d="M 180.5,206.5 C 181.312,208.776 182.646,210.776 184.5,212.5C 184.058,213.739 183.391,214.739 182.5,215.5C 181.5,216.167 180.5,216.833 179.5,217.5C 179.942,213.846 180.276,210.179 180.5,206.5 Z"/></g>
<g><path style="opacity:1" fill="#a3aee1" d="M 37.5,190.5 C 38.1758,194.46 39.1758,198.46 40.5,202.5C 41.4742,200.257 41.8076,197.924 41.5,195.5C 41.8333,195.5 42.1667,195.5 42.5,195.5C 42.6664,204.173 42.4998,212.84 42,221.5C 41.8413,219.657 41.3413,218.991 40.5,219.5C 39.8333,216.833 39.1667,214.167 38.5,211.5C 38.5875,208.402 38.0875,208.068 37,210.5C 34.5397,209.245 33.373,207.245 33.5,204.5C 34.1347,201.114 35.1347,197.78 36.5,194.5C 37.4345,193.432 37.7678,192.099 37.5,190.5 Z"/></g>
<g><path style="opacity:1" fill="#b1bbe9" d="M 88.5,202.5 C 88.5,202.833 88.5,203.167 88.5,203.5C 86.3192,204.291 84.6525,205.791 83.5,208C 83.0254,214.544 79.8588,219.711 74,223.5C 73.5034,225.81 73.3367,228.143 73.5,230.5C 70.5,230.5 67.5,230.5 64.5,230.5C 66.0746,228.886 66.7413,226.886 66.5,224.5C 67.2008,222.412 68.2008,220.412 69.5,218.5C 75.1808,214.81 80.0141,210.143 84,204.5C 84.567,201.832 85.067,199.166 85.5,196.5C 87.3464,196.222 88.6798,196.889 89.5,198.5C 88.7542,199.736 88.4208,201.07 88.5,202.5 Z"/></g>
<g><path style="opacity:1" fill="#a5a6c9" d="M 162.5,187.5 C 162.442,190.664 161.776,193.664 160.5,196.5C 160.279,202.264 157.613,204.264 152.5,202.5C 152.203,206.911 151.203,211.077 149.5,215C 149.684,217.865 150.018,220.698 150.5,223.5C 149.532,225.607 149.198,227.941 149.5,230.5C 141.833,230.5 134.167,230.5 126.5,230.5C 128.428,228.753 130.594,227.087 133,225.5C 134.687,222.376 134.854,219.209 133.5,216C 134.047,215.075 134.713,214.242 135.5,213.5C 137.588,215.428 139.088,217.761 140,220.5C 140.671,221.252 141.504,221.586 142.5,221.5C 142.427,223.027 143.094,224.027 144.5,224.5C 145.189,225.774 146.023,225.774 147,224.5C 147.418,219.465 147.418,214.465 147,209.5C 148.154,208.257 149.488,207.257 151,206.5C 151.483,205.552 151.649,204.552 151.5,203.5C 151.577,202.25 152.244,201.417 153.5,201C 153.043,200.586 152.709,200.086 152.5,199.5C 153.934,197.78 154.767,195.78 155,193.5C 156.356,192.62 157.856,192.286 159.5,192.5C 159.273,190.067 160.273,188.401 162.5,187.5 Z"/></g>
<g><path style="opacity:1" fill="#7f89bc" d="M 27.5,215.5 C 28.0251,220.6 29.0251,225.6 30.5,230.5C 28.5,230.5 26.5,230.5 24.5,230.5C 23.0185,224.413 21.6851,218.413 20.5,212.5C 20.5,205.5 20.5,198.5 20.5,191.5C 21.1667,191.5 21.5,191.167 21.5,190.5C 22.2679,189.737 22.7679,188.737 23,187.5C 23.3333,192.5 23.6667,197.5 24,202.5C 25.9489,206.629 27.1156,210.963 27.5,215.5 Z"/></g>
<g><path style="opacity:1" fill="#6a74ab" d="M 38.5,211.5 C 39.1667,214.167 39.8333,216.833 40.5,219.5C 40.5,223.167 40.5,226.833 40.5,230.5C 39.8333,230.5 39.1667,230.5 38.5,230.5C 38.6602,228.801 38.4935,227.134 38,225.5C 35.1884,221.171 33.0217,216.505 31.5,211.5C 33.6775,211.841 36.0108,211.841 38.5,211.5 Z"/></g>
<g><path style="opacity:1" fill="#acb6e0" d="M 88.5,203.5 C 85.2115,212.477 81.8782,221.477 78.5,230.5C 76.8333,230.5 75.1667,230.5 73.5,230.5C 73.3367,228.143 73.5034,225.81 74,223.5C 79.8588,219.711 83.0254,214.544 83.5,208C 84.6525,205.791 86.3192,204.291 88.5,203.5 Z"/></g>
<g><path style="opacity:1" fill="#a2a7ce" d="M 93.5,195.5 C 94.8301,198.044 95.4968,200.377 95.5,202.5C 95.6662,208.842 95.4995,215.175 95,221.5C 93.617,224.368 92.7837,227.368 92.5,230.5C 87.8333,230.5 83.1667,230.5 78.5,230.5C 81.8782,221.477 85.2115,212.477 88.5,203.5C 88.5,203.167 88.5,202.833 88.5,202.5C 90.6296,200.471 92.2963,198.138 93.5,195.5 Z"/></g>
<g><path style="opacity:1" fill="#9492ac" d="M 151.5,218.5 C 152.735,218.721 153.735,219.388 154.5,220.5C 156.409,219.652 158.409,219.318 160.5,219.5C 160.5,221.167 160.5,222.833 160.5,224.5C 159.022,224.238 157.689,224.571 156.5,225.5C 156.667,225.833 156.833,226.167 157,226.5C 159.756,225.93 162.256,224.93 164.5,223.5C 165.643,223.908 166.643,224.575 167.5,225.5C 163.824,225.737 161.157,227.404 159.5,230.5C 156.167,230.5 152.833,230.5 149.5,230.5C 149.198,227.941 149.532,225.607 150.5,223.5C 151.239,223.631 151.906,223.464 152.5,223C 152.786,221.612 152.452,220.112 151.5,218.5 Z"/></g>
<g><path style="opacity:1" fill="#3f3e58" d="M 156.5,220.5 C 159.957,220.667 160.29,221.667 157.5,223.5C 156.614,222.675 156.281,221.675 156.5,220.5 Z"/></g>
<g><path style="opacity:1" fill="#9099cd" d="M 33.5,204.5 C 33.373,207.245 34.5397,209.245 37,210.5C 38.0875,208.068 38.5875,208.402 38.5,211.5C 36.0108,211.841 33.6775,211.841 31.5,211.5C 33.0217,216.505 35.1884,221.171 38,225.5C 38.4935,227.134 38.6602,228.801 38.5,230.5C 35.8333,230.5 33.1667,230.5 30.5,230.5C 29.0251,225.6 28.0251,220.6 27.5,215.5C 28.7013,219.937 30.3679,224.27 32.5,228.5C 33.3567,227.264 34.0234,225.931 34.5,224.5C 30.7679,216.154 28.6012,207.487 28,198.5C 30.0738,200.342 31.9071,202.342 33.5,204.5 Z"/></g>
<g><path style="opacity:1" fill="#6c6887" d="M 182.5,215.5 C 180.597,219.88 181.763,223.214 186,225.5C 186.494,227.134 186.66,228.801 186.5,230.5C 183.5,230.5 180.5,230.5 177.5,230.5C 177.925,226.092 178.592,221.758 179.5,217.5C 180.5,216.833 181.5,216.167 182.5,215.5 Z"/></g>
<g><path style="opacity:1" fill="#a7abd1" d="M 136.5,209.5 C 138.47,213.483 140.47,217.483 142.5,221.5C 141.504,221.586 140.671,221.252 140,220.5C 139.088,217.761 137.588,215.428 135.5,213.5C 134.713,214.242 134.047,215.075 133.5,216C 134.854,219.209 134.687,222.376 133,225.5C 130.594,227.087 128.428,228.753 126.5,230.5C 123.833,230.5 121.167,230.5 118.5,230.5C 118.833,229.833 119.167,229.167 119.5,228.5C 122.019,228.152 123.853,226.819 125,224.5C 125.308,225.308 125.808,225.975 126.5,226.5C 128.382,225.907 130.215,225.24 132,224.5C 132.333,219.833 132.667,215.167 133,210.5C 133.915,209.672 134.581,208.672 135,207.5C 135.278,208.416 135.778,209.082 136.5,209.5 Z"/></g>
<g><path style="opacity:1" fill="#b4bdf0" d="M 20.5,212.5 C 21.6851,218.413 23.0185,224.413 24.5,230.5C 22.8333,230.5 21.1667,230.5 19.5,230.5C 19.3032,224.455 19.6365,218.455 20.5,212.5 Z"/></g>
<g><path style="opacity:1" fill="#acb3dc" d="M 107.5,207.5 C 107.167,212.833 106.833,218.167 106.5,223.5C 105.596,224.209 105.263,225.209 105.5,226.5C 103.18,228.226 100.513,228.893 97.5,228.5C 96.1545,222.692 98.3211,219.026 104,217.5C 104.492,216.451 104.326,215.451 103.5,214.5C 105.564,212.475 106.898,210.142 107.5,207.5 Z"/></g>
<g><path style="opacity:1" fill="#b2bbe5" d="M 60.5,230.5 C 58.1667,230.5 55.8333,230.5 53.5,230.5C 53.2994,227.272 53.6328,224.105 54.5,221C 56.6619,218.672 58.9952,216.506 61.5,214.5C 61.8333,214.667 62.1667,214.833 62.5,215C 61.6973,220.113 61.0306,225.28 60.5,230.5 Z"/></g>
<g><path style="opacity:1" fill="#bac3e4" d="M 20.5,191.5 C 20.5,198.5 20.5,205.5 20.5,212.5C 19.6365,218.455 19.3032,224.455 19.5,230.5C 17.8333,230.5 16.1667,230.5 14.5,230.5C 15.9495,226.596 17.1162,222.596 18,218.5C 18.7787,209.341 19.612,200.341 20.5,191.5 Z"/></g>
</svg>
