<?xml version="1.0" encoding="UTF-8"?>
<!DOCTYPE svg PUBLIC "-//W3C//DTD SVG 1.1//EN" "http://www.w3.org/Graphics/SVG/1.1/DTD/svg11.dtd">
<svg xmlns="http://www.w3.org/2000/svg" version="1.1" width="231px" height="231px" style="shape-rendering:geometricPrecision; text-rendering:geometricPrecision; image-rendering:optimizeQuality; fill-rule:evenodd; clip-rule:evenodd" xmlns:xlink="http://www.w3.org/1999/xlink">
<g><path style="opacity:1" fill="#3c3639" d="M 104.5,6.5 C 106.435,7.14952 108.435,7.48285 110.5,7.5C 110.941,10.2314 111.274,12.7314 111.5,15C 116.09,16.297 120.423,18.1303 124.5,20.5C 124.5,21.1667 124.833,21.5 125.5,21.5C 125.5,22.8333 124.833,23.5 123.5,23.5C 123.047,22.5416 122.381,21.7083 121.5,21C 116.081,20.6885 111.081,19.1885 106.5,16.5C 105.919,13.5936 104.919,10.927 103.5,8.5C 103.833,7.83333 104.167,7.16667 104.5,6.5 Z"/></g>
<g><path style="opacity:1" fill="#98938c" d="M 125.5,8.5 C 127.55,11.0577 129.883,13.5577 132.5,16C 131.833,16.3333 131.167,16.6667 130.5,17C 131.765,18.3374 132.265,19.8374 132,21.5C 130.525,22.5058 128.692,22.5058 126.5,21.5C 126.167,21.5 125.833,21.5 125.5,21.5C 124.833,21.5 124.5,21.1667 124.5,20.5C 124.607,18.0968 123.607,16.2635 121.5,15C 123.387,14.8374 124.887,15.6707 126,17.5C 126.798,15.7412 126.631,14.0745 125.5,12.5C 122.437,10.9748 119.77,8.97484 117.5,6.5C 113.016,5.18894 108.683,5.18894 104.5,6.5C 104.167,7.16667 103.833,7.83333 103.5,8.5C 102.883,8.61071 102.383,8.94404 102,9.5C 100.649,7.99035 98.982,6.99035 97,6.5C 85.0264,13.295 76.5264,22.9617 71.5,35.5C 71.5,34.8333 71.1667,34.5 70.5,34.5C 74.3337,20.4944 83.0003,10.6611 96.5,5C 106.766,2.12711 116.433,3.29378 125.5,8.5 Z"/></g>
<g><path style="opacity:1" fill="#6f6e6e" d="M 104.5,6.5 C 108.683,5.18894 113.016,5.18894 117.5,6.5C 119.77,8.97484 122.437,10.9748 125.5,12.5C 126.631,14.0745 126.798,15.7412 126,17.5C 124.887,15.6707 123.387,14.8374 121.5,15C 123.607,16.2635 124.607,18.0968 124.5,20.5C 120.423,18.1303 116.09,16.297 111.5,15C 111.274,12.7314 110.941,10.2314 110.5,7.5C 108.435,7.48285 106.435,7.14952 104.5,6.5 Z"/></g>
<g><path style="opacity:1" fill="#706c6f" d="M 103.5,8.5 C 104.919,10.927 105.919,13.5936 106.5,16.5C 111.081,19.1885 116.081,20.6885 121.5,21C 122.381,21.7083 123.047,22.5416 123.5,23.5C 117.797,22.5798 112.13,21.7465 106.5,21C 107.167,21.3333 107.833,21.6667 108.5,22C 104.848,22.4986 101.182,22.6653 97.5,22.5C 97.6107,21.8826 97.944,21.3826 98.5,21C 96.8707,20.4145 95.3707,19.5812 94,18.5C 92.3488,19.7424 90.5155,20.5757 88.5,21C 85.4314,23.6472 82.7647,26.4805 80.5,29.5C 78.7318,30.7621 77.0651,31.7621 75.5,32.5C 74.1825,35.4322 73.0158,38.4322 72,41.5C 71.5045,39.5273 71.3379,37.5273 71.5,35.5C 76.5264,22.9617 85.0264,13.295 97,6.5C 98.982,6.99035 100.649,7.99035 102,9.5C 102.383,8.94404 102.883,8.61071 103.5,8.5 Z"/></g>
<g><path style="opacity:1" fill="#dbd3cd" d="M 125.5,8.5 C 135.645,15.3175 142.312,24.6508 145.5,36.5C 144.244,36.0962 143.077,35.4295 142,34.5C 140.779,35.2718 139.779,36.2718 139,37.5C 138.667,37.1667 138.333,36.8333 138,36.5C 137.333,37.8333 136.667,39.1667 136,40.5C 134.47,37.4392 132.97,34.4392 131.5,31.5C 129.833,28.1667 128.167,24.8333 126.5,21.5C 128.692,22.5058 130.525,22.5058 132,21.5C 132.265,19.8374 131.765,18.3374 130.5,17C 131.167,16.6667 131.833,16.3333 132.5,16C 129.883,13.5577 127.55,11.0577 125.5,8.5 Z"/></g>
<g><path style="opacity:1" fill="#6f5b58" d="M 125.5,21.5 C 125.833,21.5 126.167,21.5 126.5,21.5C 128.167,24.8333 129.833,28.1667 131.5,31.5C 131.672,32.4916 131.338,33.1583 130.5,33.5C 130.068,32.2905 129.401,31.2905 128.5,30.5C 127.5,29.1667 126.5,27.8333 125.5,26.5C 124.833,25.5 124.167,24.5 123.5,23.5C 124.833,23.5 125.5,22.8333 125.5,21.5 Z"/></g>
<g><path style="opacity:1" fill="#fcf7f5" d="M 130.5,34.5 C 132.209,37.9545 133.542,41.6212 134.5,45.5C 134.5,47.1667 134.5,48.8333 134.5,50.5C 134.664,53.1873 134.497,55.854 134,58.5C 134.229,54.2766 132.396,51.61 128.5,50.5C 127.167,50.5 125.833,50.5 124.5,50.5C 123.313,49.4664 122.48,48.133 122,46.5C 121.441,42.8136 120.774,39.147 120,35.5C 116.981,33.8932 117.148,32.2266 120.5,30.5C 124.045,31.3845 127.378,32.7178 130.5,34.5 Z"/></g>
<g><path style="opacity:1" fill="#eedadd" d="M 128.5,30.5 C 129.401,31.2905 130.068,32.2905 130.5,33.5C 130.5,33.8333 130.5,34.1667 130.5,34.5C 127.378,32.7178 124.045,31.3845 120.5,30.5C 117.148,32.2266 116.981,33.8932 120,35.5C 120.774,39.147 121.441,42.8136 122,46.5C 122.48,48.133 123.313,49.4664 124.5,50.5C 116.376,49.469 108.376,48.969 100.5,49C 101.167,48.6667 101.833,48.3333 102.5,48C 100.852,43.6829 100.186,39.1829 100.5,34.5C 103.926,34.6503 104.259,33.4837 101.5,31C 103.795,29.0201 106.461,27.8534 109.5,27.5C 112.178,28.0435 115.011,28.0435 118,27.5C 121.738,27.8121 125.238,28.8121 128.5,30.5 Z"/></g>
<g><path style="opacity:1" fill="#d1b2ae" d="M 123.5,23.5 C 124.167,24.5 124.833,25.5 125.5,26.5C 116.689,24.2915 107.689,23.9582 98.5,25.5C 95.679,27.1547 93.3457,29.3214 91.5,32C 95.2766,37.0576 95.9432,42.3909 93.5,48C 94.056,48.3826 94.3893,48.8826 94.5,49.5C 90.2117,49.5092 86.2117,50.3425 82.5,52C 83.1667,51.3333 83.8333,50.6667 84.5,50C 84.174,45.7274 83.8407,41.2274 83.5,36.5C 84.5747,28.0916 89.2414,23.425 97.5,22.5C 101.182,22.6653 104.848,22.4986 108.5,22C 107.833,21.6667 107.167,21.3333 106.5,21C 112.13,21.7465 117.797,22.5798 123.5,23.5 Z"/></g>
<g><path style="opacity:1" fill="#b4a69a" d="M 131.5,31.5 C 132.97,34.4392 134.47,37.4392 136,40.5C 136.667,39.1667 137.333,37.8333 138,36.5C 138.333,36.8333 138.667,37.1667 139,37.5C 139.779,36.2718 140.779,35.2718 142,34.5C 143.077,35.4295 144.244,36.0962 145.5,36.5C 148.347,45.2423 150.013,54.2423 150.5,63.5C 149.313,59.7902 147.813,56.1235 146,52.5C 146.278,56.1394 146.278,59.8061 146,63.5C 145.269,59.4348 144.435,55.4348 143.5,51.5C 143.736,48.7743 142.903,46.441 141,44.5C 140.009,45.4296 139.509,46.5962 139.5,48C 140.519,50.5486 140.519,53.0486 139.5,55.5C 138.34,53.125 137.34,50.7917 136.5,48.5C 135.833,47.5 135.167,46.5 134.5,45.5C 133.542,41.6212 132.209,37.9545 130.5,34.5C 130.5,34.1667 130.5,33.8333 130.5,33.5C 131.338,33.1583 131.672,32.4916 131.5,31.5 Z"/></g>
<g><path style="opacity:1" fill="#47342e" d="M 97.5,22.5 C 89.2414,23.425 84.5747,28.0916 83.5,36.5C 82.1127,38.8766 81.2794,41.5432 81,44.5C 80.0342,52.9927 79.2009,61.4927 78.5,70C 78.0903,78.4106 79.757,86.244 83.5,93.5C 84.4151,95.7541 85.7484,97.7541 87.5,99.5C 87.5,100.167 87.1667,100.5 86.5,100.5C 85.7037,100.277 85.3704,101.11 85.5,103C 86.0197,107.957 87.0197,112.791 88.5,117.5C 88.6657,121.846 88.499,126.179 88,130.5C 86.0777,124.992 84.5777,119.325 83.5,113.5C 81.2819,96.1327 77.2819,79.2994 71.5,63C 72.1771,55.5302 73.0105,48.0302 74,40.5C 77.0147,38.65 78.1813,36.15 77.5,33C 79.4257,32.5776 80.4257,31.4109 80.5,29.5C 82.7647,26.4805 85.4314,23.6472 88.5,21C 90.5155,20.5757 92.3488,19.7424 94,18.5C 95.3707,19.5812 96.8707,20.4145 98.5,21C 97.944,21.3826 97.6107,21.8826 97.5,22.5 Z"/></g>
<g><path style="opacity:1" fill="#b89c9d" d="M 126.5,52.5 C 127.451,54.6195 128.951,56.2862 131,57.5C 131.49,58.7932 131.657,60.1266 131.5,61.5C 129.435,61.5172 127.435,61.8505 125.5,62.5C 116,64.6751 113,61.3417 116.5,52.5C 119.985,51.4095 123.319,51.4095 126.5,52.5 Z"/></g>
<g><path style="opacity:1" fill="#4b3a3e" d="M 122.5,57.5 C 125.346,57.0301 127.679,57.8634 129.5,60C 128.451,60.4922 127.451,60.3256 126.5,59.5C 125.158,61.0049 123.492,61.6715 121.5,61.5C 121.433,60.0413 121.766,58.7079 122.5,57.5 Z"/></g>
<g><path style="opacity:1" fill="#b29390" d="M 83.5,36.5 C 83.8407,41.2274 84.174,45.7274 84.5,50C 83.8333,50.6667 83.1667,51.3333 82.5,52C 86.2117,50.3425 90.2117,49.5092 94.5,49.5C 96.7457,50.4552 99.079,51.1218 101.5,51.5C 102.853,54.2051 104.687,56.5384 107,58.5C 108.075,62.0669 107.242,65.0669 104.5,67.5C 103.5,67.1667 102.833,66.5 102.5,65.5C 103.246,64.2638 103.579,62.9305 103.5,61.5C 100.744,61.2838 98.4105,60.2838 96.5,58.5C 94.8791,56.0245 92.8791,55.8578 90.5,58C 92.1691,59.669 94.1691,60.5023 96.5,60.5C 92.6888,61.6453 88.6888,61.8119 84.5,61C 83.8742,60.2496 83.3742,59.4162 83,58.5C 82.3021,59.6906 81.4687,60.6906 80.5,61.5C 80.7425,67.184 81.2425,72.8507 82,78.5C 83.7481,80.0536 83.9148,81.7202 82.5,83.5C 82.8245,86.3258 83.8245,88.8258 85.5,91C 84.6195,91.7083 83.9528,92.5416 83.5,93.5C 79.757,86.244 78.0903,78.4106 78.5,70C 79.2009,61.4927 80.0342,52.9927 81,44.5C 81.2794,41.5432 82.1127,38.8766 83.5,36.5 Z"/></g>
<g><path style="opacity:1" fill="#43353b" d="M 96.5,58.5 C 96.5,59.1667 96.5,59.8333 96.5,60.5C 94.1691,60.5023 92.1691,59.669 90.5,58C 92.8791,55.8578 94.8791,56.0245 96.5,58.5 Z"/></g>
<g><path style="opacity:1" fill="#d1acac" d="M 101.5,51.5 C 103.595,52.412 105.595,53.5787 107.5,55C 108.574,55.7387 109.241,56.7387 109.5,58C 108.364,64.8004 107.864,71.6338 108,78.5C 109.417,79.0779 110.25,80.0779 110.5,81.5C 107.693,80.4233 104.86,79.4233 102,78.5C 101.333,77.5 101.333,76.5 102,75.5C 104.326,74.287 104.659,72.9537 103,71.5C 101.587,73.4127 99.7541,74.746 97.5,75.5C 97.1667,76.5 96.5,77.1667 95.5,77.5C 93.2075,77.7564 91.0408,77.4231 89,76.5C 86.1881,71.7642 83.3547,66.7642 80.5,61.5C 81.4687,60.6906 82.3021,59.6906 83,58.5C 83.3742,59.4162 83.8742,60.2496 84.5,61C 88.6888,61.8119 92.6888,61.6453 96.5,60.5C 96.5,59.8333 96.5,59.1667 96.5,58.5C 98.4105,60.2838 100.744,61.2838 103.5,61.5C 103.579,62.9305 103.246,64.2638 102.5,65.5C 102.833,66.5 103.5,67.1667 104.5,67.5C 107.242,65.0669 108.075,62.0669 107,58.5C 104.687,56.5384 102.853,54.2051 101.5,51.5 Z"/></g>
<g><path style="opacity:1" fill="#e9c7cd" d="M 97.5,75.5 C 90.1705,75.999 87.1705,72.6657 88.5,65.5C 92.8299,64.0239 96.8299,64.6905 100.5,67.5C 99.828,70.3438 98.828,73.0105 97.5,75.5 Z"/></g>
<g><path style="opacity:1" fill="#f8e8e8" d="M 128.5,50.5 C 132.396,51.61 134.229,54.2766 134,58.5C 134.497,55.854 134.664,53.1873 134.5,50.5C 135.485,54.6344 135.818,58.9677 135.5,63.5C 135.793,67.4367 135.46,71.27 134.5,75C 133.391,75.6377 132.225,76.1377 131,76.5C 126.03,75.7242 121.197,74.7242 116.5,73.5C 116.5,75.5 116.5,77.5 116.5,79.5C 114.533,79.7394 112.699,79.4061 111,78.5C 110.17,72.8041 110.337,67.1375 111.5,61.5C 113.188,63.0294 114.521,64.8627 115.5,67C 119.152,67.4986 122.818,67.6653 126.5,67.5C 126.371,65.7839 126.038,64.1172 125.5,62.5C 127.435,61.8505 129.435,61.5172 131.5,61.5C 131.657,60.1266 131.49,58.7932 131,57.5C 128.951,56.2862 127.451,54.6195 126.5,52.5C 127.833,52.5 128.5,51.8333 128.5,50.5 Z"/></g>
<g><path style="opacity:1" fill="#856e60" d="M 143.5,51.5 C 144.435,55.4348 145.269,59.4348 146,63.5C 146.278,59.8061 146.278,56.1394 146,52.5C 147.813,56.1235 149.313,59.7902 150.5,63.5C 153.326,75.652 156.992,87.652 161.5,99.5C 159.876,99.3601 158.71,100.027 158,101.5C 157.705,99.0694 156.538,97.236 154.5,96C 155.175,93.7579 154.675,91.5912 153,89.5C 152.515,94.2619 153.015,98.9286 154.5,103.5C 153.833,104.167 153.167,104.833 152.5,105.5C 153.728,108.013 155.395,110.013 157.5,111.5C 157.34,113.153 156.674,114.486 155.5,115.5C 154.184,111.815 152.184,111.148 149.5,113.5C 148.702,115.078 148.202,116.744 148,118.5C 147.517,117.552 147.351,116.552 147.5,115.5C 145.804,104.233 144.971,92.8998 145,81.5C 145.559,85.1864 146.226,88.853 147,92.5C 147.422,90.6447 147.922,88.8114 148.5,87C 147.541,84.8801 147.374,82.7135 148,80.5C 148.667,83.1667 149.333,85.8333 150,88.5C 149.866,81.1552 149.199,73.8219 148,66.5C 147,65.1667 146,65.1667 145,66.5C 144.667,68.1667 144.333,69.8333 144,71.5C 143.607,68.367 142.774,65.367 141.5,62.5C 141.737,59.9365 142.237,59.9365 143,62.5C 143.167,61.6667 143.333,60.8333 143.5,60C 142.39,57.0013 142.39,54.168 143.5,51.5 Z"/></g>
<g><path style="opacity:1" fill="#e7c5c4" d="M 125.5,26.5 C 126.5,27.8333 127.5,29.1667 128.5,30.5C 125.238,28.8121 121.738,27.8121 118,27.5C 115.011,28.0435 112.178,28.0435 109.5,27.5C 106.461,27.8534 103.795,29.0201 101.5,31C 104.259,33.4837 103.926,34.6503 100.5,34.5C 100.186,39.1829 100.852,43.6829 102.5,48C 101.833,48.3333 101.167,48.6667 100.5,49C 108.376,48.969 116.376,49.469 124.5,50.5C 125.833,50.5 127.167,50.5 128.5,50.5C 128.5,51.8333 127.833,52.5 126.5,52.5C 123.319,51.4095 119.985,51.4095 116.5,52.5C 113,61.3417 116,64.6751 125.5,62.5C 126.038,64.1172 126.371,65.7839 126.5,67.5C 122.818,67.6653 119.152,67.4986 115.5,67C 114.521,64.8627 113.188,63.0294 111.5,61.5C 110.337,67.1375 110.17,72.8041 111,78.5C 112.699,79.4061 114.533,79.7394 116.5,79.5C 116.5,77.5 116.5,75.5 116.5,73.5C 121.197,74.7242 126.03,75.7242 131,76.5C 132.225,76.1377 133.391,75.6377 134.5,75C 135.46,71.27 135.793,67.4367 135.5,63.5C 136.965,72.9472 135.965,82.2805 132.5,91.5C 131.334,94.5032 129.667,97.1698 127.5,99.5C 124.085,103.717 119.751,106.717 114.5,108.5C 108.678,109.053 104.678,106.72 102.5,101.5C 103.127,100.583 103.461,99.5832 103.5,98.5C 105.196,98.3146 106.529,97.4813 107.5,96C 109.134,95.5065 110.801,95.3398 112.5,95.5C 112.488,92.858 113.821,91.5246 116.5,91.5C 114.84,94.3325 113.173,97.1658 111.5,100C 109.527,100.495 107.527,100.662 105.5,100.5C 105.5,101.833 105.5,103.167 105.5,104.5C 110.388,105.611 115.221,105.611 120,104.5C 121.64,102.421 122.806,100.088 123.5,97.5C 123.032,95.8662 122.032,94.6995 120.5,94C 120.957,93.586 121.291,93.086 121.5,92.5C 120.311,91.5713 118.978,91.238 117.5,91.5C 117.5,91.1667 117.5,90.8333 117.5,90.5C 119.282,89.2804 121.282,88.6138 123.5,88.5C 123.351,89.552 123.517,90.552 124,91.5C 125.753,88.9952 127.253,86.3286 128.5,83.5C 127.286,81.9309 125.619,81.0976 123.5,81C 122.042,78.54 120.209,76.3734 118,74.5C 117.847,78.3788 119.014,81.8788 121.5,85C 121.167,85.5 120.833,86 120.5,86.5C 114.439,87.9509 108.439,87.7842 102.5,86C 105.063,84.9207 107.729,84.4207 110.5,84.5C 110.5,83.5 110.5,82.5 110.5,81.5C 110.25,80.0779 109.417,79.0779 108,78.5C 107.864,71.6338 108.364,64.8004 109.5,58C 109.241,56.7387 108.574,55.7387 107.5,55C 105.595,53.5787 103.595,52.412 101.5,51.5C 99.079,51.1218 96.7457,50.4552 94.5,49.5C 94.3893,48.8826 94.056,48.3826 93.5,48C 95.9432,42.3909 95.2766,37.0576 91.5,32C 93.3457,29.3214 95.679,27.1547 98.5,25.5C 107.689,23.9582 116.689,24.2915 125.5,26.5 Z"/></g>
<g><path style="opacity:1" fill="#bf918e" d="M 110.5,81.5 C 110.5,82.5 110.5,83.5 110.5,84.5C 107.729,84.4207 105.063,84.9207 102.5,86C 108.439,87.7842 114.439,87.9509 120.5,86.5C 120.833,86 121.167,85.5 121.5,85C 119.014,81.8788 117.847,78.3788 118,74.5C 120.209,76.3734 122.042,78.54 123.5,81C 125.619,81.0976 127.286,81.9309 128.5,83.5C 127.253,86.3286 125.753,88.9952 124,91.5C 123.517,90.552 123.351,89.552 123.5,88.5C 121.282,88.6138 119.282,89.2804 117.5,90.5C 111.239,87.8991 104.906,87.8991 98.5,90.5C 96.1542,89.4767 93.8209,88.4767 91.5,87.5C 91.5,86.1667 91.5,84.8333 91.5,83.5C 89.8967,83.6882 88.5634,83.1882 87.5,82C 90.9676,81.7701 93.6342,80.2701 95.5,77.5C 96.5,77.1667 97.1667,76.5 97.5,75.5C 99.7541,74.746 101.587,73.4127 103,71.5C 104.659,72.9537 104.326,74.287 102,75.5C 101.333,76.5 101.333,77.5 102,78.5C 104.86,79.4233 107.693,80.4233 110.5,81.5 Z"/></g>
<g><path style="opacity:1" fill="#a28e85" d="M 143.5,51.5 C 142.39,54.168 142.39,57.0013 143.5,60C 143.333,60.8333 143.167,61.6667 143,62.5C 142.237,59.9365 141.737,59.9365 141.5,62.5C 142.774,65.367 143.607,68.367 144,71.5C 144.333,69.8333 144.667,68.1667 145,66.5C 146,65.1667 147,65.1667 148,66.5C 149.199,73.8219 149.866,81.1552 150,88.5C 149.333,85.8333 148.667,83.1667 148,80.5C 147.374,82.7135 147.541,84.8801 148.5,87C 147.922,88.8114 147.422,90.6447 147,92.5C 146.226,88.853 145.559,85.1864 145,81.5C 144.971,92.8998 145.804,104.233 147.5,115.5C 146.542,115.953 145.708,116.619 145,117.5C 145.046,115.687 144.88,114.021 144.5,112.5C 143.571,113.689 143.238,115.022 143.5,116.5C 141.923,111.766 141.089,106.766 141,101.5C 140.118,104.789 139.452,108.123 139,111.5C 138.51,110.207 138.343,108.873 138.5,107.5C 138.253,100.112 138.753,92.779 140,85.5C 140.947,90.5482 141.447,90.2149 141.5,84.5C 140.33,79.6562 140.33,74.8229 141.5,70C 140.046,65.1893 138.546,60.356 137,55.5C 136.503,53.1902 136.337,50.8568 136.5,48.5C 137.34,50.7917 138.34,53.125 139.5,55.5C 140.519,53.0486 140.519,50.5486 139.5,48C 139.509,46.5962 140.009,45.4296 141,44.5C 142.903,46.441 143.736,48.7743 143.5,51.5 Z"/></g>
<g><path style="opacity:1" fill="#d2a49b" d="M 80.5,61.5 C 83.3547,66.7642 86.1881,71.7642 89,76.5C 91.0408,77.4231 93.2075,77.7564 95.5,77.5C 93.6342,80.2701 90.9676,81.7701 87.5,82C 88.5634,83.1882 89.8967,83.6882 91.5,83.5C 91.5,84.8333 91.5,86.1667 91.5,87.5C 93.8209,88.4767 96.1542,89.4767 98.5,90.5C 97.2054,94.9067 98.872,97.5734 103.5,98.5C 103.461,99.5832 103.127,100.583 102.5,101.5C 104.678,106.72 108.678,109.053 114.5,108.5C 112.052,109.473 109.385,109.806 106.5,109.5C 101.188,109.675 97.1882,107.508 94.5,103C 91.5958,102.867 89.2624,101.7 87.5,99.5C 85.7484,97.7541 84.4151,95.7541 83.5,93.5C 83.9528,92.5416 84.6195,91.7083 85.5,91C 83.8245,88.8258 82.8245,86.3258 82.5,83.5C 83.9148,81.7202 83.7481,80.0536 82,78.5C 81.2425,72.8507 80.7425,67.184 80.5,61.5 Z"/></g>
<g><path style="opacity:1" fill="#daa5af" d="M 117.5,90.5 C 117.5,90.8333 117.5,91.1667 117.5,91.5C 117.167,91.5 116.833,91.5 116.5,91.5C 113.821,91.5246 112.488,92.858 112.5,95.5C 110.801,95.3398 109.134,95.5065 107.5,96C 106.529,97.4813 105.196,98.3146 103.5,98.5C 98.872,97.5734 97.2054,94.9067 98.5,90.5C 104.906,87.8991 111.239,87.8991 117.5,90.5 Z"/></g>
<g><path style="opacity:1" fill="#f9e0df" d="M 116.5,91.5 C 116.833,91.5 117.167,91.5 117.5,91.5C 118.978,91.238 120.311,91.5713 121.5,92.5C 121.291,93.086 120.957,93.586 120.5,94C 122.032,94.6995 123.032,95.8662 123.5,97.5C 122.806,100.088 121.64,102.421 120,104.5C 115.221,105.611 110.388,105.611 105.5,104.5C 105.5,103.167 105.5,101.833 105.5,100.5C 107.527,100.662 109.527,100.495 111.5,100C 113.173,97.1658 114.84,94.3325 116.5,91.5 Z"/></g>
<g><path style="opacity:1" fill="#78635c" d="M 134.5,45.5 C 135.167,46.5 135.833,47.5 136.5,48.5C 136.337,50.8568 136.503,53.1902 137,55.5C 138.546,60.356 140.046,65.1893 141.5,70C 140.33,74.8229 140.33,79.6562 141.5,84.5C 141.447,90.2149 140.947,90.5482 140,85.5C 138.753,92.779 138.253,100.112 138.5,107.5C 138.064,114.422 138.064,121.422 138.5,128.5C 138.333,128.833 138.167,129.167 138,129.5C 137.163,127.993 135.996,127.493 134.5,128C 136.113,130.228 136.78,132.728 136.5,135.5C 134.012,133.745 131.678,131.745 129.5,129.5C 130.404,128.791 130.737,127.791 130.5,126.5C 130.323,121.134 130.656,115.8 131.5,110.5C 131.625,106.128 130.292,105.128 127.5,107.5C 127.5,105.5 127.5,103.5 127.5,101.5C 128.117,101.611 128.617,101.944 129,102.5C 130.226,99.0482 131.726,95.7148 133.5,92.5C 133.376,91.8933 133.043,91.56 132.5,91.5C 135.965,82.2805 136.965,72.9472 135.5,63.5C 135.818,58.9677 135.485,54.6344 134.5,50.5C 134.5,48.8333 134.5,47.1667 134.5,45.5 Z"/></g>
<g><path style="opacity:1" fill="#2d1b18" d="M 132.5,91.5 C 133.043,91.56 133.376,91.8933 133.5,92.5C 131.726,95.7148 130.226,99.0482 129,102.5C 128.617,101.944 128.117,101.611 127.5,101.5C 127.5,100.833 127.5,100.167 127.5,99.5C 129.667,97.1698 131.334,94.5032 132.5,91.5 Z"/></g>
<g><path style="opacity:1" fill="#695d5b" d="M 80.5,29.5 C 80.4257,31.4109 79.4257,32.5776 77.5,33C 78.1813,36.15 77.0147,38.65 74,40.5C 73.0105,48.0302 72.1771,55.5302 71.5,63C 77.2819,79.2994 81.2819,96.1327 83.5,113.5C 82.2502,113.577 81.4169,114.244 81,115.5C 80,112.5 79,109.5 78,106.5C 77.5948,110.213 77.5948,113.879 78,117.5C 76.9042,113.976 76.0709,110.31 75.5,106.5C 74.8333,108.167 74.1667,109.833 73.5,111.5C 73.3822,109.917 72.5489,108.251 71,106.5C 70.6608,108.834 70.8275,111.168 71.5,113.5C 71.1397,115.421 70.3064,117.088 69,118.5C 68.8285,111.321 68.3285,104.321 67.5,97.5C 66.7784,97.0825 66.2784,96.4158 66,95.5C 65.8267,89.9842 65.3267,84.6509 64.5,79.5C 66.0506,67.8976 67.2173,56.2309 68,44.5C 68.3033,40.9957 69.1366,37.6624 70.5,34.5C 71.1667,34.5 71.5,34.8333 71.5,35.5C 71.3379,37.5273 71.5045,39.5273 72,41.5C 73.0158,38.4322 74.1825,35.4322 75.5,32.5C 77.0651,31.7621 78.7318,30.7621 80.5,29.5 Z"/></g>
<g><path style="opacity:1" fill="#774e39" d="M 161.5,99.5 C 161.387,102.049 162.054,104.382 163.5,106.5C 161.458,107.503 161.125,108.837 162.5,110.5C 161.091,112.626 159.424,112.96 157.5,111.5C 155.395,110.013 153.728,108.013 152.5,105.5C 153.167,104.833 153.833,104.167 154.5,103.5C 153.015,98.9286 152.515,94.2619 153,89.5C 154.675,91.5912 155.175,93.7579 154.5,96C 156.538,97.236 157.705,99.0694 158,101.5C 158.71,100.027 159.876,99.3601 161.5,99.5 Z"/></g>
<g><path style="opacity:1" fill="#867772" d="M 64.5,79.5 C 65.3267,84.6509 65.8267,89.9842 66,95.5C 66.2784,96.4158 66.7784,97.0825 67.5,97.5C 67.0417,107.061 67.0417,116.395 67.5,125.5C 65.955,124.77 65.1216,123.437 65,121.5C 64.7216,122.416 64.2216,123.082 63.5,123.5C 63.1667,123.5 62.8333,123.5 62.5,123.5C 62.6309,122.624 62.2975,121.957 61.5,121.5C 58.9044,122.482 56.2377,123.149 53.5,123.5C 56.5567,121.605 58.7233,118.938 60,115.5C 61.5658,103.509 63.0658,91.5094 64.5,79.5 Z"/></g>
<g><path style="opacity:1" fill="#b78368" d="M 161.5,99.5 C 163.703,104.232 166.203,108.899 169,113.5C 170.397,115.07 171.897,116.404 173.5,117.5C 171.602,116.904 169.935,116.904 168.5,117.5C 164.954,116.605 162.287,117.938 160.5,121.5C 160.668,123.171 161.335,124.504 162.5,125.5C 162.5,125.833 162.5,126.167 162.5,126.5C 162.5,127.167 162.5,127.833 162.5,128.5C 162.068,129.71 161.401,130.71 160.5,131.5C 159.833,128.833 159.167,126.167 158.5,123.5C 159.598,122.399 159.765,121.066 159,119.5C 156.929,118.897 155.762,117.564 155.5,115.5C 156.674,114.486 157.34,113.153 157.5,111.5C 159.424,112.96 161.091,112.626 162.5,110.5C 161.125,108.837 161.458,107.503 163.5,106.5C 162.054,104.382 161.387,102.049 161.5,99.5 Z"/></g>
<g><path style="opacity:1" fill="#5c3e33" d="M 130.5,126.5 C 129.778,126.918 129.278,127.584 129,128.5C 128.667,128.167 128.333,127.833 128,127.5C 127.735,122.118 127.235,116.785 126.5,111.5C 126.5,110.833 126.5,110.167 126.5,109.5C 127.338,109.158 127.672,108.492 127.5,107.5C 130.292,105.128 131.625,106.128 131.5,110.5C 130.656,115.8 130.323,121.134 130.5,126.5 Z"/></g>
<g><path style="opacity:1" fill="#cb9e8d" d="M 126.5,109.5 C 126.5,110.167 126.5,110.833 126.5,111.5C 125.691,113.292 125.191,115.292 125,117.5C 124.5,124.826 124.334,132.159 124.5,139.5C 124.296,141.685 123.63,143.685 122.5,145.5C 120.95,146.441 119.284,147.107 117.5,147.5C 119.713,146.135 121.38,144.135 122.5,141.5C 119.035,138.623 118.701,135.456 121.5,132C 121.394,127.569 120.727,122.736 119.5,117.5C 117.143,117.663 114.81,117.497 112.5,117C 111.663,115.989 111.33,114.822 111.5,113.5C 107.958,113.187 104.625,113.521 101.5,114.5C 100.957,114.44 100.624,114.107 100.5,113.5C 110.158,113.851 118.491,110.851 125.5,104.5C 126.452,106.045 126.785,107.712 126.5,109.5 Z"/></g>
<g><path style="opacity:1" fill="#7b635b" d="M 67.5,97.5 C 68.3285,104.321 68.8285,111.321 69,118.5C 70.3064,117.088 71.1397,115.421 71.5,113.5C 70.8275,111.168 70.6608,108.834 71,106.5C 72.5489,108.251 73.3822,109.917 73.5,111.5C 74.1667,109.833 74.8333,108.167 75.5,106.5C 76.0709,110.31 76.9042,113.976 78,117.5C 77.5948,113.879 77.5948,110.213 78,106.5C 79,109.5 80,112.5 81,115.5C 81.4169,114.244 82.2502,113.577 83.5,113.5C 84.5777,119.325 86.0777,124.992 88,130.5C 88.499,126.179 88.6657,121.846 88.5,117.5C 89.6517,122.985 89.8184,128.651 89,134.5C 88.6322,133.09 87.7989,132.09 86.5,131.5C 85.5344,133.396 85.2011,135.396 85.5,137.5C 84.3934,141.142 83.3934,144.809 82.5,148.5C 81.7528,141.438 80.5862,134.438 79,127.5C 79.2185,131.638 77.5518,132.972 74,131.5C 73.9822,133.797 74.1489,136.131 74.5,138.5C 72.9891,136.524 72.1558,134.191 72,131.5C 71.6667,133.167 71.3333,134.833 71,136.5C 69.8343,132.868 68.6676,129.201 67.5,125.5C 67.0417,116.395 67.0417,107.061 67.5,97.5 Z"/></g>
<g><path style="opacity:1" fill="#8f705e" d="M 143.5,116.5 C 143.183,120.702 143.517,124.702 144.5,128.5C 144.768,130.099 144.434,131.432 143.5,132.5C 142.63,128.423 141.463,124.423 140,120.5C 139.667,125.5 139.333,130.5 139,135.5C 138.023,136.774 137.189,136.774 136.5,135.5C 136.78,132.728 136.113,130.228 134.5,128C 135.996,127.493 137.163,127.993 138,129.5C 138.167,129.167 138.333,128.833 138.5,128.5C 138.064,121.422 138.064,114.422 138.5,107.5C 138.343,108.873 138.51,110.207 139,111.5C 139.452,108.123 140.118,104.789 141,101.5C 141.089,106.766 141.923,111.766 143.5,116.5 Z"/></g>
<g><path style="opacity:1" fill="#dcb3a6" d="M 101.5,114.5 C 104.625,113.521 107.958,113.187 111.5,113.5C 111.33,114.822 111.663,115.989 112.5,117C 114.81,117.497 117.143,117.663 119.5,117.5C 120.727,122.736 121.394,127.569 121.5,132C 118.701,135.456 119.035,138.623 122.5,141.5C 121.38,144.135 119.713,146.135 117.5,147.5C 116.251,149.136 114.584,150.303 112.5,151C 107.997,152.78 103.33,153.613 98.5,153.5C 104.092,152.045 109.758,150.211 115.5,148C 115.957,147.586 116.291,147.086 116.5,146.5C 112.695,146.102 109.695,144.435 107.5,141.5C 110.359,136.871 109.026,133.871 103.5,132.5C 102.289,133.274 102.289,134.107 103.5,135C 102.062,135.219 100.729,135.719 99.5,136.5C 99.7093,137.086 100.043,137.586 100.5,138C 95.237,138.44 93.237,141.273 94.5,146.5C 92.6084,143.433 92.6084,140.433 94.5,137.5C 94.1132,135.726 93.4465,134.059 92.5,132.5C 92.9377,131.494 93.6043,131.494 94.5,132.5C 94.8333,131.5 95.1667,130.5 95.5,129.5C 94.4607,122.868 93.1274,116.368 91.5,110C 94.1715,109.515 95.5048,110.682 95.5,113.5C 97.4835,113.383 99.1502,114.05 100.5,115.5C 101.107,115.376 101.44,115.043 101.5,114.5 Z"/></g>
<g><path style="opacity:1" fill="#b99a84" d="M 155.5,115.5 C 155.762,117.564 156.929,118.897 159,119.5C 159.765,121.066 159.598,122.399 158.5,123.5C 157.602,119.947 155.268,118.281 151.5,118.5C 151.717,123.033 152.717,127.366 154.5,131.5C 153.503,131.47 152.836,131.97 152.5,133C 153.673,134.826 153.673,136.659 152.5,138.5C 151.475,134.921 150.309,131.254 149,127.5C 148.751,128.624 148.251,129.624 147.5,130.5C 146.104,128.028 145.27,125.362 145,122.5C 144.505,124.473 144.338,126.473 144.5,128.5C 143.517,124.702 143.183,120.702 143.5,116.5C 143.238,115.022 143.571,113.689 144.5,112.5C 144.88,114.021 145.046,115.687 145,117.5C 145.708,116.619 146.542,115.953 147.5,115.5C 147.351,116.552 147.517,117.552 148,118.5C 148.202,116.744 148.702,115.078 149.5,113.5C 152.184,111.148 154.184,111.815 155.5,115.5 Z"/></g>
<g><path style="opacity:1" fill="#cb5655" d="M 171.5,127.5 C 169.612,128.275 167.612,128.275 165.5,127.5C 164.609,126.89 163.609,126.557 162.5,126.5C 162.5,126.167 162.5,125.833 162.5,125.5C 163.071,124.027 163.071,122.36 162.5,120.5C 164.124,120.64 165.29,119.973 166,118.5C 168.874,120.892 170.707,123.892 171.5,127.5 Z"/></g>
<g><path style="opacity:1" fill="#fab1c4" d="M 173.5,117.5 C 174.492,117.328 175.158,117.662 175.5,118.5C 183.348,123.92 187.682,131.587 188.5,141.5C 188.291,142.086 187.957,142.586 187.5,143C 188.793,143.49 190.127,143.657 191.5,143.5C 191.5,145.833 191.5,148.167 191.5,150.5C 189.896,149.713 189.229,148.38 189.5,146.5C 187.302,146.12 185.635,146.787 184.5,148.5C 183.154,151.77 181.321,154.77 179,157.5C 178.536,156.906 178.369,156.239 178.5,155.5C 179.412,154.262 179.579,152.928 179,151.5C 178.667,152.167 178.333,152.833 178,153.5C 177.505,151.527 177.338,149.527 177.5,147.5C 179.01,148.728 180.51,148.728 182,147.5C 184.354,143.467 185.52,139.134 185.5,134.5C 182.893,135.316 180.893,136.983 179.5,139.5C 178.503,139.53 177.836,139.03 177.5,138C 180.485,135.045 181.652,131.545 181,127.5C 178.919,126.667 176.752,126.667 174.5,127.5C 174.663,125.143 174.497,122.81 174,120.5C 172.124,119.391 170.291,118.391 168.5,117.5C 169.935,116.904 171.602,116.904 173.5,117.5 Z"/></g>
<g><path style="opacity:1" fill="#efd3b2" d="M 158.5,123.5 C 159.167,126.167 159.833,128.833 160.5,131.5C 159.531,132.309 158.698,133.309 158,134.5C 157.667,133.833 157.333,133.167 157,132.5C 156.064,138.769 155.231,138.435 154.5,131.5C 152.717,127.366 151.717,123.033 151.5,118.5C 155.268,118.281 157.602,119.947 158.5,123.5 Z"/></g>
<g><path style="opacity:1" fill="#ce8690" d="M 62.5,123.5 C 61.596,124.209 61.2627,125.209 61.5,126.5C 58.8872,125.565 56.2205,125.398 53.5,126C 52.8366,127.518 51.8366,128.685 50.5,129.5C 46.8455,129.942 43.1788,130.276 39.5,130.5C 39.7852,132.288 39.4519,133.955 38.5,135.5C 36.2653,135.972 33.932,135.972 31.5,135.5C 31.4142,134.504 31.7476,133.671 32.5,133C 39.1243,128.96 46.1243,125.794 53.5,123.5C 56.2377,123.149 58.9044,122.482 61.5,121.5C 62.2975,121.957 62.6309,122.624 62.5,123.5 Z"/></g>
<g><path style="opacity:1" fill="#a18175" d="M 86.5,100.5 C 92.2114,108.398 99.8781,111.898 109.5,111C 108.263,110.768 107.263,110.268 106.5,109.5C 109.385,109.806 112.052,109.473 114.5,108.5C 119.751,106.717 124.085,103.717 127.5,99.5C 127.5,100.167 127.5,100.833 127.5,101.5C 127.5,103.5 127.5,105.5 127.5,107.5C 127.672,108.492 127.338,109.158 126.5,109.5C 126.785,107.712 126.452,106.045 125.5,104.5C 118.491,110.851 110.158,113.851 100.5,113.5C 100.624,114.107 100.957,114.44 101.5,114.5C 101.44,115.043 101.107,115.376 100.5,115.5C 99.1502,114.05 97.4835,113.383 95.5,113.5C 95.5048,110.682 94.1715,109.515 91.5,110C 93.1274,116.368 94.4607,122.868 95.5,129.5C 95.1667,130.5 94.8333,131.5 94.5,132.5C 93.6043,131.494 92.9377,131.494 92.5,132.5C 93.4465,134.059 94.1132,135.726 94.5,137.5C 92.6084,140.433 92.6084,143.433 94.5,146.5C 95.3414,148.379 95.6747,150.379 95.5,152.5C 93.4565,150.792 91.7899,148.792 90.5,146.5C 88.9799,143.433 87.3132,140.433 85.5,137.5C 85.2011,135.396 85.5344,133.396 86.5,131.5C 87.7989,132.09 88.6322,133.09 89,134.5C 89.8184,128.651 89.6517,122.985 88.5,117.5C 87.0197,112.791 86.0197,107.957 85.5,103C 85.3704,101.11 85.7037,100.277 86.5,100.5 Z"/></g>
<g><path style="opacity:1" fill="#936352" d="M 87.5,99.5 C 89.2624,101.7 91.5958,102.867 94.5,103C 97.1882,107.508 101.188,109.675 106.5,109.5C 107.263,110.268 108.263,110.768 109.5,111C 99.8781,111.898 92.2114,108.398 86.5,100.5C 87.1667,100.5 87.5,100.167 87.5,99.5 Z"/></g>
<g><path style="opacity:1" fill="#7c4f3f" d="M 126.5,111.5 C 127.235,116.785 127.735,122.118 128,127.5C 128.333,127.833 128.667,128.167 129,128.5C 129.278,127.584 129.778,126.918 130.5,126.5C 130.737,127.791 130.404,128.791 129.5,129.5C 128.957,129.56 128.624,129.893 128.5,130.5C 129.834,137.288 131.167,143.954 132.5,150.5C 132.852,153.073 132.352,155.406 131,157.5C 130.536,156.906 130.369,156.239 130.5,155.5C 131.427,148.934 129.427,143.601 124.5,139.5C 124.334,132.159 124.5,124.826 125,117.5C 125.191,115.292 125.691,113.292 126.5,111.5 Z"/></g>
<g><path style="opacity:1" fill="#e26b7b" d="M 61.5,126.5 C 61.6494,138.904 58.4827,150.237 52,160.5C 51.5065,162.134 51.3398,163.801 51.5,165.5C 49.8864,168.392 48.5531,171.392 47.5,174.5C 47.5,173.167 47.5,171.833 47.5,170.5C 48.4441,165.215 50.1107,160.215 52.5,155.5C 52.5613,153.279 51.8946,152.946 50.5,154.5C 51.1465,152.844 51.8131,151.177 52.5,149.5C 52.3918,148.558 52.0585,147.725 51.5,147C 54.8413,145.472 54.8413,143.472 51.5,141C 54.3057,136.909 53.9724,133.075 50.5,129.5C 51.8366,128.685 52.8366,127.518 53.5,126C 56.2205,125.398 58.8872,125.565 61.5,126.5 Z"/></g>
<g><path style="opacity:1" fill="#937d75" d="M 82.5,148.5 C 82.5,151.833 82.5,155.167 82.5,158.5C 81.171,154.603 80.0043,150.603 79,146.5C 78.5658,149.179 78.7325,151.846 79.5,154.5C 79.5034,157.602 79.0034,157.935 78,155.5C 76.3548,149.921 75.1881,144.254 74.5,138.5C 74.1489,136.131 73.9822,133.797 74,131.5C 77.5518,132.972 79.2185,131.638 79,127.5C 80.5862,134.438 81.7528,141.438 82.5,148.5 Z"/></g>
<g><path style="opacity:1" fill="#f09a97" d="M 168.5,117.5 C 170.291,118.391 172.124,119.391 174,120.5C 174.497,122.81 174.663,125.143 174.5,127.5C 176.752,126.667 178.919,126.667 181,127.5C 181.652,131.545 180.485,135.045 177.5,138C 177.836,139.03 178.503,139.53 179.5,139.5C 177.774,141.82 177.107,144.487 177.5,147.5C 177.338,149.527 177.505,151.527 178,153.5C 178.333,152.833 178.667,152.167 179,151.5C 179.579,152.928 179.412,154.262 178.5,155.5C 177.167,155.5 175.833,155.5 174.5,155.5C 173.126,146.213 172.126,136.879 171.5,127.5C 170.707,123.892 168.874,120.892 166,118.5C 165.29,119.973 164.124,120.64 162.5,120.5C 163.071,122.36 163.071,124.027 162.5,125.5C 161.335,124.504 160.668,123.171 160.5,121.5C 162.287,117.938 164.954,116.605 168.5,117.5 Z"/></g>
<g><path style="opacity:1" fill="#a78979" d="M 143.5,132.5 C 142.903,132.735 142.57,133.235 142.5,134C 143.789,139.727 146.123,144.894 149.5,149.5C 148.778,150.551 147.778,151.218 146.5,151.5C 145.269,148.039 143.769,144.706 142,141.5C 141,140.167 140,140.167 139,141.5C 137.514,139.422 135.514,138.089 133,137.5C 132.794,145.135 134.961,151.968 139.5,158C 138.906,158.464 138.239,158.631 137.5,158.5C 135.465,156.062 133.799,153.395 132.5,150.5C 131.167,143.954 129.834,137.288 128.5,130.5C 128.624,129.893 128.957,129.56 129.5,129.5C 131.678,131.745 134.012,133.745 136.5,135.5C 137.189,136.774 138.023,136.774 139,135.5C 139.333,130.5 139.667,125.5 140,120.5C 141.463,124.423 142.63,128.423 143.5,132.5 Z"/></g>
<g><path style="opacity:1" fill="#ec738d" d="M 177.5,147.5 C 177.107,144.487 177.774,141.82 179.5,139.5C 180.893,136.983 182.893,135.316 185.5,134.5C 185.52,139.134 184.354,143.467 182,147.5C 180.51,148.728 179.01,148.728 177.5,147.5 Z"/></g>
<g><path style="opacity:1" fill="#7f6458" d="M 146.5,151.5 C 145.732,152.263 145.232,153.263 145,154.5C 143.748,152.999 142.748,151.332 142,149.5C 140.391,150.147 138.891,150.98 137.5,152C 138.416,152.374 139.25,152.874 140,153.5C 141.07,156.242 142.57,158.742 144.5,161C 145.635,161.749 146.635,161.583 147.5,160.5C 144.947,160.46 143.947,158.794 144.5,155.5C 148.893,155.457 149.226,155.957 145.5,157C 148.203,159.468 151.203,161.468 154.5,163C 155.833,164 155.833,165 154.5,166C 158.19,166.424 158.357,167.258 155,168.5C 154.51,169.793 154.343,171.127 154.5,172.5C 153.073,174.148 152.24,176.148 152,178.5C 151.879,174.958 150.713,171.958 148.5,169.5C 148.249,167.83 147.582,166.33 146.5,165C 146.833,164.667 147.167,164.333 147.5,164C 143.314,163.632 139.98,161.799 137.5,158.5C 138.239,158.631 138.906,158.464 139.5,158C 134.961,151.968 132.794,145.135 133,137.5C 135.514,138.089 137.514,139.422 139,141.5C 140,140.167 141,140.167 142,141.5C 143.769,144.706 145.269,148.039 146.5,151.5 Z"/></g>
<g><path style="opacity:1" fill="#ef7291" d="M 50.5,129.5 C 53.9724,133.075 54.3057,136.909 51.5,141C 54.8413,143.472 54.8413,145.472 51.5,147C 52.0585,147.725 52.3918,148.558 52.5,149.5C 51.8131,151.177 51.1465,152.844 50.5,154.5C 49.6236,154.631 48.9569,154.298 48.5,153.5C 49.3829,152.452 50.0496,151.285 50.5,150C 48.9146,148.711 47.5813,147.211 46.5,145.5C 46.6799,144.446 47.0133,143.446 47.5,142.5C 45.9951,141.158 45.3285,139.492 45.5,137.5C 42.1667,137.5 38.8333,137.5 35.5,137.5C 35.7035,139.39 35.0368,140.89 33.5,142C 34.5,142.5 35.5,143 36.5,143.5C 38.4668,140.554 40.8001,140.054 43.5,142C 42.552,142.483 41.552,142.649 40.5,142.5C 40.5792,143.93 40.2458,145.264 39.5,146.5C 37.187,147.273 34.8537,147.94 32.5,148.5C 31.8182,147.757 31.1515,147.091 30.5,146.5C 30.0183,145.584 29.685,144.584 29.5,143.5C 31.049,141.098 31.7157,138.432 31.5,135.5C 33.932,135.972 36.2653,135.972 38.5,135.5C 39.4519,133.955 39.7852,132.288 39.5,130.5C 43.1788,130.276 46.8455,129.942 50.5,129.5 Z"/></g>
<g><path style="opacity:1" fill="#7d5e4c" d="M 162.5,128.5 C 165.352,130.573 166.018,133.239 164.5,136.5C 166.205,143.733 167.372,151.067 168,158.5C 168.236,160.119 169.069,161.119 170.5,161.5C 171.167,161.5 171.5,161.833 171.5,162.5C 170.778,162.918 170.278,163.584 170,164.5C 168.602,163.949 167.268,163.616 166,163.5C 166.053,167.172 166.22,170.839 166.5,174.5C 160.64,166.538 155.64,157.538 151.5,147.5C 151.509,145.339 152.176,144.006 153.5,143.5C 152.954,141.865 152.62,140.199 152.5,138.5C 153.673,136.659 153.673,134.826 152.5,133C 152.836,131.97 153.503,131.47 154.5,131.5C 155.231,138.435 156.064,138.769 157,132.5C 157.333,133.167 157.667,133.833 158,134.5C 158.698,133.309 159.531,132.309 160.5,131.5C 161.401,130.71 162.068,129.71 162.5,128.5 Z"/></g>
<g><path style="opacity:1" fill="#e27b87" d="M 31.5,135.5 C 31.7157,138.432 31.049,141.098 29.5,143.5C 29.685,144.584 30.0183,145.584 30.5,146.5C 28.9557,146.703 27.6223,147.37 26.5,148.5C 25.2937,152.072 24.627,155.738 24.5,159.5C 23.5,159.5 22.5,159.5 21.5,159.5C 21.8294,162.228 21.1628,164.562 19.5,166.5C 21.1717,158.812 23.0051,151.146 25,143.5C 26.9461,140.58 29.1128,137.913 31.5,135.5 Z"/></g>
<g><path style="opacity:1" fill="#e8c6bd" d="M 98.5,153.5 C 97.5,153.5 96.5,153.5 95.5,153.5C 95.5,153.167 95.5,152.833 95.5,152.5C 95.6747,150.379 95.3414,148.379 94.5,146.5C 93.237,141.273 95.237,138.44 100.5,138C 100.043,137.586 99.7093,137.086 99.5,136.5C 100.729,135.719 102.062,135.219 103.5,135C 102.289,134.107 102.289,133.274 103.5,132.5C 109.026,133.871 110.359,136.871 107.5,141.5C 109.695,144.435 112.695,146.102 116.5,146.5C 116.291,147.086 115.957,147.586 115.5,148C 109.758,150.211 104.092,152.045 98.5,153.5 Z"/></g>
<g><path style="opacity:1" fill="#e1ccba" d="M 152.5,138.5 C 152.62,140.199 152.954,141.865 153.5,143.5C 152.176,144.006 151.509,145.339 151.5,147.5C 151.768,149.099 151.434,150.432 150.5,151.5C 150.167,150.833 149.833,150.167 149.5,149.5C 146.123,144.894 143.789,139.727 142.5,134C 142.57,133.235 142.903,132.735 143.5,132.5C 144.434,131.432 144.768,130.099 144.5,128.5C 144.338,126.473 144.505,124.473 145,122.5C 145.27,125.362 146.104,128.028 147.5,130.5C 148.251,129.624 148.751,128.624 149,127.5C 150.309,131.254 151.475,134.921 152.5,138.5 Z"/></g>
<g><path style="opacity:1" fill="#894a3e" d="M 162.5,126.5 C 163.609,126.557 164.609,126.89 165.5,127.5C 167.014,131.191 168.68,134.858 170.5,138.5C 170.192,139.308 169.692,139.975 169,140.5C 167.999,147.67 168.499,154.67 170.5,161.5C 169.069,161.119 168.236,160.119 168,158.5C 167.372,151.067 166.205,143.733 164.5,136.5C 166.018,133.239 165.352,130.573 162.5,128.5C 162.5,127.833 162.5,127.167 162.5,126.5 Z"/></g>
<g><path style="opacity:1" fill="#fc658b" d="M 121.5,148.5 C 121.12,153.373 119.953,158.04 118,162.5C 116.652,165.567 114.652,167.234 112,167.5C 111.503,170.146 111.336,172.813 111.5,175.5C 110.448,175.351 109.448,175.517 108.5,176C 107.195,178.148 105.362,179.648 103,180.5C 102.691,179.234 102.191,178.067 101.5,177C 102.574,176.261 103.241,175.261 103.5,174C 102.593,168.651 101.593,163.317 100.5,158C 102.098,156.274 101.765,155.441 99.5,155.5C 107.392,155.204 114.726,152.871 121.5,148.5 Z"/></g>
<g><path style="opacity:1" fill="#684539" d="M 85.5,137.5 C 87.3132,140.433 88.9799,143.433 90.5,146.5C 90.6653,150.182 90.4986,153.848 90,157.5C 89.3333,156.833 88.6667,156.167 88,155.5C 86.0938,158.186 85.0938,161.852 85,166.5C 84.3292,167.252 83.4959,167.586 82.5,167.5C 82.5,164.5 82.5,161.5 82.5,158.5C 82.5,155.167 82.5,151.833 82.5,148.5C 83.3934,144.809 84.3934,141.142 85.5,137.5 Z"/></g>
<g><path style="opacity:1" fill="#f785a4" d="M 184.5,148.5 C 185.5,148.5 186.5,148.5 187.5,148.5C 187.955,151.462 189.121,154.129 191,156.5C 191.422,171.673 192.922,186.339 195.5,200.5C 193.391,194.127 192.058,187.46 191.5,180.5C 190.264,179.754 188.93,179.421 187.5,179.5C 190.33,172.977 189.996,166.644 186.5,160.5C 184.444,159.784 182.277,159.117 180,158.5C 178.457,161.419 176.957,161.752 175.5,159.5C 174.766,158.292 174.433,156.959 174.5,155.5C 175.833,155.5 177.167,155.5 178.5,155.5C 178.369,156.239 178.536,156.906 179,157.5C 181.321,154.77 183.154,151.77 184.5,148.5 Z"/></g>
<g><path style="opacity:1" fill="#ca6161" d="M 165.5,127.5 C 167.612,128.275 169.612,128.275 171.5,127.5C 172.126,136.879 173.126,146.213 174.5,155.5C 174.433,156.959 174.766,158.292 175.5,159.5C 175.5,162.5 175.5,165.5 175.5,168.5C 176.779,175.006 178.112,181.506 179.5,188C 179.26,190.016 178.926,192.016 178.5,194C 179.867,198.401 180.533,202.901 180.5,207.5C 179.833,207.5 179.167,207.5 178.5,207.5C 178.443,206.391 178.11,205.391 177.5,204.5C 179.914,203.223 180.081,201.557 178,199.5C 177.501,195.179 177.334,190.846 177.5,186.5C 176.801,180.941 175.468,175.608 173.5,170.5C 172.833,167.833 172.167,165.167 171.5,162.5C 171.5,161.833 171.167,161.5 170.5,161.5C 168.499,154.67 167.999,147.67 169,140.5C 169.692,139.975 170.192,139.308 170.5,138.5C 168.68,134.858 167.014,131.191 165.5,127.5 Z"/></g>
<g><path style="opacity:1" fill="#937769" d="M 76.5,177.5 C 71.0434,185.416 66.3767,193.749 62.5,202.5C 60.685,200.532 60.185,198.198 61,195.5C 61.414,195.957 61.914,196.291 62.5,196.5C 63.7087,194.585 65.042,192.752 66.5,191C 69.4806,184.26 71.6473,177.427 73,170.5C 69.8276,174.841 67.1609,179.508 65,184.5C 64.3333,185.833 63.6667,185.833 63,184.5C 62,187.833 61,191.167 60,194.5C 58.2237,191.331 58.0571,187.998 59.5,184.5C 58.9904,182.912 57.9904,181.745 56.5,181C 56.7607,179.073 56.7607,177.073 56.5,175C 57.5785,171.851 58.5785,168.684 59.5,165.5C 59.1924,164.692 58.6924,164.025 58,163.5C 56.5514,171.673 54.0514,179.339 50.5,186.5C 51.7686,179.721 52.7686,172.888 53.5,166C 54.4304,163.862 56.097,162.695 58.5,162.5C 59.1174,162.611 59.6174,162.944 60,163.5C 61.6667,158.167 63.3333,152.833 65,147.5C 65.4389,156.406 66.2723,156.572 67.5,148C 68.0085,146.831 68.8419,145.998 70,145.5C 70.0272,149.041 71.1939,152.041 73.5,154.5C 70.7996,161.784 71.2996,162.117 75,155.5C 75.0032,158.032 74.5032,160.532 73.5,163C 73.5944,165.954 74.0944,166.121 75,163.5C 76.3092,168.066 76.8092,172.733 76.5,177.5 Z"/></g>
<g><path style="opacity:1" fill="#fb5a83" d="M 43.5,169.5 C 39.6105,169.643 38.6105,171.476 40.5,175C 38.2064,177.013 38.2064,179.18 40.5,181.5C 38.0778,183.726 38.0778,186.06 40.5,188.5C 38.9087,198.03 40.242,207.363 44.5,216.5C 44.44,217.043 44.1067,217.376 43.5,217.5C 40.9941,215.494 38.8274,213.16 37,210.5C 36.8277,204.124 35.9943,197.79 34.5,191.5C 35.4891,190.532 36.1557,189.365 36.5,188C 36.3637,184.918 35.3637,182.251 33.5,180C 35.9166,178.327 35.9166,176.494 33.5,174.5C 27.4229,171.077 25.2563,172.744 27,179.5C 26.4236,182.124 25.0902,182.791 23,181.5C 22.5,183.5 22,185.5 21.5,187.5C 21.9186,188.672 22.5853,189.672 23.5,190.5C 23.2448,192.343 23.0781,194.343 23,196.5C 22.7104,194.956 22.0437,193.623 21,192.5C 20.6466,193.672 20.8132,194.838 21.5,196C 21.3613,197.301 20.6946,198.134 19.5,198.5C 19.3893,197.883 19.056,197.383 18.5,197C 19.994,189.624 20.8273,182.124 21,174.5C 21.6365,169.663 22.8032,164.996 24.5,160.5C 27.1824,164.517 30.1824,168.35 33.5,172C 35.0249,173.009 36.6916,173.509 38.5,173.5C 38.6495,172.448 38.4828,171.448 38,170.5C 34.8234,166.793 31.6567,163.126 28.5,159.5C 27.5713,158.311 27.238,156.978 27.5,155.5C 29.6957,155.565 31.6957,156.232 33.5,157.5C 35.6487,161.186 37.6487,164.853 39.5,168.5C 41.099,168.232 42.4324,168.566 43.5,169.5 Z"/></g>
<g><path style="opacity:1" fill="#9e6e62" d="M 62.5,123.5 C 62.8333,123.5 63.1667,123.5 63.5,123.5C 63.3341,128.511 63.5007,133.511 64,138.5C 64.3333,138.167 64.6667,137.833 65,137.5C 66.392,141.22 65.2253,143.22 61.5,143.5C 61.3618,147.431 60.3618,151.098 58.5,154.5C 59.6315,157.644 59.6315,160.311 58.5,162.5C 56.097,162.695 54.4304,163.862 53.5,166C 52.7686,172.888 51.7686,179.721 50.5,186.5C 50.5,188.833 50.5,191.167 50.5,193.5C 49.1419,184.255 49.4752,174.922 51.5,165.5C 51.3398,163.801 51.5065,162.134 52,160.5C 58.4827,150.237 61.6494,138.904 61.5,126.5C 61.2627,125.209 61.596,124.209 62.5,123.5 Z"/></g>
<g><path style="opacity:1" fill="#fae9ed" d="M 186.5,124.5 C 194.329,130.185 199.163,137.852 201,147.5C 203.16,161.098 204.66,174.764 205.5,188.5C 205.649,189.552 205.483,190.552 205,191.5C 203.868,189.661 203.035,187.661 202.5,185.5C 202.476,183.755 202.81,181.921 203.5,180C 202.426,172.893 200.759,166.059 198.5,159.5C 197.094,152.925 195.261,146.258 193,139.5C 191.951,137.893 190.451,137.227 188.5,137.5C 188.829,133.323 187.829,129.49 185.5,126C 185.57,125.235 185.903,124.735 186.5,124.5 Z"/></g>
<g><path style="opacity:1" fill="#f66588" d="M 50.5,154.5 C 51.8946,152.946 52.5613,153.279 52.5,155.5C 50.1107,160.215 48.4441,165.215 47.5,170.5C 46.8333,170.167 46.1667,169.833 45.5,169.5C 44.8333,169.5 44.1667,169.5 43.5,169.5C 42.4324,168.566 41.099,168.232 39.5,168.5C 37.6487,164.853 35.6487,161.186 33.5,157.5C 31.6957,156.232 29.6957,155.565 27.5,155.5C 27.238,156.978 27.5713,158.311 28.5,159.5C 31.6567,163.126 34.8234,166.793 38,170.5C 38.4828,171.448 38.6495,172.448 38.5,173.5C 36.6916,173.509 35.0249,173.009 33.5,172C 30.1824,168.35 27.1824,164.517 24.5,160.5C 22.8032,164.996 21.6365,169.663 21,174.5C 20.8273,182.124 19.994,189.624 18.5,197C 19.056,197.383 19.3893,197.883 19.5,198.5C 20.7924,201.287 20.7924,204.121 19.5,207C 19.8919,208.011 20.5585,208.511 21.5,208.5C 20.1369,209.893 19.3036,211.559 19,213.5C 18.6667,212.833 18.3333,212.167 18,211.5C 15.2451,217.667 13.0785,224 11.5,230.5C 10.8333,230.5 10.1667,230.5 9.5,230.5C 13.6753,209.27 17.0086,187.937 19.5,166.5C 21.1628,164.562 21.8294,162.228 21.5,159.5C 22.5,159.5 23.5,159.5 24.5,159.5C 24.627,155.738 25.2937,152.072 26.5,148.5C 27.6223,147.37 28.9557,146.703 30.5,146.5C 31.1515,147.091 31.8182,147.757 32.5,148.5C 34.8537,147.94 37.187,147.273 39.5,146.5C 40.2458,145.264 40.5792,143.93 40.5,142.5C 41.552,142.649 42.552,142.483 43.5,142C 40.8001,140.054 38.4668,140.554 36.5,143.5C 35.5,143 34.5,142.5 33.5,142C 35.0368,140.89 35.7035,139.39 35.5,137.5C 38.8333,137.5 42.1667,137.5 45.5,137.5C 45.3285,139.492 45.9951,141.158 47.5,142.5C 47.0133,143.446 46.6799,144.446 46.5,145.5C 47.5813,147.211 48.9146,148.711 50.5,150C 50.0496,151.285 49.3829,152.452 48.5,153.5C 48.9569,154.298 49.6236,154.631 50.5,154.5 Z"/></g>
<g><path style="opacity:1" fill="#7d6051" d="M 67.5,125.5 C 68.6676,129.201 69.8343,132.868 71,136.5C 71.3333,134.833 71.6667,133.167 72,131.5C 72.1558,134.191 72.9891,136.524 74.5,138.5C 75.1881,144.254 76.3548,149.921 78,155.5C 79.0034,157.935 79.5034,157.602 79.5,154.5C 78.7325,151.846 78.5658,149.179 79,146.5C 80.0043,150.603 81.171,154.603 82.5,158.5C 82.5,161.5 82.5,164.5 82.5,167.5C 82.6646,170.518 82.498,173.518 82,176.5C 81.6667,176.167 81.3333,175.833 81,175.5C 79.8904,177.037 78.3904,177.703 76.5,177.5C 76.8092,172.733 76.3092,168.066 75,163.5C 74.0944,166.121 73.5944,165.954 73.5,163C 74.5032,160.532 75.0032,158.032 75,155.5C 71.2996,162.117 70.7996,161.784 73.5,154.5C 71.1939,152.041 70.0272,149.041 70,145.5C 68.8419,145.998 68.0085,146.831 67.5,148C 66.2723,156.572 65.4389,156.406 65,147.5C 63.3333,152.833 61.6667,158.167 60,163.5C 59.6174,162.944 59.1174,162.611 58.5,162.5C 59.6315,160.311 59.6315,157.644 58.5,154.5C 60.3618,151.098 61.3618,147.431 61.5,143.5C 65.2253,143.22 66.392,141.22 65,137.5C 64.6667,137.833 64.3333,138.167 64,138.5C 63.5007,133.511 63.3341,128.511 63.5,123.5C 64.2216,123.082 64.7216,122.416 65,121.5C 65.1216,123.437 65.955,124.77 67.5,125.5 Z"/></g>
<g><path style="opacity:1" fill="#b3655d" d="M 124.5,139.5 C 129.427,143.601 131.427,148.934 130.5,155.5C 129.62,157.137 128.954,158.97 128.5,161C 130.296,162.753 131.462,164.92 132,167.5C 133.405,165.349 135.239,163.682 137.5,162.5C 138.653,165.152 140.487,167.152 143,168.5C 143.862,170.087 144.529,171.754 145,173.5C 145.654,172.304 146.154,172.304 146.5,173.5C 145.28,177.335 143.946,181.335 142.5,185.5C 142.007,180.4 141.007,175.4 139.5,170.5C 138.5,169.167 137.5,169.167 136.5,170.5C 136.152,173.41 134.652,175.41 132,176.5C 131.612,172.781 130.945,169.114 130,165.5C 129.586,165.043 129.086,164.709 128.5,164.5C 127.67,158.528 127.17,152.528 127,146.5C 126.372,143.046 125.205,142.713 123.5,145.5C 123.167,145.5 122.833,145.5 122.5,145.5C 123.63,143.685 124.296,141.685 124.5,139.5 Z"/></g>
<g><path style="opacity:1" fill="#966355" d="M 132.5,150.5 C 133.799,153.395 135.465,156.062 137.5,158.5C 139.98,161.799 143.314,163.632 147.5,164C 147.167,164.333 146.833,164.667 146.5,165C 147.582,166.33 148.249,167.83 148.5,169.5C 149.977,177.304 147.977,183.971 142.5,189.5C 143,190.5 143.5,191.5 144,192.5C 145.166,189.497 146.833,186.83 149,184.5C 149.35,188.381 148.85,192.048 147.5,195.5C 136.643,196.347 134.977,193.014 142.5,185.5C 143.946,181.335 145.28,177.335 146.5,173.5C 146.154,172.304 145.654,172.304 145,173.5C 144.529,171.754 143.862,170.087 143,168.5C 140.487,167.152 138.653,165.152 137.5,162.5C 135.239,163.682 133.405,165.349 132,167.5C 131.462,164.92 130.296,162.753 128.5,161C 128.954,158.97 129.62,157.137 130.5,155.5C 130.369,156.239 130.536,156.906 131,157.5C 132.352,155.406 132.852,153.073 132.5,150.5 Z"/></g>
<g><path style="opacity:1" fill="#d7ad8a" d="M 171.5,162.5 C 172.167,165.167 172.833,167.833 173.5,170.5C 172.475,171.374 171.808,172.541 171.5,174C 172.33,175.465 172.496,176.965 172,178.5C 170.853,176.269 169.853,173.935 169,171.5C 168.504,173.035 168.67,174.535 169.5,176C 169.101,177.728 168.434,179.228 167.5,180.5C 167.795,178.265 167.461,176.265 166.5,174.5C 166.22,170.839 166.053,167.172 166,163.5C 167.268,163.616 168.602,163.949 170,164.5C 170.278,163.584 170.778,162.918 171.5,162.5 Z"/></g>
<g><path style="opacity:1" fill="#f86288" d="M 186.5,160.5 C 186.714,164.092 187.381,167.592 188.5,171C 187.141,173.958 186.474,177.124 186.5,180.5C 187.822,180.33 188.989,180.663 190,181.5C 192.305,193.057 193.805,204.723 194.5,216.5C 197.471,216.435 200.138,217.269 202.5,219C 200.003,219.412 198.003,220.578 196.5,222.5C 197.859,224.518 199.193,226.518 200.5,228.5C 197.824,229.008 195.157,229.175 192.5,229C 193.167,228.667 193.833,228.333 194.5,228C 193.167,227.667 191.833,227.333 190.5,227C 191.167,226.667 191.833,226.333 192.5,226C 191.643,225.311 190.977,224.478 190.5,223.5C 191.711,222.28 191.711,221.113 190.5,220C 192.788,219.178 195.122,218.511 197.5,218C 194.424,217.654 191.424,216.988 188.5,216C 190.991,215.374 190.991,214.541 188.5,213.5C 189.229,211.024 189.896,208.524 190.5,206C 189.309,200.339 187.642,194.839 185.5,189.5C 186.719,183.678 185.719,178.345 182.5,173.5C 183.065,171.595 184.065,169.929 185.5,168.5C 184.194,167.088 183.36,165.421 183,163.5C 180.227,164.902 177.727,166.569 175.5,168.5C 175.5,165.5 175.5,162.5 175.5,159.5C 176.957,161.752 178.457,161.419 180,158.5C 182.277,159.117 184.444,159.784 186.5,160.5 Z"/></g>
<g><path style="opacity:1" fill="#6d5040" d="M 146.5,151.5 C 147.778,151.218 148.778,150.551 149.5,149.5C 149.833,150.167 150.167,150.833 150.5,151.5C 155.106,159.796 159.772,168.13 164.5,176.5C 163.675,177.386 162.675,177.719 161.5,177.5C 161.702,179.989 161.202,182.323 160,184.5C 159.722,183.584 159.222,182.918 158.5,182.5C 158.248,178.673 156.915,175.34 154.5,172.5C 154.343,171.127 154.51,169.793 155,168.5C 158.357,167.258 158.19,166.424 154.5,166C 155.833,165 155.833,164 154.5,163C 151.203,161.468 148.203,159.468 145.5,157C 149.226,155.957 148.893,155.457 144.5,155.5C 143.947,158.794 144.947,160.46 147.5,160.5C 146.635,161.583 145.635,161.749 144.5,161C 142.57,158.742 141.07,156.242 140,153.5C 139.25,152.874 138.416,152.374 137.5,152C 138.891,150.98 140.391,150.147 142,149.5C 142.748,151.332 143.748,152.999 145,154.5C 145.232,153.263 145.732,152.263 146.5,151.5 Z"/></g>
<g><path style="opacity:1" fill="#faccde" d="M 175.5,118.5 C 179.933,119.214 183.6,121.214 186.5,124.5C 185.903,124.735 185.57,125.235 185.5,126C 187.829,129.49 188.829,133.323 188.5,137.5C 190.451,137.227 191.951,137.893 193,139.5C 195.261,146.258 197.094,152.925 198.5,159.5C 199.935,176.627 201.602,193.627 203.5,210.5C 202.223,209.306 201.556,207.64 201.5,205.5C 201.286,198.532 200.286,191.698 198.5,185C 198.706,183.634 199.04,182.301 199.5,181C 199.164,179.97 198.497,179.47 197.5,179.5C 196.442,178.4 195.608,177.066 195,175.5C 194.965,166.944 193.798,158.611 191.5,150.5C 191.5,148.167 191.5,145.833 191.5,143.5C 190.127,143.657 188.793,143.49 187.5,143C 187.957,142.586 188.291,142.086 188.5,141.5C 187.682,131.587 183.348,123.92 175.5,118.5 Z"/></g>
<g><path style="opacity:1" fill="#f8657f" d="M 123.5,145.5 C 124.809,147.571 125.475,150.071 125.5,153C 125.021,157.846 124.854,162.68 125,167.5C 128.28,172.849 130.447,178.683 131.5,185C 130.923,187.137 130.59,189.304 130.5,191.5C 129.5,191.5 128.5,191.5 127.5,191.5C 126.764,198.88 128.431,199.88 132.5,194.5C 137.363,196.147 142.363,197.147 147.5,197.5C 147.167,199.5 146.833,201.5 146.5,203.5C 145.957,203.56 145.624,203.893 145.5,204.5C 147.104,206.179 147.771,208.179 147.5,210.5C 148.5,210.5 149.5,210.5 150.5,210.5C 150.444,215.111 152.777,217.444 157.5,217.5C 162.798,216.549 164.798,213.549 163.5,208.5C 166.082,208.025 168.082,208.692 169.5,210.5C 169.5,210.833 169.5,211.167 169.5,211.5C 166.255,212.745 163.922,215.078 162.5,218.5C 158.04,220.705 153.54,220.705 149,218.5C 146.723,210.263 142.223,203.596 135.5,198.5C 133.615,199.609 131.615,200.443 129.5,201C 127.893,202.049 127.227,203.549 127.5,205.5C 122.768,204.978 121.101,202.645 122.5,198.5C 123.695,198.134 124.361,197.301 124.5,196C 122.624,192.344 121.124,188.51 120,184.5C 120.29,189.231 119.457,193.898 117.5,198.5C 115.86,200.583 113.86,200.916 111.5,199.5C 111.823,195.774 111.489,192.107 110.5,188.5C 109.402,187.385 108.235,187.385 107,188.5C 105.779,187.728 104.779,186.728 104,185.5C 103.55,188.106 102.05,189.439 99.5,189.5C 99.2865,191.144 99.6198,192.644 100.5,194C 97.9804,195.763 95.6471,197.763 93.5,200C 91.5,200.667 89.5,200.667 87.5,200C 83.9069,198.219 80.2402,196.719 76.5,195.5C 75.2301,198.382 74.2301,201.382 73.5,204.5C 71.8333,205.167 70.1667,205.833 68.5,206.5C 68.5,205.167 68.5,203.833 68.5,202.5C 69.2161,202.217 70.0494,201.884 71,201.5C 72.1268,198.623 72.7935,195.623 73,192.5C 74.1646,188.068 75.6646,187.735 77.5,191.5C 79.5225,189.827 81.8559,189.16 84.5,189.5C 84.5,188.167 84.5,186.833 84.5,185.5C 85.3149,184.571 86.1482,183.571 87,182.5C 87.3333,183.167 87.6667,183.833 88,184.5C 88.091,188.253 88.2577,191.92 88.5,195.5C 90.7016,196.78 92.8683,196.78 95,195.5C 96.1194,188.525 97.1194,181.525 98,174.5C 99.2131,172.87 100.046,171.036 100.5,169C 98.6087,164.44 98.2753,159.94 99.5,155.5C 101.765,155.441 102.098,156.274 100.5,158C 101.593,163.317 102.593,168.651 103.5,174C 103.241,175.261 102.574,176.261 101.5,177C 102.191,178.067 102.691,179.234 103,180.5C 105.362,179.648 107.195,178.148 108.5,176C 109.448,175.517 110.448,175.351 111.5,175.5C 111.336,172.813 111.503,170.146 112,167.5C 114.652,167.234 116.652,165.567 118,162.5C 119.953,158.04 121.12,153.373 121.5,148.5C 122.167,147.5 122.833,146.5 123.5,145.5 Z"/></g>
<g><path style="opacity:1" fill="#f9dfee" d="M 198.5,159.5 C 200.759,166.059 202.426,172.893 203.5,180C 202.81,181.921 202.476,183.755 202.5,185.5C 203.035,187.661 203.868,189.661 205,191.5C 205.483,190.552 205.649,189.552 205.5,188.5C 208.17,198.205 209.837,208.205 210.5,218.5C 208.445,217.052 206.278,215.719 204,214.5C 203.51,213.207 203.343,211.873 203.5,210.5C 201.602,193.627 199.935,176.627 198.5,159.5 Z"/></g>
<g><path style="opacity:1" fill="#b9645d" d="M 95.5,154.5 C 97.0468,156.807 97.7135,159.473 97.5,162.5C 96.1338,169.751 95.3004,177.084 95,184.5C 94.586,184.957 94.086,185.291 93.5,185.5C 92.1955,182.362 90.0288,180.029 87,178.5C 85.4766,180.569 84.6432,182.903 84.5,185.5C 83.596,186.209 83.2627,187.209 83.5,188.5C 79.5541,188.512 77.8874,186.512 78.5,182.5C 79.82,182.447 81.1534,182.447 82.5,182.5C 83.1667,179.167 83.8333,175.833 84.5,172.5C 85.8415,170.995 87.5082,170.328 89.5,170.5C 89.1485,173.073 89.6485,175.406 91,177.5C 91.3333,170.833 91.6667,164.167 92,157.5C 92.7202,155.944 93.8868,154.944 95.5,154.5 Z"/></g>
<g><path style="opacity:1" fill="#faa4c5" d="M 191.5,150.5 C 193.798,158.611 194.965,166.944 195,175.5C 195.608,177.066 196.442,178.4 197.5,179.5C 197.92,188.532 198.754,197.532 200,206.5C 200.476,210.118 201.643,213.452 203.5,216.5C 201.856,216.714 200.356,216.38 199,215.5C 197.493,210.444 196.326,205.444 195.5,200.5C 192.922,186.339 191.422,171.673 191,156.5C 189.121,154.129 187.955,151.462 187.5,148.5C 186.5,148.5 185.5,148.5 184.5,148.5C 185.635,146.787 187.302,146.12 189.5,146.5C 189.229,148.38 189.896,149.713 191.5,150.5 Z"/></g>
<g><path style="opacity:1" fill="#fc608a" d="M 44.5,216.5 C 44.8333,216.5 45.1667,216.5 45.5,216.5C 45.5,221.167 45.5,225.833 45.5,230.5C 44.8333,230.5 44.1667,230.5 43.5,230.5C 43.9369,225.588 43.1036,220.922 41,216.5C 40.586,216.957 40.086,217.291 39.5,217.5C 38.2997,216.469 36.9663,215.635 35.5,215C 35.9574,214.586 36.2907,214.086 36.5,213.5C 32.7698,206.906 31.7698,199.906 33.5,192.5C 32.0222,192.762 30.6888,192.429 29.5,191.5C 30.9905,190.756 32.4905,190.09 34,189.5C 33.4156,187.3 33.5823,185.133 34.5,183C 32.6667,181.833 30.8333,180.667 29,179.5C 27.3181,180.865 27.1514,182.365 28.5,184C 26.9491,188.166 25.9491,192.5 25.5,197C 26.6867,199.479 26.6867,201.979 25.5,204.5C 25.7092,205.994 26.3759,207.161 27.5,208C 25.1263,213.537 23.1263,219.203 21.5,225C 25.1554,226.475 24.8221,227.809 20.5,229C 21.7375,229.232 22.7375,229.732 23.5,230.5C 19.5,230.5 15.5,230.5 11.5,230.5C 13.0785,224 15.2451,217.667 18,211.5C 18.3333,212.167 18.6667,212.833 19,213.5C 19.3036,211.559 20.1369,209.893 21.5,208.5C 20.5585,208.511 19.8919,208.011 19.5,207C 20.7924,204.121 20.7924,201.287 19.5,198.5C 20.6946,198.134 21.3613,197.301 21.5,196C 20.8132,194.838 20.6466,193.672 21,192.5C 22.0437,193.623 22.7104,194.956 23,196.5C 23.0781,194.343 23.2448,192.343 23.5,190.5C 22.5853,189.672 21.9186,188.672 21.5,187.5C 22,185.5 22.5,183.5 23,181.5C 25.0902,182.791 26.4236,182.124 27,179.5C 25.2563,172.744 27.4229,171.077 33.5,174.5C 35.9166,176.494 35.9166,178.327 33.5,180C 35.3637,182.251 36.3637,184.918 36.5,188C 36.1557,189.365 35.4891,190.532 34.5,191.5C 35.9943,197.79 36.8277,204.124 37,210.5C 38.8274,213.16 40.9941,215.494 43.5,217.5C 44.1067,217.376 44.44,217.043 44.5,216.5 Z"/></g>
<g><path style="opacity:1" fill="#eecab5" d="M 173.5,170.5 C 175.468,175.608 176.801,180.941 177.5,186.5C 176.624,186.369 175.957,186.702 175.5,187.5C 176.766,189.972 176.766,192.306 175.5,194.5C 174.686,192.369 174.186,190.036 174,187.5C 173.667,188.5 173.333,189.5 173,190.5C 172.333,188.5 171.667,186.5 171,184.5C 170.667,185.833 170.333,187.167 170,188.5C 169.439,185.721 168.606,183.054 167.5,180.5C 168.434,179.228 169.101,177.728 169.5,176C 168.67,174.535 168.504,173.035 169,171.5C 169.853,173.935 170.853,176.269 172,178.5C 172.496,176.965 172.33,175.465 171.5,174C 171.808,172.541 172.475,171.374 173.5,170.5 Z"/></g>
<g><path style="opacity:1" fill="#f75378" d="M 200.5,228.5 C 199.5,229.167 198.5,229.833 197.5,230.5C 194.5,230.5 191.5,230.5 188.5,230.5C 189.66,228.797 188.993,228.131 186.5,228.5C 188.648,220.731 186.648,214.398 180.5,209.5C 180.5,208.833 180.5,208.167 180.5,207.5C 180.533,202.901 179.867,198.401 178.5,194C 178.926,192.016 179.26,190.016 179.5,188C 178.112,181.506 176.779,175.006 175.5,168.5C 177.727,166.569 180.227,164.902 183,163.5C 183.36,165.421 184.194,167.088 185.5,168.5C 184.065,169.929 183.065,171.595 182.5,173.5C 185.719,178.345 186.719,183.678 185.5,189.5C 187.642,194.839 189.309,200.339 190.5,206C 189.896,208.524 189.229,211.024 188.5,213.5C 190.991,214.541 190.991,215.374 188.5,216C 191.424,216.988 194.424,217.654 197.5,218C 195.122,218.511 192.788,219.178 190.5,220C 191.711,221.113 191.711,222.28 190.5,223.5C 190.977,224.478 191.643,225.311 192.5,226C 191.833,226.333 191.167,226.667 190.5,227C 191.833,227.333 193.167,227.667 194.5,228C 193.833,228.333 193.167,228.667 192.5,229C 195.157,229.175 197.824,229.008 200.5,228.5 Z"/></g>
<g><path style="opacity:1" fill="#c6957e" d="M 148.5,169.5 C 150.713,171.958 151.879,174.958 152,178.5C 152.24,176.148 153.073,174.148 154.5,172.5C 156.915,175.34 158.248,178.673 158.5,182.5C 158.5,183.5 158.5,184.5 158.5,185.5C 159.822,185.67 160.989,185.337 162,184.5C 162.471,182.754 163.138,181.087 164,179.5C 166.21,180.49 166.71,181.824 165.5,183.5C 165.44,182.957 165.107,182.624 164.5,182.5C 163.338,187.467 163.171,192.467 164,197.5C 165.585,198.376 166.585,199.709 167,201.5C 167.399,201.272 167.565,200.938 167.5,200.5C 168.401,201.29 169.068,202.29 169.5,203.5C 169.5,203.833 169.5,204.167 169.5,204.5C 168.883,204.611 168.383,204.944 168,205.5C 167.29,204.027 166.124,203.36 164.5,203.5C 164.762,202.022 164.429,200.689 163.5,199.5C 161.455,197.159 159.455,194.826 157.5,192.5C 156.311,191.571 154.978,191.238 153.5,191.5C 153.205,195.129 151.205,197.129 147.5,197.5C 147.5,196.833 147.5,196.167 147.5,195.5C 148.85,192.048 149.35,188.381 149,184.5C 146.833,186.83 145.166,189.497 144,192.5C 143.5,191.5 143,190.5 142.5,189.5C 147.977,183.971 149.977,177.304 148.5,169.5 Z"/></g>
<g><path style="opacity:1" fill="#dc6b6f" d="M 142.5,185.5 C 134.977,193.014 136.643,196.347 147.5,195.5C 147.5,196.167 147.5,196.833 147.5,197.5C 142.363,197.147 137.363,196.147 132.5,194.5C 128.431,199.88 126.764,198.88 127.5,191.5C 128.5,191.5 129.5,191.5 130.5,191.5C 130.59,189.304 130.923,187.137 131.5,185C 130.447,178.683 128.28,172.849 125,167.5C 124.854,162.68 125.021,157.846 125.5,153C 125.475,150.071 124.809,147.571 123.5,145.5C 125.205,142.713 126.372,143.046 127,146.5C 127.17,152.528 127.67,158.528 128.5,164.5C 129.086,164.709 129.586,165.043 130,165.5C 130.945,169.114 131.612,172.781 132,176.5C 134.652,175.41 136.152,173.41 136.5,170.5C 137.5,169.167 138.5,169.167 139.5,170.5C 141.007,175.4 142.007,180.4 142.5,185.5 Z"/></g>
<g><path style="opacity:1" fill="#f5496d" d="M 43.5,169.5 C 44.1667,169.5 44.8333,169.5 45.5,169.5C 45.3971,181.212 46.0638,192.879 47.5,204.5C 46.9239,208.536 46.2572,212.536 45.5,216.5C 45.1667,216.5 44.8333,216.5 44.5,216.5C 40.242,207.363 38.9087,198.03 40.5,188.5C 38.0778,186.06 38.0778,183.726 40.5,181.5C 38.2064,179.18 38.2064,177.013 40.5,175C 38.6105,171.476 39.6105,169.643 43.5,169.5 Z"/></g>
<g><path style="opacity:1" fill="#ce6064" d="M 78.5,182.5 C 77.8874,186.512 79.5541,188.512 83.5,188.5C 83.2627,187.209 83.596,186.209 84.5,185.5C 84.5,186.833 84.5,188.167 84.5,189.5C 81.8559,189.16 79.5225,189.827 77.5,191.5C 75.6646,187.735 74.1646,188.068 73,192.5C 72.7935,195.623 72.1268,198.623 71,201.5C 70.0494,201.884 69.2161,202.217 68.5,202.5C 66.078,203.085 64.4113,204.585 63.5,207C 62.5,207.167 61.5,207.333 60.5,207.5C 58.9704,207.36 57.9704,206.693 57.5,205.5C 59.5412,205.146 61.3745,205.146 63,205.5C 68.0149,197.966 72.1815,189.966 75.5,181.5C 77.2249,179.908 78.2249,180.242 78.5,182.5 Z"/></g>
<g><path style="opacity:1" fill="#d7b99f" d="M 165.5,183.5 C 166.167,184.833 166.833,186.167 167.5,187.5C 167.5,191.833 167.5,196.167 167.5,200.5C 167.565,200.938 167.399,201.272 167,201.5C 166.585,199.709 165.585,198.376 164,197.5C 163.171,192.467 163.338,187.467 164.5,182.5C 165.107,182.624 165.44,182.957 165.5,183.5 Z"/></g>
<g><path style="opacity:1" fill="#826152" d="M 62.5,202.5 C 58.9932,203.056 56.6599,201.39 55.5,197.5C 52.2038,198.558 50.5372,197.225 50.5,193.5C 50.5,191.167 50.5,188.833 50.5,186.5C 54.0514,179.339 56.5514,171.673 58,163.5C 58.6924,164.025 59.1924,164.692 59.5,165.5C 58.5785,168.684 57.5785,171.851 56.5,175C 56.7607,177.073 56.7607,179.073 56.5,181C 57.9904,181.745 58.9904,182.912 59.5,184.5C 58.0571,187.998 58.2237,191.331 60,194.5C 61,191.167 62,187.833 63,184.5C 63.6667,185.833 64.3333,185.833 65,184.5C 67.1609,179.508 69.8276,174.841 73,170.5C 71.6473,177.427 69.4806,184.26 66.5,191C 65.042,192.752 63.7087,194.585 62.5,196.5C 61.914,196.291 61.414,195.957 61,195.5C 60.185,198.198 60.685,200.532 62.5,202.5 Z"/></g>
<g><path style="opacity:1" fill="#e46d77" d="M 122.5,145.5 C 122.833,145.5 123.167,145.5 123.5,145.5C 122.833,146.5 122.167,147.5 121.5,148.5C 114.726,152.871 107.392,155.204 99.5,155.5C 98.2753,159.94 98.6087,164.44 100.5,169C 100.046,171.036 99.2131,172.87 98,174.5C 97.1194,181.525 96.1194,188.525 95,195.5C 92.8683,196.78 90.7016,196.78 88.5,195.5C 88.2577,191.92 88.091,188.253 88,184.5C 87.6667,183.833 87.3333,183.167 87,182.5C 86.1482,183.571 85.3149,184.571 84.5,185.5C 84.6432,182.903 85.4766,180.569 87,178.5C 90.0288,180.029 92.1955,182.362 93.5,185.5C 94.086,185.291 94.586,184.957 95,184.5C 95.3004,177.084 96.1338,169.751 97.5,162.5C 97.7135,159.473 97.0468,156.807 95.5,154.5C 95.5,154.167 95.5,153.833 95.5,153.5C 96.5,153.5 97.5,153.5 98.5,153.5C 103.33,153.613 107.997,152.78 112.5,151C 114.584,150.303 116.251,149.136 117.5,147.5C 119.284,147.107 120.95,146.441 122.5,145.5 Z"/></g>
<g><path style="opacity:1" fill="#ab846e" d="M 151.5,147.5 C 155.64,157.538 160.64,166.538 166.5,174.5C 167.461,176.265 167.795,178.265 167.5,180.5C 168.606,183.054 169.439,185.721 170,188.5C 170.333,187.167 170.667,185.833 171,184.5C 171.667,186.5 172.333,188.5 173,190.5C 173.333,189.5 173.667,188.5 174,187.5C 174.186,190.036 174.686,192.369 175.5,194.5C 175.298,196.95 175.631,199.283 176.5,201.5C 175.833,201.5 175.167,201.5 174.5,201.5C 174.477,199.073 173.977,196.74 173,194.5C 172.333,195.833 171.667,195.833 171,194.5C 170.102,191.931 168.935,189.598 167.5,187.5C 166.833,186.167 166.167,184.833 165.5,183.5C 166.71,181.824 166.21,180.49 164,179.5C 163.138,181.087 162.471,182.754 162,184.5C 160.989,185.337 159.822,185.67 158.5,185.5C 158.5,184.5 158.5,183.5 158.5,182.5C 159.222,182.918 159.722,183.584 160,184.5C 161.202,182.323 161.702,179.989 161.5,177.5C 162.675,177.719 163.675,177.386 164.5,176.5C 159.772,168.13 155.106,159.796 150.5,151.5C 151.434,150.432 151.768,149.099 151.5,147.5 Z"/></g>
<g><path style="opacity:1" fill="#fd628b" d="M 122.5,198.5 C 119.675,199.478 118.342,201.478 118.5,204.5C 115.834,204.933 113.168,205.433 110.5,206C 104.224,210.321 96.8906,214.154 88.5,217.5C 87.6143,216.675 87.281,215.675 87.5,214.5C 84.4816,214.665 81.4816,214.498 78.5,214C 76.3603,211.08 74.6937,207.913 73.5,204.5C 74.2301,201.382 75.2301,198.382 76.5,195.5C 80.2402,196.719 83.9069,198.219 87.5,200C 89.5,200.667 91.5,200.667 93.5,200C 95.6471,197.763 97.9804,195.763 100.5,194C 99.6198,192.644 99.2865,191.144 99.5,189.5C 102.05,189.439 103.55,188.106 104,185.5C 104.779,186.728 105.779,187.728 107,188.5C 108.235,187.385 109.402,187.385 110.5,188.5C 111.489,192.107 111.823,195.774 111.5,199.5C 113.86,200.916 115.86,200.583 117.5,198.5C 119.457,193.898 120.29,189.231 120,184.5C 121.124,188.51 122.624,192.344 124.5,196C 124.361,197.301 123.695,198.134 122.5,198.5 Z"/></g>
<g><path style="opacity:1" fill="#9b574d" d="M 90.5,146.5 C 91.7899,148.792 93.4565,150.792 95.5,152.5C 95.5,152.833 95.5,153.167 95.5,153.5C 95.5,153.833 95.5,154.167 95.5,154.5C 93.8868,154.944 92.7202,155.944 92,157.5C 91.6667,164.167 91.3333,170.833 91,177.5C 89.6485,175.406 89.1485,173.073 89.5,170.5C 87.5082,170.328 85.8415,170.995 84.5,172.5C 83.8333,175.833 83.1667,179.167 82.5,182.5C 81.1534,182.447 79.82,182.447 78.5,182.5C 78.2249,180.242 77.2249,179.908 75.5,181.5C 72.1815,189.966 68.0149,197.966 63,205.5C 61.3745,205.146 59.5412,205.146 57.5,205.5C 54.941,204.117 52.441,202.45 50,200.5C 47.3926,191.811 46.5593,183.144 47.5,174.5C 48.5531,171.392 49.8864,168.392 51.5,165.5C 49.4752,174.922 49.1419,184.255 50.5,193.5C 50.5372,197.225 52.2038,198.558 55.5,197.5C 56.6599,201.39 58.9932,203.056 62.5,202.5C 66.3767,193.749 71.0434,185.416 76.5,177.5C 78.3904,177.703 79.8904,177.037 81,175.5C 81.3333,175.833 81.6667,176.167 82,176.5C 82.498,173.518 82.6646,170.518 82.5,167.5C 83.4959,167.586 84.3292,167.252 85,166.5C 85.0938,161.852 86.0938,158.186 88,155.5C 88.6667,156.167 89.3333,156.833 90,157.5C 90.4986,153.848 90.6653,150.182 90.5,146.5 Z"/></g>
<g><path style="opacity:1" fill="#f8739c" d="M 186.5,160.5 C 189.996,166.644 190.33,172.977 187.5,179.5C 188.93,179.421 190.264,179.754 191.5,180.5C 192.058,187.46 193.391,194.127 195.5,200.5C 196.326,205.444 197.493,210.444 199,215.5C 200.356,216.38 201.856,216.714 203.5,216.5C 204.574,217.885 205.907,219.051 207.5,220C 199.436,222.364 199.103,224.697 206.5,227C 207.823,227.816 208.489,228.983 208.5,230.5C 204.833,230.5 201.167,230.5 197.5,230.5C 198.5,229.833 199.5,229.167 200.5,228.5C 199.193,226.518 197.859,224.518 196.5,222.5C 198.003,220.578 200.003,219.412 202.5,219C 200.138,217.269 197.471,216.435 194.5,216.5C 193.805,204.723 192.305,193.057 190,181.5C 188.989,180.663 187.822,180.33 186.5,180.5C 186.474,177.124 187.141,173.958 188.5,171C 187.381,167.592 186.714,164.092 186.5,160.5 Z"/></g>
<g><path style="opacity:1" fill="#fd6592" d="M 43.5,230.5 C 36.8333,230.5 30.1667,230.5 23.5,230.5C 22.7375,229.732 21.7375,229.232 20.5,229C 24.8221,227.809 25.1554,226.475 21.5,225C 23.1263,219.203 25.1263,213.537 27.5,208C 26.3759,207.161 25.7092,205.994 25.5,204.5C 26.6867,201.979 26.6867,199.479 25.5,197C 25.9491,192.5 26.9491,188.166 28.5,184C 27.1514,182.365 27.3181,180.865 29,179.5C 30.8333,180.667 32.6667,181.833 34.5,183C 33.5823,185.133 33.4156,187.3 34,189.5C 32.4905,190.09 30.9905,190.756 29.5,191.5C 30.6888,192.429 32.0222,192.762 33.5,192.5C 31.7698,199.906 32.7698,206.906 36.5,213.5C 36.2907,214.086 35.9574,214.586 35.5,215C 36.9663,215.635 38.2997,216.469 39.5,217.5C 40.086,217.291 40.586,216.957 41,216.5C 43.1036,220.922 43.9369,225.588 43.5,230.5 Z"/></g>
<g><path style="opacity:1" fill="#7c533f" d="M 167.5,187.5 C 168.935,189.598 170.102,191.931 171,194.5C 171.667,195.833 172.333,195.833 173,194.5C 173.977,196.74 174.477,199.073 174.5,201.5C 171.248,195.027 170.248,195.193 171.5,202C 171.164,203.03 170.497,203.53 169.5,203.5C 169.068,202.29 168.401,201.29 167.5,200.5C 167.5,196.167 167.5,191.833 167.5,187.5 Z"/></g>
<g><path style="opacity:1" fill="#e3928a" d="M 177.5,186.5 C 177.334,190.846 177.501,195.179 178,199.5C 180.081,201.557 179.914,203.223 177.5,204.5C 177.443,203.391 177.11,202.391 176.5,201.5C 175.631,199.283 175.298,196.95 175.5,194.5C 176.766,192.306 176.766,189.972 175.5,187.5C 175.957,186.702 176.624,186.369 177.5,186.5 Z"/></g>
<g><path style="opacity:1" fill="#e86c74" d="M 169.5,204.5 C 169.833,205.167 170.167,205.833 170.5,206.5C 170.768,208.099 170.434,209.432 169.5,210.5C 168.082,208.692 166.082,208.025 163.5,208.5C 159.924,207.058 156.591,205.225 153.5,203C 151.153,202.666 148.819,202.833 146.5,203.5C 146.833,201.5 147.167,199.5 147.5,197.5C 151.205,197.129 153.205,195.129 153.5,191.5C 154.978,191.238 156.311,191.571 157.5,192.5C 159.455,194.826 161.455,197.159 163.5,199.5C 164.429,200.689 164.762,202.022 164.5,203.5C 166.124,203.36 167.29,204.027 168,205.5C 168.383,204.944 168.883,204.611 169.5,204.5 Z"/></g>
<g><path style="opacity:1" fill="#742e25" d="M 174.5,201.5 C 175.167,201.5 175.833,201.5 176.5,201.5C 177.11,202.391 177.443,203.391 177.5,204.5C 178.11,205.391 178.443,206.391 178.5,207.5C 176.8,207.626 175.3,208.293 174,209.5C 172.401,208.929 171.234,207.929 170.5,206.5C 170.167,205.833 169.833,205.167 169.5,204.5C 169.5,204.167 169.5,203.833 169.5,203.5C 170.497,203.53 171.164,203.03 171.5,202C 170.248,195.193 171.248,195.027 174.5,201.5 Z"/></g>
<g><path style="opacity:1" fill="#fd557c" d="M 122.5,198.5 C 121.101,202.645 122.768,204.978 127.5,205.5C 127.227,203.549 127.893,202.049 129.5,201C 131.615,200.443 133.615,199.609 135.5,198.5C 142.223,203.596 146.723,210.263 149,218.5C 153.54,220.705 158.04,220.705 162.5,218.5C 163.922,215.078 166.255,212.745 169.5,211.5C 167.847,215.493 166.18,219.493 164.5,223.5C 165.374,225.747 165.708,228.08 165.5,230.5C 160.833,230.5 156.167,230.5 151.5,230.5C 152.398,229.842 153.398,229.176 154.5,228.5C 149.178,226.204 144.845,222.204 141.5,216.5C 138.171,214.222 134.505,212.555 130.5,211.5C 129.252,212.04 128.085,212.707 127,213.5C 125.334,212.66 125.167,213.16 126.5,215C 124.072,216.654 121.739,218.488 119.5,220.5C 120.326,221.451 120.492,222.451 120,223.5C 119,223.833 118,224.167 117,224.5C 116.226,226.403 116.56,228.07 118,229.5C 118.333,228.5 118.667,227.5 119,226.5C 119.48,228.133 120.313,229.466 121.5,230.5C 110.5,230.5 99.5,230.5 88.5,230.5C 89.6785,228.493 89.1785,228.16 87,229.5C 82.1394,225.973 77.9728,221.806 74.5,217C 68.9028,216.307 66.2361,213.141 66.5,207.5C 66.8417,206.662 67.5084,206.328 68.5,206.5C 70.1667,205.833 71.8333,205.167 73.5,204.5C 74.6937,207.913 76.3603,211.08 78.5,214C 81.4816,214.498 84.4816,214.665 87.5,214.5C 87.281,215.675 87.6143,216.675 88.5,217.5C 96.8906,214.154 104.224,210.321 110.5,206C 113.168,205.433 115.834,204.933 118.5,204.5C 118.342,201.478 119.675,199.478 122.5,198.5 Z"/></g>
<g><path style="opacity:1" fill="#fa4b6b" d="M 66.5,207.5 C 66.2361,213.141 68.9028,216.307 74.5,217C 77.9728,221.806 82.1394,225.973 87,229.5C 89.1785,228.16 89.6785,228.493 88.5,230.5C 81.5,230.5 74.5,230.5 67.5,230.5C 65.2129,226.264 62.2129,222.598 58.5,219.5C 57.5159,216.572 57.1826,213.572 57.5,210.5C 59.1992,210.66 60.8659,210.494 62.5,210C 63.4709,208.519 64.8042,207.685 66.5,207.5 Z"/></g>
<g><path style="opacity:1" fill="#fd4d72" d="M 151.5,230.5 C 141.5,230.5 131.5,230.5 121.5,230.5C 120.313,229.466 119.48,228.133 119,226.5C 118.667,227.5 118.333,228.5 118,229.5C 116.56,228.07 116.226,226.403 117,224.5C 118,224.167 119,223.833 120,223.5C 120.492,222.451 120.326,221.451 119.5,220.5C 121.739,218.488 124.072,216.654 126.5,215C 125.167,213.16 125.334,212.66 127,213.5C 128.085,212.707 129.252,212.04 130.5,211.5C 134.505,212.555 138.171,214.222 141.5,216.5C 144.845,222.204 149.178,226.204 154.5,228.5C 153.398,229.176 152.398,229.842 151.5,230.5 Z"/></g>
<g><path style="opacity:1" fill="#cf344e" d="M 170.5,206.5 C 171.234,207.929 172.401,208.929 174,209.5C 175.3,208.293 176.8,207.626 178.5,207.5C 179.167,207.5 179.833,207.5 180.5,207.5C 180.5,208.167 180.5,208.833 180.5,209.5C 177.778,216.242 177.111,223.242 178.5,230.5C 177.833,230.5 177.167,230.5 176.5,230.5C 176.679,228.046 176.013,225.879 174.5,224C 175.71,220.826 175.71,217.659 174.5,214.5C 173.505,219.792 173.172,225.125 173.5,230.5C 170.833,230.5 168.167,230.5 165.5,230.5C 165.708,228.08 165.374,225.747 164.5,223.5C 166.18,219.493 167.847,215.493 169.5,211.5C 169.5,211.167 169.5,210.833 169.5,210.5C 170.434,209.432 170.768,208.099 170.5,206.5 Z"/></g>
<g><path style="opacity:1" fill="#f7bad4" d="M 197.5,179.5 C 198.497,179.47 199.164,179.97 199.5,181C 199.04,182.301 198.706,183.634 198.5,185C 200.286,191.698 201.286,198.532 201.5,205.5C 201.556,207.64 202.223,209.306 203.5,210.5C 203.343,211.873 203.51,213.207 204,214.5C 206.278,215.719 208.445,217.052 210.5,218.5C 211.92,222.538 213.586,226.538 215.5,230.5C 214.5,230.5 213.5,230.5 212.5,230.5C 212.611,229.883 212.944,229.383 213.5,229C 210.5,226.667 207.5,224.333 204.5,222C 206.235,221.349 207.902,221.515 209.5,222.5C 209.444,219.102 207.444,217.102 203.5,216.5C 201.643,213.452 200.476,210.118 200,206.5C 198.754,197.532 197.92,188.532 197.5,179.5 Z"/></g>
<g><path style="opacity:1" fill="#fc7ca2" d="M 163.5,208.5 C 164.798,213.549 162.798,216.549 157.5,217.5C 152.777,217.444 150.444,215.111 150.5,210.5C 149.5,210.5 148.5,210.5 147.5,210.5C 147.771,208.179 147.104,206.179 145.5,204.5C 145.624,203.893 145.957,203.56 146.5,203.5C 148.819,202.833 151.153,202.666 153.5,203C 156.591,205.225 159.924,207.058 163.5,208.5 Z"/></g>
<g><path style="opacity:1" fill="#c23e4d" d="M 45.5,169.5 C 46.1667,169.833 46.8333,170.167 47.5,170.5C 47.5,171.833 47.5,173.167 47.5,174.5C 46.5593,183.144 47.3926,191.811 50,200.5C 52.441,202.45 54.941,204.117 57.5,205.5C 57.9704,206.693 58.9704,207.36 60.5,207.5C 61.5,207.333 62.5,207.167 63.5,207C 64.4113,204.585 66.078,203.085 68.5,202.5C 68.5,203.833 68.5,205.167 68.5,206.5C 67.5084,206.328 66.8417,206.662 66.5,207.5C 64.8042,207.685 63.4709,208.519 62.5,210C 60.8659,210.494 59.1992,210.66 57.5,210.5C 57.1826,213.572 57.5159,216.572 58.5,219.5C 62.2129,222.598 65.2129,226.264 67.5,230.5C 64.8333,230.5 62.1667,230.5 59.5,230.5C 57.2396,224.453 55.7396,218.12 55,211.5C 54.2904,210.027 53.1238,209.36 51.5,209.5C 50.4341,208.308 49.6008,208.641 49,210.5C 47.6738,217.11 46.8404,223.776 46.5,230.5C 46.1667,230.5 45.8333,230.5 45.5,230.5C 45.5,225.833 45.5,221.167 45.5,216.5C 46.2572,212.536 46.9239,208.536 47.5,204.5C 46.0638,192.879 45.3971,181.212 45.5,169.5 Z"/></g>
<g><path style="opacity:1" fill="#9e5b54" d="M 51.5,209.5 C 51.5,210.167 51.5,210.833 51.5,211.5C 49.7502,217.615 49.0835,223.948 49.5,230.5C 48.5,230.5 47.5,230.5 46.5,230.5C 46.8404,223.776 47.6738,217.11 49,210.5C 49.6008,208.641 50.4341,208.308 51.5,209.5 Z"/></g>
<g><path style="opacity:1" fill="#fdb3c7" d="M 176.5,230.5 C 175.5,230.5 174.5,230.5 173.5,230.5C 173.172,225.125 173.505,219.792 174.5,214.5C 175.71,217.659 175.71,220.826 174.5,224C 176.013,225.879 176.679,228.046 176.5,230.5 Z"/></g>
<g><path style="opacity:1" fill="#f23a5d" d="M 180.5,209.5 C 186.648,214.398 188.648,220.731 186.5,228.5C 188.993,228.131 189.66,228.797 188.5,230.5C 185.167,230.5 181.833,230.5 178.5,230.5C 177.111,223.242 177.778,216.242 180.5,209.5 Z"/></g>
<g><path style="opacity:1" fill="#f28db4" d="M 203.5,216.5 C 207.444,217.102 209.444,219.102 209.5,222.5C 207.902,221.515 206.235,221.349 204.5,222C 207.5,224.333 210.5,226.667 213.5,229C 212.944,229.383 212.611,229.883 212.5,230.5C 211.167,230.5 209.833,230.5 208.5,230.5C 208.489,228.983 207.823,227.816 206.5,227C 199.103,224.697 199.436,222.364 207.5,220C 205.907,219.051 204.574,217.885 203.5,216.5 Z"/></g>
<g><path style="opacity:1" fill="#805b46" d="M 51.5,211.5 C 53.2483,217.574 53.915,223.907 53.5,230.5C 52.1667,230.5 50.8333,230.5 49.5,230.5C 49.0835,223.948 49.7502,217.615 51.5,211.5 Z"/></g>
<g><path style="opacity:1" fill="#501c13" d="M 51.5,209.5 C 53.1238,209.36 54.2904,210.027 55,211.5C 55.7396,218.12 57.2396,224.453 59.5,230.5C 57.5,230.5 55.5,230.5 53.5,230.5C 53.915,223.907 53.2483,217.574 51.5,211.5C 51.5,210.833 51.5,210.167 51.5,209.5 Z"/></g>
</svg>
