<?xml version="1.0" encoding="UTF-8"?>
<!DOCTYPE svg PUBLIC "-//W3C//DTD SVG 1.1//EN" "http://www.w3.org/Graphics/SVG/1.1/DTD/svg11.dtd">
<svg xmlns="http://www.w3.org/2000/svg" version="1.1" width="231px" height="231px" style="shape-rendering:geometricPrecision; text-rendering:geometricPrecision; image-rendering:optimizeQuality; fill-rule:evenodd; clip-rule:evenodd" xmlns:xlink="http://www.w3.org/1999/xlink">
<g><path style="opacity:1" fill="#20232e" d="M 112.5,31.5 C 112.082,32.2216 111.416,32.7216 110.5,33C 111.389,36.6713 111.389,40.1713 110.5,43.5C 110.938,44.5063 111.604,44.5063 112.5,43.5C 113.244,44.9905 113.91,46.4905 114.5,48C 112.667,48.5 111.5,49.6667 111,51.5C 110.667,51.1667 110.333,50.8333 110,50.5C 109.517,51.448 109.351,52.448 109.5,53.5C 105.881,54.1805 102.214,54.6805 98.5,55C 102.749,56.1256 107.082,56.7923 111.5,57C 121.645,60.1056 131.645,63.2723 141.5,66.5C 143.216,66.6287 144.883,66.962 146.5,67.5C 146.5,67.8333 146.5,68.1667 146.5,68.5C 136.292,67.5983 126.626,64.765 117.5,60C 115.527,59.5045 113.527,59.3379 111.5,59.5C 106.014,58.9818 100.681,58.3151 95.5,57.5C 85.7513,55.4306 75.7513,54.4306 65.5,54.5C 69.6472,53.6753 73.9805,53.1753 78.5,53C 79.8878,47.5024 82.0545,42.3357 85,37.5C 87.8016,34.8539 90.9683,32.8539 94.5,31.5C 100.494,30.2394 106.494,30.2394 112.5,31.5 Z"/></g>
<g><path style="opacity:1" fill="#242e3e" d="M 139.5,62.5 C 134.078,60.1457 128.745,57.8124 123.5,55.5C 125.797,54.261 126.13,52.4276 124.5,50C 125.022,49.0497 125.689,48.2164 126.5,47.5C 124.833,45.1667 123.167,42.8333 121.5,40.5C 122.902,39.1575 122.569,38.3242 120.5,38C 121.5,37.6667 122.5,37.3333 123.5,37C 120.354,34.0936 116.687,32.2603 112.5,31.5C 106.494,30.2394 100.494,30.2394 94.5,31.5C 105.955,27.7175 117.289,28.5508 128.5,34C 133.138,43.112 136.805,52.612 139.5,62.5 Z"/></g>
<g><path style="opacity:1" fill="#1e2533" d="M 112.5,31.5 C 116.687,32.2603 120.354,34.0936 123.5,37C 122.5,37.3333 121.5,37.6667 120.5,38C 122.569,38.3242 122.902,39.1575 121.5,40.5C 123.167,42.8333 124.833,45.1667 126.5,47.5C 125.689,48.2164 125.022,49.0497 124.5,50C 126.13,52.4276 125.797,54.261 123.5,55.5C 118.535,54.7764 113.868,54.1098 109.5,53.5C 109.351,52.448 109.517,51.448 110,50.5C 110.333,50.8333 110.667,51.1667 111,51.5C 111.5,49.6667 112.667,48.5 114.5,48C 113.91,46.4905 113.244,44.9905 112.5,43.5C 111.604,44.5063 110.938,44.5063 110.5,43.5C 111.389,40.1713 111.389,36.6713 110.5,33C 111.416,32.7216 112.082,32.2216 112.5,31.5 Z"/></g>
<g><path style="opacity:1" fill="#191b22" d="M 65.5,54.5 C 75.7513,54.4306 85.7513,55.4306 95.5,57.5C 91.476,57.4971 87.476,57.1638 83.5,56.5C 78.7147,58.148 73.7147,58.8146 68.5,58.5C 62.5483,58.9827 57.215,60.9827 52.5,64.5C 51.27,66.9331 50.27,69.4331 49.5,72C 51.7754,77.9559 55.6088,82.7892 61,86.5C 61.4643,87.0944 61.631,87.7611 61.5,88.5C 50.0807,83.3156 45.2473,74.6489 47,62.5C 52.0386,57.2308 58.2053,54.5642 65.5,54.5 Z"/></g>
<g><path style="opacity:1" fill="#3b4152" d="M 109.5,53.5 C 113.868,54.1098 118.535,54.7764 123.5,55.5C 128.745,57.8124 134.078,60.1457 139.5,62.5C 139.733,64.0618 140.4,65.3951 141.5,66.5C 131.645,63.2723 121.645,60.1056 111.5,57C 107.082,56.7923 102.749,56.1256 98.5,55C 102.214,54.6805 105.881,54.1805 109.5,53.5 Z"/></g>
<g><path style="opacity:1" fill="#181218" d="M 95.5,57.5 C 100.681,58.3151 106.014,58.9818 111.5,59.5C 104.324,59.5784 96.9902,59.9118 89.5,60.5C 86.7692,62.1916 84.1025,63.8583 81.5,65.5C 75.0047,69.8303 71.6713,75.8303 71.5,83.5C 70.8826,83.6107 70.3826,83.944 70,84.5C 69.8171,87.3647 69.3171,90.0314 68.5,92.5C 66.1267,91.1611 63.7933,89.8278 61.5,88.5C 63.8139,87.8213 64.1472,86.488 62.5,84.5C 64.4535,83.3361 65.7868,81.3361 66.5,78.5C 64.0548,75.9439 62.3881,72.9439 61.5,69.5C 65.9083,69.938 67.5749,67.938 66.5,63.5C 67.552,63.6495 68.552,63.4828 69.5,63C 61.5794,62.48 61.5794,61.6466 69.5,60.5C 69.1373,59.8165 68.8039,59.1499 68.5,58.5C 73.7147,58.8146 78.7147,58.148 83.5,56.5C 87.476,57.1638 91.476,57.4971 95.5,57.5 Z"/></g>
<g><path style="opacity:1" fill="#d4b9bd" d="M 176.5,46.5 C 177.561,49.033 176.728,51.033 174,52.5C 174.143,56.4663 172.309,58.4663 168.5,58.5C 168.48,54.4871 167.147,53.8205 164.5,56.5C 163.686,58.7662 163.186,61.0995 163,63.5C 159.613,65.3177 157.613,64.3177 157,60.5C 157.08,62.9918 156.247,65.3251 154.5,67.5C 152.708,67.634 151.042,67.3007 149.5,66.5C 153.346,62.812 156.68,58.6453 159.5,54C 161.715,52.9562 164.048,52.2895 166.5,52C 168.089,46.709 171.422,44.8757 176.5,46.5 Z"/></g>
<g><path style="opacity:1" fill="#342326" d="M 111.5,59.5 C 113.527,59.3379 115.527,59.5045 117.5,60C 126.626,64.765 136.292,67.5983 146.5,68.5C 150.717,69.9747 155.05,71.308 159.5,72.5C 161.568,74.5725 163.901,76.2392 166.5,77.5C 168.495,78.2333 168.661,78.9 167,79.5C 163.587,78.5447 160.754,76.7114 158.5,74C 155.854,73.5026 153.187,73.3359 150.5,73.5C 150.5,74.5 150.5,75.5 150.5,76.5C 149.768,75.1917 148.934,73.8584 148,72.5C 147.667,72.8333 147.333,73.1667 147,73.5C 144.959,71.3501 142.459,70.3501 139.5,70.5C 140.463,74.1007 141.13,77.7674 141.5,81.5C 141.236,77.9017 139.236,75.9017 135.5,75.5C 133.265,75.7947 131.265,75.4614 129.5,74.5C 129.123,71.4924 127.789,68.9924 125.5,67C 120.11,65.6644 114.777,64.331 109.5,63C 102.833,62.3333 96.1667,62.3333 89.5,63C 87.1922,64.9357 84.5255,65.769 81.5,65.5C 84.1025,63.8583 86.7692,62.1916 89.5,60.5C 96.9902,59.9118 104.324,59.5784 111.5,59.5 Z"/></g>
<g><path style="opacity:1" fill="#b48987" d="M 176.5,46.5 C 177.167,46.5 177.833,46.5 178.5,46.5C 177.507,51.6752 179.507,53.5086 184.5,52C 185.252,51.3292 185.586,50.4959 185.5,49.5C 186.575,48.4376 187.575,48.4376 188.5,49.5C 187.975,50.1924 187.308,50.6924 186.5,51C 189.786,53.1317 190.453,55.9651 188.5,59.5C 186.133,58.8363 184.133,57.503 182.5,55.5C 181.914,55.7093 181.414,56.0426 181,56.5C 181.045,60.1842 181.212,63.8509 181.5,67.5C 177.83,67.6734 175.33,66.0067 174,62.5C 173.667,64.8333 173.333,67.1667 173,69.5C 172.261,70.5742 171.261,71.2409 170,71.5C 168.056,70.3125 166.556,68.6458 165.5,66.5C 159.629,64.6999 158.295,66.3666 161.5,71.5C 163.19,73.5193 164.856,75.5193 166.5,77.5C 163.901,76.2392 161.568,74.5725 159.5,72.5C 155.05,71.308 150.717,69.9747 146.5,68.5C 146.5,68.1667 146.5,67.8333 146.5,67.5C 147.791,67.7373 148.791,67.404 149.5,66.5C 151.042,67.3007 152.708,67.634 154.5,67.5C 156.247,65.3251 157.08,62.9918 157,60.5C 157.613,64.3177 159.613,65.3177 163,63.5C 163.186,61.0995 163.686,58.7662 164.5,56.5C 167.147,53.8205 168.48,54.4871 168.5,58.5C 172.309,58.4663 174.143,56.4663 174,52.5C 176.728,51.033 177.561,49.033 176.5,46.5 Z"/></g>
<g><path style="opacity:1" fill="#131319" d="M 68.5,58.5 C 68.8039,59.1499 69.1373,59.8165 69.5,60.5C 61.5794,61.6466 61.5794,62.48 69.5,63C 68.552,63.4828 67.552,63.6495 66.5,63.5C 67.5749,67.938 65.9083,69.938 61.5,69.5C 62.3881,72.9439 64.0548,75.9439 66.5,78.5C 65.7868,81.3361 64.4535,83.3361 62.5,84.5C 64.1472,86.488 63.8139,87.8213 61.5,88.5C 61.631,87.7611 61.4643,87.0944 61,86.5C 55.6088,82.7892 51.7754,77.9559 49.5,72C 50.27,69.4331 51.27,66.9331 52.5,64.5C 57.215,60.9827 62.5483,58.9827 68.5,58.5 Z"/></g>
<g><path style="opacity:1" fill="#d7a496" d="M 112.5,66.5 C 113.278,67.1556 113.944,67.9889 114.5,69C 114.167,69.5 113.833,70 113.5,70.5C 108.553,71.2826 103.553,71.7826 98.5,72C 97.062,72.2189 95.7287,72.7189 94.5,73.5C 94.9569,74.2975 95.6236,74.6309 96.5,74.5C 94.7749,75.905 92.7749,76.405 90.5,76C 92.3963,74.9354 92.563,74.1021 91,73.5C 88.399,74.764 86.0656,76.4306 84,78.5C 82.1636,84.6964 81.1636,91.0298 81,97.5C 80.3141,93.2842 79.1475,89.2842 77.5,85.5C 78.1515,86.0906 78.8182,86.7573 79.5,87.5C 79.8333,87.1667 80.1667,86.8333 80.5,86.5C 80.9489,81.0016 82.1156,75.6683 84,70.5C 85.3968,68.9297 86.8968,67.5964 88.5,66.5C 96.5,65.1667 104.5,65.1667 112.5,66.5 Z"/></g>
<g><path style="opacity:1" fill="#af8078" d="M 112.5,66.5 C 116.509,66.8583 120.509,67.3583 124.5,68C 125.24,69.7849 125.907,71.6183 126.5,73.5C 127.325,74.3857 128.325,74.719 129.5,74.5C 131.265,75.4614 133.265,75.7947 135.5,75.5C 135.5,76.5 135.5,77.5 135.5,78.5C 132.102,78.8204 128.768,78.487 125.5,77.5C 124.68,75.8888 123.346,75.2222 121.5,75.5C 122.5,78.1667 123.5,80.8333 124.5,83.5C 125.167,84.5 125.833,85.5 126.5,86.5C 125.325,86.719 124.325,86.3857 123.5,85.5C 123.091,83.0087 121.924,81.0087 120,79.5C 119.667,76.5 119.333,73.5 119,70.5C 118.333,69.8333 117.667,69.1667 117,68.5C 116.667,70.1667 116.333,71.8333 116,73.5C 113.73,74.7272 111.897,76.3939 110.5,78.5C 109.614,79.325 109.281,80.325 109.5,81.5C 104.786,81.8266 100.12,81.4933 95.5,80.5C 99.0401,79.1269 102.373,77.4603 105.5,75.5C 102.572,74.5159 99.5719,74.1826 96.5,74.5C 95.6236,74.6309 94.9569,74.2975 94.5,73.5C 95.7287,72.7189 97.062,72.2189 98.5,72C 103.553,71.7826 108.553,71.2826 113.5,70.5C 113.833,70 114.167,69.5 114.5,69C 113.944,67.9889 113.278,67.1556 112.5,66.5 Z"/></g>
<g><path style="opacity:1" fill="#ebd5d0" d="M 212.5,69.5 C 212.821,71.0481 213.821,71.7148 215.5,71.5C 215.98,74.0046 216.98,76.3379 218.5,78.5C 215.637,80.5289 213.304,83.0289 211.5,86C 209.871,86.5855 208.371,87.4188 207,88.5C 206.5,88.3333 206,88.1667 205.5,88C 206.956,87.5774 207.456,86.7441 207,85.5C 201.588,79.3934 195.088,77.8934 187.5,81C 189.478,81.4807 190.811,82.6473 191.5,84.5C 190.471,86.8026 190.471,89.136 191.5,91.5C 193.5,91.5 195.5,91.5 197.5,91.5C 193.429,92.1512 189.262,92.4845 185,92.5C 180.935,91.646 177.102,90.3127 173.5,88.5C 171.326,86.9186 168.993,85.4186 166.5,84C 171.363,84.7904 176.03,83.9571 180.5,81.5C 180.291,80.914 179.957,80.414 179.5,80C 180.833,79.6667 182.167,79.3333 183.5,79C 181.052,78.1523 179.552,76.9856 179,75.5C 177.739,75.7591 176.739,76.4258 176,77.5C 175.833,75.1667 175.667,72.8333 175.5,70.5C 181.132,70.4841 186.799,69.6507 192.5,68C 192.043,67.586 191.709,67.086 191.5,66.5C 193.287,65.684 194.954,64.684 196.5,63.5C 194.384,61.4 192.717,59.0667 191.5,56.5C 191.771,54.3074 192.771,52.6407 194.5,51.5C 194.905,50.4502 195.571,50.4502 196.5,51.5C 197.901,53.2773 199.401,54.944 201,56.5C 201.333,56.1667 201.667,55.8333 202,55.5C 205.286,60.4434 208.786,65.1101 212.5,69.5 Z"/></g>
<g><path style="opacity:1" fill="#73514a" d="M 129.5,74.5 C 128.325,74.719 127.325,74.3857 126.5,73.5C 125.907,71.6183 125.24,69.7849 124.5,68C 120.509,67.3583 116.509,66.8583 112.5,66.5C 104.5,65.1667 96.5,65.1667 88.5,66.5C 81.387,69.1281 77.387,74.2947 76.5,82C 76.1639,83.0299 75.4972,83.5299 74.5,83.5C 73.8333,83.5 73.1667,83.5 72.5,83.5C 72.1667,83.5 71.8333,83.5 71.5,83.5C 71.6713,75.8303 75.0047,69.8303 81.5,65.5C 84.5255,65.769 87.1922,64.9357 89.5,63C 96.1667,62.3333 102.833,62.3333 109.5,63C 114.777,64.331 120.11,65.6644 125.5,67C 127.789,68.9924 129.123,71.4924 129.5,74.5 Z"/></g>
<g><path style="opacity:1" fill="#20171c" d="M 150.5,76.5 C 153.5,77.5 155.5,79.5 156.5,82.5C 156.167,83.1667 155.833,83.8333 155.5,84.5C 151.71,85.8951 148.043,87.5617 144.5,89.5C 143.833,89.1667 143.167,88.8333 142.5,88.5C 142.702,86.0504 142.369,83.717 141.5,81.5C 141.13,77.7674 140.463,74.1007 139.5,70.5C 142.459,70.3501 144.959,71.3501 147,73.5C 147.333,73.1667 147.667,72.8333 148,72.5C 148.934,73.8584 149.768,75.1917 150.5,76.5 Z"/></g>
<g><path style="opacity:1" fill="#e5b5aa" d="M 126.5,86.5 C 126.5,87.1667 126.5,87.8333 126.5,88.5C 121.483,89.3343 117.149,91.5009 113.5,95C 114.577,95.4696 115.577,95.3029 116.5,94.5C 115.428,96.8398 113.761,97.1731 111.5,95.5C 111.167,94.6667 110.833,93.8333 110.5,93C 111.748,90.5903 112.748,88.0903 113.5,85.5C 109.866,86.2136 106.366,87.2136 103,88.5C 101.122,88.3038 99.2883,87.9705 97.5,87.5C 96.5,87.5 95.5,87.5 94.5,87.5C 93.7375,86.7321 92.7375,86.2321 91.5,86C 92.3802,84.6439 92.7135,83.1439 92.5,81.5C 91.448,81.6495 90.448,81.4828 89.5,81C 90.7112,80.1072 90.7112,79.2739 89.5,78.5C 86.2774,79.7225 84.6107,82.0559 84.5,85.5C 86.0865,90.4329 87.4199,95.4329 88.5,100.5C 87.4146,104.157 86.7479,107.657 86.5,111C 87.2374,114.944 89.2374,117.944 92.5,120C 91.944,120.383 91.6107,120.883 91.5,121.5C 89.1884,120.522 87.5218,118.855 86.5,116.5C 85.6593,112.957 84.6593,109.457 83.5,106C 83.7355,105.127 84.0688,104.293 84.5,103.5C 83.4783,102.646 82.6449,101.646 82,100.5C 82.2904,104.089 80.7904,105.589 77.5,105C 77.9574,104.586 78.2907,104.086 78.5,103.5C 73.6715,99.9954 71.3382,95.1621 71.5,89C 71.4393,87.2894 72.1059,85.956 73.5,85C 72.944,84.6174 72.6107,84.1174 72.5,83.5C 73.1667,83.5 73.8333,83.5 74.5,83.5C 74.9731,84.9063 75.9731,85.573 77.5,85.5C 79.1475,89.2842 80.3141,93.2842 81,97.5C 81.1636,91.0298 82.1636,84.6964 84,78.5C 86.0656,76.4306 88.399,74.764 91,73.5C 92.563,74.1021 92.3963,74.9354 90.5,76C 92.7749,76.405 94.7749,75.905 96.5,74.5C 99.5719,74.1826 102.572,74.5159 105.5,75.5C 102.373,77.4603 99.0401,79.1269 95.5,80.5C 100.12,81.4933 104.786,81.8266 109.5,81.5C 109.281,80.325 109.614,79.325 110.5,78.5C 111.897,76.3939 113.73,74.7272 116,73.5C 116.333,71.8333 116.667,70.1667 117,68.5C 117.667,69.1667 118.333,69.8333 119,70.5C 119.333,73.5 119.667,76.5 120,79.5C 121.924,81.0087 123.091,83.0087 123.5,85.5C 124.325,86.3857 125.325,86.719 126.5,86.5 Z"/></g>
<g><path style="opacity:1" fill="#a0796a" d="M 88.5,66.5 C 86.8968,67.5964 85.3968,68.9297 84,70.5C 82.1156,75.6683 80.9489,81.0016 80.5,86.5C 80.1667,86.8333 79.8333,87.1667 79.5,87.5C 78.8182,86.7573 78.1515,86.0906 77.5,85.5C 75.9731,85.573 74.9731,84.9063 74.5,83.5C 75.4972,83.5299 76.1639,83.0299 76.5,82C 77.387,74.2947 81.387,69.1281 88.5,66.5 Z"/></g>
<g><path style="opacity:1" fill="#dfbdb5" d="M 194.5,51.5 C 192.771,52.6407 191.771,54.3074 191.5,56.5C 192.717,59.0667 194.384,61.4 196.5,63.5C 194.954,64.684 193.287,65.684 191.5,66.5C 191.709,67.086 192.043,67.586 192.5,68C 186.799,69.6507 181.132,70.4841 175.5,70.5C 175.667,72.8333 175.833,75.1667 176,77.5C 176.739,76.4258 177.739,75.7591 179,75.5C 179.552,76.9856 181.052,78.1523 183.5,79C 182.167,79.3333 180.833,79.6667 179.5,80C 179.957,80.414 180.291,80.914 180.5,81.5C 176.03,83.9571 171.363,84.7904 166.5,84C 168.993,85.4186 171.326,86.9186 173.5,88.5C 172.5,88.5 171.5,88.5 170.5,88.5C 165.355,87.5933 160.688,85.5933 156.5,82.5C 155.5,79.5 153.5,77.5 150.5,76.5C 150.5,75.5 150.5,74.5 150.5,73.5C 153.187,73.3359 155.854,73.5026 158.5,74C 160.754,76.7114 163.587,78.5447 167,79.5C 168.661,78.9 168.495,78.2333 166.5,77.5C 164.856,75.5193 163.19,73.5193 161.5,71.5C 158.295,66.3666 159.629,64.6999 165.5,66.5C 166.556,68.6458 168.056,70.3125 170,71.5C 171.261,71.2409 172.261,70.5742 173,69.5C 173.333,67.1667 173.667,64.8333 174,62.5C 175.33,66.0067 177.83,67.6734 181.5,67.5C 181.212,63.8509 181.045,60.1842 181,56.5C 181.414,56.0426 181.914,55.7093 182.5,55.5C 184.133,57.503 186.133,58.8363 188.5,59.5C 190.453,55.9651 189.786,53.1317 186.5,51C 187.308,50.6924 187.975,50.1924 188.5,49.5C 187.575,48.4376 186.575,48.4376 185.5,49.5C 185.791,48.3509 186.624,47.6842 188,47.5C 188.833,47.6667 189.667,47.8333 190.5,48C 191.736,49.3875 193.069,50.5542 194.5,51.5 Z"/></g>
<g><path style="opacity:1" fill="#6f4c4c" d="M 135.5,75.5 C 139.236,75.9017 141.236,77.9017 141.5,81.5C 142.369,83.717 142.702,86.0504 142.5,88.5C 138.895,86.0735 135.395,83.4068 132,80.5C 129.24,81.027 126.74,82.027 124.5,83.5C 123.5,80.8333 122.5,78.1667 121.5,75.5C 123.346,75.2222 124.68,75.8888 125.5,77.5C 128.768,78.487 132.102,78.8204 135.5,78.5C 135.5,77.5 135.5,76.5 135.5,75.5 Z"/></g>
<g><path style="opacity:1" fill="#e2d1d0" d="M 212.5,69.5 C 214.199,69.3398 215.866,69.5065 217.5,70C 219.137,73.3439 221.137,76.5105 223.5,79.5C 221.683,85.3018 219.017,90.6351 215.5,95.5C 212.203,95.3683 210.537,93.7016 210.5,90.5C 206.119,90.3718 201.785,90.7051 197.5,91.5C 195.5,91.5 193.5,91.5 191.5,91.5C 190.471,89.136 190.471,86.8026 191.5,84.5C 190.811,82.6473 189.478,81.4807 187.5,81C 195.088,77.8934 201.588,79.3934 207,85.5C 207.456,86.7441 206.956,87.5774 205.5,88C 206,88.1667 206.5,88.3333 207,88.5C 208.371,87.4188 209.871,86.5855 211.5,86C 213.304,83.0289 215.637,80.5289 218.5,78.5C 216.98,76.3379 215.98,74.0046 215.5,71.5C 213.821,71.7148 212.821,71.0481 212.5,69.5 Z"/></g>
<g><path style="opacity:1" fill="#d1c7c9" d="M 230.5,82.5 C 230.5,91.1667 230.5,99.8333 230.5,108.5C 226.777,105.574 222.777,102.907 218.5,100.5C 217.304,98.8554 216.304,97.1887 215.5,95.5C 219.017,90.6351 221.683,85.3018 223.5,79.5C 221.137,76.5105 219.137,73.3439 217.5,70C 215.866,69.5065 214.199,69.3398 212.5,69.5C 208.786,65.1101 205.286,60.4434 202,55.5C 201.667,55.8333 201.333,56.1667 201,56.5C 199.401,54.944 197.901,53.2773 196.5,51.5C 195.571,50.4502 194.905,50.4502 194.5,51.5C 193.069,50.5542 191.736,49.3875 190.5,48C 189.667,47.8333 188.833,47.6667 188,47.5C 186.624,47.6842 185.791,48.3509 185.5,49.5C 185.586,50.4959 185.252,51.3292 184.5,52C 179.507,53.5086 177.507,51.6752 178.5,46.5C 180.902,42.9215 184.235,41.7549 188.5,43C 197.456,49.6208 206.123,56.6208 214.5,64C 220.072,70.0639 225.405,76.2306 230.5,82.5 Z"/></g>
<g><path style="opacity:1" fill="#eabbb7" d="M 116.5,94.5 C 116.56,93.9569 116.893,93.6236 117.5,93.5C 118.386,94.325 118.719,95.325 118.5,96.5C 123.533,95.9377 125.199,97.9377 123.5,102.5C 120.813,102.336 118.146,102.503 115.5,103C 112.05,103.763 109.05,105.263 106.5,107.5C 107.55,109.873 109.383,110.873 112,110.5C 115.473,109.837 118.973,109.504 122.5,109.5C 123.167,110.167 123.833,110.833 124.5,111.5C 122.958,112.301 121.292,112.634 119.5,112.5C 119.67,113.822 119.337,114.989 118.5,116C 115.118,118.782 112.285,118.616 110,115.5C 109.658,117.619 108.825,117.953 107.5,116.5C 105.833,115.833 104.167,115.167 102.5,114.5C 101.16,111.855 100.826,109.188 101.5,106.5C 102.086,106.709 102.586,107.043 103,107.5C 103.433,105.336 102.933,103.336 101.5,101.5C 102.683,98.4388 104.016,95.4388 105.5,92.5C 105.167,91.8333 104.833,91.1667 104.5,90.5C 101.705,90.0615 99.3717,89.0615 97.5,87.5C 99.2883,87.9705 101.122,88.3038 103,88.5C 106.366,87.2136 109.866,86.2136 113.5,85.5C 112.748,88.0903 111.748,90.5903 110.5,93C 110.833,93.8333 111.167,94.6667 111.5,95.5C 113.761,97.1731 115.428,96.8398 116.5,94.5 Z"/></g>
<g><path style="opacity:1" fill="#b59a8f" d="M 156.5,82.5 C 160.688,85.5933 165.355,87.5933 170.5,88.5C 172.1,89.6444 173.767,90.8111 175.5,92C 181.063,92.8992 186.563,94.0658 192,95.5C 195.471,94.5446 198.971,94.3779 202.5,95C 204.823,96.2043 207.323,97.0376 210,97.5C 211.257,97.8499 211.591,98.5165 211,99.5C 209.795,100.071 208.628,100.738 207.5,101.5C 208.167,102.167 208.833,102.833 209.5,103.5C 212.855,104.089 216.022,105.089 219,106.5C 222.022,109.354 224.855,112.354 227.5,115.5C 228.325,116.386 229.325,116.719 230.5,116.5C 230.5,116.833 230.5,117.167 230.5,117.5C 225.028,119.859 221.861,118.192 221,112.5C 218.351,108.227 214.518,105.894 209.5,105.5C 207.702,103.888 205.702,102.388 203.5,101C 186.41,98.2398 170.41,92.7398 155.5,84.5C 155.833,83.8333 156.167,83.1667 156.5,82.5 Z"/></g>
<g><path style="opacity:1" fill="#bf9294" d="M 126.5,88.5 C 125.952,90.3936 124.952,92.0603 123.5,93.5C 124.722,96.0894 126.722,96.9228 129.5,96C 131.037,94.8904 131.703,93.3904 131.5,91.5C 135.007,90.9935 138.174,91.6602 141,93.5C 142.724,100.797 141.224,107.131 136.5,112.5C 139.158,106.454 139.991,100.121 139,93.5C 136.959,92.5769 134.792,92.2436 132.5,92.5C 132.85,99.169 132.35,105.836 131,112.5C 129.204,117.135 126.371,117.802 122.5,114.5C 123.612,113.735 124.279,112.735 124.5,111.5C 123.833,110.833 123.167,110.167 122.5,109.5C 125.167,109.5 127.833,109.5 130.5,109.5C 130.492,105.82 128.825,103.153 125.5,101.5C 124.817,101.863 124.15,102.196 123.5,102.5C 125.199,97.9377 123.533,95.9377 118.5,96.5C 118.719,95.325 118.386,94.325 117.5,93.5C 116.893,93.6236 116.56,93.9569 116.5,94.5C 115.577,95.3029 114.577,95.4696 113.5,95C 117.149,91.5009 121.483,89.3343 126.5,88.5 Z"/></g>
<g><path style="opacity:1" fill="#ccbbb2" d="M 170.5,88.5 C 171.5,88.5 172.5,88.5 173.5,88.5C 177.102,90.3127 180.935,91.646 185,92.5C 189.262,92.4845 193.429,92.1512 197.5,91.5C 201.785,90.7051 206.119,90.3718 210.5,90.5C 210.537,93.7016 212.203,95.3683 215.5,95.5C 216.304,97.1887 217.304,98.8554 218.5,100.5C 222.777,102.907 226.777,105.574 230.5,108.5C 230.5,111.167 230.5,113.833 230.5,116.5C 229.325,116.719 228.325,116.386 227.5,115.5C 224.855,112.354 222.022,109.354 219,106.5C 216.022,105.089 212.855,104.089 209.5,103.5C 208.833,102.833 208.167,102.167 207.5,101.5C 208.628,100.738 209.795,100.071 211,99.5C 211.591,98.5165 211.257,97.8499 210,97.5C 207.323,97.0376 204.823,96.2043 202.5,95C 198.971,94.3779 195.471,94.5446 192,95.5C 186.563,94.0658 181.063,92.8992 175.5,92C 173.767,90.8111 172.1,89.6444 170.5,88.5 Z"/></g>
<g><path style="opacity:1" fill="#f6ccc5" d="M 94.5,87.5 C 95.5,87.5 96.5,87.5 97.5,87.5C 99.3717,89.0615 101.705,90.0615 104.5,90.5C 104.833,91.1667 105.167,91.8333 105.5,92.5C 104.016,95.4388 102.683,98.4388 101.5,101.5C 102.933,103.336 103.433,105.336 103,107.5C 102.586,107.043 102.086,106.709 101.5,106.5C 100.826,109.188 101.16,111.855 102.5,114.5C 103.09,115.766 103.59,117.099 104,118.5C 104.654,117.304 105.154,117.304 105.5,118.5C 101.083,119.87 96.7498,119.703 92.5,118C 94.005,115.088 93.3384,112.755 90.5,111C 91.1667,110.333 91.8333,109.667 92.5,109C 91.8016,108.029 91.8016,106.863 92.5,105.5C 92.1822,104.353 91.5156,103.519 90.5,103C 90.8333,102.667 91.1667,102.333 91.5,102C 89.0103,98.2294 89.0103,94.3961 91.5,90.5C 92.8549,89.8118 93.8549,88.8118 94.5,87.5 Z"/></g>
<g><path style="opacity:1" fill="#c6848a" d="M 122.5,109.5 C 118.973,109.504 115.473,109.837 112,110.5C 109.383,110.873 107.55,109.873 106.5,107.5C 109.05,105.263 112.05,103.763 115.5,103C 118.146,102.503 120.813,102.336 123.5,102.5C 124.15,102.196 124.817,101.863 125.5,101.5C 128.825,103.153 130.492,105.82 130.5,109.5C 127.833,109.5 125.167,109.5 122.5,109.5 Z"/></g>
<g><path style="opacity:1" fill="#f0c6ba" d="M 94.5,87.5 C 93.8549,88.8118 92.8549,89.8118 91.5,90.5C 89.0103,94.3961 89.0103,98.2294 91.5,102C 91.1667,102.333 90.8333,102.667 90.5,103C 91.5156,103.519 92.1822,104.353 92.5,105.5C 91.8016,106.863 91.8016,108.029 92.5,109C 91.8333,109.667 91.1667,110.333 90.5,111C 93.3384,112.755 94.005,115.088 92.5,118C 96.7498,119.703 101.083,119.87 105.5,118.5C 105.154,117.304 104.654,117.304 104,118.5C 103.59,117.099 103.09,115.766 102.5,114.5C 104.167,115.167 105.833,115.833 107.5,116.5C 107.5,117.5 107.5,118.5 107.5,119.5C 109.467,119.261 111.301,119.594 113,120.5C 113.837,118.993 115.004,118.493 116.5,119C 115.657,120.787 115.49,122.62 116,124.5C 114.103,126.016 111.936,126.683 109.5,126.5C 105.057,124.948 100.391,124.115 95.5,124C 93.867,123.52 92.5336,122.687 91.5,121.5C 91.6107,120.883 91.944,120.383 92.5,120C 89.2374,117.944 87.2374,114.944 86.5,111C 86.7479,107.657 87.4146,104.157 88.5,100.5C 87.4199,95.4329 86.0865,90.4329 84.5,85.5C 84.6107,82.0559 86.2774,79.7225 89.5,78.5C 90.7112,79.2739 90.7112,80.1072 89.5,81C 90.448,81.4828 91.448,81.6495 92.5,81.5C 92.7135,83.1439 92.3802,84.6439 91.5,86C 92.7375,86.2321 93.7375,86.7321 94.5,87.5 Z"/></g>
<g><path style="opacity:1" fill="#957a71" d="M 209.5,105.5 C 214.518,105.894 218.351,108.227 221,112.5C 221.861,118.192 225.028,119.859 230.5,117.5C 230.5,118.5 230.5,119.5 230.5,120.5C 229.849,121.091 229.182,121.757 228.5,122.5C 226.556,121.811 224.556,121.311 222.5,121C 220.172,117.484 217.505,114.318 214.5,111.5C 212.086,110.089 210.419,108.089 209.5,105.5 Z"/></g>
<g><path style="opacity:1" fill="#a48284" d="M 142.5,88.5 C 143.167,88.8333 143.833,89.1667 144.5,89.5C 144.93,96.4816 144.43,103.482 143,110.5C 142.197,113.244 141.197,115.911 140,118.5C 135.655,122.847 131.655,127.514 128,132.5C 127.264,135.592 127.431,138.592 128.5,141.5C 127.307,141.97 126.64,142.97 126.5,144.5C 125.838,147.468 125.505,150.468 125.5,153.5C 125.737,154.791 125.404,155.791 124.5,156.5C 124.5,154.167 124.5,151.833 124.5,149.5C 120.71,150.047 118.71,148.38 118.5,144.5C 119.849,141.676 119.516,139.009 117.5,136.5C 120.528,132.805 123.861,129.472 127.5,126.5C 129.754,122.409 132.588,118.742 136,115.5C 136.483,114.552 136.649,113.552 136.5,112.5C 141.224,107.131 142.724,100.797 141,93.5C 138.174,91.6602 135.007,90.9935 131.5,91.5C 131.703,93.3904 131.037,94.8904 129.5,96C 126.722,96.9228 124.722,96.0894 123.5,93.5C 124.952,92.0603 125.952,90.3936 126.5,88.5C 126.5,87.8333 126.5,87.1667 126.5,86.5C 125.833,85.5 125.167,84.5 124.5,83.5C 126.74,82.027 129.24,81.027 132,80.5C 135.395,83.4068 138.895,86.0735 142.5,88.5 Z"/></g>
<g><path style="opacity:1" fill="#3e1f28" d="M 214.5,111.5 C 217.505,114.318 220.172,117.484 222.5,121C 224.556,121.311 226.556,121.811 228.5,122.5C 229.182,121.757 229.849,121.091 230.5,120.5C 230.5,124.167 230.5,127.833 230.5,131.5C 229.417,131.461 228.417,131.127 227.5,130.5C 226.702,130.957 226.369,131.624 226.5,132.5C 222.251,125.671 218.251,118.671 214.5,111.5 Z"/></g>
<g><path style="opacity:1" fill="#d6b0ab" d="M 136.5,112.5 C 136.649,113.552 136.483,114.552 136,115.5C 132.588,118.742 129.754,122.409 127.5,126.5C 123.136,126.906 118.803,127.572 114.5,128.5C 112.443,128.564 110.777,127.898 109.5,126.5C 111.936,126.683 114.103,126.016 116,124.5C 115.49,122.62 115.657,120.787 116.5,119C 115.004,118.493 113.837,118.993 113,120.5C 111.301,119.594 109.467,119.261 107.5,119.5C 107.5,118.5 107.5,117.5 107.5,116.5C 108.825,117.953 109.658,117.619 110,115.5C 112.285,118.616 115.118,118.782 118.5,116C 119.337,114.989 119.67,113.822 119.5,112.5C 121.292,112.634 122.958,112.301 124.5,111.5C 124.279,112.735 123.612,113.735 122.5,114.5C 126.371,117.802 129.204,117.135 131,112.5C 132.35,105.836 132.85,99.169 132.5,92.5C 134.792,92.2436 136.959,92.5769 139,93.5C 139.991,100.121 139.158,106.454 136.5,112.5 Z"/></g>
<g><path style="opacity:1" fill="#cda596" d="M 71.5,83.5 C 71.8333,83.5 72.1667,83.5 72.5,83.5C 72.6107,84.1174 72.944,84.6174 73.5,85C 72.1059,85.956 71.4393,87.2894 71.5,89C 71.3382,95.1621 73.6715,99.9954 78.5,103.5C 78.2907,104.086 77.9574,104.586 77.5,105C 80.7904,105.589 82.2904,104.089 82,100.5C 82.6449,101.646 83.4783,102.646 84.5,103.5C 84.0688,104.293 83.7355,105.127 83.5,106C 84.6593,109.457 85.6593,112.957 86.5,116.5C 87.5218,118.855 89.1884,120.522 91.5,121.5C 92.5336,122.687 93.867,123.52 95.5,124C 100.391,124.115 105.057,124.948 109.5,126.5C 110.777,127.898 112.443,128.564 114.5,128.5C 118.803,127.572 123.136,126.906 127.5,126.5C 123.861,129.472 120.528,132.805 117.5,136.5C 119.516,139.009 119.849,141.676 118.5,144.5C 118.71,148.38 120.71,150.047 124.5,149.5C 124.5,151.833 124.5,154.167 124.5,156.5C 124.5,157.5 124.5,158.5 124.5,159.5C 123.232,161.905 122.565,164.572 122.5,167.5C 122.167,167.5 121.833,167.5 121.5,167.5C 121.916,162.507 122.249,157.507 122.5,152.5C 120.401,153.231 118.401,153.231 116.5,152.5C 114.528,149.298 114.195,145.964 115.5,142.5C 114.491,139.663 112.491,138.33 109.5,138.5C 106.646,138.076 103.979,137.076 101.5,135.5C 96.8571,131.027 92.0237,126.694 87,122.5C 84.7874,117.147 82.6207,112.481 80.5,108.5C 78.093,107.206 75.9263,105.539 74,103.5C 72.1378,99.7757 70.3045,96.109 68.5,92.5C 69.3171,90.0314 69.8171,87.3647 70,84.5C 70.3826,83.944 70.8826,83.6107 71.5,83.5 Z"/></g>
<g><path style="opacity:1" fill="#c4988c" d="M 80.5,110.5 C 81.2679,111.263 81.7679,112.263 82,113.5C 82.5911,122.59 81.9245,131.59 80,140.5C 79.2496,141.126 78.4162,141.626 77.5,142C 78.1712,142.986 78.1712,144.153 77.5,145.5C 76.1667,144.5 74.8333,143.5 73.5,142.5C 72.9033,142.265 72.5699,141.765 72.5,141C 72.9783,139.697 73.645,138.531 74.5,137.5C 76.7718,135.982 78.1051,133.815 78.5,131C 77.5842,130.722 76.9175,130.222 76.5,129.5C 78.1733,128.657 79.34,127.324 80,125.5C 80.4993,120.511 80.6659,115.511 80.5,110.5 Z"/></g>
<g><path style="opacity:1" fill="#892b3a" d="M 76.5,129.5 C 76.9175,130.222 77.5842,130.722 78.5,131C 78.1051,133.815 76.7718,135.982 74.5,137.5C 69.3474,137.339 66.3474,139.673 65.5,144.5C 64.8722,141.91 64.5389,139.243 64.5,136.5C 63.1482,137.524 61.8149,138.524 60.5,139.5C 61.2026,137.284 62.5359,135.451 64.5,134C 68.4055,132.193 72.4055,130.693 76.5,129.5 Z"/></g>
<g><path style="opacity:0.797" fill="#9b2b3f" d="M 230.5,131.5 C 230.5,134.833 230.5,138.167 230.5,141.5C 229.32,138.473 227.987,135.473 226.5,132.5C 226.369,131.624 226.702,130.957 227.5,130.5C 228.417,131.127 229.417,131.461 230.5,131.5 Z"/></g>
<g><path style="opacity:1" fill="#e9c1af" d="M 109.5,138.5 C 111.889,140.29 112.055,142.29 110,144.5C 107.281,143.556 104.448,143.223 101.5,143.5C 99.0108,143.702 96.6775,143.202 94.5,142C 92.3171,139.65 89.9837,137.483 87.5,135.5C 86.8973,138.196 86.064,141.196 85,144.5C 82.2377,145.988 81.4044,147.988 82.5,150.5C 80.6053,149.027 78.9387,147.36 77.5,145.5C 78.1712,144.153 78.1712,142.986 77.5,142C 78.4162,141.626 79.2496,141.126 80,140.5C 81.9245,131.59 82.5911,122.59 82,113.5C 81.7679,112.263 81.2679,111.263 80.5,110.5C 80.5,109.833 80.5,109.167 80.5,108.5C 82.6207,112.481 84.7874,117.147 87,122.5C 92.0237,126.694 96.8571,131.027 101.5,135.5C 103.979,137.076 106.646,138.076 109.5,138.5 Z"/></g>
<g><path style="opacity:1" fill="#a54765" d="M 52.5,144.5 C 50.1667,144.5 47.8333,144.5 45.5,144.5C 43.6096,144.297 42.1096,144.963 41,146.5C 40.2642,149.592 40.4309,152.592 41.5,155.5C 40.8333,155.5 40.1667,155.5 39.5,155.5C 37.6094,144.043 41.9427,140.376 52.5,144.5 Z"/></g>
<g><path style="opacity:1" fill="#922a43" d="M 128.5,141.5 C 131.267,142.051 133.6,143.384 135.5,145.5C 144.727,142.663 153.727,142.996 162.5,146.5C 155.158,147.823 147.491,147.823 139.5,146.5C 137.449,149.487 135.949,152.82 135,156.5C 129.78,148.468 127.947,148.468 129.5,156.5C 128.363,155.211 127.03,154.211 125.5,153.5C 125.505,150.468 125.838,147.468 126.5,144.5C 126.64,142.97 127.307,141.97 128.5,141.5 Z"/></g>
<g><path style="opacity:1" fill="#841b33" d="M 45.5,144.5 C 47.8333,144.5 50.1667,144.5 52.5,144.5C 53.5,144.5 54.5,144.5 55.5,144.5C 52.8347,147.335 50.3347,150.335 48,153.5C 47.5906,155.695 48.0906,157.695 49.5,159.5C 46.8174,157.664 43.8174,156.664 40.5,156.5C 39.8333,156.5 39.1667,156.5 38.5,156.5C 38.5,155.833 38.8333,155.5 39.5,155.5C 40.1667,155.5 40.8333,155.5 41.5,155.5C 42.8333,155.5 44.1667,155.5 45.5,155.5C 45.5,151.833 45.5,148.167 45.5,144.5 Z"/></g>
<g><path style="opacity:1" fill="#c63557" d="M 45.5,144.5 C 45.5,148.167 45.5,151.833 45.5,155.5C 44.1667,155.5 42.8333,155.5 41.5,155.5C 40.4309,152.592 40.2642,149.592 41,146.5C 42.1096,144.963 43.6096,144.297 45.5,144.5 Z"/></g>
<g><path style="opacity:1" fill="#863853" d="M 230.5,153.5 C 230.5,154.167 230.5,154.833 230.5,155.5C 223.836,152.331 216.836,151.665 209.5,153.5C 211.607,151.348 214.274,150.348 217.5,150.5C 222.013,150.868 226.346,151.868 230.5,153.5 Z"/></g>
<g><path style="opacity:1" fill="#e9ccc3" d="M 101.5,143.5 C 101.567,146.755 101.234,150.088 100.5,153.5C 101.347,154.845 102.513,155.845 104,156.5C 104.363,159.544 104.863,162.544 105.5,165.5C 104.448,165.649 103.448,165.483 102.5,165C 98.88,161.533 94.88,158.7 90.5,156.5C 87.5451,154.878 84.8785,152.878 82.5,150.5C 81.4044,147.988 82.2377,145.988 85,144.5C 86.064,141.196 86.8973,138.196 87.5,135.5C 89.9837,137.483 92.3171,139.65 94.5,142C 96.6775,143.202 99.0108,143.702 101.5,143.5 Z"/></g>
<g><path style="opacity:1" fill="#ae2a4a" d="M 230.5,155.5 C 230.5,159.167 230.5,162.833 230.5,166.5C 229.504,166.586 228.671,166.252 228,165.5C 227.824,162.118 227.324,158.785 226.5,155.5C 224.929,154.691 223.262,154.357 221.5,154.5C 219.742,154.877 218.075,155.544 216.5,156.5C 215.914,156.291 215.414,155.957 215,155.5C 214.51,156.793 214.343,158.127 214.5,159.5C 209.706,161.495 204.706,162.328 199.5,162C 196.641,160.309 195.308,157.809 195.5,154.5C 200.701,160.156 205.367,159.823 209.5,153.5C 216.836,151.665 223.836,152.331 230.5,155.5 Z"/></g>
<g><path style="opacity:1" fill="#b23858" d="M 162.5,146.5 C 169.476,147.175 176.476,147.675 183.5,148C 186.191,148.156 188.524,148.989 190.5,150.5C 187.482,150.335 184.482,150.502 181.5,151C 184.266,152.467 186.766,154.3 189,156.5C 189.667,157.5 189.667,158.5 189,159.5C 187.438,158.069 185.938,156.569 184.5,155C 181.756,155.991 179.089,155.657 176.5,154C 175.663,152.989 175.33,151.822 175.5,150.5C 172.794,150.425 170.127,150.092 167.5,149.5C 165.067,149.727 163.401,148.727 162.5,146.5 Z"/></g>
<g><path style="opacity:1" fill="#d02b4e" d="M 167.5,174.5 C 167.815,176.226 167.981,177.893 168,179.5C 165.768,178.157 163.934,176.49 162.5,174.5C 159.841,171.12 157.841,167.787 156.5,164.5C 154.362,165.429 153.196,167.096 153,169.5C 152.577,168.044 151.744,167.544 150.5,168C 152.637,171.313 152.804,174.813 151,178.5C 149.989,177.663 148.822,177.33 147.5,177.5C 146.768,174.863 146.768,172.363 147.5,170C 144.488,167.462 141.821,164.629 139.5,161.5C 138.957,161.44 138.624,161.107 138.5,160.5C 139.094,157.17 139.76,153.836 140.5,150.5C 142.976,149.771 145.476,149.104 148,148.5C 150.083,150.04 152.416,151.04 155,151.5C 158.063,151.065 158.23,150.232 155.5,149C 156.025,148.308 156.692,147.808 157.5,147.5C 163.015,150.529 165.348,155.196 164.5,161.5C 160.445,161.648 159.945,162.648 163,164.5C 164.789,167.741 166.289,171.074 167.5,174.5 Z"/></g>
<g><path style="opacity:1" fill="#8e3751" d="M 190.5,150.5 C 195.09,152.574 199.59,154.907 204,157.5C 205.451,155.536 207.284,154.203 209.5,153.5C 205.367,159.823 200.701,160.156 195.5,154.5C 193.174,153.855 191.507,152.522 190.5,150.5 Z"/></g>
<g><path style="opacity:1" fill="#dabcb2" d="M 109.5,138.5 C 112.491,138.33 114.491,139.663 115.5,142.5C 114.195,145.964 114.528,149.298 116.5,152.5C 118.401,153.231 120.401,153.231 122.5,152.5C 122.249,157.507 121.916,162.507 121.5,167.5C 121.472,170.342 120.138,171.509 117.5,171C 114.113,168.815 111.446,165.981 109.5,162.5C 108.675,161.614 107.675,161.281 106.5,161.5C 106.768,163.099 106.434,164.432 105.5,165.5C 104.863,162.544 104.363,159.544 104,156.5C 102.513,155.845 101.347,154.845 100.5,153.5C 101.234,150.088 101.567,146.755 101.5,143.5C 104.448,143.223 107.281,143.556 110,144.5C 112.055,142.29 111.889,140.29 109.5,138.5 Z"/></g>
<g><path style="opacity:1" fill="#cc2a4b" d="M 66.5,151.5 C 67.3382,151.842 67.6716,152.508 67.5,153.5C 69.0943,158.13 70.761,162.797 72.5,167.5C 69.8318,166.543 68.3318,164.543 68,161.5C 66.3616,165.429 66.1949,169.429 67.5,173.5C 66.5655,172.432 66.2322,171.099 66.5,169.5C 64.6776,169.169 63.0109,168.502 61.5,167.5C 61.5,166.5 61.5,165.5 61.5,164.5C 58.5717,162.755 55.7384,160.755 53,158.5C 52.4427,156.385 51.6094,154.385 50.5,152.5C 53.2109,148.788 56.5442,145.788 60.5,143.5C 61.3267,145.162 62.4933,146.495 64,147.5C 64.3333,149.5 64.6667,151.5 65,153.5C 65.2784,152.584 65.7784,151.918 66.5,151.5 Z"/></g>
<g><path style="opacity:1" fill="#a4213f" d="M 65.5,144.5 C 65.9926,146.806 66.3259,149.139 66.5,151.5C 65.7784,151.918 65.2784,152.584 65,153.5C 64.6667,151.5 64.3333,149.5 64,147.5C 62.4933,146.495 61.3267,145.162 60.5,143.5C 56.5442,145.788 53.2109,148.788 50.5,152.5C 51.6094,154.385 52.4427,156.385 53,158.5C 55.7384,160.755 58.5717,162.755 61.5,164.5C 61.5,165.5 61.5,166.5 61.5,167.5C 62.1037,172.155 63.7703,176.322 66.5,180C 67.6624,187.457 68.3291,194.957 68.5,202.5C 66.7024,194.563 64.0358,186.896 60.5,179.5C 60.1667,179.5 59.8333,179.5 59.5,179.5C 57.7596,172.019 54.4263,165.353 49.5,159.5C 48.0906,157.695 47.5906,155.695 48,153.5C 50.3347,150.335 52.8347,147.335 55.5,144.5C 56.8333,142.5 58.5,140.833 60.5,139.5C 61.8149,138.524 63.1482,137.524 64.5,136.5C 64.5389,139.243 64.8722,141.91 65.5,144.5 Z"/></g>
<g><path style="opacity:1" fill="#c12a4a" d="M 167.5,149.5 C 170.127,150.092 172.794,150.425 175.5,150.5C 175.33,151.822 175.663,152.989 176.5,154C 179.089,155.657 181.756,155.991 184.5,155C 185.938,156.569 187.438,158.069 189,159.5C 189.667,158.5 189.667,157.5 189,156.5C 186.766,154.3 184.266,152.467 181.5,151C 184.482,150.502 187.482,150.335 190.5,150.5C 191.507,152.522 193.174,153.855 195.5,154.5C 195.308,157.809 196.641,160.309 199.5,162C 204.706,162.328 209.706,161.495 214.5,159.5C 214.343,158.127 214.51,156.793 215,155.5C 215.414,155.957 215.914,156.291 216.5,156.5C 218.075,155.544 219.742,154.877 221.5,154.5C 219.08,160.338 216.413,166.005 213.5,171.5C 212.883,171.389 212.383,171.056 212,170.5C 211.558,172.679 210.558,173.345 209,172.5C 207.967,169.783 208.8,167.949 211.5,167C 209.195,164.73 207.029,164.564 205,166.5C 203.887,165.289 202.72,165.289 201.5,166.5C 199.971,165.237 198.305,164.237 196.5,163.5C 194.876,163.64 193.71,162.973 193,161.5C 193.245,165.813 193.245,170.147 193,174.5C 192.722,173.584 192.222,172.918 191.5,172.5C 190.521,170.855 189.188,169.521 187.5,168.5C 186.965,166.339 186.132,164.339 185,162.5C 181.423,166.648 178.423,165.648 176,159.5C 175.922,162.371 176.422,165.205 177.5,168C 177.43,168.765 177.097,169.265 176.5,169.5C 173.483,162.803 170.483,156.136 167.5,149.5 Z"/></g>
<g><path style="opacity:1" fill="#b32544" d="M 162.5,146.5 C 163.401,148.727 165.067,149.727 167.5,149.5C 170.483,156.136 173.483,162.803 176.5,169.5C 176.5,170.167 176.5,170.833 176.5,171.5C 178.827,180.12 181.16,188.786 183.5,197.5C 183.5,198.833 183.5,200.167 183.5,201.5C 179.53,191.338 175.697,181.005 172,170.5C 171.581,169.328 170.915,168.328 170,167.5C 170.299,170.574 171.132,173.574 172.5,176.5C 173.376,180.462 174.042,184.462 174.5,188.5C 173.883,188.611 173.383,188.944 173,189.5C 171.638,184.15 169.805,179.15 167.5,174.5C 166.289,171.074 164.789,167.741 163,164.5C 159.945,162.648 160.445,161.648 164.5,161.5C 165.348,155.196 163.015,150.529 157.5,147.5C 156.692,147.808 156.025,148.308 155.5,149C 158.23,150.232 158.063,151.065 155,151.5C 152.416,151.04 150.083,150.04 148,148.5C 145.476,149.104 142.976,149.771 140.5,150.5C 139.76,153.836 139.094,157.17 138.5,160.5C 138.624,161.107 138.957,161.44 139.5,161.5C 139.762,162.978 139.429,164.311 138.5,165.5C 137.808,164.975 137.308,164.308 137,163.5C 136.505,165.473 136.338,167.473 136.5,169.5C 134.829,166.796 133.163,164.129 131.5,161.5C 130.833,159.833 130.167,158.167 129.5,156.5C 127.947,148.468 129.78,148.468 135,156.5C 135.949,152.82 137.449,149.487 139.5,146.5C 147.491,147.823 155.158,147.823 162.5,146.5 Z"/></g>
<g><path style="opacity:1" fill="#ca2949" d="M 191.5,172.5 C 191.726,177.562 191.392,182.562 190.5,187.5C 190.736,190.226 189.903,192.559 188,194.5C 187.768,193.263 187.268,192.263 186.5,191.5C 185.437,187.667 184.604,187.667 184,191.5C 183.081,186.476 182.081,181.476 181,176.5C 179.024,175.178 177.524,173.512 176.5,171.5C 176.5,170.833 176.5,170.167 176.5,169.5C 177.097,169.265 177.43,168.765 177.5,168C 176.422,165.205 175.922,162.371 176,159.5C 178.423,165.648 181.423,166.648 185,162.5C 186.132,164.339 186.965,166.339 187.5,168.5C 189.188,169.521 190.521,170.855 191.5,172.5 Z"/></g>
<g><path style="opacity:1" fill="#561b2c" d="M 37.5,179.5 C 36.1667,179.5 35.5,178.833 35.5,177.5C 33.8238,172.984 31.4905,168.818 28.5,165C 22.8845,164.597 17.8845,166.097 13.5,169.5C 13.6596,167.847 14.3263,166.514 15.5,165.5C 28.7595,160.75 36.0928,165.417 37.5,179.5 Z"/></g>
<g><path style="opacity:1" fill="#292434" d="M 73.5,142.5 C 74.8333,143.5 76.1667,144.5 77.5,145.5C 78.9387,147.36 80.6053,149.027 82.5,150.5C 84.8785,152.878 87.5451,154.878 90.5,156.5C 98.8663,164.868 107.533,172.868 116.5,180.5C 114.498,181.995 112.498,182.662 110.5,182.5C 108.424,180.712 106.257,179.046 104,177.5C 104.331,179.019 104.164,180.352 103.5,181.5C 100.819,179.806 98.4854,177.639 96.5,175C 88.6667,171.833 83.1667,166.333 80,158.5C 79,159.833 78,159.833 77,158.5C 76.3162,157.216 76.4829,156.049 77.5,155C 76.552,154.517 75.552,154.351 74.5,154.5C 74.6567,153.127 74.49,151.793 74,150.5C 73.6667,150.833 73.3333,151.167 73,151.5C 72.6258,150.584 72.1258,149.75 71.5,149C 73.0163,147.103 73.683,144.936 73.5,142.5 Z"/></g>
<g><path style="opacity:1" fill="#291d2d" d="M 38.5,156.5 C 39.1667,156.5 39.8333,156.5 40.5,156.5C 41.842,157.793 43.5087,158.626 45.5,159C 43.982,160.848 42.1487,162.348 40,163.5C 37.1426,167.813 38.3093,169.813 43.5,169.5C 44.1667,172.5 44.8333,175.5 45.5,178.5C 44.8826,178.611 44.3826,178.944 44,179.5C 43.8333,180.833 43.6667,182.167 43.5,183.5C 44.2179,189.228 44.7179,194.895 45,200.5C 44.0853,199.672 43.4186,198.672 43,197.5C 42.2181,190.794 41.2181,184.127 40,177.5C 39.8091,179.708 39.3091,181.708 38.5,183.5C 38.6716,182.508 38.3382,181.842 37.5,181.5C 37.5,180.833 37.5,180.167 37.5,179.5C 36.0928,165.417 28.7595,160.75 15.5,165.5C 17.3355,162.832 19.6688,160.666 22.5,159C 27.6823,157.197 33.0157,156.364 38.5,156.5 Z"/></g>
<g><path style="opacity:1" fill="#271423" d="M 40.5,156.5 C 43.8174,156.664 46.8174,157.664 49.5,159.5C 54.4263,165.353 57.7596,172.019 59.5,179.5C 57.3153,179.112 55.482,178.112 54,176.5C 52.2326,177.34 50.8993,178.673 50,180.5C 48.5295,179.733 47.0295,179.067 45.5,178.5C 44.8333,175.5 44.1667,172.5 43.5,169.5C 38.3093,169.813 37.1426,167.813 40,163.5C 42.1487,162.348 43.982,160.848 45.5,159C 43.5087,158.626 41.842,157.793 40.5,156.5 Z"/></g>
<g><path style="opacity:1" fill="#9b888f" d="M 90.5,156.5 C 94.88,158.7 98.88,161.533 102.5,165C 103.448,165.483 104.448,165.649 105.5,165.5C 106.434,164.432 106.768,163.099 106.5,161.5C 107.675,161.281 108.675,161.614 109.5,162.5C 111.446,165.981 114.113,168.815 117.5,171C 120.138,171.509 121.472,170.342 121.5,167.5C 121.833,167.5 122.167,167.5 122.5,167.5C 122.745,171.237 123.411,174.903 124.5,178.5C 124.199,181.489 122.532,182.822 119.5,182.5C 118.5,181.833 117.5,181.167 116.5,180.5C 107.533,172.868 98.8663,164.868 90.5,156.5 Z"/></g>
<g><path style="opacity:1" fill="#3f3540" d="M 124.5,159.5 C 124.211,162.649 124.711,165.649 126,168.5C 126.414,168.043 126.914,167.709 127.5,167.5C 128.833,175.167 128.833,182.833 127.5,190.5C 125.118,187.452 122.452,184.785 119.5,182.5C 122.532,182.822 124.199,181.489 124.5,178.5C 123.411,174.903 122.745,171.237 122.5,167.5C 122.565,164.572 123.232,161.905 124.5,159.5 Z"/></g>
<g><path style="opacity:1" fill="#be233f" d="M 221.5,154.5 C 223.262,154.357 224.929,154.691 226.5,155.5C 227.324,158.785 227.824,162.118 228,165.5C 228.671,166.252 229.504,166.586 230.5,166.5C 230.5,172.5 230.5,178.5 230.5,184.5C 229.835,186.369 229.169,188.369 228.5,190.5C 227.805,180.15 226.972,169.816 226,159.5C 225.308,160.025 224.808,160.692 224.5,161.5C 225.112,163.943 225.445,166.443 225.5,169C 224.833,174.178 224,179.344 223,184.5C 222.167,186 221,187.167 219.5,188C 220.5,190.091 219.833,191.757 217.5,193C 214.583,195.431 211.25,196.598 207.5,196.5C 207.662,194.473 207.495,192.473 207,190.5C 204.268,193.558 201.602,196.558 199,199.5C 197.989,198.663 196.822,198.33 195.5,198.5C 195.665,195.482 195.498,192.482 195,189.5C 194.311,190.357 193.478,191.023 192.5,191.5C 191.828,190.051 191.161,188.718 190.5,187.5C 191.392,182.562 191.726,177.562 191.5,172.5C 192.222,172.918 192.722,173.584 193,174.5C 193.245,170.147 193.245,165.813 193,161.5C 193.71,162.973 194.876,163.64 196.5,163.5C 197.491,173.562 197.824,183.562 197.5,193.5C 198,193.833 198.5,194.167 199,194.5C 202.313,191.834 205.646,189.167 209,186.5C 208.954,188.313 209.12,189.979 209.5,191.5C 215.619,191.944 218.619,188.944 218.5,182.5C 219.5,182.5 220.5,182.5 221.5,182.5C 221.566,179.038 222.233,175.705 223.5,172.5C 223.431,170.291 222.764,168.291 221.5,166.5C 215.999,170.818 212.499,176.485 211,183.5C 211.495,179.493 212.328,175.493 213.5,171.5C 216.413,166.005 219.08,160.338 221.5,154.5 Z"/></g>
<g><path style="opacity:1" fill="#c92847" d="M 196.5,163.5 C 198.305,164.237 199.971,165.237 201.5,166.5C 202.72,165.289 203.887,165.289 205,166.5C 207.029,164.564 209.195,164.73 211.5,167C 208.8,167.949 207.967,169.783 209,172.5C 210.558,173.345 211.558,172.679 212,170.5C 212.383,171.056 212.883,171.389 213.5,171.5C 212.328,175.493 211.495,179.493 211,183.5C 212.499,176.485 215.999,170.818 221.5,166.5C 222.764,168.291 223.431,170.291 223.5,172.5C 222.233,175.705 221.566,179.038 221.5,182.5C 220.5,182.5 219.5,182.5 218.5,182.5C 218.619,188.944 215.619,191.944 209.5,191.5C 209.12,189.979 208.954,188.313 209,186.5C 205.646,189.167 202.313,191.834 199,194.5C 198.5,194.167 198,193.833 197.5,193.5C 197.824,183.562 197.491,173.562 196.5,163.5 Z"/></g>
<g><path style="opacity:1" fill="#251626" d="M 59.5,179.5 C 59.8333,179.5 60.1667,179.5 60.5,179.5C 60.3354,182.518 60.502,185.518 61,188.5C 64.7315,193.215 66.5648,198.715 66.5,205C 65.005,213.408 64.005,221.908 63.5,230.5C 58.1667,230.5 52.8333,230.5 47.5,230.5C 47.6661,224.824 47.4994,219.157 47,213.5C 45.7575,211.141 44.2575,209.141 42.5,207.5C 40.8582,199.588 39.5248,191.588 38.5,183.5C 39.3091,181.708 39.8091,179.708 40,177.5C 41.2181,184.127 42.2181,190.794 43,197.5C 43.4186,198.672 44.0853,199.672 45,200.5C 44.7179,194.895 44.2179,189.228 43.5,183.5C 43.6667,182.167 43.8333,180.833 44,179.5C 44.3826,178.944 44.8826,178.611 45.5,178.5C 47.0295,179.067 48.5295,179.733 50,180.5C 50.8993,178.673 52.2326,177.34 54,176.5C 55.482,178.112 57.3153,179.112 59.5,179.5 Z"/></g>
<g><path style="opacity:1" fill="#c4254a" d="M 139.5,161.5 C 141.821,164.629 144.488,167.462 147.5,170C 146.768,172.363 146.768,174.863 147.5,177.5C 148.822,177.33 149.989,177.663 151,178.5C 152.804,174.813 152.637,171.313 150.5,168C 151.744,167.544 152.577,168.044 153,169.5C 153.196,167.096 154.362,165.429 156.5,164.5C 157.841,167.787 159.841,171.12 162.5,174.5C 161.903,174.735 161.57,175.235 161.5,176C 163.511,178.986 164.845,182.153 165.5,185.5C 165.66,187.199 165.494,188.866 165,190.5C 163.069,192.53 161.569,194.863 160.5,197.5C 157.169,192.527 153.836,187.527 150.5,182.5C 149.833,183.167 149.167,183.833 148.5,184.5C 146.925,183.544 145.258,182.877 143.5,182.5C 141.39,177.941 139.057,173.608 136.5,169.5C 136.338,167.473 136.505,165.473 137,163.5C 137.308,164.308 137.808,164.975 138.5,165.5C 139.429,164.311 139.762,162.978 139.5,161.5 Z"/></g>
<g><path style="opacity:1" fill="#9f2442" d="M 67.5,153.5 C 68.6528,155.636 69.9862,157.636 71.5,159.5C 74.8891,169.615 79.3891,179.282 85,188.5C 85.4396,190.866 85.9396,193.199 86.5,195.5C 83.8766,190.933 81.21,186.267 78.5,181.5C 75.9123,177.246 73.9123,172.579 72.5,167.5C 70.761,162.797 69.0943,158.13 67.5,153.5 Z"/></g>
<g><path style="opacity:1" fill="#c92e52" d="M 33.5,230.5 C 30.5,230.5 27.5,230.5 24.5,230.5C 22.4545,225.99 20.1212,221.656 17.5,217.5C 16.7864,214.973 16.1197,212.473 15.5,210C 16.9961,209.493 18.1627,209.993 19,211.5C 19.3016,205.349 17.9682,199.349 15,193.5C 10.8429,189.497 9.00954,184.831 9.5,179.5C 9.46855,175.367 11.4686,173.2 15.5,173C 26.506,190.502 32.506,209.669 33.5,230.5 Z"/></g>
<g><path style="opacity:1" fill="#991e3c" d="M 35.5,177.5 C 32.0012,174.834 29.0012,171.667 26.5,168C 23.8078,167.57 21.1411,167.737 18.5,168.5C 22.0201,173.533 26.1868,178.199 31,182.5C 32,184.167 33,185.833 34,187.5C 36.1158,198.187 38.4492,208.853 41,219.5C 41.4986,223.152 41.6653,226.818 41.5,230.5C 38.8333,230.5 36.1667,230.5 33.5,230.5C 32.506,209.669 26.506,190.502 15.5,173C 11.4686,173.2 9.46855,175.367 9.5,179.5C 5.70276,180.311 2.36942,181.978 -0.5,184.5C -0.5,183.5 -0.5,182.5 -0.5,181.5C 5.10051,178.564 9.76718,174.564 13.5,169.5C 17.8845,166.097 22.8845,164.597 28.5,165C 31.4905,168.818 33.8238,172.984 35.5,177.5 Z"/></g>
<g><path style="opacity:1" fill="#1b1928" d="M 125.5,153.5 C 127.03,154.211 128.363,155.211 129.5,156.5C 130.167,158.167 130.833,159.833 131.5,161.5C 131.286,163.144 131.62,164.644 132.5,166C 131.177,166.816 130.511,167.983 130.5,169.5C 129.957,169.56 129.624,169.893 129.5,170.5C 131.13,176.178 132.13,182.011 132.5,188C 133.045,191.013 134.211,191.179 136,188.5C 136.399,188.728 136.565,189.062 136.5,189.5C 136.229,191.312 135.562,192.978 134.5,194.5C 133.614,193.675 133.281,192.675 133.5,191.5C 130.282,191.651 129.949,192.484 132.5,194C 131.833,195.333 131.167,196.667 130.5,198C 133.056,199.055 134.723,200.888 135.5,203.5C 135.167,206.167 134.833,208.833 134.5,211.5C 134.001,207.761 133.001,204.094 131.5,200.5C 130.516,203.428 130.183,206.428 130.5,209.5C 129.153,206.604 128.653,203.604 129,200.5C 127.442,201.345 126.442,200.679 126,198.5C 125.392,200.066 124.558,201.4 123.5,202.5C 124.293,198.93 125.459,195.597 127,192.5C 126.085,194.98 124.585,195.647 122.5,194.5C 121.833,195.167 121.167,195.833 120.5,196.5C 117.5,193.833 114.5,191.167 111.5,188.5C 110.479,189.002 110.312,189.668 111,190.5C 114.015,193.683 117.182,196.683 120.5,199.5C 117.653,201.424 114.653,203.09 111.5,204.5C 110.272,201.27 107.939,199.604 104.5,199.5C 104.401,196.414 103.068,194.081 100.5,192.5C 105.077,190.301 105.744,186.967 102.5,182.5C 102.624,181.893 102.957,181.56 103.5,181.5C 104.164,180.352 104.331,179.019 104,177.5C 106.257,179.046 108.424,180.712 110.5,182.5C 112.498,182.662 114.498,181.995 116.5,180.5C 117.5,181.167 118.5,181.833 119.5,182.5C 122.452,184.785 125.118,187.452 127.5,190.5C 128.833,182.833 128.833,175.167 127.5,167.5C 126.914,167.709 126.414,168.043 126,168.5C 124.711,165.649 124.211,162.649 124.5,159.5C 124.5,158.5 124.5,157.5 124.5,156.5C 125.404,155.791 125.737,154.791 125.5,153.5 Z"/></g>
<g><path style="opacity:1" fill="#280c19" d="M 131.5,161.5 C 133.163,164.129 134.829,166.796 136.5,169.5C 139.057,173.608 141.39,177.941 143.5,182.5C 144.5,184.167 145.833,185.5 147.5,186.5C 149.319,191.478 151.153,196.478 153,201.5C 154.153,203.818 155.653,205.818 157.5,207.5C 158.833,210.833 160.167,214.167 161.5,217.5C 162.391,219.609 163.558,221.609 165,223.5C 165.497,225.81 165.663,228.143 165.5,230.5C 165.167,230.5 164.833,230.5 164.5,230.5C 162.334,226.52 160.167,222.52 158,218.5C 157.503,216.19 157.337,213.857 157.5,211.5C 156.5,211.5 155.5,211.5 154.5,211.5C 153.136,204.435 149.97,198.435 145,193.5C 144.202,190.107 143.202,186.774 142,183.5C 141.692,184.308 141.192,184.975 140.5,185.5C 138.796,181.61 137.296,177.61 136,173.5C 135.667,174.167 135.333,174.833 135,175.5C 133.637,173.316 132.137,171.316 130.5,169.5C 130.511,167.983 131.177,166.816 132.5,166C 131.62,164.644 131.286,163.144 131.5,161.5 Z"/></g>
<g><path style="opacity:1" fill="#201727" d="M 74.5,137.5 C 73.645,138.531 72.9783,139.697 72.5,141C 72.5699,141.765 72.9033,142.265 73.5,142.5C 73.683,144.936 73.0163,147.103 71.5,149C 72.1258,149.75 72.6258,150.584 73,151.5C 73.3333,151.167 73.6667,150.833 74,150.5C 74.49,151.793 74.6567,153.127 74.5,154.5C 75.552,154.351 76.552,154.517 77.5,155C 76.4829,156.049 76.3162,157.216 77,158.5C 78,159.833 79,159.833 80,158.5C 83.1667,166.333 88.6667,171.833 96.5,175C 98.4854,177.639 100.819,179.806 103.5,181.5C 102.957,181.56 102.624,181.893 102.5,182.5C 105.744,186.967 105.077,190.301 100.5,192.5C 99.1054,190.946 98.4387,191.279 98.5,193.5C 100.717,198.303 101.551,203.303 101,208.5C 96.7701,200.165 93.1035,191.498 90,182.5C 88.6981,179.382 86.8647,176.716 84.5,174.5C 83.4322,171.925 81.7655,169.758 79.5,168C 78.2559,167.544 77.4226,168.044 77,169.5C 77.4466,164.809 75.6133,161.475 71.5,159.5C 69.9862,157.636 68.6528,155.636 67.5,153.5C 67.6716,152.508 67.3382,151.842 66.5,151.5C 66.3259,149.139 65.9926,146.806 65.5,144.5C 66.3474,139.673 69.3474,137.339 74.5,137.5 Z"/></g>
<g><path style="opacity:1" fill="#be1f3e" d="M 162.5,174.5 C 163.934,176.49 165.768,178.157 168,179.5C 167.981,177.893 167.815,176.226 167.5,174.5C 169.805,179.15 171.638,184.15 173,189.5C 173.383,188.944 173.883,188.611 174.5,188.5C 175.117,188.611 175.617,188.944 176,189.5C 177.509,195.868 179.342,202.201 181.5,208.5C 177.159,219.39 173.826,219.057 171.5,207.5C 171.411,201.773 169.411,196.94 165.5,193C 167.457,190.591 167.457,188.091 165.5,185.5C 164.845,182.153 163.511,178.986 161.5,176C 161.57,175.235 161.903,174.735 162.5,174.5 Z"/></g>
<g><path style="opacity:1" fill="#ac2247" d="M 9.5,179.5 C 9.00954,184.831 10.8429,189.497 15,193.5C 17.9682,199.349 19.3016,205.349 19,211.5C 18.1627,209.993 16.9961,209.493 15.5,210C 16.1197,212.473 16.7864,214.973 17.5,217.5C 20.1212,221.656 22.4545,225.99 24.5,230.5C 20.8333,230.5 17.1667,230.5 13.5,230.5C 11.2038,216.894 9.0371,203.227 7,189.5C 4.86456,187.722 2.36456,187.055 -0.5,187.5C -0.5,186.5 -0.5,185.5 -0.5,184.5C 2.36942,181.978 5.70276,180.311 9.5,179.5 Z"/></g>
<g><path style="opacity:1" fill="#b21e39" d="M 230.5,184.5 C 230.5,189.167 230.5,193.833 230.5,198.5C 228.064,198.317 225.897,198.984 224,200.5C 221.741,198.149 220.241,198.815 219.5,202.5C 214.552,203.871 209.719,205.538 205,207.5C 202.83,206.666 200.83,206.333 199,206.5C 197.28,207.384 196.114,208.717 195.5,210.5C 194.432,211.434 193.099,211.768 191.5,211.5C 190.901,206.139 190.067,200.806 189,195.5C 188.333,196.833 187.667,196.833 187,195.5C 186.51,194.207 186.343,192.873 186.5,191.5C 187.268,192.263 187.768,193.263 188,194.5C 189.903,192.559 190.736,190.226 190.5,187.5C 191.161,188.718 191.828,190.051 192.5,191.5C 193.478,191.023 194.311,190.357 195,189.5C 195.498,192.482 195.665,195.482 195.5,198.5C 196.822,198.33 197.989,198.663 199,199.5C 201.602,196.558 204.268,193.558 207,190.5C 207.495,192.473 207.662,194.473 207.5,196.5C 211.25,196.598 214.583,195.431 217.5,193C 219.833,191.757 220.5,190.091 219.5,188C 221,187.167 222.167,186 223,184.5C 224,179.344 224.833,174.178 225.5,169C 225.445,166.443 225.112,163.943 224.5,161.5C 224.808,160.692 225.308,160.025 226,159.5C 226.972,169.816 227.805,180.15 228.5,190.5C 229.169,188.369 229.835,186.369 230.5,184.5 Z"/></g>
<g><path style="opacity:1" fill="#4d1126" d="M 37.5,181.5 C 38.3382,181.842 38.6716,182.508 38.5,183.5C 39.5248,191.588 40.8582,199.588 42.5,207.5C 39.2754,199.244 37.6087,190.577 37.5,181.5 Z"/></g>
<g><path style="opacity:1" fill="#1c050d" d="M 136.5,189.5 C 140.141,191.324 141.974,194.324 142,198.5C 145.535,203.581 147.368,209.247 147.5,215.5C 146.733,216.172 146.066,217.005 145.5,218C 144.833,218.667 144.167,218.667 143.5,218C 141.859,212.552 139.192,207.719 135.5,203.5C 134.723,200.888 133.056,199.055 130.5,198C 131.167,196.667 131.833,195.333 132.5,194C 129.949,192.484 130.282,191.651 133.5,191.5C 133.281,192.675 133.614,193.675 134.5,194.5C 135.562,192.978 136.229,191.312 136.5,189.5 Z"/></g>
<g><path style="opacity:1" fill="#b11f42" d="M 143.5,182.5 C 145.258,182.877 146.925,183.544 148.5,184.5C 149.167,183.833 149.833,183.167 150.5,182.5C 153.836,187.527 157.169,192.527 160.5,197.5C 161.569,194.863 163.069,192.53 165,190.5C 165.494,188.866 165.66,187.199 165.5,185.5C 167.457,188.091 167.457,190.591 165.5,193C 169.411,196.94 171.411,201.773 171.5,207.5C 170.372,204.815 169.038,202.148 167.5,199.5C 167.167,200 166.833,200.5 166.5,201C 167.186,205.149 168.186,209.149 169.5,213C 169.167,214.167 168.833,215.333 168.5,216.5C 167.813,214.445 166.646,212.779 165,211.5C 165.128,214.486 165.128,217.486 165,220.5C 163.961,219.29 162.794,218.29 161.5,217.5C 160.167,214.167 158.833,210.833 157.5,207.5C 158.211,204.136 157.044,201.803 154,200.5C 153.289,195.92 151.956,191.587 150,187.5C 149.329,186.748 148.496,186.414 147.5,186.5C 145.833,185.5 144.5,184.167 143.5,182.5 Z"/></g>
<g><path style="opacity:1" fill="#cb2447" d="M 72.5,167.5 C 73.9123,172.579 75.9123,177.246 78.5,181.5C 80.1505,187.1 81.6505,192.767 83,198.5C 86.2174,202.574 87.7174,207.241 87.5,212.5C 85.0567,211.891 83.39,210.391 82.5,208C 81.552,207.517 80.552,207.351 79.5,207.5C 78.1154,204.341 77.1154,201.008 76.5,197.5C 75.5,197.5 74.5,197.5 73.5,197.5C 73.6766,195.019 72.6766,193.186 70.5,192C 71.1667,191.667 71.8333,191.333 72.5,191C 70.4824,185.196 68.8158,179.363 67.5,173.5C 66.1949,169.429 66.3616,165.429 68,161.5C 68.3318,164.543 69.8318,166.543 72.5,167.5 Z"/></g>
<g><path style="opacity:1" fill="#0e0e1b" d="M 123.5,202.5 C 122.5,202.5 121.5,202.5 120.5,202.5C 123.732,212.627 127.399,221.96 131.5,230.5C 126.167,230.5 120.833,230.5 115.5,230.5C 112.64,225.443 110.307,220.109 108.5,214.5C 110.024,212.208 109.691,210.208 107.5,208.5C 107.567,206.576 107.9,204.576 108.5,202.5C 109.265,203.612 110.265,204.279 111.5,204.5C 114.653,203.09 117.653,201.424 120.5,199.5C 117.182,196.683 114.015,193.683 111,190.5C 110.312,189.668 110.479,189.002 111.5,188.5C 114.5,191.167 117.5,193.833 120.5,196.5C 121.167,195.833 121.833,195.167 122.5,194.5C 124.585,195.647 126.085,194.98 127,192.5C 125.459,195.597 124.293,198.93 123.5,202.5 Z"/></g>
<g><path style="opacity:1" fill="#9e1933" d="M 230.5,198.5 C 230.5,206.5 230.5,214.5 230.5,222.5C 229.167,222.5 227.833,222.5 226.5,222.5C 223.289,219.771 222.123,216.438 223,212.5C 222.244,209.208 220.411,208.208 217.5,209.5C 218.847,213.11 218.18,213.443 215.5,210.5C 212.217,211.188 209.051,212.188 206,213.5C 203.763,212.944 201.763,211.944 200,210.5C 198.586,211.413 197.086,211.413 195.5,210.5C 196.114,208.717 197.28,207.384 199,206.5C 200.83,206.333 202.83,206.666 205,207.5C 209.719,205.538 214.552,203.871 219.5,202.5C 220.241,198.815 221.741,198.149 224,200.5C 225.897,198.984 228.064,198.317 230.5,198.5 Z"/></g>
<g><path style="opacity:1" fill="#555b71" d="M 134.5,211.5 C 134.649,212.552 134.483,213.552 134,214.5C 132.824,212.804 131.657,211.138 130.5,209.5C 130.183,206.428 130.516,203.428 131.5,200.5C 133.001,204.094 134.001,207.761 134.5,211.5 Z"/></g>
<g><path style="opacity:1" fill="#7e1531" d="M 147.5,186.5 C 148.496,186.414 149.329,186.748 150,187.5C 151.956,191.587 153.289,195.92 154,200.5C 157.044,201.803 158.211,204.136 157.5,207.5C 155.653,205.818 154.153,203.818 153,201.5C 151.153,196.478 149.319,191.478 147.5,186.5 Z"/></g>
<g><path style="opacity:1" fill="#160e1d" d="M 130.5,169.5 C 132.137,171.316 133.637,173.316 135,175.5C 135.333,174.833 135.667,174.167 136,173.5C 137.296,177.61 138.796,181.61 140.5,185.5C 141.192,184.975 141.692,184.308 142,183.5C 143.202,186.774 144.202,190.107 145,193.5C 149.97,198.435 153.136,204.435 154.5,211.5C 155.5,211.5 156.5,211.5 157.5,211.5C 157.337,213.857 157.503,216.19 158,218.5C 160.167,222.52 162.334,226.52 164.5,230.5C 160.833,230.5 157.167,230.5 153.5,230.5C 152.851,226.049 151.684,221.716 150,217.5C 149.583,216.244 148.75,215.577 147.5,215.5C 147.368,209.247 145.535,203.581 142,198.5C 141.974,194.324 140.141,191.324 136.5,189.5C 136.565,189.062 136.399,188.728 136,188.5C 134.211,191.179 133.045,191.013 132.5,188C 132.13,182.011 131.13,176.178 129.5,170.5C 129.624,169.893 129.957,169.56 130.5,169.5 Z"/></g>
<g><path style="opacity:1" fill="#bc5c79" d="M 183.5,201.5 C 185.859,210.27 188.525,218.937 191.5,227.5C 191.5,228.5 191.5,229.5 191.5,230.5C 191.167,230.5 190.833,230.5 190.5,230.5C 184.977,212.172 178.977,194.172 172.5,176.5C 171.132,173.574 170.299,170.574 170,167.5C 170.915,168.328 171.581,169.328 172,170.5C 175.697,181.005 179.53,191.338 183.5,201.5 Z"/></g>
<g><path style="opacity:1" fill="#9f2042" d="M 86.5,195.5 C 90.4624,204.204 93.9624,213.204 97,222.5C 97.4974,225.146 97.6641,227.813 97.5,230.5C 97.1667,230.5 96.8333,230.5 96.5,230.5C 91.7091,219.251 88.3758,207.584 86.5,195.5 Z"/></g>
<g><path style="opacity:1" fill="#210c19" d="M 71.5,159.5 C 75.6133,161.475 77.4466,164.809 77,169.5C 77.4226,168.044 78.2559,167.544 79.5,168C 81.7655,169.758 83.4322,171.925 84.5,174.5C 83.0615,180.452 84.0615,186.119 87.5,191.5C 88.7946,192.098 90.1279,192.598 91.5,193C 90.9732,195.475 90.9732,197.809 91.5,200C 93.1911,201.405 95.0245,202.572 97,203.5C 96.8928,207.489 98.0595,210.989 100.5,214C 99.5,214.833 98.5,215.667 97.5,216.5C 99.108,221.099 100.441,225.766 101.5,230.5C 100.167,230.5 98.8333,230.5 97.5,230.5C 97.6641,227.813 97.4974,225.146 97,222.5C 93.9624,213.204 90.4624,204.204 86.5,195.5C 85.9396,193.199 85.4396,190.866 85,188.5C 79.3891,179.282 74.8891,169.615 71.5,159.5 Z"/></g>
<g><path style="opacity:1" fill="#93172f" d="M 176.5,171.5 C 177.524,173.512 179.024,175.178 181,176.5C 182.081,181.476 183.081,186.476 184,191.5C 184.604,187.667 185.437,187.667 186.5,191.5C 186.343,192.873 186.51,194.207 187,195.5C 187.667,196.833 188.333,196.833 189,195.5C 190.067,200.806 190.901,206.139 191.5,211.5C 193.099,211.768 194.432,211.434 195.5,210.5C 197.086,211.413 198.586,211.413 200,210.5C 201.763,211.944 203.763,212.944 206,213.5C 209.051,212.188 212.217,211.188 215.5,210.5C 218.18,213.443 218.847,213.11 217.5,209.5C 220.411,208.208 222.244,209.208 223,212.5C 222.123,216.438 223.289,219.771 226.5,222.5C 217.343,222.632 208.343,223.132 199.5,224C 198.726,221.595 198.226,219.095 198,216.5C 195.238,215.019 192.571,213.353 190,211.5C 189.667,208.5 189.333,205.5 189,202.5C 187.921,200.606 186.587,200.273 185,201.5C 184.79,199.942 184.29,198.609 183.5,197.5C 181.16,188.786 178.827,180.12 176.5,171.5 Z"/></g>
<g><path style="opacity:1" fill="#221828" d="M 47.5,188.5 C 48.404,189.209 48.7373,190.209 48.5,191.5C 49.5,191.5 50.5,191.5 51.5,191.5C 51.281,190.325 51.6143,189.325 52.5,188.5C 53.9759,190.571 55.9759,191.571 58.5,191.5C 58.2436,193.792 58.5769,195.959 59.5,198C 57.3143,198.604 57.1476,199.77 59,201.5C 59.3076,200.692 59.8076,200.025 60.5,199.5C 62.631,205.579 63.4644,211.579 63,217.5C 58.6113,218.675 54.1113,219.341 49.5,219.5C 49.0331,209.237 48.3664,198.904 47.5,188.5 Z"/></g>
<g><path style="opacity:1" fill="#ac2543" d="M 35.5,177.5 C 35.5,178.833 36.1667,179.5 37.5,179.5C 37.5,180.167 37.5,180.833 37.5,181.5C 37.6087,190.577 39.2754,199.244 42.5,207.5C 44.9714,214.934 45.9714,222.6 45.5,230.5C 44.1667,230.5 42.8333,230.5 41.5,230.5C 41.6653,226.818 41.4986,223.152 41,219.5C 38.4492,208.853 36.1158,198.187 34,187.5C 33,185.833 32,184.167 31,182.5C 26.1868,178.199 22.0201,173.533 18.5,168.5C 21.1411,167.737 23.8078,167.57 26.5,168C 29.0012,171.667 32.0012,174.834 35.5,177.5 Z"/></g>
<g><path style="opacity:1" fill="#130f1f" d="M 84.5,174.5 C 86.8647,176.716 88.6981,179.382 90,182.5C 93.1035,191.498 96.7701,200.165 101,208.5C 101.551,203.303 100.717,198.303 98.5,193.5C 98.4387,191.279 99.1054,190.946 100.5,192.5C 103.068,194.081 104.401,196.414 104.5,199.5C 107.939,199.604 110.272,201.27 111.5,204.5C 110.265,204.279 109.265,203.612 108.5,202.5C 107.9,204.576 107.567,206.576 107.5,208.5C 109.691,210.208 110.024,212.208 108.5,214.5C 110.307,220.109 112.64,225.443 115.5,230.5C 110.833,230.5 106.167,230.5 101.5,230.5C 100.441,225.766 99.108,221.099 97.5,216.5C 98.5,215.667 99.5,214.833 100.5,214C 98.0595,210.989 96.8928,207.489 97,203.5C 95.0245,202.572 93.1911,201.405 91.5,200C 90.9732,197.809 90.9732,195.475 91.5,193C 90.1279,192.598 88.7946,192.098 87.5,191.5C 84.0615,186.119 83.0615,180.452 84.5,174.5 Z"/></g>
<g><path style="opacity:1" fill="#74162a" d="M 183.5,197.5 C 184.29,198.609 184.79,199.942 185,201.5C 186.587,200.273 187.921,200.606 189,202.5C 189.333,205.5 189.667,208.5 190,211.5C 192.571,213.353 195.238,215.019 198,216.5C 198.226,219.095 198.726,221.595 199.5,224C 208.343,223.132 217.343,222.632 226.5,222.5C 227.833,222.5 229.167,222.5 230.5,222.5C 230.5,223.5 230.5,224.5 230.5,225.5C 217.475,225.763 204.475,226.43 191.5,227.5C 188.525,218.937 185.859,210.27 183.5,201.5C 183.5,200.167 183.5,198.833 183.5,197.5 Z"/></g>
<g><path style="opacity:1" fill="#c22143" d="M 61.5,167.5 C 63.0109,168.502 64.6776,169.169 66.5,169.5C 66.2322,171.099 66.5655,172.432 67.5,173.5C 68.8158,179.363 70.4824,185.196 72.5,191C 71.8333,191.333 71.1667,191.667 70.5,192C 72.6766,193.186 73.6766,195.019 73.5,197.5C 74.5,197.5 75.5,197.5 76.5,197.5C 77.1154,201.008 78.1154,204.341 79.5,207.5C 80.552,207.351 81.552,207.517 82.5,208C 83.39,210.391 85.0567,211.891 87.5,212.5C 88.8223,215.145 90.1557,217.811 91.5,220.5C 91.1667,221.5 90.8333,222.5 90.5,223.5C 89.1667,220.833 87.8333,218.167 86.5,215.5C 85.6816,218.107 85.1816,220.774 85,223.5C 83.7604,220.588 82.0937,217.921 80,215.5C 79.4115,217.863 77.9115,218.863 75.5,218.5C 75.4802,220.143 76.1468,221.476 77.5,222.5C 76.6721,223.415 75.6721,224.081 74.5,224.5C 71.9347,219.927 70.768,214.927 71,209.5C 70.3918,207.934 69.5585,206.6 68.5,205.5C 68.5,204.5 68.5,203.5 68.5,202.5C 68.3291,194.957 67.6624,187.457 66.5,180C 63.7703,176.322 62.1037,172.155 61.5,167.5 Z"/></g>
<g><path style="opacity:1" fill="#64122b" d="M 60.5,179.5 C 64.0358,186.896 66.7024,194.563 68.5,202.5C 68.5,203.5 68.5,204.5 68.5,205.5C 67.3691,213.821 66.0358,222.154 64.5,230.5C 64.1667,230.5 63.8333,230.5 63.5,230.5C 64.005,221.908 65.005,213.408 66.5,205C 66.5648,198.715 64.7315,193.215 61,188.5C 60.502,185.518 60.3354,182.518 60.5,179.5 Z"/></g>
<g><path style="opacity:1" fill="#bb1f41" d="M 78.5,181.5 C 81.21,186.267 83.8766,190.933 86.5,195.5C 88.3758,207.584 91.7091,219.251 96.5,230.5C 85.8333,230.5 75.1667,230.5 64.5,230.5C 66.0358,222.154 67.3691,213.821 68.5,205.5C 69.5585,206.6 70.3918,207.934 71,209.5C 70.768,214.927 71.9347,219.927 74.5,224.5C 75.6721,224.081 76.6721,223.415 77.5,222.5C 76.1468,221.476 75.4802,220.143 75.5,218.5C 77.9115,218.863 79.4115,217.863 80,215.5C 82.0937,217.921 83.7604,220.588 85,223.5C 85.1816,220.774 85.6816,218.107 86.5,215.5C 87.8333,218.167 89.1667,220.833 90.5,223.5C 90.8333,222.5 91.1667,221.5 91.5,220.5C 90.1557,217.811 88.8223,215.145 87.5,212.5C 87.7174,207.241 86.2174,202.574 83,198.5C 81.6505,192.767 80.1505,187.1 78.5,181.5 Z"/></g>
<g><path style="opacity:1" fill="#0b0a12" d="M 130.5,209.5 C 131.657,211.138 132.824,212.804 134,214.5C 134.483,213.552 134.649,212.552 134.5,211.5C 134.833,208.833 135.167,206.167 135.5,203.5C 139.192,207.719 141.859,212.552 143.5,218C 144.167,218.667 144.833,218.667 145.5,218C 146.066,217.005 146.733,216.172 147.5,215.5C 148.75,215.577 149.583,216.244 150,217.5C 151.684,221.716 152.851,226.049 153.5,230.5C 146.167,230.5 138.833,230.5 131.5,230.5C 127.399,221.96 123.732,212.627 120.5,202.5C 121.5,202.5 122.5,202.5 123.5,202.5C 124.558,201.4 125.392,200.066 126,198.5C 126.442,200.679 127.442,201.345 129,200.5C 128.653,203.604 129.153,206.604 130.5,209.5 Z"/></g>
<g><path style="opacity:1" fill="#c82f55" d="M -0.5,187.5 C 2.36456,187.055 4.86456,187.722 7,189.5C 9.0371,203.227 11.2038,216.894 13.5,230.5C 11.5,230.5 9.5,230.5 7.5,230.5C 6.62744,224.415 3.96078,219.415 -0.5,215.5C -0.5,206.167 -0.5,196.833 -0.5,187.5 Z"/></g>
<g><path style="opacity:1" fill="#9b1a38" d="M 172.5,176.5 C 178.977,194.172 184.977,212.172 190.5,230.5C 182.167,230.5 173.833,230.5 165.5,230.5C 165.663,228.143 165.497,225.81 165,223.5C 163.558,221.609 162.391,219.609 161.5,217.5C 162.794,218.29 163.961,219.29 165,220.5C 165.128,217.486 165.128,214.486 165,211.5C 166.646,212.779 167.813,214.445 168.5,216.5C 168.833,215.333 169.167,214.167 169.5,213C 168.186,209.149 167.186,205.149 166.5,201C 166.833,200.5 167.167,200 167.5,199.5C 169.038,202.148 170.372,204.815 171.5,207.5C 173.826,219.057 177.159,219.39 181.5,208.5C 179.342,202.201 177.509,195.868 176,189.5C 175.617,188.944 175.117,188.611 174.5,188.5C 174.042,184.462 173.376,180.462 172.5,176.5 Z"/></g>
<g><path style="opacity:1" fill="#340716" d="M 42.5,207.5 C 44.2575,209.141 45.7575,211.141 47,213.5C 47.4994,219.157 47.6661,224.824 47.5,230.5C 46.8333,230.5 46.1667,230.5 45.5,230.5C 45.9714,222.6 44.9714,214.934 42.5,207.5 Z"/></g>
<g><path style="opacity:1" fill="#ad2147" d="M -0.5,215.5 C 3.96078,219.415 6.62744,224.415 7.5,230.5C 4.83333,230.5 2.16667,230.5 -0.5,230.5C -0.5,225.5 -0.5,220.5 -0.5,215.5 Z"/></g>
<g><path style="opacity:1" fill="#564e55" d="M 230.5,225.5 C 230.5,227.167 230.5,228.833 230.5,230.5C 217.5,230.5 204.5,230.5 191.5,230.5C 191.5,229.5 191.5,228.5 191.5,227.5C 204.475,226.43 217.475,225.763 230.5,225.5 Z"/></g>
</svg>
