<?xml version="1.0" encoding="UTF-8"?>
<!DOCTYPE svg PUBLIC "-//W3C//DTD SVG 1.1//EN" "http://www.w3.org/Graphics/SVG/1.1/DTD/svg11.dtd">
<svg xmlns="http://www.w3.org/2000/svg" version="1.1" width="231px" height="231px" style="shape-rendering:geometricPrecision; text-rendering:geometricPrecision; image-rendering:optimizeQuality; fill-rule:evenodd; clip-rule:evenodd" xmlns:xlink="http://www.w3.org/1999/xlink">
<g><path style="opacity:1" fill="#6d6558" d="M 171.5,59.5 C 170.833,59.5 170.167,59.5 169.5,59.5C 168.412,56.3465 167.078,53.3465 165.5,50.5C 163.936,46.3716 162.102,42.3716 160,38.5C 159.503,36.1902 159.337,33.8568 159.5,31.5C 158.325,31.719 157.325,31.3857 156.5,30.5C 153.792,22.4008 149.125,15.7341 142.5,10.5C 141.571,9.68509 140.571,8.85175 139.5,8C 135.313,7.81347 131.479,6.6468 128,4.5C 122.016,4.86376 116.349,6.19709 111,8.5C 109.319,8.39174 108.152,7.72507 107.5,6.5C 113.296,5.06964 119.129,3.73631 125,2.5C 136.933,3.46147 146.266,8.79481 153,18.5C 160.994,31.3028 167.16,44.9695 171.5,59.5 Z"/></g>
<g><path style="opacity:1" fill="#302f31" d="M 126.5,35.5 C 125.375,33.8712 124.041,32.3712 122.5,31C 114.496,31.7189 107.496,29.5522 101.5,24.5C 98.6972,27.5233 96.0305,30.5233 93.5,33.5C 93.5,32.1667 93.5,30.8333 93.5,29.5C 91.712,29.2148 90.0453,29.5481 88.5,30.5C 85.0055,33.6468 82.3388,37.3135 80.5,41.5C 82.4139,33.9217 85.5805,26.9217 90,20.5C 93.0977,16.8926 96.5977,13.8926 100.5,11.5C 102.144,11.7135 103.644,11.3802 105,10.5C 107.771,14.5982 110.271,14.4315 112.5,10C 118.454,10.0731 124.121,11.5731 129.5,14.5C 129.919,15.6721 130.585,16.6721 131.5,17.5C 134.735,18.7327 137.735,20.3994 140.5,22.5C 139.624,23.2508 138.624,23.7508 137.5,24C 140.394,24.8686 141.561,26.7019 141,29.5C 139.037,25.9132 137.537,25.9132 136.5,29.5C 139.257,32.3155 138.757,32.9822 135,31.5C 134.508,32.549 134.674,33.549 135.5,34.5C 135.154,35.6956 134.654,35.6956 134,34.5C 133.667,35.5 133.333,36.5 133,37.5C 129.936,32.0422 128.936,32.3755 130,38.5C 128.961,37.2899 127.794,36.2899 126.5,35.5 Z"/></g>
<g><path style="opacity:1" fill="#454346" d="M 142.5,10.5 C 143.468,13.0439 145.135,15.2105 147.5,17C 141.279,14.6531 140.946,15.6531 146.5,20C 145.262,19.9227 144.262,20.0894 143.5,20.5C 145.656,22.6289 147.323,24.9622 148.5,27.5C 144.295,26.8454 143.128,28.1788 145,31.5C 145.667,33.5 145.667,35.5 145,37.5C 144,37.1667 143,36.8333 142,36.5C 141.833,37 141.667,37.5 141.5,38C 142.832,40.9819 144.165,43.9819 145.5,47C 145.167,47.3333 144.833,47.6667 144.5,48C 147.269,52.8401 149.936,57.6735 152.5,62.5C 153.32,64.8123 154.153,67.1457 155,69.5C 156,69.8333 157,70.1667 158,70.5C 158.826,73.7928 159.326,77.1262 159.5,80.5C 157.503,77.8402 156.003,74.8402 155,71.5C 156.357,75.7106 156.857,80.0439 156.5,84.5C 155.193,88.0605 154.36,91.7272 154,95.5C 153.461,92.4715 152.794,89.4715 152,86.5C 151.667,87.8333 151.333,89.1667 151,90.5C 150.178,88.2115 149.511,85.8782 149,83.5C 145.535,78.9025 142.869,73.9025 141,68.5C 141.828,73.775 142.661,79.1084 143.5,84.5C 142.12,84.0377 141.453,83.0377 141.5,81.5C 140.039,75.9327 139.206,70.266 139,64.5C 137.242,58.5409 135.575,52.5409 134,46.5C 130.985,43.1223 128.485,39.4556 126.5,35.5C 127.794,36.2899 128.961,37.2899 130,38.5C 128.936,32.3755 129.936,32.0422 133,37.5C 133.333,36.5 133.667,35.5 134,34.5C 134.654,35.6956 135.154,35.6956 135.5,34.5C 134.674,33.549 134.508,32.549 135,31.5C 138.757,32.9822 139.257,32.3155 136.5,29.5C 137.537,25.9132 139.037,25.9132 141,29.5C 141.561,26.7019 140.394,24.8686 137.5,24C 138.624,23.7508 139.624,23.2508 140.5,22.5C 137.735,20.3994 134.735,18.7327 131.5,17.5C 130.585,16.6721 129.919,15.6721 129.5,14.5C 124.121,11.5731 118.454,10.0731 112.5,10C 110.271,14.4315 107.771,14.5982 105,10.5C 103.644,11.3802 102.144,11.7135 100.5,11.5C 102.267,9.10991 104.6,7.44325 107.5,6.5C 108.152,7.72507 109.319,8.39174 111,8.5C 116.349,6.19709 122.016,4.86376 128,4.5C 131.479,6.6468 135.313,7.81347 139.5,8C 140.571,8.85175 141.571,9.68509 142.5,10.5 Z"/></g>
<g><path style="opacity:1" fill="#5e5e64" d="M 142.5,10.5 C 149.125,15.7341 153.792,22.4008 156.5,30.5C 157.325,31.3857 158.325,31.719 159.5,31.5C 159.337,33.8568 159.503,36.1902 160,38.5C 162.102,42.3716 163.936,46.3716 165.5,50.5C 165.292,52.9201 165.626,55.2534 166.5,57.5C 165.443,57.9059 164.109,57.9059 162.5,57.5C 162.649,58.552 162.483,59.552 162,60.5C 161.581,59.3279 160.915,58.3279 160,57.5C 159.811,63.4083 158.811,63.7416 157,58.5C 156.667,59.5 156.333,60.5 156,61.5C 154.308,58.3562 153.142,55.0229 152.5,51.5C 151.914,51.7093 151.414,52.0426 151,52.5C 150.759,49.7111 150.092,47.0444 149,44.5C 149.006,50.7001 150.173,56.7001 152.5,62.5C 149.936,57.6735 147.269,52.8401 144.5,48C 144.833,47.6667 145.167,47.3333 145.5,47C 144.165,43.9819 142.832,40.9819 141.5,38C 141.667,37.5 141.833,37 142,36.5C 143,36.8333 144,37.1667 145,37.5C 145.667,35.5 145.667,33.5 145,31.5C 143.128,28.1788 144.295,26.8454 148.5,27.5C 147.323,24.9622 145.656,22.6289 143.5,20.5C 144.262,20.0894 145.262,19.9227 146.5,20C 140.946,15.6531 141.279,14.6531 147.5,17C 145.135,15.2105 143.468,13.0439 142.5,10.5 Z"/></g>
<g><path style="opacity:1" fill="#5b5b5f" d="M 136.5,35.5 C 138.942,35.3537 139.609,36.187 138.5,38C 140.179,39.8258 141.346,41.9924 142,44.5C 143.595,53.3537 146.595,61.687 151,69.5C 151.868,72.4853 152.201,75.4853 152,78.5C 151.075,77.9535 150.242,77.2868 149.5,76.5C 146.798,71.6225 144.298,66.6225 142,61.5C 141.667,62.5 141.333,63.5 141,64.5C 138.879,56.8037 136.379,49.3037 133.5,42C 133.548,40.967 133.881,40.6337 134.5,41C 135.46,42.4194 136.293,43.9194 137,45.5C 136.754,42.125 136.587,38.7917 136.5,35.5 Z"/></g>
<g><path style="opacity:1" fill="#6c5d5a" d="M 126.5,35.5 C 128.485,39.4556 130.985,43.1223 134,46.5C 135.575,52.5409 137.242,58.5409 139,64.5C 139.206,70.266 140.039,75.9327 141.5,81.5C 141.453,83.0377 142.12,84.0377 143.5,84.5C 144.341,86.3792 144.675,88.3792 144.5,90.5C 144.307,94.449 143.807,94.449 143,90.5C 142.218,93.3102 141.384,95.9768 140.5,98.5C 140.203,92.4928 139.203,87.8262 137.5,84.5C 136.93,78.4157 135.93,72.4157 134.5,66.5C 132.201,65.8621 130.034,64.8621 128,63.5C 126.933,65.2826 125.433,65.7826 123.5,65C 124.731,63.8173 124.731,62.6507 123.5,61.5C 122.232,62.4279 120.899,62.5946 119.5,62C 119.893,59.9579 119.893,58.1246 119.5,56.5C 123.418,55.6892 127.418,54.6892 131.5,53.5C 129.745,48.9945 127.745,44.6612 125.5,40.5C 124.118,37.6057 122.118,35.1057 119.5,33C 98.8711,25.1116 89.5377,32.2783 91.5,54.5C 93.5,54.5 95.5,54.5 97.5,54.5C 99.1484,55.9265 101.148,56.7599 103.5,57C 105.017,58.6851 106.684,60.1851 108.5,61.5C 109.833,63.8333 109.833,66.1667 108.5,68.5C 107.289,67.7261 107.289,66.8928 108.5,66C 107.552,65.5172 106.552,65.3505 105.5,65.5C 105.719,64.325 105.386,63.325 104.5,62.5C 102.422,64.9864 99.7553,65.9864 96.5,65.5C 93.4053,60.8585 94.7387,58.3585 100.5,58C 97.594,56.6815 94.594,56.3482 91.5,57C 90.8906,58.9483 90.224,60.7816 89.5,62.5C 89.2953,54.1329 89.6287,45.7996 90.5,37.5C 91.5,36.1667 92.5,34.8333 93.5,33.5C 96.0305,30.5233 98.6972,27.5233 101.5,24.5C 107.496,29.5522 114.496,31.7189 122.5,31C 124.041,32.3712 125.375,33.8712 126.5,35.5 Z"/></g>
<g><path style="opacity:1" fill="#9f8d85" d="M 125.5,40.5 C 123.704,39.2073 122.037,37.7073 120.5,36C 118,35.6253 115.667,34.7919 113.5,33.5C 108.58,33.8494 103.58,33.8494 98.5,33.5C 97.1154,34.5736 95.9487,35.9069 95,37.5C 94.0463,42.6902 93.2129,47.8568 92.5,53C 94.3817,53.1981 96.0484,53.6981 97.5,54.5C 95.5,54.5 93.5,54.5 91.5,54.5C 89.5377,32.2783 98.8711,25.1116 119.5,33C 122.118,35.1057 124.118,37.6057 125.5,40.5 Z"/></g>
<g><path style="opacity:1" fill="#d3b9b3" d="M 98.5,33.5 C 103.58,33.8494 108.58,33.8494 113.5,33.5C 115.667,34.7919 118,35.6253 120.5,36C 122.037,37.7073 123.704,39.2073 125.5,40.5C 127.745,44.6612 129.745,48.9945 131.5,53.5C 127.418,54.6892 123.418,55.6892 119.5,56.5C 117.738,56.6427 116.071,56.3094 114.5,55.5C 112.548,56.8136 110.715,57.4803 109,57.5C 106.951,54.9526 104.451,52.9526 101.5,51.5C 101.38,46.9189 101.213,42.2523 101,37.5C 99.5187,36.5291 98.6854,35.1958 98.5,33.5 Z"/></g>
<g><path style="opacity:1" fill="#a88682" d="M 97.5,54.5 C 110.162,55.3949 114.328,62.0616 110,74.5C 107.53,78.8298 108.03,82.6632 111.5,86C 110.833,87.3333 109.833,88.3333 108.5,89C 110.677,90.2022 113.011,90.7022 115.5,90.5C 115.5,91.8333 115.5,93.1667 115.5,94.5C 117.124,94.6399 118.29,93.9733 119,92.5C 121.044,93.772 122.878,93.4386 124.5,91.5C 124.023,90.5224 123.357,89.6891 122.5,89C 125.289,88.7586 127.956,88.092 130.5,87C 127.86,83.6938 124.86,80.6938 121.5,78C 122,77.8333 122.5,77.6667 123,77.5C 125.989,79.8193 128.989,82.1527 132,84.5C 132.494,86.1341 132.66,87.8008 132.5,89.5C 126.771,93.0314 120.771,96.0314 114.5,98.5C 111.206,99.5191 107.872,99.5191 104.5,98.5C 104.62,96.2655 104.287,94.0989 103.5,92C 98.3014,86.6973 98.968,81.864 105.5,77.5C 107.316,71.313 104.983,68.313 98.5,68.5C 97.8333,67.5 97.1667,66.5 96.5,65.5C 99.7553,65.9864 102.422,64.9864 104.5,62.5C 105.386,63.325 105.719,64.325 105.5,65.5C 106.552,65.3505 107.552,65.5172 108.5,66C 107.289,66.8928 107.289,67.7261 108.5,68.5C 109.833,66.1667 109.833,63.8333 108.5,61.5C 106.684,60.1851 105.017,58.6851 103.5,57C 101.148,56.7599 99.1484,55.9265 97.5,54.5 Z"/></g>
<g><path style="opacity:1" fill="#6e6c6d" d="M 169.5,59.5 C 170.167,59.5 170.833,59.5 171.5,59.5C 173.708,69.21 176.041,78.8767 178.5,88.5C 176.908,89.6016 176.075,88.935 176,86.5C 175.667,87.1667 175.333,87.8333 175,88.5C 173.561,86.7254 172.561,84.7254 172,82.5C 171.648,74.751 170.815,67.0844 169.5,59.5 Z"/></g>
<g><path style="opacity:1" fill="#ccaeaa" d="M 98.5,33.5 C 98.6854,35.1958 99.5187,36.5291 101,37.5C 101.213,42.2523 101.38,46.9189 101.5,51.5C 104.451,52.9526 106.951,54.9526 109,57.5C 110.715,57.4803 112.548,56.8136 114.5,55.5C 116.071,56.3094 117.738,56.6427 119.5,56.5C 119.893,58.1246 119.893,59.9579 119.5,62C 120.899,62.5946 122.232,62.4279 123.5,61.5C 124.731,62.6507 124.731,63.8173 123.5,65C 125.433,65.7826 126.933,65.2826 128,63.5C 130.034,64.8621 132.201,65.8621 134.5,66.5C 135.93,72.4157 136.93,78.4157 137.5,84.5C 136.861,88.7966 135.861,93.1299 134.5,97.5C 136.228,101.752 135.228,105.252 131.5,108C 128.941,109.777 126.274,111.277 123.5,112.5C 119.881,111.82 116.214,111.32 112.5,111C 111.833,110.333 111.167,109.667 110.5,109C 113.866,108.295 116.366,106.461 118,103.5C 118.749,102.365 118.583,101.365 117.5,100.5C 116.261,100.058 115.261,99.3909 114.5,98.5C 120.771,96.0314 126.771,93.0314 132.5,89.5C 132.66,87.8008 132.494,86.1341 132,84.5C 128.989,82.1527 125.989,79.8193 123,77.5C 122.5,77.6667 122,77.8333 121.5,78C 124.86,80.6938 127.86,83.6938 130.5,87C 127.956,88.092 125.289,88.7586 122.5,89C 123.357,89.6891 124.023,90.5224 124.5,91.5C 122.878,93.4386 121.044,93.772 119,92.5C 118.29,93.9733 117.124,94.6399 115.5,94.5C 115.5,93.1667 115.5,91.8333 115.5,90.5C 113.011,90.7022 110.677,90.2022 108.5,89C 109.833,88.3333 110.833,87.3333 111.5,86C 108.03,82.6632 107.53,78.8298 110,74.5C 114.328,62.0616 110.162,55.3949 97.5,54.5C 96.0484,53.6981 94.3817,53.1981 92.5,53C 93.2129,47.8568 94.0463,42.6902 95,37.5C 95.9487,35.9069 97.1154,34.5736 98.5,33.5 Z"/></g>
<g><path style="opacity:1" fill="#1c1716" d="M 90.5,37.5 C 89.6287,45.7996 89.2953,54.1329 89.5,62.5C 88.3091,81.108 94.1425,97.108 107,110.5C 107.483,111.448 107.649,112.448 107.5,113.5C 107.666,118.179 107.499,122.845 107,127.5C 106.274,130.621 104.774,133.287 102.5,135.5C 101.25,139.746 100.417,144.079 100,148.5C 99.1376,146.913 98.4709,145.246 98,143.5C 97.7105,145.952 97.0438,148.285 96,150.5C 95.586,150.043 95.086,149.709 94.5,149.5C 93.6042,152.144 92.7709,154.81 92,157.5C 91.6667,153.5 91.3333,149.5 91,145.5C 90.5291,147.246 89.8624,148.913 89,150.5C 88.6667,149.167 88.3333,147.833 88,146.5C 87.3457,147.696 86.8457,147.696 86.5,146.5C 97.1458,135.908 99.1458,123.908 92.5,110.5C 91.1667,111.167 90.1667,112.167 89.5,113.5C 95.1135,121.584 95.6135,129.917 91,138.5C 89.6015,139.051 88.2682,139.384 87,139.5C 86.6667,141.167 86.3333,142.833 86,144.5C 82.6667,147.833 79.3333,151.167 76,154.5C 75.1576,147.185 77.8243,141.518 84,137.5C 84.4709,134.529 85.6375,131.862 87.5,129.5C 87.0234,128.069 86.3567,126.736 85.5,125.5C 84.8076,126.025 84.3076,126.692 84,127.5C 83.7297,123.627 83.2297,119.794 82.5,116C 83.0223,115.05 83.689,114.216 84.5,113.5C 81.0716,111.549 80.7383,109.216 83.5,106.5C 84.8681,108.637 85.8681,110.97 86.5,113.5C 87.4841,110.572 87.8174,107.572 87.5,104.5C 87.2006,96.4198 87.534,88.0864 88.5,79.5C 87.846,77.8849 87.346,76.2182 87,74.5C 86.3333,64.5 86.3333,54.5 87,44.5C 87.3457,41.4245 88.0124,38.4245 89,35.5C 89.7172,36.0442 90.2172,36.7109 90.5,37.5 Z"/></g>
<g><path style="opacity:1" fill="#534d4c" d="M 165.5,50.5 C 167.078,53.3465 168.412,56.3465 169.5,59.5C 170.815,67.0844 171.648,74.751 172,82.5C 172.561,84.7254 173.561,86.7254 175,88.5C 175.333,87.8333 175.667,87.1667 176,86.5C 176.075,88.935 176.908,89.6016 178.5,88.5C 178.425,91.2062 178.092,93.8728 177.5,96.5C 176.778,96.9175 176.278,97.5842 176,98.5C 175.309,96.1088 174.309,96.1088 173,98.5C 172.781,97.062 172.281,95.7287 171.5,94.5C 170.459,96.9913 169.626,96.9913 169,94.5C 166.674,95.8132 165.341,97.8132 165,100.5C 163.228,99.0099 163.061,97.3432 164.5,95.5C 163.758,94.7132 162.925,94.0465 162,93.5C 161.434,91.2774 160.6,89.2774 159.5,87.5C 159.5,85.1667 159.5,82.8333 159.5,80.5C 159.326,77.1262 158.826,73.7928 158,70.5C 157,70.1667 156,69.8333 155,69.5C 154.153,67.1457 153.32,64.8123 152.5,62.5C 150.173,56.7001 149.006,50.7001 149,44.5C 150.092,47.0444 150.759,49.7111 151,52.5C 151.414,52.0426 151.914,51.7093 152.5,51.5C 153.142,55.0229 154.308,58.3562 156,61.5C 156.333,60.5 156.667,59.5 157,58.5C 158.811,63.7416 159.811,63.4083 160,57.5C 160.915,58.3279 161.581,59.3279 162,60.5C 162.483,59.552 162.649,58.552 162.5,57.5C 164.109,57.9059 165.443,57.9059 166.5,57.5C 165.626,55.2534 165.292,52.9201 165.5,50.5 Z"/></g>
<g><path style="opacity:1" fill="#2d2725" d="M 164.5,62.5 C 166.776,62.7565 167.943,64.0898 168,66.5C 168.888,71.6178 168.555,76.6178 167,81.5C 166.333,80.8333 165.667,80.1667 165,79.5C 164.918,74.7805 164.085,70.2805 162.5,66C 162.862,64.5657 163.528,63.3991 164.5,62.5 Z"/></g>
<g><path style="opacity:1" fill="#977e72" d="M 96.5,65.5 C 97.1667,66.5 97.8333,67.5 98.5,68.5C 96.1667,68.5 93.8333,68.5 91.5,68.5C 91.3345,72.5138 91.5012,76.5138 92,80.5C 95.9216,87.3423 99.5883,94.3423 103,101.5C 103.317,99.6992 103.984,99.3659 105,100.5C 106.14,105.438 108.307,109.771 111.5,113.5C 114.305,114.319 117.305,114.819 120.5,115C 117.72,118.021 118.053,120.521 121.5,122.5C 122.141,123.482 122.807,124.482 123.5,125.5C 122.667,125.833 121.833,126.167 121,126.5C 118.638,124.847 116.471,122.847 114.5,120.5C 113.5,120.833 112.833,121.5 112.5,122.5C 113.246,123.736 113.579,125.07 113.5,126.5C 117.838,126.622 118.172,126.955 114.5,127.5C 113.636,131.682 112.303,135.682 110.5,139.5C 109.5,139.5 108.5,139.5 107.5,139.5C 107.023,134.971 108.356,131.137 111.5,128C 111,127.5 110.5,127 110,126.5C 109.24,122.012 108.406,117.678 107.5,113.5C 107.649,112.448 107.483,111.448 107,110.5C 94.1425,97.108 88.3091,81.108 89.5,62.5C 90.224,60.7816 90.8906,58.9483 91.5,57C 94.594,56.3482 97.594,56.6815 100.5,58C 94.7387,58.3585 93.4053,60.8585 96.5,65.5 Z"/></g>
<g><path style="opacity:1" fill="#2a2421" d="M 93.5,33.5 C 92.5,34.8333 91.5,36.1667 90.5,37.5C 90.2172,36.7109 89.7172,36.0442 89,35.5C 88.0124,38.4245 87.3457,41.4245 87,44.5C 86.3333,54.5 86.3333,64.5 87,74.5C 87.346,76.2182 87.846,77.8849 88.5,79.5C 87.534,88.0864 87.2006,96.4198 87.5,104.5C 86.5492,107.045 85.5492,107.045 84.5,104.5C 84.7093,103.914 85.0426,103.414 85.5,103C 84.1965,95.8832 83.0298,88.7165 82,81.5C 81.6667,82.5 81.3333,83.5 81,84.5C 79.7929,78.8452 78.4595,78.5119 77,83.5C 76.8333,82.1667 76.6667,80.8333 76.5,79.5C 77.1214,77.0144 77.1214,74.6811 76.5,72.5C 77.9576,69.5237 78.291,66.5237 77.5,63.5C 78.0983,62.2054 78.5983,60.8721 79,59.5C 79.3333,59.8333 79.6667,60.1667 80,60.5C 80.4995,54.5092 80.6662,48.5092 80.5,42.5C 80.5,42.1667 80.5,41.8333 80.5,41.5C 82.3388,37.3135 85.0055,33.6468 88.5,30.5C 90.0453,29.5481 91.712,29.2148 93.5,29.5C 93.5,30.8333 93.5,32.1667 93.5,33.5 Z"/></g>
<g><path style="opacity:1" fill="#39312d" d="M 80.5,42.5 C 80.6662,48.5092 80.4995,54.5092 80,60.5C 79.6667,60.1667 79.3333,59.8333 79,59.5C 78.5983,60.8721 78.0983,62.2054 77.5,63.5C 78.291,66.5237 77.9576,69.5237 76.5,72.5C 77.1214,74.6811 77.1214,77.0144 76.5,79.5C 76.6667,80.8333 76.8333,82.1667 77,83.5C 78.4595,78.5119 79.7929,78.8452 81,84.5C 81.3333,83.5 81.6667,82.5 82,81.5C 83.0298,88.7165 84.1965,95.8832 85.5,103C 85.0426,103.414 84.7093,103.914 84.5,104.5C 85.5492,107.045 86.5492,107.045 87.5,104.5C 87.8174,107.572 87.4841,110.572 86.5,113.5C 85.8681,110.97 84.8681,108.637 83.5,106.5C 80.7383,109.216 81.0716,111.549 84.5,113.5C 83.689,114.216 83.0223,115.05 82.5,116C 83.2297,119.794 83.7297,123.627 84,127.5C 84.3076,126.692 84.8076,126.025 85.5,125.5C 86.3567,126.736 87.0234,128.069 87.5,129.5C 85.6375,131.862 84.4709,134.529 84,137.5C 77.8243,141.518 75.1576,147.185 76,154.5C 79.3333,151.167 82.6667,147.833 86,144.5C 86.3333,142.833 86.6667,141.167 87,139.5C 88.2682,139.384 89.6015,139.051 91,138.5C 95.6135,129.917 95.1135,121.584 89.5,113.5C 90.1667,112.167 91.1667,111.167 92.5,110.5C 99.1458,123.908 97.1458,135.908 86.5,146.5C 86.8457,147.696 87.3457,147.696 88,146.5C 88.3333,147.833 88.6667,149.167 89,150.5C 89.8624,148.913 90.5291,147.246 91,145.5C 91.3333,149.5 91.6667,153.5 92,157.5C 92.7709,154.81 93.6042,152.144 94.5,149.5C 95.086,149.709 95.586,150.043 96,150.5C 97.0438,148.285 97.7105,145.952 98,143.5C 98.4709,145.246 99.1376,146.913 100,148.5C 100.417,144.079 101.25,139.746 102.5,135.5C 104.774,133.287 106.274,130.621 107,127.5C 107.499,122.845 107.666,118.179 107.5,113.5C 108.406,117.678 109.24,122.012 110,126.5C 110.5,127 111,127.5 111.5,128C 108.356,131.137 107.023,134.971 107.5,139.5C 107.5,139.833 107.5,140.167 107.5,140.5C 104.42,150.96 100.754,161.293 96.5,171.5C 94.4158,173.275 93.2491,175.608 93,178.5C 92.6667,176.833 92.3333,175.167 92,173.5C 91.3333,182.167 91.3333,190.833 92,199.5C 92.2321,200.737 92.7321,201.737 93.5,202.5C 93.3915,204.514 94.0582,206.18 95.5,207.5C 94.1266,207.657 92.7932,207.49 91.5,207C 91.8363,205.371 91.1696,203.871 89.5,202.5C 90.1386,201.903 90.472,201.07 90.5,200C 89.9069,196.849 89.4069,193.682 89,190.5C 85.8018,186.648 84.9685,182.314 86.5,177.5C 86.1924,176.692 85.6924,176.025 85,175.5C 83.8815,182.996 82.7149,183.163 81.5,176C 83.5803,174.039 83.9137,171.872 82.5,169.5C 83.5464,162.87 83.7131,156.203 83,149.5C 79.5733,152.256 76.9066,155.59 75,159.5C 74.4436,161.885 74.6103,164.218 75.5,166.5C 75.6309,167.376 75.2975,168.043 74.5,168.5C 70.7616,162.808 71.0949,155.808 75.5,147.5C 75.3333,147.167 75.1667,146.833 75,146.5C 74.0853,147.328 73.4186,148.328 73,149.5C 72.1368,147.251 72.6368,145.418 74.5,144C 73.552,143.517 72.552,143.351 71.5,143.5C 71.7852,141.712 71.4519,140.045 70.5,138.5C 69.0656,137.412 68.0656,136.078 67.5,134.5C 68.3255,130.864 68.9922,127.197 69.5,123.5C 68.5,123.5 67.5,123.5 66.5,123.5C 66.1667,123.5 65.8333,123.5 65.5,123.5C 70.6378,121.367 73.1378,117.367 73,111.5C 74.8802,104.095 74.5469,96.7613 72,89.5C 71.3333,85.1667 71.3333,80.8333 72,76.5C 74.9511,65.0653 77.7844,53.732 80.5,42.5 Z"/></g>
<g><path style="opacity:1" fill="#c19f93" d="M 98.5,68.5 C 104.983,68.313 107.316,71.313 105.5,77.5C 98.968,81.864 98.3014,86.6973 103.5,92C 104.287,94.0989 104.62,96.2655 104.5,98.5C 107.872,99.5191 111.206,99.5191 114.5,98.5C 115.261,99.3909 116.261,100.058 117.5,100.5C 118.583,101.365 118.749,102.365 118,103.5C 116.366,106.461 113.866,108.295 110.5,109C 111.167,109.667 111.833,110.333 112.5,111C 116.214,111.32 119.881,111.82 123.5,112.5C 119.702,113.483 115.702,113.817 111.5,113.5C 108.307,109.771 106.14,105.438 105,100.5C 103.984,99.3659 103.317,99.6992 103,101.5C 99.5883,94.3423 95.9216,87.3423 92,80.5C 91.5012,76.5138 91.3345,72.5138 91.5,68.5C 93.8333,68.5 96.1667,68.5 98.5,68.5 Z"/></g>
<g><path style="opacity:1" fill="#2f211c" d="M 159.5,80.5 C 159.5,82.8333 159.5,85.1667 159.5,87.5C 159.86,94.4008 161.193,101.067 163.5,107.5C 162.921,112.638 161.254,117.305 158.5,121.5C 157.391,121.557 156.391,121.89 155.5,122.5C 147.099,120.598 144.766,115.765 148.5,108C 148.056,106.238 147.556,106.405 147,108.5C 146.667,103.167 146.333,97.8333 146,92.5C 145.722,91.5842 145.222,90.9175 144.5,90.5C 144.675,88.3792 144.341,86.3792 143.5,84.5C 142.661,79.1084 141.828,73.775 141,68.5C 142.869,73.9025 145.535,78.9025 149,83.5C 149.511,85.8782 150.178,88.2115 151,90.5C 151.333,89.1667 151.667,87.8333 152,86.5C 152.794,89.4715 153.461,92.4715 154,95.5C 154.36,91.7272 155.193,88.0605 156.5,84.5C 156.857,80.0439 156.357,75.7106 155,71.5C 156.003,74.8402 157.503,77.8402 159.5,80.5 Z"/></g>
<g><path style="opacity:1" fill="#41312a" d="M 159.5,87.5 C 160.6,89.2774 161.434,91.2774 162,93.5C 162.925,94.0465 163.758,94.7132 164.5,95.5C 163.061,97.3432 163.228,99.0099 165,100.5C 165.341,97.8132 166.674,95.8132 169,94.5C 169.626,96.9913 170.459,96.9913 171.5,94.5C 172.281,95.7287 172.781,97.062 173,98.5C 174.309,96.1088 175.309,96.1088 176,98.5C 176.278,97.5842 176.778,96.9175 177.5,96.5C 176.622,103.69 173.288,109.356 167.5,113.5C 166.229,115.109 165.229,116.942 164.5,119C 162.783,120.559 160.783,121.392 158.5,121.5C 161.254,117.305 162.921,112.638 163.5,107.5C 161.193,101.067 159.86,94.4008 159.5,87.5 Z"/></g>
<g><path style="opacity:1" fill="#a89186" d="M 137.5,84.5 C 139.203,87.8262 140.203,92.4928 140.5,98.5C 139.122,104.405 139.288,110.405 141,116.5C 142.804,122.144 146.638,124.811 152.5,124.5C 152.158,125.338 151.492,125.672 150.5,125.5C 142.506,126.994 137.006,123.994 134,116.5C 129.884,113.07 125.551,113.07 121,116.5C 120.322,118.598 120.489,120.598 121.5,122.5C 118.053,120.521 117.72,118.021 120.5,115C 117.305,114.819 114.305,114.319 111.5,113.5C 115.702,113.817 119.702,113.483 123.5,112.5C 126.274,111.277 128.941,109.777 131.5,108C 135.228,105.252 136.228,101.752 134.5,97.5C 135.861,93.1299 136.861,88.7966 137.5,84.5 Z"/></g>
<g><path style="opacity:1" fill="#453125" d="M 144.5,90.5 C 145.222,90.9175 145.722,91.5842 146,92.5C 146.333,97.8333 146.667,103.167 147,108.5C 147.556,106.405 148.056,106.238 148.5,108C 144.766,115.765 147.099,120.598 155.5,122.5C 155.5,122.833 155.5,123.167 155.5,123.5C 154.609,124.11 153.609,124.443 152.5,124.5C 146.638,124.811 142.804,122.144 141,116.5C 139.288,110.405 139.122,104.405 140.5,98.5C 141.384,95.9768 142.218,93.3102 143,90.5C 143.807,94.449 144.307,94.449 144.5,90.5 Z"/></g>
<g><path style="opacity:1" fill="#baa89f" d="M 150.5,125.5 C 149.158,127.514 147.492,127.847 145.5,126.5C 143.269,127.647 140.935,128.647 138.5,129.5C 137.449,132.757 136.782,136.09 136.5,139.5C 138.181,143.324 138.681,147.324 138,151.5C 134.843,151.173 131.676,151.173 128.5,151.5C 129.222,146.511 129.388,141.511 129,136.5C 126.695,133.39 124.195,133.057 121.5,135.5C 119.627,142.828 118.794,150.161 119,157.5C 116.599,158.563 114.099,158.563 111.5,157.5C 110.833,157.5 110.167,157.5 109.5,157.5C 108.167,156.167 106.833,154.833 105.5,153.5C 106.117,153.389 106.617,153.056 107,152.5C 107.865,148.36 108.032,144.36 107.5,140.5C 107.5,140.167 107.5,139.833 107.5,139.5C 108.5,139.5 109.5,139.5 110.5,139.5C 112.303,135.682 113.636,131.682 114.5,127.5C 118.172,126.955 117.838,126.622 113.5,126.5C 113.579,125.07 113.246,123.736 112.5,122.5C 112.833,121.5 113.5,120.833 114.5,120.5C 116.471,122.847 118.638,124.847 121,126.5C 121.833,126.167 122.667,125.833 123.5,125.5C 122.807,124.482 122.141,123.482 121.5,122.5C 120.489,120.598 120.322,118.598 121,116.5C 125.551,113.07 129.884,113.07 134,116.5C 137.006,123.994 142.506,126.994 150.5,125.5 Z"/></g>
<g><path style="opacity:1" fill="#d3cbc9" d="M 153.5,135.5 C 147.604,136.09 141.937,137.424 136.5,139.5C 136.782,136.09 137.449,132.757 138.5,129.5C 140.935,128.647 143.269,127.647 145.5,126.5C 147.492,127.847 149.158,127.514 150.5,125.5C 151.492,125.672 152.158,125.338 152.5,124.5C 153.609,124.443 154.609,124.11 155.5,123.5C 163.028,121.547 170.695,120.547 178.5,120.5C 178.572,123.522 177.238,125.688 174.5,127C 167.89,130.977 160.89,133.811 153.5,135.5 Z"/></g>
<g><path style="opacity:1" fill="#191e2f" d="M 182.5,120.5 C 184.735,120.205 186.735,120.539 188.5,121.5C 188.453,124.969 187.787,128.302 186.5,131.5C 185.292,136.092 183.292,140.426 180.5,144.5C 179.311,145.429 177.978,145.762 176.5,145.5C 177.853,137.939 179.52,130.439 181.5,123C 179.902,121.274 180.235,120.441 182.5,120.5 Z"/></g>
<g><path style="opacity:1" fill="#877471" d="M 66.5,123.5 C 67.5,123.5 68.5,123.5 69.5,123.5C 68.9922,127.197 68.3255,130.864 67.5,134.5C 64.5454,140.146 63.8787,146.146 65.5,152.5C 65.1667,152.5 64.8333,152.5 64.5,152.5C 63.7173,148.307 63.0506,143.973 62.5,139.5C 65.2193,134.587 66.5526,129.254 66.5,123.5 Z"/></g>
<g><path style="opacity:1" fill="#d2c4cf" d="M 188.5,121.5 C 191.067,121.721 193.401,122.388 195.5,123.5C 189.544,120.917 188.044,122.584 191,128.5C 191.556,126.405 192.056,126.238 192.5,128C 192.18,129.653 191.18,130.653 189.5,131C 190.147,132.609 190.98,134.109 192,135.5C 193.365,132.717 195.532,130.717 198.5,129.5C 199.853,131.738 201.853,133.071 204.5,133.5C 205.182,132.757 205.849,132.091 206.5,131.5C 206.657,132.873 206.49,134.207 206,135.5C 204.703,134.216 203.536,134.383 202.5,136C 204.807,136.354 205.141,137.354 203.5,139C 203.759,140.261 204.426,141.261 205.5,142C 204.167,142 202.833,142 201.5,142C 202.333,144.167 203.833,145.667 206,146.5C 207.301,148.365 207.635,150.365 207,152.5C 206.107,151.289 205.274,151.289 204.5,152.5C 205.167,153.167 205.833,153.833 206.5,154.5C 204.73,157.711 204.73,161.044 206.5,164.5C 205.572,165.768 205.405,167.101 206,168.5C 206.654,167.304 207.154,167.304 207.5,168.5C 207.167,169.167 206.833,169.833 206.5,170.5C 206.846,171.696 207.346,171.696 208,170.5C 208.538,174.93 207.705,179.097 205.5,183C 206.4,185.02 206.733,187.353 206.5,190C 202.534,199.022 200.034,208.522 199,218.5C 197.513,219.253 197.346,220.086 198.5,221C 196.109,221.691 196.109,222.691 198.5,224C 196.518,225.805 195.184,227.972 194.5,230.5C 193.167,230.5 191.833,230.5 190.5,230.5C 192.079,227.9 191.745,225.567 189.5,223.5C 191.05,220.02 192.884,216.686 195,213.5C 194.779,210.769 194.945,208.102 195.5,205.5C 195.824,203.431 196.658,203.098 198,204.5C 198,203.167 198,201.833 198,200.5C 198.333,200.833 198.667,201.167 199,201.5C 199.18,197.571 199.347,193.738 199.5,190C 199.389,188.278 198.889,188.112 198,189.5C 197.447,186.641 197.614,183.808 198.5,181C 198.333,180.167 198.167,179.333 198,178.5C 197.581,179.672 196.915,180.672 196,181.5C 195.686,178.083 196.52,174.916 198.5,172C 197.507,169.547 197.34,167.047 198,164.5C 198.333,164.833 198.667,165.167 199,165.5C 199.333,163.5 199.667,161.5 200,159.5C 202.033,160.016 202.033,159.35 200,157.5C 195.423,160.375 191.589,164.042 188.5,168.5C 188.167,168 187.833,167.5 187.5,167C 189.013,165.121 189.679,162.954 189.5,160.5C 190.552,160.649 191.552,160.483 192.5,160C 192.554,157.199 192.554,154.366 192.5,151.5C 193.025,150.808 193.692,150.308 194.5,150C 193.244,149.583 192.577,148.75 192.5,147.5C 194.201,147.966 195.701,147.966 197,147.5C 197.617,148.449 197.451,149.282 196.5,150C 199.047,152.361 199.88,151.861 199,148.5C 198,147.167 197,145.833 196,144.5C 195.692,145.308 195.192,145.975 194.5,146.5C 192.618,145.907 190.785,145.24 189,144.5C 188.374,146.991 187.541,146.991 186.5,144.5C 185.643,143.264 184.977,141.931 184.5,140.5C 186.13,137.724 186.797,134.724 186.5,131.5C 187.787,128.302 188.453,124.969 188.5,121.5 Z"/></g>
<g><path style="opacity:1" fill="#bcb1b2" d="M 167.5,113.5 C 167.414,114.496 167.748,115.329 168.5,116C 173.127,118.044 177.794,119.544 182.5,120.5C 180.235,120.441 179.902,121.274 181.5,123C 179.52,130.439 177.853,137.939 176.5,145.5C 174.599,146.935 174.266,148.602 175.5,150.5C 175.167,150.5 174.833,150.5 174.5,150.5C 174.167,150.5 173.833,150.5 173.5,150.5C 173.631,149.761 173.464,149.094 173,148.5C 165.334,153.75 157.167,158.083 148.5,161.5C 148.906,160.085 148.239,158.919 146.5,158C 147.966,157.365 149.3,156.531 150.5,155.5C 151.788,157.475 153.455,157.475 155.5,155.5C 156.281,154.271 156.781,152.938 157,151.5C 157.308,152.308 157.808,152.975 158.5,153.5C 162.075,150.89 165.408,148.056 168.5,145C 164.251,141.951 164.584,140.618 169.5,141C 172.271,144.654 173.605,144.154 173.5,139.5C 169.473,139.719 168.806,138.552 171.5,136C 177.258,136.275 177.924,134.775 173.5,131.5C 167.936,132.951 162.603,134.951 157.5,137.5C 155.844,138.146 154.177,138.813 152.5,139.5C 151.833,139.167 151.167,138.833 150.5,138.5C 151.34,137.265 152.34,136.265 153.5,135.5C 160.89,133.811 167.89,130.977 174.5,127C 177.238,125.688 178.572,123.522 178.5,120.5C 170.695,120.547 163.028,121.547 155.5,123.5C 155.5,123.167 155.5,122.833 155.5,122.5C 156.391,121.89 157.391,121.557 158.5,121.5C 160.783,121.392 162.783,120.559 164.5,119C 165.229,116.942 166.229,115.109 167.5,113.5 Z"/></g>
<g><path style="opacity:1" fill="#cec4c4" d="M 148.5,161.5 C 146.438,162.776 144.104,163.61 141.5,164C 135.984,164.817 130.65,164.651 125.5,163.5C 129.514,163.666 133.514,163.499 137.5,163C 136.167,162.667 134.833,162.333 133.5,162C 135.256,161.798 136.922,161.298 138.5,160.5C 139.174,158.483 140.341,156.817 142,155.5C 142.423,152.385 142.923,149.052 143.5,145.5C 148.022,144.44 152.356,143.606 156.5,143C 156.167,142.667 155.833,142.333 155.5,142C 156.267,140.53 156.933,139.03 157.5,137.5C 162.603,134.951 167.936,132.951 173.5,131.5C 177.924,134.775 177.258,136.275 171.5,136C 168.806,138.552 169.473,139.719 173.5,139.5C 173.605,144.154 172.271,144.654 169.5,141C 164.584,140.618 164.251,141.951 168.5,145C 165.408,148.056 162.075,150.89 158.5,153.5C 157.808,152.975 157.308,152.308 157,151.5C 156.781,152.938 156.281,154.271 155.5,155.5C 153.455,157.475 151.788,157.475 150.5,155.5C 149.3,156.531 147.966,157.365 146.5,158C 148.239,158.919 148.906,160.085 148.5,161.5 Z"/></g>
<g><path style="opacity:1" fill="#c7b8b5" d="M 136.5,139.5 C 141.937,137.424 147.604,136.09 153.5,135.5C 152.34,136.265 151.34,137.265 150.5,138.5C 151.167,138.833 151.833,139.167 152.5,139.5C 154.177,138.813 155.844,138.146 157.5,137.5C 156.933,139.03 156.267,140.53 155.5,142C 155.833,142.333 156.167,142.667 156.5,143C 152.356,143.606 148.022,144.44 143.5,145.5C 142.923,149.052 142.423,152.385 142,155.5C 140.341,156.817 139.174,158.483 138.5,160.5C 136.922,161.298 135.256,161.798 133.5,162C 134.833,162.333 136.167,162.667 137.5,163C 133.514,163.499 129.514,163.666 125.5,163.5C 120.142,162.834 115.475,160.834 111.5,157.5C 114.099,158.563 116.599,158.563 119,157.5C 118.794,150.161 119.627,142.828 121.5,135.5C 124.195,133.057 126.695,133.39 129,136.5C 129.388,141.511 129.222,146.511 128.5,151.5C 131.676,151.173 134.843,151.173 138,151.5C 138.681,147.324 138.181,143.324 136.5,139.5 Z"/></g>
<g><path style="opacity:1" fill="#baafba" d="M 186.5,131.5 C 186.797,134.724 186.13,137.724 184.5,140.5C 184.977,141.931 185.643,143.264 186.5,144.5C 187.541,146.991 188.374,146.991 189,144.5C 190.785,145.24 192.618,145.907 194.5,146.5C 195.192,145.975 195.692,145.308 196,144.5C 197,145.833 198,147.167 199,148.5C 199.88,151.861 199.047,152.361 196.5,150C 197.451,149.282 197.617,148.449 197,147.5C 195.701,147.966 194.201,147.966 192.5,147.5C 189.903,146.597 189.403,147.264 191,149.5C 191.015,151.791 191.182,153.958 191.5,156C 190.584,156.374 189.75,156.874 189,157.5C 189.135,160.938 187.968,163.772 185.5,166C 186.47,169.299 186.47,172.799 185.5,176.5C 183.686,176.228 181.686,176.061 179.5,176C 179,175.5 178.5,175 178,174.5C 178.15,176.506 178.65,178.506 179.5,180.5C 178.957,180.56 178.624,180.893 178.5,181.5C 179.833,183.5 181.167,185.5 182.5,187.5C 182.376,188.107 182.043,188.44 181.5,188.5C 180.167,188.5 178.833,188.5 177.5,188.5C 176.039,184.669 175.039,180.669 174.5,176.5C 175.023,172.511 175.356,168.511 175.5,164.5C 176.165,166.698 176.832,169.031 177.5,171.5C 178.85,170.05 180.516,169.383 182.5,169.5C 182.964,163.268 182.297,157.268 180.5,151.5C 178.708,151.634 177.042,151.301 175.5,150.5C 174.266,148.602 174.599,146.935 176.5,145.5C 177.978,145.762 179.311,145.429 180.5,144.5C 183.292,140.426 185.292,136.092 186.5,131.5 Z"/></g>
<g><path style="opacity:1" fill="#e3dde5" d="M 195.5,123.5 C 207.609,124.778 215.775,131.111 220,142.5C 221.559,171.974 220.393,201.308 216.5,230.5C 212.833,230.5 209.167,230.5 205.5,230.5C 204.11,227.07 204.276,223.736 206,220.5C 206.333,222.5 206.667,224.5 207,226.5C 209.109,223.707 208.942,221.041 206.5,218.5C 208.662,215.532 208.995,212.366 207.5,209C 208.395,203.388 209.395,203.222 210.5,208.5C 213.797,208.671 214.131,208.005 211.5,206.5C 212.485,204.902 212.651,203.235 212,201.5C 211.002,204.028 210.169,204.028 209.5,201.5C 210.421,199.87 211.255,198.203 212,196.5C 212.333,197.5 212.667,198.5 213,199.5C 213.167,198.833 213.333,198.167 213.5,197.5C 211.319,193.537 210.986,189.37 212.5,185C 212.056,183.238 211.556,183.405 211,185.5C 210.833,184.333 210.667,183.167 210.5,182C 211.677,176.605 211.677,171.272 210.5,166C 210.833,165.833 211.167,165.667 211.5,165.5C 212.327,169.459 212.827,173.459 213,177.5C 213.889,178.888 214.389,178.722 214.5,177C 213.657,171.37 213.657,165.87 214.5,160.5C 213.262,158.095 212.262,155.595 211.5,153C 211.844,151.635 212.511,150.468 213.5,149.5C 212.833,148.833 212.167,148.167 211.5,147.5C 211.833,147.167 212.167,146.833 212.5,146.5C 213.719,147.263 214.719,148.263 215.5,149.5C 215.833,149.167 216.167,148.833 216.5,148.5C 214.458,143.166 211.958,138.166 209,133.5C 208.667,133.833 208.333,134.167 208,134.5C 207.768,133.263 207.268,132.263 206.5,131.5C 205.849,132.091 205.182,132.757 204.5,133.5C 201.853,133.071 199.853,131.738 198.5,129.5C 195.532,130.717 193.365,132.717 192,135.5C 190.98,134.109 190.147,132.609 189.5,131C 191.18,130.653 192.18,129.653 192.5,128C 192.056,126.238 191.556,126.405 191,128.5C 188.044,122.584 189.544,120.917 195.5,123.5 Z"/></g>
<g><path style="opacity:1" fill="#1e2030" d="M 174.5,150.5 C 174.833,150.5 175.167,150.5 175.5,150.5C 177.042,151.301 178.708,151.634 180.5,151.5C 182.297,157.268 182.964,163.268 182.5,169.5C 180.516,169.383 178.85,170.05 177.5,171.5C 176.832,169.031 176.165,166.698 175.5,164.5C 174.617,159.897 174.283,155.23 174.5,150.5 Z"/></g>
<g><path style="opacity:1" fill="#d6c4cc" d="M 43.5,147.5 C 43.9925,145.181 44.9925,143.181 46.5,141.5C 47.8249,142.953 48.6582,142.619 49,140.5C 49.3333,141.5 49.6667,142.5 50,143.5C 51.2022,141.447 51.5356,139.447 51,137.5C 52.5581,136.655 53.5581,137.321 54,139.5C 55.0437,138.377 55.7104,137.044 56,135.5C 56.6514,137.235 56.4847,138.902 55.5,140.5C 57.9321,143.409 57.9321,146.409 55.5,149.5C 58.77,153.674 58.77,158.008 55.5,162.5C 56.1667,163.5 56.8333,164.5 57.5,165.5C 56.7261,166.711 55.8928,166.711 55,165.5C 52.2933,161.148 49.2933,157.148 46,153.5C 45.9604,150.409 45.1271,148.409 43.5,147.5 Z"/></g>
<g><path style="opacity:1" fill="#26201e" d="M 82.5,169.5 C 81.5176,171.406 80.5176,173.406 79.5,175.5C 78.5,174.5 77.5,173.5 76.5,172.5C 77.5217,171.646 78.3551,170.646 79,169.5C 79.718,165.823 80.0514,162.157 80,158.5C 78.9562,160.715 78.2895,163.048 78,165.5C 77.3292,166.252 76.4959,166.586 75.5,166.5C 74.6103,164.218 74.4436,161.885 75,159.5C 76.9066,155.59 79.5733,152.256 83,149.5C 83.7131,156.203 83.5464,162.87 82.5,169.5 Z"/></g>
<g><path style="opacity:1" fill="#d2c6cf" d="M 173.5,150.5 C 173.66,152.199 173.494,153.866 173,155.5C 169.983,158.541 167.316,161.874 165,165.5C 164.203,169.75 162.37,173.417 159.5,176.5C 158.778,176.918 158.278,177.584 158,178.5C 154.943,177.549 151.777,177.216 148.5,177.5C 150.151,175.876 152.151,174.543 154.5,173.5C 154.291,172.914 153.957,172.414 153.5,172C 156.303,170.888 157.303,169.054 156.5,166.5C 157.376,165.749 158.376,165.249 159.5,165C 158.333,164.5 157.5,163.667 157,162.5C 156.355,163.646 155.522,164.646 154.5,165.5C 154.709,166.086 155.043,166.586 155.5,167C 152.945,168.555 151.112,170.722 150,173.5C 146.097,171.27 142.263,171.603 138.5,174.5C 139.506,175.396 139.506,176.062 138.5,176.5C 137.824,175.398 137.158,174.398 136.5,173.5C 136.611,172.883 136.944,172.383 137.5,172C 136.354,171.355 135.354,170.522 134.5,169.5C 132.898,170.55 132.065,169.883 132,167.5C 131.751,168.624 131.251,169.624 130.5,170.5C 126.2,169.477 122.033,168.144 118,166.5C 116.984,167.634 116.317,167.301 116,165.5C 112.961,165.1 109.961,163.767 107,161.5C 105.719,162.647 105.386,162.313 106,160.5C 107.039,159.29 108.206,158.29 109.5,157.5C 110.167,157.5 110.833,157.5 111.5,157.5C 115.475,160.834 120.142,162.834 125.5,163.5C 130.65,164.651 135.984,164.817 141.5,164C 144.104,163.61 146.438,162.776 148.5,161.5C 157.167,158.083 165.334,153.75 173,148.5C 173.464,149.094 173.631,149.761 173.5,150.5 Z"/></g>
<g><path style="opacity:1" fill="#998c8e" d="M 107.5,140.5 C 108.032,144.36 107.865,148.36 107,152.5C 106.617,153.056 106.117,153.389 105.5,153.5C 104.71,158.505 104.043,163.672 103.5,169C 101.416,172.38 99.416,175.88 97.5,179.5C 97.0431,180.298 96.3764,180.631 95.5,180.5C 95.7038,177.482 96.0371,174.482 96.5,171.5C 100.754,161.293 104.42,150.96 107.5,140.5 Z"/></g>
<g><path style="opacity:1" fill="#645959" d="M 96.5,171.5 C 96.0371,174.482 95.7038,177.482 95.5,180.5C 95.5,180.833 95.5,181.167 95.5,181.5C 93.8469,188.262 93.1802,195.262 93.5,202.5C 92.7321,201.737 92.2321,200.737 92,199.5C 91.3333,190.833 91.3333,182.167 92,173.5C 92.3333,175.167 92.6667,176.833 93,178.5C 93.2491,175.608 94.4158,173.275 96.5,171.5 Z"/></g>
<g><path style="opacity:1" fill="#ccc2cc" d="M 105.5,153.5 C 106.833,154.833 108.167,156.167 109.5,157.5C 108.206,158.29 107.039,159.29 106,160.5C 105.386,162.313 105.719,162.647 107,161.5C 109.961,163.767 112.961,165.1 116,165.5C 116.317,167.301 116.984,167.634 118,166.5C 122.033,168.144 126.2,169.477 130.5,170.5C 131.251,169.624 131.751,168.624 132,167.5C 132.065,169.883 132.898,170.55 134.5,169.5C 135.354,170.522 136.354,171.355 137.5,172C 136.944,172.383 136.611,172.883 136.5,173.5C 135.448,173.351 134.448,173.517 133.5,174C 134.696,174.654 134.696,175.154 133.5,175.5C 130.947,175.055 128.28,175.055 125.5,175.5C 125.741,178.999 124.908,179.332 123,176.5C 122.612,177.428 121.945,178.095 121,178.5C 118.923,177.983 116.923,177.316 115,176.5C 112.134,179.707 109.134,180.04 106,177.5C 99.85,183.345 96.6834,190.845 96.5,200C 98.8305,201.488 99.1638,203.321 97.5,205.5C 95.7845,204.426 94.7845,202.759 94.5,200.5C 94.9623,194.579 95.2957,188.246 95.5,181.5C 95.5,181.167 95.5,180.833 95.5,180.5C 96.3764,180.631 97.0431,180.298 97.5,179.5C 99.416,175.88 101.416,172.38 103.5,169C 104.043,163.672 104.71,158.505 105.5,153.5 Z"/></g>
<g><path style="opacity:1" fill="#ccc4d1" d="M 159.5,176.5 C 160.043,176.56 160.376,176.893 160.5,177.5C 159.327,180.342 157.493,182.675 155,184.5C 153.403,182.039 151.57,181.873 149.5,184C 146.639,186.222 144.639,189.055 143.5,192.5C 142.784,191.689 141.95,191.022 141,190.5C 139.403,191.885 137.57,192.551 135.5,192.5C 135.261,194.467 135.594,196.301 136.5,198C 134.996,199.337 133.996,201.004 133.5,203C 134.308,203.308 134.975,203.808 135.5,204.5C 133.314,205.221 131.147,205.887 129,206.5C 128.544,207.744 129.044,208.577 130.5,209C 128.959,210.579 127.792,212.413 127,214.5C 125.623,210.735 124.623,211.068 124,215.5C 121.825,212.819 118.992,211.153 115.5,210.5C 113.895,212.879 112.562,212.879 111.5,210.5C 112.609,209.71 113.942,209.21 115.5,209C 114.304,208.346 114.304,207.846 115.5,207.5C 116.451,208.326 117.451,208.492 118.5,208C 120.431,205.696 122.764,203.862 125.5,202.5C 124.477,200.105 125.477,199.105 128.5,199.5C 128.489,197.453 128.156,195.453 127.5,193.5C 129.7,191.747 130.867,189.414 131,186.5C 131.249,187.624 131.749,188.624 132.5,189.5C 133.308,187.577 133.808,185.577 134,183.5C 134.622,188.564 137.122,189.73 141.5,187C 139.423,186.808 137.423,186.308 135.5,185.5C 139.736,182.626 144.07,179.959 148.5,177.5C 151.777,177.216 154.943,177.549 158,178.5C 158.278,177.584 158.778,176.918 159.5,176.5 Z"/></g>
<g><path style="opacity:1" fill="#3e2f29" d="M 67.5,134.5 C 68.0656,136.078 69.0656,137.412 70.5,138.5C 71.4519,140.045 71.7852,141.712 71.5,143.5C 72.552,143.351 73.552,143.517 74.5,144C 72.6368,145.418 72.1368,147.251 73,149.5C 73.4186,148.328 74.0853,147.328 75,146.5C 75.1667,146.833 75.3333,147.167 75.5,147.5C 71.0949,155.808 70.7616,162.808 74.5,168.5C 75.2975,168.043 75.6309,167.376 75.5,166.5C 76.4959,166.586 77.3292,166.252 78,165.5C 78.2895,163.048 78.9562,160.715 80,158.5C 80.0514,162.157 79.718,165.823 79,169.5C 78.3551,170.646 77.5217,171.646 76.5,172.5C 77.5,173.5 78.5,174.5 79.5,175.5C 80.5176,173.406 81.5176,171.406 82.5,169.5C 83.9137,171.872 83.5803,174.039 81.5,176C 82.7149,183.163 83.8815,182.996 85,175.5C 85.6924,176.025 86.1924,176.692 86.5,177.5C 84.9685,182.314 85.8018,186.648 89,190.5C 89.4069,193.682 89.9069,196.849 90.5,200C 90.472,201.07 90.1386,201.903 89.5,202.5C 88.6868,201.347 87.6868,201.347 86.5,202.5C 85.5723,200.665 84.4056,200.332 83,201.5C 80.7894,199.247 79.1228,196.581 78,193.5C 77.3333,192.167 76.6667,192.167 76,193.5C 75.643,188.022 74.643,182.688 73,177.5C 72.8333,178 72.6667,178.5 72.5,179C 73.4091,180.789 73.5758,182.623 73,184.5C 71.2876,180.897 71.1209,177.23 72.5,173.5C 71.0223,169.018 70.0223,164.351 69.5,159.5C 68.8076,160.025 68.3076,160.692 68,161.5C 66.5699,158.647 65.7366,155.647 65.5,152.5C 63.8787,146.146 64.5454,140.146 67.5,134.5 Z"/></g>
<g><path style="opacity:1" fill="#d2cbd7" d="M 148.5,177.5 C 144.07,179.959 139.736,182.626 135.5,185.5C 137.423,186.308 139.423,186.808 141.5,187C 137.122,189.73 134.622,188.564 134,183.5C 133.808,185.577 133.308,187.577 132.5,189.5C 131.749,188.624 131.249,187.624 131,186.5C 130.867,189.414 129.7,191.747 127.5,193.5C 128.156,195.453 128.489,197.453 128.5,199.5C 125.477,199.105 124.477,200.105 125.5,202.5C 122.764,203.862 120.431,205.696 118.5,208C 117.451,208.492 116.451,208.326 115.5,207.5C 114.304,207.846 114.304,208.346 115.5,209C 113.942,209.21 112.609,209.71 111.5,210.5C 109.326,210.08 107.326,210.08 105.5,210.5C 102.291,209.559 99.6244,207.893 97.5,205.5C 99.1638,203.321 98.8305,201.488 96.5,200C 96.6834,190.845 99.85,183.345 106,177.5C 109.134,180.04 112.134,179.707 115,176.5C 116.923,177.316 118.923,177.983 121,178.5C 121.945,178.095 122.612,177.428 123,176.5C 124.908,179.332 125.741,178.999 125.5,175.5C 128.28,175.055 130.947,175.055 133.5,175.5C 134.696,175.154 134.696,174.654 133.5,174C 134.448,173.517 135.448,173.351 136.5,173.5C 137.158,174.398 137.824,175.398 138.5,176.5C 139.506,176.062 139.506,175.396 138.5,174.5C 142.263,171.603 146.097,171.27 150,173.5C 151.112,170.722 152.945,168.555 155.5,167C 155.043,166.586 154.709,166.086 154.5,165.5C 155.522,164.646 156.355,163.646 157,162.5C 157.5,163.667 158.333,164.5 159.5,165C 158.376,165.249 157.376,165.749 156.5,166.5C 157.303,169.054 156.303,170.888 153.5,172C 153.957,172.414 154.291,172.914 154.5,173.5C 152.151,174.543 150.151,175.876 148.5,177.5 Z"/></g>
<g><path style="opacity:1" fill="#151521" d="M 185.5,176.5 C 186.008,179.389 186.675,182.222 187.5,185C 186.584,185.278 185.918,185.778 185.5,186.5C 183.188,184.854 181.188,182.854 179.5,180.5C 178.65,178.506 178.15,176.506 178,174.5C 178.5,175 179,175.5 179.5,176C 181.686,176.061 183.686,176.228 185.5,176.5 Z"/></g>
<g><path style="opacity:1" fill="#5c4239" d="M 64.5,152.5 C 64.8333,152.5 65.1667,152.5 65.5,152.5C 65.7366,155.647 66.5699,158.647 68,161.5C 68.3076,160.692 68.8076,160.025 69.5,159.5C 70.0223,164.351 71.0223,169.018 72.5,173.5C 71.1209,177.23 71.2876,180.897 73,184.5C 73.5758,182.623 73.4091,180.789 72.5,179C 72.6667,178.5 72.8333,178 73,177.5C 74.643,182.688 75.643,188.022 76,193.5C 76.6667,192.167 77.3333,192.167 78,193.5C 79.1228,196.581 80.7894,199.247 83,201.5C 84.4056,200.332 85.5723,200.665 86.5,202.5C 87.6868,201.347 88.6868,201.347 89.5,202.5C 91.1696,203.871 91.8363,205.371 91.5,207C 92.7932,207.49 94.1266,207.657 95.5,207.5C 97.1667,208.833 98.8333,210.167 100.5,211.5C 99.3991,212.598 98.0657,212.765 96.5,212C 93.7737,209.97 90.7737,208.47 87.5,207.5C 86.1667,205.5 84.5,203.833 82.5,202.5C 80.1164,203.582 77.9497,204.249 76,204.5C 76.1953,202.874 76.1953,201.207 76,199.5C 73.5967,195.94 71.4301,192.273 69.5,188.5C 69.9312,187.707 70.2645,186.873 70.5,186C 69.8392,183.536 69.3392,181.036 69,178.5C 68.4115,180.863 66.9115,181.863 64.5,181.5C 64.2474,177.96 63.5808,174.627 62.5,171.5C 62.9204,165.137 63.5871,158.804 64.5,152.5 Z"/></g>
<g><path style="opacity:1" fill="#c5bcc8" d="M 173.5,150.5 C 173.833,150.5 174.167,150.5 174.5,150.5C 174.283,155.23 174.617,159.897 175.5,164.5C 175.356,168.511 175.023,172.511 174.5,176.5C 175.039,180.669 176.039,184.669 177.5,188.5C 173.732,189.787 170.065,189.787 166.5,188.5C 169.187,188.664 171.854,188.497 174.5,188C 172.866,187.506 171.199,187.34 169.5,187.5C 169.945,181.939 171.279,176.606 173.5,171.5C 172.503,167.507 172.337,163.507 173,159.5C 169.938,162.654 167.605,166.321 166,170.5C 164.424,176.227 162.257,181.727 159.5,187C 161.382,187.198 163.048,187.698 164.5,188.5C 151.513,187.653 151.179,189.153 163.5,193C 166.817,193.498 170.15,193.665 173.5,193.5C 164.215,194.336 164.215,195.503 173.5,197C 170.854,197.497 168.187,197.664 165.5,197.5C 164.504,196.335 163.171,195.668 161.5,195.5C 158.855,196.108 156.188,196.608 153.5,197C 153.833,197.333 154.167,197.667 154.5,198C 151.503,204.16 151.836,209.993 155.5,215.5C 153.488,216.014 151.488,216.18 149.5,216C 152.649,215.224 153.149,213.724 151,211.5C 150.517,212.448 150.351,213.448 150.5,214.5C 147.753,214.187 145.086,214.52 142.5,215.5C 141.923,217.55 140.59,218.55 138.5,218.5C 138.649,217.448 138.483,216.448 138,215.5C 137.428,218.707 135.595,220.374 132.5,220.5C 132.5,221.5 132.5,222.5 132.5,223.5C 129.501,223.167 126.668,223.167 124,223.5C 122.108,223.223 120.775,222.223 120,220.5C 116.691,220.519 113.358,220.852 110,221.5C 110.395,218.694 111.061,216.028 112,213.5C 109.519,211.686 106.685,211.02 103.5,211.5C 102.5,211.5 101.5,211.5 100.5,211.5C 98.8333,210.167 97.1667,208.833 95.5,207.5C 94.0582,206.18 93.3915,204.514 93.5,202.5C 93.1802,195.262 93.8469,188.262 95.5,181.5C 95.2957,188.246 94.9623,194.579 94.5,200.5C 94.7845,202.759 95.7845,204.426 97.5,205.5C 99.6244,207.893 102.291,209.559 105.5,210.5C 107.326,210.08 109.326,210.08 111.5,210.5C 112.562,212.879 113.895,212.879 115.5,210.5C 118.992,211.153 121.825,212.819 124,215.5C 124.623,211.068 125.623,210.735 127,214.5C 127.792,212.413 128.959,210.579 130.5,209C 129.044,208.577 128.544,207.744 129,206.5C 131.147,205.887 133.314,205.221 135.5,204.5C 134.975,203.808 134.308,203.308 133.5,203C 133.996,201.004 134.996,199.337 136.5,198C 135.594,196.301 135.261,194.467 135.5,192.5C 137.57,192.551 139.403,191.885 141,190.5C 141.95,191.022 142.784,191.689 143.5,192.5C 144.639,189.055 146.639,186.222 149.5,184C 151.57,181.873 153.403,182.039 155,184.5C 157.493,182.675 159.327,180.342 160.5,177.5C 160.376,176.893 160.043,176.56 159.5,176.5C 162.37,173.417 164.203,169.75 165,165.5C 167.316,161.874 169.983,158.541 173,155.5C 173.494,153.866 173.66,152.199 173.5,150.5 Z"/></g>
<g><path style="opacity:1" fill="#dcd8e5" d="M 166.5,188.5 C 165.833,188.5 165.167,188.5 164.5,188.5C 163.048,187.698 161.382,187.198 159.5,187C 162.257,181.727 164.424,176.227 166,170.5C 167.605,166.321 169.938,162.654 173,159.5C 172.337,163.507 172.503,167.507 173.5,171.5C 171.279,176.606 169.945,181.939 169.5,187.5C 171.199,187.34 172.866,187.506 174.5,188C 171.854,188.497 169.187,188.664 166.5,188.5 Z"/></g>
<g><path style="opacity:1" fill="#cfbdc6" d="M 58.5,175.5 C 58.0143,180.898 56.681,186.065 54.5,191C 55.7192,193.384 55.7192,195.717 54.5,198C 56.287,199.821 57.6203,201.988 58.5,204.5C 58.032,206.134 57.032,207.3 55.5,208C 56.0681,209.296 56.0681,210.796 55.5,212.5C 55.3038,214.286 54.4705,215.619 53,216.5C 52.2571,218.441 52.4238,220.274 53.5,222C 52.552,222.483 51.552,222.649 50.5,222.5C 50.5,225.167 50.5,227.833 50.5,230.5C 48.1667,230.5 45.8333,230.5 43.5,230.5C 43.7214,229.265 44.3881,228.265 45.5,227.5C 44.8333,226.167 44.1667,224.833 43.5,223.5C 44.2739,222.289 45.1072,222.289 46,223.5C 46.6924,222.975 47.1924,222.308 47.5,221.5C 46.16,220.312 45.4934,218.812 45.5,217C 46.6019,214.461 46.6019,211.961 45.5,209.5C 47.5781,207.572 48.2448,205.405 47.5,203C 49.8861,199.616 50.0527,196.116 48,192.5C 47.5106,194.816 46.8439,197.149 46,199.5C 45.1004,198.23 43.9337,197.23 42.5,196.5C 42.9298,193.964 42.9298,191.297 42.5,188.5C 42.0051,191.47 40.5051,193.804 38,195.5C 37.7132,197.891 37.2132,200.224 36.5,202.5C 36.8333,203.167 37.1667,203.833 37.5,204.5C 34.6164,208.053 32.6164,212.053 31.5,216.5C 33.3192,219.862 32.3192,221.528 28.5,221.5C 28.3601,223.124 29.0267,224.29 30.5,225C 29.0337,225.635 27.7003,226.469 26.5,227.5C 24.9631,226.802 23.6298,226.469 22.5,226.5C 21.8777,224.665 20.5444,223.498 18.5,223C 21.6479,218.552 24.3145,213.385 26.5,207.5C 27.0016,206.479 27.6683,206.312 28.5,207C 27.4829,208.049 27.3162,209.216 28,210.5C 29.092,207.956 29.7586,205.289 30,202.5C 33.7469,198.677 35.4135,194.011 35,188.5C 36.016,187.366 36.6827,187.699 37,189.5C 37.2163,187.616 37.883,185.949 39,184.5C 39.2098,185.803 39.0431,187.136 38.5,188.5C 38.4823,190.373 38.9823,190.706 40,189.5C 40.6667,186.833 40.6667,184.167 40,181.5C 39.0022,184.028 38.1689,184.028 37.5,181.5C 38.5854,172.24 40.7521,163.24 44,154.5C 45.1882,155.563 45.6882,156.897 45.5,158.5C 46.8221,158.33 47.9887,158.663 49,159.5C 52.9516,164.409 56.1183,169.742 58.5,175.5 Z"/></g>
<g><path style="opacity:1" fill="#181d31" d="M 164.5,188.5 C 165.167,188.5 165.833,188.5 166.5,188.5C 170.065,189.787 173.732,189.787 177.5,188.5C 178.833,188.5 180.167,188.5 181.5,188.5C 179.342,190.993 176.676,192.66 173.5,193.5C 170.15,193.665 166.817,193.498 163.5,193C 151.179,189.153 151.513,187.653 164.5,188.5 Z"/></g>
<g><path style="opacity:1" fill="#c3b2b6" d="M 65.5,123.5 C 65.8333,123.5 66.1667,123.5 66.5,123.5C 66.5526,129.254 65.2193,134.587 62.5,139.5C 61.5634,143.215 60.5634,147.048 59.5,151C 60.4125,154.224 60.0791,157.39 58.5,160.5C 59.5,161.333 60.5,162.167 61.5,163C 58.2759,164.133 57.9425,166.133 60.5,169C 59.8333,169.333 59.1667,169.667 58.5,170C 58.8541,171.626 58.8541,173.459 58.5,175.5C 56.1183,169.742 52.9516,164.409 49,159.5C 47.9887,158.663 46.8221,158.33 45.5,158.5C 45.6882,156.897 45.1882,155.563 44,154.5C 40.7521,163.24 38.5854,172.24 37.5,181.5C 38.1689,184.028 39.0022,184.028 40,181.5C 40.6667,184.167 40.6667,186.833 40,189.5C 38.9823,190.706 38.4823,190.373 38.5,188.5C 39.0431,187.136 39.2098,185.803 39,184.5C 37.883,185.949 37.2163,187.616 37,189.5C 36.6827,187.699 36.016,187.366 35,188.5C 35.4135,194.011 33.7469,198.677 30,202.5C 29.7586,205.289 29.092,207.956 28,210.5C 27.3162,209.216 27.4829,208.049 28.5,207C 27.6683,206.312 27.0016,206.479 26.5,207.5C 24.3145,213.385 21.6479,218.552 18.5,223C 20.5444,223.498 21.8777,224.665 22.5,226.5C 20.7376,227.262 19.7376,228.596 19.5,230.5C 17.5,230.5 15.5,230.5 13.5,230.5C 13.6896,228.358 13.8563,226.025 14,223.5C 15.7134,222.122 17.0467,220.455 18,218.5C 20.9049,208.029 24.9049,198.029 30,188.5C 33.0721,179.284 35.7387,169.95 38,160.5C 39.3281,155.856 41.1614,151.523 43.5,147.5C 45.1271,148.409 45.9604,150.409 46,153.5C 49.2933,157.148 52.2933,161.148 55,165.5C 55.8928,166.711 56.7261,166.711 57.5,165.5C 56.8333,164.5 56.1667,163.5 55.5,162.5C 58.77,158.008 58.77,153.674 55.5,149.5C 57.9321,146.409 57.9321,143.409 55.5,140.5C 56.4847,138.902 56.6514,137.235 56,135.5C 55.7104,137.044 55.0437,138.377 54,139.5C 53.5581,137.321 52.5581,136.655 51,137.5C 51.5356,139.447 51.2022,141.447 50,143.5C 49.6667,142.5 49.3333,141.5 49,140.5C 48.6582,142.619 47.8249,142.953 46.5,141.5C 49.2815,131.718 55.6148,125.718 65.5,123.5 Z"/></g>
<g><path style="opacity:1" fill="#856c64" d="M 62.5,171.5 C 63.5808,174.627 64.2474,177.96 64.5,181.5C 66.9115,181.863 68.4115,180.863 69,178.5C 69.3392,181.036 69.8392,183.536 70.5,186C 70.2645,186.873 69.9312,187.707 69.5,188.5C 71.4301,192.273 73.5967,195.94 76,199.5C 76.1953,201.207 76.1953,202.874 76,204.5C 77.9497,204.249 80.1164,203.582 82.5,202.5C 84.5,203.833 86.1667,205.5 87.5,207.5C 90.7737,208.47 93.7737,209.97 96.5,212C 98.0657,212.765 99.3991,212.598 100.5,211.5C 101.5,211.5 102.5,211.5 103.5,211.5C 103.918,212.222 104.584,212.722 105.5,213C 103.009,213.626 103.009,214.459 105.5,215.5C 104.3,216.292 102.967,216.292 101.5,215.5C 99.1576,213.956 96.6576,213.622 94,214.5C 93.044,213.421 92.2106,212.255 91.5,211C 88.8155,212.166 86.8155,211.333 85.5,208.5C 83.2933,207.365 80.9599,206.699 78.5,206.5C 77.9845,214.474 77.1512,214.474 76,206.5C 75.6667,206.833 75.3333,207.167 75,207.5C 74.7811,206.062 74.2811,204.729 73.5,203.5C 71.958,208.377 71.2913,213.377 71.5,218.5C 70.709,210.423 69.0424,202.423 66.5,194.5C 63.8691,198.767 61.5357,203.101 59.5,207.5C 59.8177,202.086 59.8177,196.753 59.5,191.5C 60.1251,188.373 61.1251,185.373 62.5,182.5C 60.2541,181.017 59.4208,179.017 60,176.5C 60.414,176.957 60.914,177.291 61.5,177.5C 62.4656,175.604 62.7989,173.604 62.5,171.5 Z"/></g>
<g><path style="opacity:1" fill="#d4c3ce" d="M 43.5,230.5 C 35.5,230.5 27.5,230.5 19.5,230.5C 19.7376,228.596 20.7376,227.262 22.5,226.5C 23.6298,226.469 24.9631,226.802 26.5,227.5C 27.7003,226.469 29.0337,225.635 30.5,225C 29.0267,224.29 28.3601,223.124 28.5,221.5C 32.3192,221.528 33.3192,219.862 31.5,216.5C 32.6164,212.053 34.6164,208.053 37.5,204.5C 37.1667,203.833 36.8333,203.167 36.5,202.5C 37.2132,200.224 37.7132,197.891 38,195.5C 40.5051,193.804 42.0051,191.47 42.5,188.5C 42.9298,191.297 42.9298,193.964 42.5,196.5C 43.9337,197.23 45.1004,198.23 46,199.5C 46.8439,197.149 47.5106,194.816 48,192.5C 50.0527,196.116 49.8861,199.616 47.5,203C 48.2448,205.405 47.5781,207.572 45.5,209.5C 46.6019,211.961 46.6019,214.461 45.5,217C 45.4934,218.812 46.16,220.312 47.5,221.5C 47.1924,222.308 46.6924,222.975 46,223.5C 45.1072,222.289 44.2739,222.289 43.5,223.5C 44.1667,224.833 44.8333,226.167 45.5,227.5C 44.3881,228.265 43.7214,229.265 43.5,230.5 Z"/></g>
<g><path style="opacity:1" fill="#c7b3bc" d="M 192.5,147.5 C 192.577,148.75 193.244,149.583 194.5,150C 193.692,150.308 193.025,150.808 192.5,151.5C 192.554,154.366 192.554,157.199 192.5,160C 191.552,160.483 190.552,160.649 189.5,160.5C 189.679,162.954 189.013,165.121 187.5,167C 187.833,167.5 188.167,168 188.5,168.5C 191.589,164.042 195.423,160.375 200,157.5C 202.033,159.35 202.033,160.016 200,159.5C 199.667,161.5 199.333,163.5 199,165.5C 198.667,165.167 198.333,164.833 198,164.5C 197.34,167.047 197.507,169.547 198.5,172C 196.52,174.916 195.686,178.083 196,181.5C 196.915,180.672 197.581,179.672 198,178.5C 198.167,179.333 198.333,180.167 198.5,181C 197.614,183.808 197.447,186.641 198,189.5C 198.889,188.112 199.389,188.278 199.5,190C 199.347,193.738 199.18,197.571 199,201.5C 198.667,201.167 198.333,200.833 198,200.5C 198,201.833 198,203.167 198,204.5C 196.658,203.098 195.824,203.431 195.5,205.5C 194.945,208.102 194.779,210.769 195,213.5C 192.884,216.686 191.05,220.02 189.5,223.5C 191.745,225.567 192.079,227.9 190.5,230.5C 188.833,230.5 187.167,230.5 185.5,230.5C 186.803,227.624 187.303,224.624 187,221.5C 186.094,224.121 185.594,223.954 185.5,221C 186.093,217.849 186.593,214.682 187,211.5C 188.607,204.944 190.44,198.444 192.5,192C 191.354,191.241 190.354,190.574 189.5,190C 190.573,188.584 190.573,187.25 189.5,186C 191.035,183.988 191.869,181.822 192,179.5C 191.692,180.308 191.192,180.975 190.5,181.5C 189.684,179.713 188.684,178.046 187.5,176.5C 188.373,174.587 189.373,172.753 190.5,171C 189.551,170.383 188.718,170.549 188,171.5C 187.626,173.491 186.793,175.158 185.5,176.5C 186.47,172.799 186.47,169.299 185.5,166C 187.968,163.772 189.135,160.938 189,157.5C 189.75,156.874 190.584,156.374 191.5,156C 191.182,153.958 191.015,151.791 191,149.5C 189.403,147.264 189.903,146.597 192.5,147.5 Z"/></g>
<g><path style="opacity:1" fill="#d5d1df" d="M 165.5,197.5 C 162.724,197.089 162.057,197.922 163.5,200C 162.91,202.196 162.243,204.362 161.5,206.5C 162.32,208.111 163.654,208.778 165.5,208.5C 165.141,210.766 165.808,212.599 167.5,214C 171.89,214.772 176.223,214.606 180.5,213.5C 181.782,210.826 181.449,208.326 179.5,206C 179.806,202.742 180.973,199.909 183,197.5C 183.77,198.598 184.603,198.598 185.5,197.5C 186.686,199.874 186.686,202.208 185.5,204.5C 184.5,204.5 183.5,204.5 182.5,204.5C 183.458,212.087 181.958,219.087 178,225.5C 175.209,227.312 172.209,227.312 169,225.5C 168.667,226.167 168.333,226.833 168,227.5C 166.619,225.365 165.619,223.032 165,220.5C 164.586,220.957 164.086,221.291 163.5,221.5C 161.974,220.094 160.307,218.928 158.5,218C 160.5,217.667 162.5,217.333 164.5,217C 161.722,215.608 158.722,215.108 155.5,215.5C 151.836,209.993 151.503,204.16 154.5,198C 154.167,197.667 153.833,197.333 153.5,197C 156.188,196.608 158.855,196.108 161.5,195.5C 163.171,195.668 164.504,196.335 165.5,197.5 Z"/></g>
<g><path style="opacity:1" fill="#dfdbea" d="M 179.5,180.5 C 181.188,182.854 183.188,184.854 185.5,186.5C 186.5,186.5 187.5,186.5 188.5,186.5C 188.671,189.797 188.005,190.131 186.5,187.5C 186.167,188.333 185.833,189.167 185.5,190C 186.616,192.569 186.616,195.069 185.5,197.5C 184.603,198.598 183.77,198.598 183,197.5C 180.973,199.909 179.806,202.742 179.5,206C 181.449,208.326 181.782,210.826 180.5,213.5C 176.223,214.606 171.89,214.772 167.5,214C 165.808,212.599 165.141,210.766 165.5,208.5C 163.654,208.778 162.32,208.111 161.5,206.5C 162.243,204.362 162.91,202.196 163.5,200C 162.057,197.922 162.724,197.089 165.5,197.5C 168.187,197.664 170.854,197.497 173.5,197C 164.215,195.503 164.215,194.336 173.5,193.5C 176.676,192.66 179.342,190.993 181.5,188.5C 182.043,188.44 182.376,188.107 182.5,187.5C 181.167,185.5 179.833,183.5 178.5,181.5C 178.624,180.893 178.957,180.56 179.5,180.5 Z"/></g>
<g><path style="opacity:1" fill="#dbd1dc" d="M 206.5,131.5 C 207.268,132.263 207.768,133.263 208,134.5C 208.333,134.167 208.667,133.833 209,133.5C 211.958,138.166 214.458,143.166 216.5,148.5C 216.167,148.833 215.833,149.167 215.5,149.5C 214.719,148.263 213.719,147.263 212.5,146.5C 212.167,146.833 211.833,147.167 211.5,147.5C 212.167,148.167 212.833,148.833 213.5,149.5C 212.511,150.468 211.844,151.635 211.5,153C 212.262,155.595 213.262,158.095 214.5,160.5C 213.657,165.87 213.657,171.37 214.5,177C 214.389,178.722 213.889,178.888 213,177.5C 212.827,173.459 212.327,169.459 211.5,165.5C 211.167,165.667 210.833,165.833 210.5,166C 211.677,171.272 211.677,176.605 210.5,182C 210.667,183.167 210.833,184.333 211,185.5C 211.556,183.405 212.056,183.238 212.5,185C 210.986,189.37 211.319,193.537 213.5,197.5C 213.333,198.167 213.167,198.833 213,199.5C 212.667,198.5 212.333,197.5 212,196.5C 211.255,198.203 210.421,199.87 209.5,201.5C 210.169,204.028 211.002,204.028 212,201.5C 212.651,203.235 212.485,204.902 211.5,206.5C 214.131,208.005 213.797,208.671 210.5,208.5C 209.395,203.222 208.395,203.388 207.5,209C 208.995,212.366 208.662,215.532 206.5,218.5C 208.942,221.041 209.109,223.707 207,226.5C 206.667,224.5 206.333,222.5 206,220.5C 204.276,223.736 204.11,227.07 205.5,230.5C 201.833,230.5 198.167,230.5 194.5,230.5C 195.184,227.972 196.518,225.805 198.5,224C 196.109,222.691 196.109,221.691 198.5,221C 197.346,220.086 197.513,219.253 199,218.5C 200.034,208.522 202.534,199.022 206.5,190C 206.733,187.353 206.4,185.02 205.5,183C 207.705,179.097 208.538,174.93 208,170.5C 207.346,171.696 206.846,171.696 206.5,170.5C 206.833,169.833 207.167,169.167 207.5,168.5C 207.154,167.304 206.654,167.304 206,168.5C 205.405,167.101 205.572,165.768 206.5,164.5C 204.73,161.044 204.73,157.711 206.5,154.5C 205.833,153.833 205.167,153.167 204.5,152.5C 205.274,151.289 206.107,151.289 207,152.5C 207.635,150.365 207.301,148.365 206,146.5C 203.833,145.667 202.333,144.167 201.5,142C 202.833,142 204.167,142 205.5,142C 204.426,141.261 203.759,140.261 203.5,139C 205.141,137.354 204.807,136.354 202.5,136C 203.536,134.383 204.703,134.216 206,135.5C 206.49,134.207 206.657,132.873 206.5,131.5 Z"/></g>
<g><path style="opacity:1" fill="#b39fa1" d="M 62.5,139.5 C 63.0506,143.973 63.7173,148.307 64.5,152.5C 63.5871,158.804 62.9204,165.137 62.5,171.5C 62.7989,173.604 62.4656,175.604 61.5,177.5C 60.914,177.291 60.414,176.957 60,176.5C 59.4208,179.017 60.2541,181.017 62.5,182.5C 61.1251,185.373 60.1251,188.373 59.5,191.5C 59.8177,196.753 59.8177,202.086 59.5,207.5C 59.6602,209.199 59.4935,210.866 59,212.5C 55.8194,218.206 53.3194,224.206 51.5,230.5C 51.1667,230.5 50.8333,230.5 50.5,230.5C 50.5,227.833 50.5,225.167 50.5,222.5C 51.552,222.649 52.552,222.483 53.5,222C 52.4238,220.274 52.2571,218.441 53,216.5C 54.4705,215.619 55.3038,214.286 55.5,212.5C 56.0681,210.796 56.0681,209.296 55.5,208C 57.032,207.3 58.032,206.134 58.5,204.5C 57.6203,201.988 56.287,199.821 54.5,198C 55.7192,195.717 55.7192,193.384 54.5,191C 56.681,186.065 58.0143,180.898 58.5,175.5C 58.8541,173.459 58.8541,171.626 58.5,170C 59.1667,169.667 59.8333,169.333 60.5,169C 57.9425,166.133 58.2759,164.133 61.5,163C 60.5,162.167 59.5,161.333 58.5,160.5C 60.0791,157.39 60.4125,154.224 59.5,151C 60.5634,147.048 61.5634,143.215 62.5,139.5 Z"/></g>
<g><path style="opacity:1" fill="#beb4c0" d="M 185.5,204.5 C 185.217,205.289 184.717,205.956 184,206.5C 184.088,214.72 182.922,222.72 180.5,230.5C 164.833,230.5 149.167,230.5 133.5,230.5C 134.684,229.312 134.684,228.145 133.5,227C 137.396,225.214 137.063,224.047 132.5,223.5C 132.5,222.5 132.5,221.5 132.5,220.5C 135.595,220.374 137.428,218.707 138,215.5C 138.483,216.448 138.649,217.448 138.5,218.5C 140.59,218.55 141.923,217.55 142.5,215.5C 145.086,214.52 147.753,214.187 150.5,214.5C 150.351,213.448 150.517,212.448 151,211.5C 153.149,213.724 152.649,215.224 149.5,216C 151.488,216.18 153.488,216.014 155.5,215.5C 158.722,215.108 161.722,215.608 164.5,217C 162.5,217.333 160.5,217.667 158.5,218C 160.307,218.928 161.974,220.094 163.5,221.5C 164.086,221.291 164.586,220.957 165,220.5C 165.619,223.032 166.619,225.365 168,227.5C 168.333,226.833 168.667,226.167 169,225.5C 172.209,227.312 175.209,227.312 178,225.5C 181.958,219.087 183.458,212.087 182.5,204.5C 183.5,204.5 184.5,204.5 185.5,204.5 Z"/></g>
<g><path style="opacity:1" fill="#a59594" d="M 101.5,215.5 C 98.9105,215.396 96.5771,216.063 94.5,217.5C 92.997,216.477 91.497,215.477 90,214.5C 89.228,214.645 88.5613,214.978 88,215.5C 86.5757,213.124 84.5757,211.457 82,210.5C 80.6866,212.617 78.8532,214.117 76.5,215C 75.4258,215.739 74.7591,216.739 74.5,218C 75.0779,219.811 75.5779,221.645 76,223.5C 78.8158,226.102 81.6491,228.435 84.5,230.5C 80.5,230.5 76.5,230.5 72.5,230.5C 71.7279,226.548 71.3946,222.548 71.5,218.5C 71.2913,213.377 71.958,208.377 73.5,203.5C 74.2811,204.729 74.7811,206.062 75,207.5C 75.3333,207.167 75.6667,206.833 76,206.5C 77.1512,214.474 77.9845,214.474 78.5,206.5C 80.9599,206.699 83.2933,207.365 85.5,208.5C 86.8155,211.333 88.8155,212.166 91.5,211C 92.2106,212.255 93.044,213.421 94,214.5C 96.6576,213.622 99.1576,213.956 101.5,215.5 Z"/></g>
<g><path style="opacity:1" fill="#beb3bb" d="M 101.5,215.5 C 102.967,216.292 104.3,216.292 105.5,215.5C 103.009,214.459 103.009,213.626 105.5,213C 104.584,212.722 103.918,212.222 103.5,211.5C 106.685,211.02 109.519,211.686 112,213.5C 111.061,216.028 110.395,218.694 110,221.5C 113.358,220.852 116.691,220.519 120,220.5C 120.775,222.223 122.108,223.223 124,223.5C 126.668,223.167 129.501,223.167 132.5,223.5C 137.063,224.047 137.396,225.214 133.5,227C 134.684,228.145 134.684,229.312 133.5,230.5C 117.167,230.5 100.833,230.5 84.5,230.5C 81.6491,228.435 78.8158,226.102 76,223.5C 75.5779,221.645 75.0779,219.811 74.5,218C 74.7591,216.739 75.4258,215.739 76.5,215C 78.8532,214.117 80.6866,212.617 82,210.5C 84.5757,211.457 86.5757,213.124 88,215.5C 88.5613,214.978 89.228,214.645 90,214.5C 91.497,215.477 92.997,216.477 94.5,217.5C 96.5771,216.063 98.9105,215.396 101.5,215.5 Z"/></g>
<g><path style="opacity:1" fill="#a7949d" d="M 185.5,230.5 C 183.833,230.5 182.167,230.5 180.5,230.5C 182.922,222.72 184.088,214.72 184,206.5C 184.717,205.956 185.217,205.289 185.5,204.5C 186.686,202.208 186.686,199.874 185.5,197.5C 186.616,195.069 186.616,192.569 185.5,190C 185.833,189.167 186.167,188.333 186.5,187.5C 188.005,190.131 188.671,189.797 188.5,186.5C 187.5,186.5 186.5,186.5 185.5,186.5C 185.918,185.778 186.584,185.278 187.5,185C 186.675,182.222 186.008,179.389 185.5,176.5C 186.793,175.158 187.626,173.491 188,171.5C 188.718,170.549 189.551,170.383 190.5,171C 189.373,172.753 188.373,174.587 187.5,176.5C 188.684,178.046 189.684,179.713 190.5,181.5C 191.192,180.975 191.692,180.308 192,179.5C 191.869,181.822 191.035,183.988 189.5,186C 190.573,187.25 190.573,188.584 189.5,190C 190.354,190.574 191.354,191.241 192.5,192C 190.44,198.444 188.607,204.944 187,211.5C 186.593,214.682 186.093,217.849 185.5,221C 185.594,223.954 186.094,224.121 187,221.5C 187.303,224.624 186.803,227.624 185.5,230.5 Z"/></g>
</svg>
