<?xml version="1.0" encoding="UTF-8"?>
<!DOCTYPE svg PUBLIC "-//W3C//DTD SVG 1.1//EN" "http://www.w3.org/Graphics/SVG/1.1/DTD/svg11.dtd">
<svg xmlns="http://www.w3.org/2000/svg" version="1.1" width="231px" height="231px" style="shape-rendering:geometricPrecision; text-rendering:geometricPrecision; image-rendering:optimizeQuality; fill-rule:evenodd; clip-rule:evenodd" xmlns:xlink="http://www.w3.org/1999/xlink">
<g><path style="opacity:0.192" fill="#ede6e0" d="M 108.5,7.5 C 115.884,6.21729 123.217,6.55063 130.5,8.5C 124.445,7.9557 118.445,7.9557 112.5,8.5C 111.432,7.56552 110.099,7.23219 108.5,7.5 Z"/></g>
<g><path style="opacity:1" fill="#c2b3a8" d="M 130.5,8.5 C 133.63,8.69973 136.63,9.36639 139.5,10.5C 142.992,13.8422 146.825,16.8422 151,19.5C 151.667,20.5 151.667,21.5 151,22.5C 149.382,19.5964 147.215,18.5964 144.5,19.5C 141.083,16.7454 137.417,14.412 133.5,12.5C 133.423,11.2502 132.756,10.4169 131.5,10C 126.167,9.33333 120.833,9.33333 115.5,10C 114.234,10.3095 113.067,10.8095 112,11.5C 111.722,10.5842 111.222,9.91753 110.5,9.5C 110.842,8.66175 111.508,8.32842 112.5,8.5C 118.445,7.9557 124.445,7.9557 130.5,8.5 Z"/></g>
<g><path style="opacity:1" fill="#b49e8d" d="M 110.5,9.5 C 111.222,9.91753 111.722,10.5842 112,11.5C 113.067,10.8095 114.234,10.3095 115.5,10C 120.833,9.33333 126.167,9.33333 131.5,10C 132.756,10.4169 133.423,11.2502 133.5,12.5C 129.977,10.9127 126.31,10.4127 122.5,11C 125.774,12.2023 129.107,13.2023 132.5,14C 134.747,15.2775 136.747,16.7775 138.5,18.5C 135.297,17.3171 132.13,15.9837 129,14.5C 127.316,14.6834 127.15,15.3501 128.5,16.5C 124.326,14.936 119.993,14.2694 115.5,14.5C 113.533,14.2606 111.699,14.5939 110,15.5C 107.516,12.7406 106.35,13.074 106.5,16.5C 104.585,16.2155 102.919,16.5489 101.5,17.5C 98.4021,17.7556 95.4021,18.4222 92.5,19.5C 92.4701,18.5028 92.9701,17.8361 94,17.5C 97.1451,16.5887 100.312,15.7554 103.5,15C 101.618,14.8019 99.9516,14.3019 98.5,13.5C 102.414,11.0834 106.414,9.75005 110.5,9.5 Z"/></g>
<g><path style="opacity:1" fill="#d5c8bf" d="M 108.5,7.5 C 110.099,7.23219 111.432,7.56552 112.5,8.5C 111.508,8.32842 110.842,8.66175 110.5,9.5C 106.414,9.75005 102.414,11.0834 98.5,13.5C 94.861,14.6528 91.5277,16.3195 88.5,18.5C 93.4802,11.6782 100.147,8.01156 108.5,7.5 Z"/></g>
<g><path style="opacity:1" fill="#7b5d4a" d="M 115.5,14.5 C 114.833,15.1667 114.167,15.8333 113.5,16.5C 111.139,16.6741 108.806,17.0074 106.5,17.5C 106.5,18.5 106.5,19.5 106.5,20.5C 105.5,20.5 104.5,20.5 103.5,20.5C 102.833,19.5 102.167,18.5 101.5,17.5C 102.919,16.5489 104.585,16.2155 106.5,16.5C 106.35,13.074 107.516,12.7406 110,15.5C 111.699,14.5939 113.533,14.2606 115.5,14.5 Z"/></g>
<g><path style="opacity:1" fill="#7b6657" d="M 133.5,12.5 C 137.417,14.412 141.083,16.7454 144.5,19.5C 146.833,21.1667 148.833,23.1667 150.5,25.5C 150.672,26.4916 150.338,27.1583 149.5,27.5C 146.124,24.1218 142.457,21.1218 138.5,18.5C 136.747,16.7775 134.747,15.2775 132.5,14C 129.107,13.2023 125.774,12.2023 122.5,11C 126.31,10.4127 129.977,10.9127 133.5,12.5 Z"/></g>
<g><path style="opacity:1" fill="#947c6c" d="M 101.5,17.5 C 102.167,18.5 102.833,19.5 103.5,20.5C 100.795,19.2228 98.128,19.3895 95.5,21C 92.3098,23.3644 89.3098,25.8644 86.5,28.5C 85.475,28.1034 85.3083,27.4368 86,26.5C 88.0329,23.9698 90.1996,21.6365 92.5,19.5C 95.4021,18.4222 98.4021,17.7556 101.5,17.5 Z"/></g>
<g><path style="opacity:1" fill="#977a65" d="M 113.5,16.5 C 115.415,16.2155 117.081,16.5489 118.5,17.5C 116.801,17.3398 115.134,17.5065 113.5,18C 121.667,20.5049 128.5,25.0049 134,31.5C 134.667,30.8333 134.667,30.1667 134,29.5C 131.218,27.2295 129.051,24.5628 127.5,21.5C 131.833,23.1667 134.833,26.1667 136.5,30.5C 136.833,31.1667 137.167,31.8333 137.5,32.5C 135.621,32.3932 135.288,32.8932 136.5,34C 135.956,34.7172 135.289,35.2172 134.5,35.5C 133.71,34.5987 132.71,33.9321 131.5,33.5C 131.586,32.5041 131.252,31.6708 130.5,31C 129.167,30.6667 127.833,30.3333 126.5,30C 122.016,25.2427 116.683,23.0761 110.5,23.5C 108.565,24.1495 106.565,24.4828 104.5,24.5C 104.286,26.1439 104.62,27.6439 105.5,29C 102.044,30.7752 99.3776,29.9419 97.5,26.5C 100.971,25.7998 102.971,23.7998 103.5,20.5C 104.5,20.5 105.5,20.5 106.5,20.5C 106.5,19.5 106.5,18.5 106.5,17.5C 108.806,17.0074 111.139,16.6741 113.5,16.5 Z"/></g>
<g><path style="opacity:1" fill="#958074" d="M 128.5,16.5 C 136.182,18.1806 141.849,22.514 145.5,29.5C 140.043,24.9331 134.377,20.5998 128.5,16.5 Z"/></g>
<g><path style="opacity:1" fill="#b19b88" d="M 118.5,17.5 C 121.648,18.5758 124.648,19.9091 127.5,21.5C 129.051,24.5628 131.218,27.2295 134,29.5C 134.667,30.1667 134.667,30.8333 134,31.5C 128.5,25.0049 121.667,20.5049 113.5,18C 115.134,17.5065 116.801,17.3398 118.5,17.5 Z"/></g>
<g><path style="opacity:1" fill="#584031" d="M 115.5,14.5 C 119.993,14.2694 124.326,14.936 128.5,16.5C 134.377,20.5998 140.043,24.9331 145.5,29.5C 145.788,32.8663 145.954,36.1996 146,39.5C 144.125,35.0354 140.959,32.0354 136.5,30.5C 134.833,26.1667 131.833,23.1667 127.5,21.5C 124.648,19.9091 121.648,18.5758 118.5,17.5C 117.081,16.5489 115.415,16.2155 113.5,16.5C 114.167,15.8333 114.833,15.1667 115.5,14.5 Z"/></g>
<g><path style="opacity:1" fill="#d0c2b6" d="M 139.5,10.5 C 147.474,12.9539 153.974,17.6206 159,24.5C 170.392,41.0389 177.059,59.3722 179,79.5C 181.753,101.857 184.586,124.19 187.5,146.5C 185.95,141.291 184.45,135.958 183,130.5C 180.943,113.274 178.443,96.2735 175.5,79.5C 175.079,71.7952 174.245,64.1285 173,56.5C 170.502,54.845 169.002,52.5117 168.5,49.5C 168.386,51.9381 168.386,54.2714 168.5,56.5C 167.482,54.4061 166.482,52.4061 165.5,50.5C 164.404,46.3028 162.738,42.3028 160.5,38.5C 158.165,35.8338 156.331,32.8338 155,29.5C 153.629,27.9586 152.129,26.6253 150.5,25.5C 148.833,23.1667 146.833,21.1667 144.5,19.5C 147.215,18.5964 149.382,19.5964 151,22.5C 151.667,21.5 151.667,20.5 151,19.5C 146.825,16.8422 142.992,13.8422 139.5,10.5 Z"/></g>
<g><path style="opacity:1" fill="#ab836d" d="M 110.5,23.5 C 109.319,25.0672 107.653,25.9005 105.5,26C 113.702,28.9258 121.035,33.0925 127.5,38.5C 125.213,38.2761 123.047,37.6094 121,36.5C 120.235,36.5699 119.735,36.9033 119.5,37.5C 118.849,38.0906 118.182,38.7573 117.5,39.5C 114.195,38.1295 111.529,35.9628 109.5,33C 109.833,32.6667 110.167,32.3333 110.5,32C 108.512,31.8195 106.512,31.9862 104.5,32.5C 102.638,31.6078 100.638,31.4411 98.5,32C 98.8333,31.6667 99.1667,31.3333 99.5,31C 97.4497,30.5838 96.1164,29.4171 95.5,27.5C 96.1667,27.1667 96.8333,26.8333 97.5,26.5C 99.3776,29.9419 102.044,30.7752 105.5,29C 104.62,27.6439 104.286,26.1439 104.5,24.5C 106.565,24.4828 108.565,24.1495 110.5,23.5 Z"/></g>
<g><path style="opacity:1" fill="#ded3cb" d="M 88.5,18.5 C 86.0828,22.1294 84.2494,26.1294 83,30.5C 80.6174,35.1884 77.784,39.5217 74.5,43.5C 77.3539,34.123 82.0206,25.7897 88.5,18.5 Z"/></g>
<g><path style="opacity:1" fill="#e1cab9" d="M 131.5,33.5 C 132.71,33.9321 133.71,34.5987 134.5,35.5C 140.743,42.8745 144.077,51.5412 144.5,61.5C 143.323,59.3206 142.323,56.9872 141.5,54.5C 140.365,49.565 138.198,45.2317 135,41.5C 132.489,38.657 129.656,36.157 126.5,34C 128.134,33.5065 129.801,33.3398 131.5,33.5 Z"/></g>
<g><path style="opacity:1" fill="#d9a692" d="M 119.5,37.5 C 120.757,40.7577 123.091,43.0911 126.5,44.5C 127.386,45.325 127.719,46.325 127.5,47.5C 124.365,48.4449 121.032,48.4449 117.5,47.5C 117.5,46.5 117.5,45.5 117.5,44.5C 111.808,42.4497 106.141,40.4497 100.5,38.5C 98.2972,41.7039 95.2972,43.7039 91.5,44.5C 91.9443,42.8868 92.9443,41.7202 94.5,41C 93.8919,38.8159 94.5586,36.8159 96.5,35C 99.0804,33.8555 101.747,33.0222 104.5,32.5C 106.512,31.9862 108.512,31.8195 110.5,32C 110.167,32.3333 109.833,32.6667 109.5,33C 111.529,35.9628 114.195,38.1295 117.5,39.5C 118.182,38.7573 118.849,38.0906 119.5,37.5 Z"/></g>
<g><path style="opacity:1" fill="#c8ae9d" d="M 110.5,23.5 C 116.683,23.0761 122.016,25.2427 126.5,30C 127.833,30.3333 129.167,30.6667 130.5,31C 131.252,31.6708 131.586,32.5041 131.5,33.5C 129.801,33.3398 128.134,33.5065 126.5,34C 129.656,36.157 132.489,38.657 135,41.5C 138.198,45.2317 140.365,49.565 141.5,54.5C 137.529,49.6973 133.029,45.364 128,41.5C 127.517,40.552 127.351,39.552 127.5,38.5C 121.035,33.0925 113.702,28.9258 105.5,26C 107.653,25.9005 109.319,25.0672 110.5,23.5 Z"/></g>
<g><path style="opacity:1" fill="#c69b86" d="M 95.5,27.5 C 96.1164,29.4171 97.4497,30.5838 99.5,31C 99.1667,31.3333 98.8333,31.6667 98.5,32C 100.638,31.4411 102.638,31.6078 104.5,32.5C 101.747,33.0222 99.0804,33.8555 96.5,35C 94.5586,36.8159 93.8919,38.8159 94.5,41C 92.9443,41.7202 91.9443,42.8868 91.5,44.5C 90.6364,44.7024 89.6364,45.0357 88.5,45.5C 87.627,47.4134 86.627,49.2467 85.5,51C 85.8333,51.3333 86.1667,51.6667 86.5,52C 84.0666,58.6992 81.4,65.1992 78.5,71.5C 79.341,64.7972 81.0077,58.2972 83.5,52C 83.3552,51.228 83.0219,50.5613 82.5,50C 84.3244,46.6854 86.3244,43.5187 88.5,40.5C 90.6281,37.8697 92.9614,35.3697 95.5,33C 94.8333,32.3333 94.1667,32.3333 93.5,33C 90.3063,36.1937 87.1396,39.3604 84,42.5C 83.8595,40.7445 84.3595,39.0778 85.5,37.5C 87.3329,35.8345 88.6663,33.8345 89.5,31.5C 91.5286,30.1565 93.5286,28.8231 95.5,27.5 Z"/></g>
<g><path style="opacity:1" fill="#c49b88" d="M 119.5,37.5 C 119.735,36.9033 120.235,36.5699 121,36.5C 123.047,37.6094 125.213,38.2761 127.5,38.5C 127.351,39.552 127.517,40.552 128,41.5C 133.029,45.364 137.529,49.6973 141.5,54.5C 142.323,56.9872 143.323,59.3206 144.5,61.5C 144.616,64.8599 144.949,68.1933 145.5,71.5C 144.696,69.8113 143.696,68.1446 142.5,66.5C 141.702,66.9569 141.369,67.6236 141.5,68.5C 140.365,64.5614 138.032,61.5614 134.5,59.5C 134.073,56.9902 133.407,54.6568 132.5,52.5C 131.766,51.2921 131.433,49.9587 131.5,48.5C 129.901,48.7678 128.568,48.4345 127.5,47.5C 127.719,46.325 127.386,45.325 126.5,44.5C 123.091,43.0911 120.757,40.7577 119.5,37.5 Z"/></g>
<g><path style="opacity:1" fill="#805e4c" d="M 145.5,29.5 C 148.166,31.4894 149.833,34.156 150.5,37.5C 151.603,44.9836 153.436,52.317 156,59.5C 156.979,68.1414 157.646,76.8081 158,85.5C 159.54,88.7209 159.707,92.0542 158.5,95.5C 157.833,95.5 157.167,95.5 156.5,95.5C 156.678,94.3052 157.011,93.1385 157.5,92C 155.325,81.4823 153.158,70.9823 151,60.5C 150.23,61.5981 149.397,61.5981 148.5,60.5C 146.811,50.3721 143.144,41.0388 137.5,32.5C 137.167,31.8333 136.833,31.1667 136.5,30.5C 140.959,32.0354 144.125,35.0354 146,39.5C 145.954,36.1996 145.788,32.8663 145.5,29.5 Z"/></g>
<g><path style="opacity:1" fill="#d3beb0" d="M 138.5,18.5 C 142.457,21.1218 146.124,24.1218 149.5,27.5C 151.705,29.3634 153.039,31.6967 153.5,34.5C 158.93,47.1621 161.93,60.4955 162.5,74.5C 162.415,76.3328 161.748,77.6661 160.5,78.5C 160.127,64.0084 156.793,50.3418 150.5,37.5C 149.833,34.156 148.166,31.4894 145.5,29.5C 141.849,22.514 136.182,18.1806 128.5,16.5C 127.15,15.3501 127.316,14.6834 129,14.5C 132.13,15.9837 135.297,17.3171 138.5,18.5 Z"/></g>
<g><path style="opacity:1" fill="#e0afa0" d="M 127.5,47.5 C 128.568,48.4345 129.901,48.7678 131.5,48.5C 131.433,49.9587 131.766,51.2921 132.5,52.5C 129.545,53.1587 126.545,53.4921 123.5,53.5C 123.5,52.5 123.5,51.5 123.5,50.5C 117.99,48.9951 112.657,46.9951 107.5,44.5C 103.936,45.1081 100.603,46.2748 97.5,48C 96.13,49.4413 95.13,51.108 94.5,53C 96.112,57.2134 95.4453,61.0467 92.5,64.5C 93.8665,65.84 95.1999,67.1733 96.5,68.5C 94.8828,67.962 93.2161,67.6287 91.5,67.5C 84.9782,66.9246 80.9782,70.0912 79.5,77C 80.8864,81.3691 83.8864,83.8691 88.5,84.5C 88.8627,85.1835 89.1961,85.8501 89.5,86.5C 89.9817,87.4163 90.315,88.4163 90.5,89.5C 89.4529,91.0564 88.7863,92.7231 88.5,94.5C 87.6851,93.5707 86.8518,92.5707 86,91.5C 84.0967,91.6938 82.2633,91.6938 80.5,91.5C 79.5713,92.6888 79.238,94.0222 79.5,95.5C 78.6295,92.997 77.9628,90.3303 77.5,87.5C 77.5,84.1667 77.5,80.8333 77.5,77.5C 77.5172,75.4352 77.8505,73.4352 78.5,71.5C 81.4,65.1992 84.0666,58.6992 86.5,52C 86.1667,51.6667 85.8333,51.3333 85.5,51C 86.627,49.2467 87.627,47.4134 88.5,45.5C 89.6364,45.0357 90.6364,44.7024 91.5,44.5C 95.2972,43.7039 98.2972,41.7039 100.5,38.5C 106.141,40.4497 111.808,42.4497 117.5,44.5C 117.5,45.5 117.5,46.5 117.5,47.5C 121.032,48.4449 124.365,48.4449 127.5,47.5 Z"/></g>
<g><path style="opacity:1" fill="#f3c1b5" d="M 132.5,52.5 C 133.407,54.6568 134.073,56.9902 134.5,59.5C 132.952,59.1788 132.285,58.1788 132.5,56.5C 130.833,56.5 129.167,56.5 127.5,56.5C 127.586,58.677 128.253,60.677 129.5,62.5C 129.291,63.086 128.957,63.586 128.5,64C 124.242,64.4491 120.242,64.2824 116.5,63.5C 115.193,64.8155 113.693,65.8155 112,66.5C 111.092,64.5614 109.592,63.5614 107.5,63.5C 107.66,61.8008 107.494,60.1341 107,58.5C 104.373,59.9575 101.873,61.6242 99.5,63.5C 98.3595,64.4255 98.3595,65.2588 99.5,66C 98.8333,66.3333 98.1667,66.6667 97.5,67C 99.5503,67.4162 100.884,68.5829 101.5,70.5C 99.597,70.2041 97.9303,69.5375 96.5,68.5C 95.1999,67.1733 93.8665,65.84 92.5,64.5C 95.4453,61.0467 96.112,57.2134 94.5,53C 95.13,51.108 96.13,49.4413 97.5,48C 100.603,46.2748 103.936,45.1081 107.5,44.5C 112.657,46.9951 117.99,48.9951 123.5,50.5C 123.5,51.5 123.5,52.5 123.5,53.5C 126.545,53.4921 129.545,53.1587 132.5,52.5 Z"/></g>
<g><path style="opacity:1" fill="#b79d89" d="M 153.5,34.5 C 154.376,34.3691 155.043,34.7025 155.5,35.5C 159.314,44.0964 162.314,52.9297 164.5,62C 163.388,73.1435 163.221,84.3102 164,95.5C 165.124,107.822 166.124,120.155 167,132.5C 167.232,133.737 167.732,134.737 168.5,135.5C 168.833,137.5 169.167,139.5 169.5,141.5C 169.005,143.482 168.505,145.482 168,147.5C 163.599,124.719 161.099,101.719 160.5,78.5C 161.748,77.6661 162.415,76.3328 162.5,74.5C 161.93,60.4955 158.93,47.1621 153.5,34.5 Z"/></g>
<g><path style="opacity:1" fill="#f9cac0" d="M 134.5,59.5 C 134.616,62.8599 134.949,66.1933 135.5,69.5C 132.873,68.9084 130.206,68.5751 127.5,68.5C 127.62,71.2048 126.62,71.8715 124.5,70.5C 121.417,70.8803 118.917,72.2137 117,74.5C 116.667,77.8333 116.333,81.1667 116,84.5C 115.586,84.9574 115.086,85.2907 114.5,85.5C 113.818,84.7573 113.151,84.0906 112.5,83.5C 111.818,80.5149 110.818,77.5149 109.5,74.5C 108.675,73.6143 107.675,73.281 106.5,73.5C 105.341,71.7497 103.674,70.7497 101.5,70.5C 100.884,68.5829 99.5503,67.4162 97.5,67C 98.1667,66.6667 98.8333,66.3333 99.5,66C 98.3595,65.2588 98.3595,64.4255 99.5,63.5C 101.873,61.6242 104.373,59.9575 107,58.5C 107.494,60.1341 107.66,61.8008 107.5,63.5C 109.592,63.5614 111.092,64.5614 112,66.5C 113.693,65.8155 115.193,64.8155 116.5,63.5C 120.242,64.2824 124.242,64.4491 128.5,64C 128.957,63.586 129.291,63.086 129.5,62.5C 128.253,60.677 127.586,58.677 127.5,56.5C 129.167,56.5 130.833,56.5 132.5,56.5C 132.285,58.1788 132.952,59.1788 134.5,59.5 Z"/></g>
<g><path style="opacity:1" fill="#a1705a" d="M 88.5,40.5 C 86.3244,43.5187 84.3244,46.6854 82.5,50C 83.0219,50.5613 83.3552,51.228 83.5,52C 81.0077,58.2972 79.341,64.7972 78.5,71.5C 77.8505,73.4352 77.5172,75.4352 77.5,77.5C 76.5318,75.3926 76.1984,73.0593 76.5,70.5C 75.0689,58.1378 79.0689,48.1378 88.5,40.5 Z"/></g>
<g><path style="opacity:1" fill="#cab29f" d="M 175.5,79.5 C 174.853,80.2739 174.52,81.2739 174.5,82.5C 175.855,98.4867 178.189,114.32 181.5,130C 181.167,130.833 180.833,131.667 180.5,132.5C 179.824,131.398 179.158,130.398 178.5,129.5C 176.608,115.813 174.608,102.146 172.5,88.5C 172.77,77.3185 170.604,66.6518 166,56.5C 165.505,54.5273 165.338,52.5273 165.5,50.5C 166.482,52.4061 167.482,54.4061 168.5,56.5C 168.386,54.2714 168.386,51.9381 168.5,49.5C 169.002,52.5117 170.502,54.845 173,56.5C 174.245,64.1285 175.079,71.7952 175.5,79.5 Z"/></g>
<g><path style="opacity:1" fill="#a57d7a" d="M 91.5,67.5 C 93.2161,67.6287 94.8828,67.962 96.5,68.5C 97.9303,69.5375 99.597,70.2041 101.5,70.5C 102.791,72.5902 102.124,73.9236 99.5,74.5C 97.2004,71.6761 94.2004,69.8428 90.5,69C 89.2881,67.8932 89.6214,67.3932 91.5,67.5 Z"/></g>
<g><path style="opacity:1" fill="#bf9a97" d="M 101.5,70.5 C 103.674,70.7497 105.341,71.7497 106.5,73.5C 110.837,78.8459 109.504,82.1793 102.5,83.5C 98.791,83.791 95.1243,83.791 91.5,83.5C 91.67,82.1779 91.3366,81.0113 90.5,80C 92.0771,78.07 93.4104,78.2367 94.5,80.5C 96.0993,82.7288 98.0993,83.0622 100.5,81.5C 102.2,80.984 103.533,79.984 104.5,78.5C 102.985,76.9178 101.319,75.5845 99.5,74.5C 102.124,73.9236 102.791,72.5902 101.5,70.5 Z"/></g>
<g><path style="opacity:1" fill="#725e62" d="M 100.5,81.5 C 98.0993,83.0622 96.0993,82.7288 94.5,80.5C 94.6399,78.8762 93.9733,77.7096 92.5,77C 95.9597,74.9447 98.9597,75.6114 101.5,79C 100.748,79.6708 100.414,80.5041 100.5,81.5 Z"/></g>
<g><path style="opacity:1" fill="#a78a8a" d="M 99.5,74.5 C 101.319,75.5845 102.985,76.9178 104.5,78.5C 103.533,79.984 102.2,80.984 100.5,81.5C 100.414,80.5041 100.748,79.6708 101.5,79C 98.9597,75.6114 95.9597,74.9447 92.5,77C 93.9733,77.7096 94.6399,78.8762 94.5,80.5C 93.4104,78.2367 92.0771,78.07 90.5,80C 91.3366,81.0113 91.67,82.1779 91.5,83.5C 87.902,82.0904 87.0687,79.757 89,76.5C 92.2846,74.8627 95.7846,74.1961 99.5,74.5 Z"/></g>
<g><path style="opacity:1" fill="#d4aea7" d="M 91.5,67.5 C 89.6214,67.3932 89.2881,67.8932 90.5,69C 94.2004,69.8428 97.2004,71.6761 99.5,74.5C 95.7846,74.1961 92.2846,74.8627 89,76.5C 87.0687,79.757 87.902,82.0904 91.5,83.5C 95.1243,83.791 98.791,83.791 102.5,83.5C 102.5,84.1667 102.5,84.8333 102.5,85.5C 98.1945,87.6406 93.8611,87.9739 89.5,86.5C 89.1961,85.8501 88.8627,85.1835 88.5,84.5C 83.8864,83.8691 80.8864,81.3691 79.5,77C 80.9782,70.0912 84.9782,66.9246 91.5,67.5 Z"/></g>
<g><path style="opacity:1" fill="#ad8e8c" d="M 141.5,72.5 C 142.451,73.9187 142.784,75.5853 142.5,77.5C 140.219,77.0773 138.552,77.744 137.5,79.5C 135.076,79.1924 132.743,79.5258 130.5,80.5C 131.522,81.354 132.355,82.354 133,83.5C 134,79.5 135,79.5 136,83.5C 136.333,82.5 136.667,81.5 137,80.5C 139.172,81.5089 140.338,83.1756 140.5,85.5C 133.474,88.6871 127.14,87.6871 121.5,82.5C 124.341,80.9136 127.007,79.0803 129.5,77C 133.486,76.5012 137.486,76.3345 141.5,76.5C 141.5,75.1667 141.5,73.8333 141.5,72.5 Z"/></g>
<g><path style="opacity:1" fill="#704d4a" d="M 140.5,85.5 C 140.338,83.1756 139.172,81.5089 137,80.5C 136.667,81.5 136.333,82.5 136,83.5C 135,79.5 134,79.5 133,83.5C 132.355,82.354 131.522,81.354 130.5,80.5C 132.743,79.5258 135.076,79.1924 137.5,79.5C 138.15,79.8039 138.817,80.1373 139.5,80.5C 145.307,76.0567 147.14,77.7233 145,85.5C 143.51,86.7279 142.01,86.7279 140.5,85.5 Z"/></g>
<g><path style="opacity:1" fill="#9d806a" d="M 150.5,25.5 C 152.129,26.6253 153.629,27.9586 155,29.5C 156.331,32.8338 158.165,35.8338 160.5,38.5C 162.738,42.3028 164.404,46.3028 165.5,50.5C 165.338,52.5273 165.505,54.5273 166,56.5C 170.604,66.6518 172.77,77.3185 172.5,88.5C 170.07,80.7699 168.237,72.7699 167,64.5C 166.111,63.1118 165.611,63.2785 165.5,65C 168.001,79.2468 169.001,93.4134 168.5,107.5C 168.328,103.466 167.828,99.466 167,95.5C 166.925,108.851 167.425,122.184 168.5,135.5C 167.732,134.737 167.232,133.737 167,132.5C 166.124,120.155 165.124,107.822 164,95.5C 163.221,84.3102 163.388,73.1435 164.5,62C 162.314,52.9297 159.314,44.0964 155.5,35.5C 155.043,34.7025 154.376,34.3691 153.5,34.5C 153.039,31.6967 151.705,29.3634 149.5,27.5C 150.338,27.1583 150.672,26.4916 150.5,25.5 Z"/></g>
<g><path style="opacity:1" fill="#cbad9c" d="M 103.5,20.5 C 102.971,23.7998 100.971,25.7998 97.5,26.5C 96.8333,26.8333 96.1667,27.1667 95.5,27.5C 93.5286,28.8231 91.5286,30.1565 89.5,31.5C 88.6663,33.8345 87.3329,35.8345 85.5,37.5C 84.3595,39.0778 83.8595,40.7445 84,42.5C 87.1396,39.3604 90.3063,36.1937 93.5,33C 94.1667,32.3333 94.8333,32.3333 95.5,33C 92.9614,35.3697 90.6281,37.8697 88.5,40.5C 79.0689,48.1378 75.0689,58.1378 76.5,70.5C 75.6745,74.9819 75.1745,79.6486 75,84.5C 74.6667,80.1667 74.3333,75.8333 74,71.5C 73,75.1667 72,78.8333 71,82.5C 70.2718,95.5747 68.9385,108.575 67,121.5C 66.6667,119.833 66.3333,118.167 66,116.5C 63.8524,124.719 62.3524,133.053 61.5,141.5C 60.6721,147.653 60.1721,153.987 60,160.5C 59.3848,162.116 58.3848,163.449 57,164.5C 56.5357,163.906 56.369,163.239 56.5,162.5C 57.3288,155.345 57.8288,148.011 58,140.5C 64.3673,118.966 68.3673,96.9661 70,74.5C 72.9289,66.113 74.9289,57.4464 76,48.5C 76.9025,47.2986 78.0692,46.4652 79.5,46C 79.0426,45.586 78.7093,45.086 78.5,44.5C 80.7855,42.3869 82.4522,39.8869 83.5,37C 82.6919,36.6924 82.0253,36.1924 81.5,35.5C 82.8037,32.8699 84.4704,30.5366 86.5,28.5C 89.3098,25.8644 92.3098,23.3644 95.5,21C 98.128,19.3895 100.795,19.2228 103.5,20.5 Z"/></g>
<g><path style="opacity:1" fill="#d6a9a1" d="M 141.5,72.5 C 141.5,73.8333 141.5,75.1667 141.5,76.5C 137.486,76.3345 133.486,76.5012 129.5,77C 127.007,79.0803 124.341,80.9136 121.5,82.5C 127.14,87.6871 133.474,88.6871 140.5,85.5C 141.371,88.1123 142.037,90.779 142.5,93.5C 141.833,93.1667 141.167,92.8333 140.5,92.5C 139.32,90.087 137.32,89.087 134.5,89.5C 130.327,90.0436 126.494,89.377 123,87.5C 122.147,89.1247 121.147,89.4581 120,88.5C 120.247,85.0437 120.247,81.3771 120,77.5C 121.506,75.8258 123.339,74.8258 125.5,74.5C 126.274,75.1471 127.274,75.4805 128.5,75.5C 132.549,73.4883 136.883,72.4883 141.5,72.5 Z"/></g>
<g><path style="opacity:1" fill="#a37460" d="M 77.5,87.5 C 77.9628,90.3303 78.6295,92.997 79.5,95.5C 79.5,97.1667 79.5,98.8333 79.5,100.5C 78.1732,105.655 77.1732,110.988 76.5,116.5C 75.5041,116.414 74.6708,116.748 74,117.5C 73.6162,109.15 73.9495,100.817 75,92.5C 75.0496,90.256 75.8829,88.5893 77.5,87.5 Z"/></g>
<g><path style="opacity:1" fill="#a17368" d="M 145.5,71.5 C 147.215,83.7604 147.882,96.0937 147.5,108.5C 147.167,108.5 146.833,108.5 146.5,108.5C 146.817,102.091 146.317,95.7575 145,89.5C 143.812,90.5634 143.312,91.8967 143.5,93.5C 143.167,93.5 142.833,93.5 142.5,93.5C 142.037,90.779 141.371,88.1123 140.5,85.5C 142.01,86.7279 143.51,86.7279 145,85.5C 147.14,77.7233 145.307,76.0567 139.5,80.5C 138.817,80.1373 138.15,79.8039 137.5,79.5C 138.552,77.744 140.219,77.0773 142.5,77.5C 142.784,75.5853 142.451,73.9187 141.5,72.5C 136.883,72.4883 132.549,73.4883 128.5,75.5C 127.274,75.4805 126.274,75.1471 125.5,74.5C 130.961,72.4828 136.294,70.4828 141.5,68.5C 141.369,67.6236 141.702,66.9569 142.5,66.5C 143.696,68.1446 144.696,69.8113 145.5,71.5 Z"/></g>
<g><path style="opacity:1" fill="#f8c7c0" d="M 134.5,89.5 C 137.32,89.087 139.32,90.087 140.5,92.5C 140.823,96.226 140.489,99.8927 139.5,103.5C 138.719,104.737 137.719,105.737 136.5,106.5C 132.946,104.593 129.446,102.593 126,100.5C 125.333,97.1667 125.333,93.8333 126,90.5C 129.169,93.2372 132.002,92.9038 134.5,89.5 Z"/></g>
<g><path style="opacity:1" fill="#dab6a8" d="M 144.5,61.5 C 150.257,82.8787 150.924,104.545 146.5,126.5C 146.167,126 145.833,125.5 145.5,125C 146.348,122.23 146.681,119.397 146.5,116.5C 147.265,113.904 147.599,111.237 147.5,108.5C 147.882,96.0937 147.215,83.7604 145.5,71.5C 144.949,68.1933 144.616,64.8599 144.5,61.5 Z"/></g>
<g><path style="opacity:1" fill="#e9b7b1" d="M 102.5,85.5 C 103.339,86.6412 104.006,87.9745 104.5,89.5C 103.738,93.1111 103.238,96.7778 103,100.5C 100.023,103.131 97.5234,106.131 95.5,109.5C 93.4562,111.355 91.2895,112.022 89,111.5C 89.0551,113.915 89.3884,116.248 90,118.5C 85.6215,115.384 82.4549,111.384 80.5,106.5C 80.6747,104.379 80.3414,102.379 79.5,100.5C 79.5,98.8333 79.5,97.1667 79.5,95.5C 79.238,94.0222 79.5713,92.6888 80.5,91.5C 82.2633,91.6938 84.0967,91.6938 86,91.5C 86.8518,92.5707 87.6851,93.5707 88.5,94.5C 88.7863,92.7231 89.4529,91.0564 90.5,89.5C 90.315,88.4163 89.9817,87.4163 89.5,86.5C 93.8611,87.9739 98.1945,87.6406 102.5,85.5 Z"/></g>
<g><path style="opacity:1" fill="#f7c7c1" d="M 88.5,94.5 C 89.4674,93.1938 90.8007,92.5271 92.5,92.5C 92.5,91.5 92.5,90.5 92.5,89.5C 95.5719,89.1826 98.5719,89.5159 101.5,90.5C 100.617,91.548 99.9504,92.7147 99.5,94C 101.182,95.8951 101.682,98.0617 101,100.5C 98.3241,102.433 95.4908,103.6 92.5,104C 91.031,100.901 89.6976,97.7345 88.5,94.5 Z"/></g>
<g><path style="opacity:1" fill="#754e38" d="M 156.5,95.5 C 157.167,95.5 157.833,95.5 158.5,95.5C 158.5,101.5 158.5,107.5 158.5,113.5C 159.297,124.855 160.297,136.189 161.5,147.5C 160.695,150.569 161.028,153.735 162.5,157C 161.571,158.077 160.904,159.244 160.5,160.5C 159.71,159.391 159.21,158.058 159,156.5C 158.829,148.989 158.329,141.655 157.5,134.5C 156.701,121.516 156.367,108.516 156.5,95.5 Z"/></g>
<g><path style="opacity:1" fill="#977965" d="M 150.5,37.5 C 156.793,50.3418 160.127,64.0084 160.5,78.5C 161.099,101.719 163.599,124.719 168,147.5C 168.505,145.482 169.005,143.482 169.5,141.5C 169.833,141.5 170.167,141.5 170.5,141.5C 170.704,144.518 171.037,147.518 171.5,150.5C 169.917,152.863 168.084,152.863 166,150.5C 163.775,139.596 162.109,128.596 161,117.5C 160.667,117.833 160.333,118.167 160,118.5C 159.802,116.618 159.302,114.952 158.5,113.5C 158.5,107.5 158.5,101.5 158.5,95.5C 159.707,92.0542 159.54,88.7209 158,85.5C 157.646,76.8081 156.979,68.1414 156,59.5C 153.436,52.317 151.603,44.9836 150.5,37.5 Z"/></g>
<g><path style="opacity:1" fill="#ac6c5e" d="M 146.5,108.5 C 145.483,113.416 144.15,118.25 142.5,123C 142.167,123.167 141.833,123.333 141.5,123.5C 141.167,122.5 140.833,121.5 140.5,120.5C 141.162,117.532 141.495,114.532 141.5,111.5C 143.228,105.762 143.895,99.7616 143.5,93.5C 143.312,91.8967 143.812,90.5634 145,89.5C 146.317,95.7575 146.817,102.091 146.5,108.5 Z"/></g>
<g><path style="opacity:1" fill="#d4c0b8" d="M 98.5,13.5 C 99.9516,14.3019 101.618,14.8019 103.5,15C 100.312,15.7554 97.1451,16.5887 94,17.5C 92.9701,17.8361 92.4701,18.5028 92.5,19.5C 90.1996,21.6365 88.0329,23.9698 86,26.5C 85.3083,27.4368 85.475,28.1034 86.5,28.5C 84.4704,30.5366 82.8037,32.8699 81.5,35.5C 82.0253,36.1924 82.6919,36.6924 83.5,37C 82.4522,39.8869 80.7855,42.3869 78.5,44.5C 78.7093,45.086 79.0426,45.586 79.5,46C 78.0692,46.4652 76.9025,47.2986 76,48.5C 74.9289,57.4464 72.9289,66.113 70,74.5C 68.3673,96.9661 64.3673,118.966 58,140.5C 57.8288,148.011 57.3288,155.345 56.5,162.5C 56.1667,162.5 55.8333,162.5 55.5,162.5C 53.6083,164.78 51.275,167.447 48.5,170.5C 46.4268,172.58 44.0934,174.246 41.5,175.5C 44.7961,171.702 48.2961,168.036 52,164.5C 52.8624,162.913 53.5291,161.246 54,159.5C 58.7154,120.433 65.5488,81.7661 74.5,43.5C 77.784,39.5217 80.6174,35.1884 83,30.5C 84.2494,26.1294 86.0828,22.1294 88.5,18.5C 91.5277,16.3195 94.861,14.6528 98.5,13.5 Z"/></g>
<g><path style="opacity:1" fill="#eab6aa" d="M 134.5,59.5 C 138.032,61.5614 140.365,64.5614 141.5,68.5C 136.294,70.4828 130.961,72.4828 125.5,74.5C 123.339,74.8258 121.506,75.8258 120,77.5C 120.247,81.3771 120.247,85.0437 120,88.5C 121.147,89.4581 122.147,89.1247 123,87.5C 126.494,89.377 130.327,90.0436 134.5,89.5C 132.002,92.9038 129.169,93.2372 126,90.5C 125.333,93.8333 125.333,97.1667 126,100.5C 129.446,102.593 132.946,104.593 136.5,106.5C 137.719,105.737 138.719,104.737 139.5,103.5C 140.489,99.8927 140.823,96.226 140.5,92.5C 141.167,92.8333 141.833,93.1667 142.5,93.5C 142.666,97.5138 142.499,101.514 142,105.5C 138.442,109.996 136.609,115.163 136.5,121C 134.382,123.946 132.048,124.113 129.5,121.5C 129.611,120.883 129.944,120.383 130.5,120C 128.735,119.36 127.068,119.527 125.5,120.5C 116.716,120.67 108.049,120.004 99.5,118.5C 99.3601,116.876 100.027,115.71 101.5,115C 107.564,114.805 113.564,114.139 119.5,113C 121.979,110.33 124.979,108.83 128.5,108.5C 128.13,104.455 126.13,101.455 122.5,99.5C 121.119,99.9996 120.453,101 120.5,102.5C 121.623,103.215 122.623,104.381 123.5,106C 123.415,107.107 123.081,108.107 122.5,109C 118.796,110.071 115.129,110.238 111.5,109.5C 109.633,112.229 108.633,111.896 108.5,108.5C 107.167,108.5 105.833,108.5 104.5,108.5C 104.343,107.127 104.51,105.793 105,104.5C 110.132,104.072 111.966,101.572 110.5,97C 111.363,92.5196 112.03,88.0196 112.5,83.5C 113.151,84.0906 113.818,84.7573 114.5,85.5C 115.086,85.2907 115.586,84.9574 116,84.5C 116.333,81.1667 116.667,77.8333 117,74.5C 118.917,72.2137 121.417,70.8803 124.5,70.5C 126.62,71.8715 127.62,71.2048 127.5,68.5C 130.206,68.5751 132.873,68.9084 135.5,69.5C 134.949,66.1933 134.616,62.8599 134.5,59.5 Z"/></g>
<g><path style="opacity:1" fill="#d7a499" d="M 106.5,73.5 C 107.675,73.281 108.675,73.6143 109.5,74.5C 110.818,77.5149 111.818,80.5149 112.5,83.5C 112.03,88.0196 111.363,92.5196 110.5,97C 111.966,101.572 110.132,104.072 105,104.5C 104.51,105.793 104.343,107.127 104.5,108.5C 105.833,108.5 107.167,108.5 108.5,108.5C 108.633,111.896 109.633,112.229 111.5,109.5C 115.129,110.238 118.796,110.071 122.5,109C 123.081,108.107 123.415,107.107 123.5,106C 122.623,104.381 121.623,103.215 120.5,102.5C 120.453,101 121.119,99.9996 122.5,99.5C 126.13,101.455 128.13,104.455 128.5,108.5C 124.979,108.83 121.979,110.33 119.5,113C 113.564,114.139 107.564,114.805 101.5,115C 100.027,115.71 99.3601,116.876 99.5,118.5C 102.687,121.531 105.353,125.031 107.5,129C 110.833,129.667 114.167,129.667 117.5,129C 120.303,127.888 121.303,126.054 120.5,123.5C 116.555,124.268 112.555,124.768 108.5,125C 116.352,126.944 116.019,127.778 107.5,127.5C 107.579,126.07 107.246,124.736 106.5,123.5C 110.999,122.751 115.499,122.084 120,121.5C 122.167,122.826 124,122.493 125.5,120.5C 127.068,119.527 128.735,119.36 130.5,120C 129.944,120.383 129.611,120.883 129.5,121.5C 128.069,122.446 126.736,123.612 125.5,125C 126.833,125.667 126.833,126.333 125.5,127C 123.685,127.757 122.019,128.59 120.5,129.5C 115.879,130.115 111.212,130.782 106.5,131.5C 105.907,133.382 105.24,135.215 104.5,137C 108.811,141.424 113.811,142.59 119.5,140.5C 121.167,140.5 122.833,140.5 124.5,140.5C 124.196,141.15 123.863,141.817 123.5,142.5C 117.831,143.744 112.164,143.744 106.5,142.5C 104.853,141.722 103.52,140.556 102.5,139C 100.444,138.689 98.444,138.189 96.5,137.5C 93.1117,133.124 89.7783,128.791 86.5,124.5C 83.4973,118.825 81.4973,112.825 80.5,106.5C 82.4549,111.384 85.6215,115.384 90,118.5C 89.3884,116.248 89.0551,113.915 89,111.5C 91.2895,112.022 93.4562,111.355 95.5,109.5C 97.5234,106.131 100.023,103.131 103,100.5C 103.238,96.7778 103.738,93.1111 104.5,89.5C 104.006,87.9745 103.339,86.6412 102.5,85.5C 102.5,84.8333 102.5,84.1667 102.5,83.5C 109.504,82.1793 110.837,78.8459 106.5,73.5 Z"/></g>
<g><path style="opacity:1" fill="#7b563f" d="M 168.5,107.5 C 169.622,117.532 170.956,127.532 172.5,137.5C 171.833,138.833 171.167,140.167 170.5,141.5C 170.167,141.5 169.833,141.5 169.5,141.5C 169.167,139.5 168.833,137.5 168.5,135.5C 167.425,122.184 166.925,108.851 167,95.5C 167.828,99.466 168.328,103.466 168.5,107.5 Z"/></g>
<g><path style="opacity:1" fill="#8e684f" d="M 172.5,88.5 C 174.608,102.146 176.608,115.813 178.5,129.5C 178.337,131.857 178.503,134.19 179,136.5C 180.814,139.618 181.981,142.951 182.5,146.5C 181.034,145.653 180.2,144.32 180,142.5C 180.012,150.564 182.345,157.897 187,164.5C 186.27,161.979 185.77,159.313 185.5,156.5C 188.096,161.458 190.763,166.458 193.5,171.5C 193.631,172.239 193.464,172.906 193,173.5C 187.771,168.71 183.771,163.044 181,156.5C 179.502,149.674 177.502,143.007 175,136.5C 175.367,139.665 175.201,142.665 174.5,145.5C 174.435,142.572 173.768,139.905 172.5,137.5C 170.956,127.532 169.622,117.532 168.5,107.5C 169.001,93.4134 168.001,79.2468 165.5,65C 165.611,63.2785 166.111,63.1118 167,64.5C 168.237,72.7699 170.07,80.7699 172.5,88.5 Z"/></g>
<g><path style="opacity:1" fill="#bc947e" d="M 76.5,70.5 C 76.1984,73.0593 76.5318,75.3926 77.5,77.5C 77.5,80.8333 77.5,84.1667 77.5,87.5C 75.8829,88.5893 75.0496,90.256 75,92.5C 73.9495,100.817 73.6162,109.15 74,117.5C 74.6708,116.748 75.5041,116.414 76.5,116.5C 75.7482,130.023 78.4149,142.69 84.5,154.5C 83.609,153.89 82.609,153.557 81.5,153.5C 78.7805,148.388 76.2805,143.055 74,137.5C 73.5026,140.146 73.3359,142.813 73.5,145.5C 72.7784,145.082 72.2784,144.416 72,143.5C 71.8784,145.437 71.045,146.77 69.5,147.5C 69.6663,140.825 69.4996,134.158 69,127.5C 68.6667,128.167 68.3333,128.833 68,129.5C 67,128.167 66,128.167 65,129.5C 63.2311,136.724 62.2311,144.057 62,151.5C 61.5017,148.183 61.335,144.85 61.5,141.5C 62.3524,133.053 63.8524,124.719 66,116.5C 66.3333,118.167 66.6667,119.833 67,121.5C 68.9385,108.575 70.2718,95.5747 71,82.5C 72,78.8333 73,75.1667 74,71.5C 74.3333,75.8333 74.6667,80.1667 75,84.5C 75.1745,79.6486 75.6745,74.9819 76.5,70.5 Z"/></g>
<g><path style="opacity:1" fill="#e0ac9a" d="M 142.5,93.5 C 142.833,93.5 143.167,93.5 143.5,93.5C 143.895,99.7616 143.228,105.762 141.5,111.5C 138.931,117.147 137.098,123.147 136,129.5C 134.963,132.267 133.463,134.601 131.5,136.5C 131.167,137.5 130.5,138.167 129.5,138.5C 127.989,139.502 126.322,140.169 124.5,140.5C 122.833,140.5 121.167,140.5 119.5,140.5C 119.539,139.417 119.873,138.417 120.5,137.5C 125.327,136.344 127.994,133.344 128.5,128.5C 125.833,128.833 123.167,129.167 120.5,129.5C 122.019,128.59 123.685,127.757 125.5,127C 126.833,126.333 126.833,125.667 125.5,125C 126.736,123.612 128.069,122.446 129.5,121.5C 132.048,124.113 134.382,123.946 136.5,121C 136.609,115.163 138.442,109.996 142,105.5C 142.499,101.514 142.666,97.5138 142.5,93.5 Z"/></g>
<g><path style="opacity:1" fill="#caab9a" d="M 137.5,32.5 C 143.144,41.0388 146.811,50.3721 148.5,60.5C 149.758,67.1238 150.758,73.7905 151.5,80.5C 151.93,95.8981 151.263,111.231 149.5,126.5C 148.656,130.211 147.656,133.877 146.5,137.5C 145.778,137.082 145.278,136.416 145,135.5C 144.667,136.167 144.333,136.833 144,137.5C 143.505,135.527 143.338,133.527 143.5,131.5C 143.739,126.231 144.739,121.231 146.5,116.5C 146.681,119.397 146.348,122.23 145.5,125C 145.833,125.5 146.167,126 146.5,126.5C 150.924,104.545 150.257,82.8787 144.5,61.5C 144.077,51.5412 140.743,42.8745 134.5,35.5C 135.289,35.2172 135.956,34.7172 136.5,34C 135.288,32.8932 135.621,32.3932 137.5,32.5 Z"/></g>
<g><path style="opacity:1" fill="#684438" d="M 79.5,110.5 C 79.29,118.937 80.1234,127.27 82,135.5C 82.6189,138.032 83.6189,140.365 85,142.5C 86.1989,139.274 86.6989,135.941 86.5,132.5C 87.7947,136.267 88.4613,140.267 88.5,144.5C 88.7852,146.288 88.4519,147.955 87.5,149.5C 82.8279,145.156 79.9946,139.823 79,133.5C 78.1777,125.655 78.3443,117.989 79.5,110.5 Z"/></g>
<g><path style="opacity:1" fill="#c08b7b" d="M 146.5,108.5 C 146.833,108.5 147.167,108.5 147.5,108.5C 147.599,111.237 147.265,113.904 146.5,116.5C 144.739,121.231 143.739,126.231 143.5,131.5C 143.167,131.5 142.833,131.5 142.5,131.5C 142.565,131.062 142.399,130.728 142,130.5C 139.607,134.446 136.107,136.446 131.5,136.5C 133.463,134.601 134.963,132.267 136,129.5C 137.098,123.147 138.931,117.147 141.5,111.5C 141.495,114.532 141.162,117.532 140.5,120.5C 140.833,121.5 141.167,122.5 141.5,123.5C 141.833,123.333 142.167,123.167 142.5,123C 144.15,118.25 145.483,113.416 146.5,108.5 Z"/></g>
<g><path style="opacity:1" fill="#cb8583" d="M 99.5,118.5 C 108.049,120.004 116.716,120.67 125.5,120.5C 124,122.493 122.167,122.826 120,121.5C 115.499,122.084 110.999,122.751 106.5,123.5C 107.246,124.736 107.579,126.07 107.5,127.5C 116.019,127.778 116.352,126.944 108.5,125C 112.555,124.768 116.555,124.268 120.5,123.5C 121.303,126.054 120.303,127.888 117.5,129C 114.167,129.667 110.833,129.667 107.5,129C 105.353,125.031 102.687,121.531 99.5,118.5 Z"/></g>
<g><path style="opacity:1" fill="#3a1e15" d="M 80.5,106.5 C 81.4973,112.825 83.4973,118.825 86.5,124.5C 86.5,127.167 86.5,129.833 86.5,132.5C 86.6989,135.941 86.1989,139.274 85,142.5C 83.6189,140.365 82.6189,138.032 82,135.5C 80.1234,127.27 79.29,118.937 79.5,110.5C 79.2322,108.901 79.5655,107.568 80.5,106.5 Z"/></g>
<g><path style="opacity:1" fill="#eeb6ad" d="M 119.5,140.5 C 113.811,142.59 108.811,141.424 104.5,137C 105.24,135.215 105.907,133.382 106.5,131.5C 111.212,130.782 115.879,130.115 120.5,129.5C 123.167,129.167 125.833,128.833 128.5,128.5C 127.994,133.344 125.327,136.344 120.5,137.5C 119.873,138.417 119.539,139.417 119.5,140.5 Z"/></g>
<g><path style="opacity:1" fill="#a27e6d" d="M 149.5,126.5 C 150.883,132.244 150.55,137.91 148.5,143.5C 148.405,141.214 147.738,139.214 146.5,137.5C 147.656,133.877 148.656,130.211 149.5,126.5 Z"/></g>
<g><path style="opacity:1" fill="#a9705c" d="M 142.5,131.5 C 141.833,141.485 136.833,144.985 127.5,142C 128.973,141.29 129.64,140.124 129.5,138.5C 130.5,138.167 131.167,137.5 131.5,136.5C 136.107,136.446 139.607,134.446 142,130.5C 142.399,130.728 142.565,131.062 142.5,131.5 Z"/></g>
<g><path style="opacity:1" fill="#c59585" d="M 86.5,124.5 C 89.7783,128.791 93.1117,133.124 96.5,137.5C 98.444,138.189 100.444,138.689 102.5,139C 103.52,140.556 104.853,141.722 106.5,142.5C 112.164,143.744 117.831,143.744 123.5,142.5C 123.863,141.817 124.196,141.15 124.5,140.5C 126.322,140.169 127.989,139.502 129.5,138.5C 129.64,140.124 128.973,141.29 127.5,142C 136.833,144.985 141.833,141.485 142.5,131.5C 142.833,131.5 143.167,131.5 143.5,131.5C 143.338,133.527 143.505,135.527 144,137.5C 144.333,136.833 144.667,136.167 145,135.5C 145.278,136.416 145.778,137.082 146.5,137.5C 146.073,140.01 145.407,142.343 144.5,144.5C 143.417,144.461 142.417,144.127 141.5,143.5C 139.046,148.498 136.712,153.498 134.5,158.5C 132.538,155.47 132.205,152.303 133.5,149C 133.245,147.674 132.578,146.674 131.5,146C 126.182,146.163 120.848,146.663 115.5,147.5C 111.068,146.552 106.735,145.218 102.5,143.5C 100.167,143.833 99.8333,144.833 101.5,146.5C 99.604,147.466 97.604,147.799 95.5,147.5C 95.7564,145.208 95.4231,143.041 94.5,141C 92.7991,140.655 91.4658,141.322 90.5,143C 90.7119,145.469 91.0452,147.969 91.5,150.5C 91.1217,152.717 90.455,154.717 89.5,156.5C 89.8168,152.298 89.4834,148.298 88.5,144.5C 88.4613,140.267 87.7947,136.267 86.5,132.5C 86.5,129.833 86.5,127.167 86.5,124.5 Z"/></g>
<g><path style="opacity:1" fill="#936954" d="M 146.5,137.5 C 147.738,139.214 148.405,141.214 148.5,143.5C 149.666,148.497 149.666,153.497 148.5,158.5C 144.852,157.527 143.186,155.193 143.5,151.5C 143.674,149.139 144.007,146.806 144.5,144.5C 145.407,142.343 146.073,140.01 146.5,137.5 Z"/></g>
<g><path style="opacity:1" fill="#9c785f" d="M 148.5,60.5 C 149.397,61.5981 150.23,61.5981 151,60.5C 153.158,70.9823 155.325,81.4823 157.5,92C 157.011,93.1385 156.678,94.3052 156.5,95.5C 156.367,108.516 156.701,121.516 157.5,134.5C 156.579,137.14 155.912,139.973 155.5,143C 156.034,149.908 157.034,156.742 158.5,163.5C 158.253,164.713 157.586,165.38 156.5,165.5C 154.923,158.36 154.09,151.027 154,143.5C 153.667,126.167 153.333,108.833 153,91.5C 152.823,87.6437 152.323,83.977 151.5,80.5C 150.758,73.7905 149.758,67.1238 148.5,60.5 Z"/></g>
<g><path style="opacity:1" fill="#c7a18b" d="M 151.5,80.5 C 152.323,83.977 152.823,87.6437 153,91.5C 153.333,108.833 153.667,126.167 154,143.5C 154.09,151.027 154.923,158.36 156.5,165.5C 158.144,166.316 159.31,167.65 160,169.5C 160.278,168.584 160.778,167.918 161.5,167.5C 162.045,169.593 162.878,171.593 164,173.5C 165.632,174.528 167.132,175.528 168.5,176.5C 167.29,176.932 166.29,177.599 165.5,178.5C 163.25,179.005 161.083,178.338 159,176.5C 156.08,170.161 154.08,163.494 153,156.5C 152.506,158.134 152.34,159.801 152.5,161.5C 151.683,159.031 151.183,156.365 151,153.5C 150.823,157.356 150.323,161.023 149.5,164.5C 149.565,164.062 149.399,163.728 149,163.5C 147.296,165.373 145.463,167.04 143.5,168.5C 143.034,166.799 143.034,165.299 143.5,164C 142.464,162.383 141.297,162.216 140,163.5C 139.864,159.079 141.031,155.079 143.5,151.5C 143.186,155.193 144.852,157.527 148.5,158.5C 149.666,153.497 149.666,148.497 148.5,143.5C 150.55,137.91 150.883,132.244 149.5,126.5C 151.263,111.231 151.93,95.8981 151.5,80.5 Z"/></g>
<g><path style="opacity:1" fill="#623e27" d="M 172.5,137.5 C 173.768,139.905 174.435,142.572 174.5,145.5C 176.756,153.344 180.09,160.678 184.5,167.5C 182.808,168.201 181.142,167.867 179.5,166.5C 175.873,161.601 173.206,156.267 171.5,150.5C 171.037,147.518 170.704,144.518 170.5,141.5C 171.167,140.167 171.833,138.833 172.5,137.5 Z"/></g>
<g><path style="opacity:1" fill="#875d47" d="M 81.5,153.5 C 82.2598,154.893 82.9265,156.393 83.5,158C 83.3333,158.833 83.1667,159.667 83,160.5C 82.3333,159.167 81.6667,157.833 81,156.5C 81.1276,159.486 81.1276,162.486 81,165.5C 77.0493,159.285 74.5493,152.619 73.5,145.5C 73.3359,142.813 73.5026,140.146 74,137.5C 76.2805,143.055 78.7805,148.388 81.5,153.5 Z"/></g>
<g><path style="opacity:1" fill="#7f5747" d="M 79.5,100.5 C 80.3414,102.379 80.6747,104.379 80.5,106.5C 79.5655,107.568 79.2322,108.901 79.5,110.5C 78.3443,117.989 78.1777,125.655 79,133.5C 79.9946,139.823 82.8279,145.156 87.5,149.5C 88.4519,147.955 88.7852,146.288 88.5,144.5C 89.4834,148.298 89.8168,152.298 89.5,156.5C 89.5,157.167 89.5,157.833 89.5,158.5C 90.8062,159.467 91.4729,160.801 91.5,162.5C 89.7531,163.981 88.5864,165.981 88,168.5C 83.6904,164.887 83.5237,161.887 87.5,159.5C 87.2155,157.241 86.2155,155.574 84.5,154.5C 78.4149,142.69 75.7482,130.023 76.5,116.5C 77.1732,110.988 78.1732,105.655 79.5,100.5 Z"/></g>
<g><path style="opacity:1" fill="#b8a08d" d="M 175.5,79.5 C 178.443,96.2735 180.943,113.274 183,130.5C 184.45,135.958 185.95,141.291 187.5,146.5C 189.956,155.76 193.289,164.76 197.5,173.5C 197.167,173.5 196.833,173.5 196.5,173.5C 195.222,173.218 194.222,172.551 193.5,171.5C 190.763,166.458 188.096,161.458 185.5,156.5C 183.885,153.377 182.885,150.044 182.5,146.5C 181.981,142.951 180.814,139.618 179,136.5C 178.503,134.19 178.337,131.857 178.5,129.5C 179.158,130.398 179.824,131.398 180.5,132.5C 180.833,131.667 181.167,130.833 181.5,130C 178.189,114.32 175.855,98.4867 174.5,82.5C 174.52,81.2739 174.853,80.2739 175.5,79.5 Z"/></g>
<g><path style="opacity:1" fill="#b68e75" d="M 157.5,134.5 C 158.329,141.655 158.829,148.989 159,156.5C 159.21,158.058 159.71,159.391 160.5,160.5C 160.5,160.833 160.5,161.167 160.5,161.5C 160.833,163.5 161.167,165.5 161.5,167.5C 160.778,167.918 160.278,168.584 160,169.5C 159.31,167.65 158.144,166.316 156.5,165.5C 157.586,165.38 158.253,164.713 158.5,163.5C 157.034,156.742 156.034,149.908 155.5,143C 155.912,139.973 156.579,137.14 157.5,134.5 Z"/></g>
<g><path style="opacity:1" fill="#7b563c" d="M 182.5,146.5 C 182.885,150.044 183.885,153.377 185.5,156.5C 185.77,159.313 186.27,161.979 187,164.5C 182.345,157.897 180.012,150.564 180,142.5C 180.2,144.32 181.034,145.653 182.5,146.5 Z"/></g>
<g><path style="opacity:1" fill="#88614c" d="M 158.5,113.5 C 159.302,114.952 159.802,116.618 160,118.5C 160.333,118.167 160.667,117.833 161,117.5C 162.109,128.596 163.775,139.596 166,150.5C 168.084,152.863 169.917,152.863 171.5,150.5C 173.206,156.267 175.873,161.601 179.5,166.5C 176.633,164.481 173.967,162.148 171.5,159.5C 170.482,160.193 169.482,160.859 168.5,161.5C 165.115,157.396 162.781,152.729 161.5,147.5C 160.297,136.189 159.297,124.855 158.5,113.5 Z"/></g>
<g><path style="opacity:1" fill="#c9a28b" d="M 69.5,147.5 C 69.8128,151.042 69.4794,154.375 68.5,157.5C 68.6663,150.159 68.4997,142.826 68,135.5C 67.4781,140.491 66.1447,144.491 64,147.5C 62.6095,152.492 62.4428,157.492 63.5,162.5C 65.1017,163.55 65.935,162.883 66,160.5C 66.4169,161.756 67.2502,162.423 68.5,162.5C 68.5,163.833 68.5,165.167 68.5,166.5C 66.9102,166.628 65.5769,167.295 64.5,168.5C 63.8055,172.19 62.9722,175.857 62,179.5C 61.6667,174.833 61.3333,170.167 61,165.5C 59.7114,168.351 59.2114,171.351 59.5,174.5C 57.764,185.637 53.0973,195.304 45.5,203.5C 49.463,197.239 52.6297,190.573 55,183.5C 56.5109,176.548 56.6776,169.548 55.5,162.5C 55.8333,162.5 56.1667,162.5 56.5,162.5C 56.369,163.239 56.5357,163.906 57,164.5C 58.3848,163.449 59.3848,162.116 60,160.5C 60.1721,153.987 60.6721,147.653 61.5,141.5C 61.335,144.85 61.5017,148.183 62,151.5C 62.2311,144.057 63.2311,136.724 65,129.5C 66,128.167 67,128.167 68,129.5C 68.3333,128.833 68.6667,128.167 69,127.5C 69.4996,134.158 69.6663,140.825 69.5,147.5 Z"/></g>
<g><path style="opacity:1" fill="#d4b098" d="M 68.5,157.5 C 68.5,159.167 68.5,160.833 68.5,162.5C 67.2502,162.423 66.4169,161.756 66,160.5C 65.935,162.883 65.1017,163.55 63.5,162.5C 62.4428,157.492 62.6095,152.492 64,147.5C 66.1447,144.491 67.4781,140.491 68,135.5C 68.4997,142.826 68.6663,150.159 68.5,157.5 Z"/></g>
<g><path style="opacity:1" fill="#653a27" d="M 161.5,147.5 C 162.781,152.729 165.115,157.396 168.5,161.5C 168.833,162.167 169.167,162.833 169.5,163.5C 169.062,163.435 168.728,163.601 168.5,164C 170.957,165.512 170.957,166.846 168.5,168C 170.027,169.032 171.36,170.199 172.5,171.5C 171.167,171.5 169.833,171.5 168.5,171.5C 166.335,167.877 163.668,164.543 160.5,161.5C 160.5,161.167 160.5,160.833 160.5,160.5C 160.904,159.244 161.571,158.077 162.5,157C 161.028,153.735 160.695,150.569 161.5,147.5 Z"/></g>
<g><path style="opacity:1" fill="#472619" d="M 169.5,163.5 C 173.57,166.192 177.57,168.858 181.5,171.5C 179.368,171.554 178.035,172.554 177.5,174.5C 175.067,174.727 173.401,173.727 172.5,171.5C 171.36,170.199 170.027,169.032 168.5,168C 170.957,166.846 170.957,165.512 168.5,164C 168.728,163.601 169.062,163.435 169.5,163.5 Z"/></g>
<g><path style="opacity:1" fill="#7d5340" d="M 78.5,168.5 C 73.274,173.569 69.4407,179.569 67,186.5C 65.7292,187.883 64.2292,188.883 62.5,189.5C 65.8953,182.922 67.8953,175.922 68.5,168.5C 69.693,163.006 70.693,157.339 71.5,151.5C 72.086,151.709 72.586,152.043 73,152.5C 75.1336,157.759 76.9669,163.092 78.5,168.5 Z"/></g>
<g><path style="opacity:1" fill="#d6a897" d="M 144.5,144.5 C 144.007,146.806 143.674,149.139 143.5,151.5C 141.031,155.079 139.864,159.079 140,163.5C 141.297,162.216 142.464,162.383 143.5,164C 143.034,165.299 143.034,166.799 143.5,168.5C 140.542,173.126 136.876,177.126 132.5,180.5C 132.082,179.778 131.416,179.278 130.5,179C 131.517,177.951 131.684,176.784 131,175.5C 129.257,177.321 127.757,179.321 126.5,181.5C 125.438,180.575 125.438,179.575 126.5,178.5C 126.875,176.302 127.542,174.302 128.5,172.5C 129.582,170.673 129.582,168.673 128.5,166.5C 129.024,164.617 129.691,162.784 130.5,161C 129.932,157.158 129.265,153.325 128.5,149.5C 126.225,150.107 123.891,150.441 121.5,150.5C 115.426,149.577 109.426,148.577 103.5,147.5C 103.5,148.5 103.5,149.5 103.5,150.5C 100.999,149.174 98.3323,148.674 95.5,149C 94.7334,150.47 94.0668,151.97 93.5,153.5C 93.5236,157.336 93.857,161.669 94.5,166.5C 94.8214,172.026 94.4881,177.36 93.5,182.5C 93.7382,174.12 93.2382,165.787 92,157.5C 91.3292,158.252 90.4959,158.586 89.5,158.5C 89.5,157.833 89.5,157.167 89.5,156.5C 90.455,154.717 91.1217,152.717 91.5,150.5C 91.0452,147.969 90.7119,145.469 90.5,143C 91.4658,141.322 92.7991,140.655 94.5,141C 95.4231,143.041 95.7564,145.208 95.5,147.5C 97.604,147.799 99.604,147.466 101.5,146.5C 99.8333,144.833 100.167,143.833 102.5,143.5C 106.735,145.218 111.068,146.552 115.5,147.5C 120.848,146.663 126.182,146.163 131.5,146C 132.578,146.674 133.245,147.674 133.5,149C 132.205,152.303 132.538,155.47 134.5,158.5C 136.712,153.498 139.046,148.498 141.5,143.5C 142.417,144.127 143.417,144.461 144.5,144.5 Z"/></g>
<g><path style="opacity:1" fill="#dfb1a4" d="M 128.5,172.5 C 127.523,166.761 127.189,161.094 127.5,155.5C 126.333,155.167 125.167,154.833 124,154.5C 121.546,154.759 119.546,155.759 118,157.5C 116.467,156.305 114.967,156.305 113.5,157.5C 112.155,156.653 111.155,155.487 110.5,154C 105.792,153.304 101.126,152.471 96.5,151.5C 95.7492,152.376 95.2492,153.376 95,154.5C 94.6174,153.944 94.1174,153.611 93.5,153.5C 94.0668,151.97 94.7334,150.47 95.5,149C 98.3323,148.674 100.999,149.174 103.5,150.5C 103.5,149.5 103.5,148.5 103.5,147.5C 109.426,148.577 115.426,149.577 121.5,150.5C 123.891,150.441 126.225,150.107 128.5,149.5C 129.265,153.325 129.932,157.158 130.5,161C 129.691,162.784 129.024,164.617 128.5,166.5C 129.582,168.673 129.582,170.673 128.5,172.5 Z"/></g>
<g><path style="opacity:1" fill="#745440" d="M 193.5,171.5 C 194.222,172.551 195.222,173.218 196.5,173.5C 194.316,175.957 191.982,175.957 189.5,173.5C 186.833,172.833 184.167,172.167 181.5,171.5C 177.57,168.858 173.57,166.192 169.5,163.5C 169.167,162.833 168.833,162.167 168.5,161.5C 169.482,160.859 170.482,160.193 171.5,159.5C 173.967,162.148 176.633,164.481 179.5,166.5C 181.142,167.867 182.808,168.201 184.5,167.5C 180.09,160.678 176.756,153.344 174.5,145.5C 175.201,142.665 175.367,139.665 175,136.5C 177.502,143.007 179.502,149.674 181,156.5C 183.771,163.044 187.771,168.71 193,173.5C 193.464,172.906 193.631,172.239 193.5,171.5 Z"/></g>
<g><path style="opacity:1" fill="#e9b4a9" d="M 94.5,166.5 C 95.4907,172.979 95.824,179.646 95.5,186.5C 96.8734,186.657 98.2068,186.49 99.5,186C 102.275,182.966 104.942,179.799 107.5,176.5C 108.736,175.754 110.07,175.421 111.5,175.5C 111.5,174.5 111.5,173.5 111.5,172.5C 112.5,172.5 113.5,172.5 114.5,172.5C 115.138,174.46 115.138,176.293 114.5,178C 118.5,179.442 122.5,179.608 126.5,178.5C 125.438,179.575 125.438,180.575 126.5,181.5C 127.757,179.321 129.257,177.321 131,175.5C 131.684,176.784 131.517,177.951 130.5,179C 131.416,179.278 132.082,179.778 132.5,180.5C 124.57,187.58 115.903,193.747 106.5,199C 104.19,199.497 101.857,199.663 99.5,199.5C 94.3549,195.218 90.6882,189.885 88.5,183.5C 88.3505,182.448 88.5172,181.448 89,180.5C 90.6667,181.5 92,182.833 93,184.5C 93.4643,183.906 93.631,183.239 93.5,182.5C 94.4881,177.36 94.8214,172.026 94.5,166.5 Z"/></g>
<g><path style="opacity:1" fill="#a5735b" d="M 160.5,161.5 C 163.668,164.543 166.335,167.877 168.5,171.5C 169.306,172.728 170.306,173.728 171.5,174.5C 170.71,175.401 169.71,176.068 168.5,176.5C 167.132,175.528 165.632,174.528 164,173.5C 162.878,171.593 162.045,169.593 161.5,167.5C 161.167,165.5 160.833,163.5 160.5,161.5 Z"/></g>
<g><path style="opacity:1" fill="#311f18" d="M 181.5,171.5 C 184.167,172.167 186.833,172.833 189.5,173.5C 189.179,175.048 188.179,175.715 186.5,175.5C 183.455,175.492 180.455,175.159 177.5,174.5C 178.035,172.554 179.368,171.554 181.5,171.5 Z"/></g>
<g><path style="opacity:1" fill="#ebbdb3" d="M 128.5,172.5 C 127.542,174.302 126.875,176.302 126.5,178.5C 122.5,179.608 118.5,179.442 114.5,178C 115.138,176.293 115.138,174.46 114.5,172.5C 113.5,172.5 112.5,172.5 111.5,172.5C 111.5,173.5 111.5,174.5 111.5,175.5C 110.07,175.421 108.736,175.754 107.5,176.5C 104.942,179.799 102.275,182.966 99.5,186C 98.2068,186.49 96.8734,186.657 95.5,186.5C 95.824,179.646 95.4907,172.979 94.5,166.5C 93.857,161.669 93.5236,157.336 93.5,153.5C 94.1174,153.611 94.6174,153.944 95,154.5C 95.2492,153.376 95.7492,152.376 96.5,151.5C 101.126,152.471 105.792,153.304 110.5,154C 111.155,155.487 112.155,156.653 113.5,157.5C 114.967,156.305 116.467,156.305 118,157.5C 119.546,155.759 121.546,154.759 124,154.5C 125.167,154.833 126.333,155.167 127.5,155.5C 127.189,161.094 127.523,166.761 128.5,172.5 Z"/></g>
<g><path style="opacity:1" fill="#483b35" d="M 189.5,173.5 C 191.982,175.957 194.316,175.957 196.5,173.5C 196.833,173.5 197.167,173.5 197.5,173.5C 197.5,177.167 197.5,180.833 197.5,184.5C 196.833,184.5 196.167,184.5 195.5,184.5C 194.167,184.167 192.833,183.833 191.5,183.5C 192.785,182.215 194.119,180.881 195.5,179.5C 195.043,178.702 194.376,178.369 193.5,178.5C 191.145,177.341 188.812,176.341 186.5,175.5C 188.179,175.715 189.179,175.048 189.5,173.5 Z"/></g>
<g><path style="opacity:1" fill="#503d34" d="M 171.5,174.5 C 177.873,176.999 184.206,179.333 190.5,181.5C 189.486,182.674 188.153,183.34 186.5,183.5C 181.6,181.527 176.6,179.527 171.5,177.5C 170.702,177.957 170.369,178.624 170.5,179.5C 169.094,179.027 168.427,178.027 168.5,176.5C 169.71,176.068 170.71,175.401 171.5,174.5 Z"/></g>
<g><path style="opacity:1" fill="#695044" d="M 168.5,171.5 C 169.833,171.5 171.167,171.5 172.5,171.5C 173.401,173.727 175.067,174.727 177.5,174.5C 180.455,175.159 183.455,175.492 186.5,175.5C 188.812,176.341 191.145,177.341 193.5,178.5C 192.833,179.833 191.833,180.833 190.5,181.5C 184.206,179.333 177.873,176.999 171.5,174.5C 170.306,173.728 169.306,172.728 168.5,171.5 Z"/></g>
<g><path style="opacity:1" fill="#563323" d="M 78.5,168.5 C 78.8511,170.869 79.0178,173.203 79,175.5C 75.8511,179.223 73.1845,183.223 71,187.5C 70,188.833 69,188.833 68,187.5C 67.7996,189.32 66.9663,190.653 65.5,191.5C 63.8333,192.167 62.1667,192.833 60.5,193.5C 61.6005,192.395 62.2671,191.062 62.5,189.5C 64.2292,188.883 65.7292,187.883 67,186.5C 69.4407,179.569 73.274,173.569 78.5,168.5 Z"/></g>
<g><path style="opacity:1" fill="#ac7a69" d="M 73.5,145.5 C 74.5493,152.619 77.0493,159.285 81,165.5C 81.1276,162.486 81.1276,159.486 81,156.5C 81.6667,157.833 82.3333,159.167 83,160.5C 83.1667,159.667 83.3333,158.833 83.5,158C 82.9265,156.393 82.2598,154.893 81.5,153.5C 82.609,153.557 83.609,153.89 84.5,154.5C 86.2155,155.574 87.2155,157.241 87.5,159.5C 83.5237,161.887 83.6904,164.887 88,168.5C 88.5864,165.981 89.7531,163.981 91.5,162.5C 91.3203,166.215 91.6536,169.882 92.5,173.5C 91.9641,176.205 90.4641,178.205 88,179.5C 87.235,181.066 87.4017,182.399 88.5,183.5C 90.6882,189.885 94.3549,195.218 99.5,199.5C 99.5,199.833 99.5,200.167 99.5,200.5C 97.9382,200.267 96.6049,199.6 95.5,198.5C 93.1667,195.167 90.8333,191.833 88.5,188.5C 87.6608,185.145 85.6608,182.812 82.5,181.5C 81.2888,182.274 81.2888,183.107 82.5,184C 76.919,185.155 74.919,188.321 76.5,193.5C 74.7224,195.264 73.3891,197.264 72.5,199.5C 67.9716,201.267 63.6383,203.267 59.5,205.5C 60.0749,202.088 61.4082,199.088 63.5,196.5C 67.2411,192.353 71.4077,188.686 76,185.5C 77.1257,181.475 78.6257,177.642 80.5,174C 80.2994,171.889 79.6327,170.055 78.5,168.5C 76.9669,163.092 75.1336,157.759 73,152.5C 72.586,152.043 72.086,151.709 71.5,151.5C 70.693,157.339 69.693,163.006 68.5,168.5C 68.5,167.833 68.5,167.167 68.5,166.5C 68.5,165.167 68.5,163.833 68.5,162.5C 68.5,160.833 68.5,159.167 68.5,157.5C 69.4794,154.375 69.8128,151.042 69.5,147.5C 71.045,146.77 71.8784,145.437 72,143.5C 72.2784,144.416 72.7784,145.082 73.5,145.5 Z"/></g>
<g><path style="opacity:1" fill="#825041" d="M 82.5,166.5 C 84.4109,166.574 85.5776,167.574 86,169.5C 86.6667,173.5 86.6667,177.5 86,181.5C 84.8118,180.437 84.3118,179.103 84.5,177.5C 83.5,177.5 82.5,177.5 81.5,177.5C 81.244,173.731 81.5773,170.064 82.5,166.5 Z"/></g>
<g><path style="opacity:1" fill="#b18e7c" d="M 165.5,178.5 C 165.167,179.167 164.833,179.833 164.5,180.5C 163.596,181.209 163.263,182.209 163.5,183.5C 162.624,183.369 161.957,183.702 161.5,184.5C 162.857,186.186 164.19,187.852 165.5,189.5C 165.5,190.167 165.167,190.5 164.5,190.5C 163.833,190.167 163.167,189.833 162.5,189.5C 161.313,187.025 159.313,186.025 156.5,186.5C 157.09,185.234 157.59,183.901 158,182.5C 158.654,183.696 159.154,183.696 159.5,182.5C 158.469,181.3 157.635,179.966 157,178.5C 155.589,172.775 154.089,167.108 152.5,161.5C 152.34,159.801 152.506,158.134 153,156.5C 154.08,163.494 156.08,170.161 159,176.5C 161.083,178.338 163.25,179.005 165.5,178.5 Z"/></g>
<g><path style="opacity:1" fill="#d09d8e" d="M 149.5,164.5 C 145.866,168.144 142.533,172.144 139.5,176.5C 141.249,178.531 143.249,178.865 145.5,177.5C 149.093,180.667 152.76,183.667 156.5,186.5C 156.079,188.91 154.746,190.743 152.5,192C 149.94,192.384 147.606,193.217 145.5,194.5C 145.5,193.167 145.5,191.833 145.5,190.5C 141.833,190.167 139.833,188.167 139.5,184.5C 135.167,182.724 131.167,183.224 127.5,186C 121.128,192.269 113.961,197.436 106,201.5C 105.689,202.742 106.189,203.742 107.5,204.5C 106.147,205.524 105.48,206.857 105.5,208.5C 104.5,208.5 103.5,208.5 102.5,208.5C 102.5,207.5 102.5,206.5 102.5,205.5C 100.669,206.052 99.0026,206.052 97.5,205.5C 99.0049,204.158 99.6715,202.492 99.5,200.5C 99.5,200.167 99.5,199.833 99.5,199.5C 101.857,199.663 104.19,199.497 106.5,199C 115.903,193.747 124.57,187.58 132.5,180.5C 136.876,177.126 140.542,173.126 143.5,168.5C 145.463,167.04 147.296,165.373 149,163.5C 149.399,163.728 149.565,164.062 149.5,164.5 Z"/></g>
<g><path style="opacity:1" fill="#c28f82" d="M 93.5,182.5 C 93.631,183.239 93.4643,183.906 93,184.5C 92,182.833 90.6667,181.5 89,180.5C 88.5172,181.448 88.3505,182.448 88.5,183.5C 87.4017,182.399 87.235,181.066 88,179.5C 90.4641,178.205 91.9641,176.205 92.5,173.5C 91.6536,169.882 91.3203,166.215 91.5,162.5C 91.4729,160.801 90.8062,159.467 89.5,158.5C 90.4959,158.586 91.3292,158.252 92,157.5C 93.2382,165.787 93.7382,174.12 93.5,182.5 Z"/></g>
<g><path style="opacity:1" fill="#daaf9d" d="M 152.5,161.5 C 154.089,167.108 155.589,172.775 157,178.5C 157.635,179.966 158.469,181.3 159.5,182.5C 159.154,183.696 158.654,183.696 158,182.5C 157.59,183.901 157.09,185.234 156.5,186.5C 152.76,183.667 149.093,180.667 145.5,177.5C 143.249,178.865 141.249,178.531 139.5,176.5C 142.533,172.144 145.866,168.144 149.5,164.5C 150.323,161.023 150.823,157.356 151,153.5C 151.183,156.365 151.683,159.031 152.5,161.5 Z"/></g>
<g><path style="opacity:1" fill="#312620" d="M 165.5,178.5 C 168.938,180.759 172.271,183.259 175.5,186C 170.921,185.975 167.254,184.141 164.5,180.5C 164.833,179.833 165.167,179.167 165.5,178.5 Z"/></g>
<g><path style="opacity:1" fill="#28201f" d="M 186.5,183.5 C 182.818,183.665 179.152,183.499 175.5,183C 173.654,181.97 171.987,180.804 170.5,179.5C 170.369,178.624 170.702,177.957 171.5,177.5C 176.6,179.527 181.6,181.527 186.5,183.5 Z"/></g>
<g><path style="opacity:1" fill="#aa7f65" d="M 55.5,162.5 C 56.6776,169.548 56.5109,176.548 55,183.5C 52.6297,190.573 49.463,197.239 45.5,203.5C 40.2183,209.565 35.385,215.565 31,221.5C 30.6666,219.953 31.1666,218.62 32.5,217.5C 32.3764,216.893 32.0431,216.56 31.5,216.5C 31.1164,212.511 31.783,208.845 33.5,205.5C 33.369,206.239 33.5357,206.906 34,207.5C 34.7096,206.027 35.8762,205.36 37.5,205.5C 40.4265,198.734 43.5931,192.067 47,185.5C 48.3368,180.429 48.8368,175.429 48.5,170.5C 51.275,167.447 53.6083,164.78 55.5,162.5 Z"/></g>
<g><path style="opacity:1" fill="#564239" d="M 163.5,183.5 C 164.673,185.504 166.34,187.004 168.5,188C 171.471,188.794 174.471,189.461 177.5,190C 173.463,190.607 169.463,190.44 165.5,189.5C 164.19,187.852 162.857,186.186 161.5,184.5C 161.957,183.702 162.624,183.369 163.5,183.5 Z"/></g>
<g><path style="opacity:1" fill="#784a3b" d="M 78.5,168.5 C 79.6327,170.055 80.2994,171.889 80.5,174C 78.6257,177.642 77.1257,181.475 76,185.5C 71.4077,188.686 67.2411,192.353 63.5,196.5C 64.1667,194.833 64.8333,193.167 65.5,191.5C 66.9663,190.653 67.7996,189.32 68,187.5C 69,188.833 70,188.833 71,187.5C 73.1845,183.223 75.8511,179.223 79,175.5C 79.0178,173.203 78.8511,170.869 78.5,168.5 Z"/></g>
<g><path style="opacity:1" fill="#8b614c" d="M 30.5,206.5 C 29.8764,209.607 28.8764,212.607 27.5,215.5C 26.645,213.392 25.9784,211.226 25.5,209C 27.7941,200.94 30.4607,193.107 33.5,185.5C 35.0931,184.652 36.2597,183.319 37,181.5C 37.3242,183.569 38.1575,183.902 39.5,182.5C 40.7841,179.718 42.6175,177.385 45,175.5C 46.023,176.6 46.523,177.933 46.5,179.5C 43.98,184.225 42.1466,189.225 41,194.5C 40.3457,195.696 39.8457,195.696 39.5,194.5C 40.8897,192.831 41.2231,191.164 40.5,189.5C 39.218,191.179 38.218,193.013 37.5,195C 36.8333,195.667 36.1667,195.667 35.5,195C 37.2603,194.035 37.5937,192.868 36.5,191.5C 32.1855,195.909 30.1855,200.909 30.5,206.5 Z"/></g>
<g><path style="opacity:1" fill="#b38367" d="M 68.5,166.5 C 68.5,167.167 68.5,167.833 68.5,168.5C 67.8953,175.922 65.8953,182.922 62.5,189.5C 60.6075,190.702 58.7742,192.035 57,193.5C 57.3451,189.432 58.3451,185.432 60,181.5C 60.7958,178.961 60.6291,176.628 59.5,174.5C 59.2114,171.351 59.7114,168.351 61,165.5C 61.3333,170.167 61.6667,174.833 62,179.5C 62.9722,175.857 63.8055,172.19 64.5,168.5C 65.5769,167.295 66.9102,166.628 68.5,166.5 Z"/></g>
<g><path style="opacity:1" fill="#776760" d="M 168.5,176.5 C 168.427,178.027 169.094,179.027 170.5,179.5C 171.987,180.804 173.654,181.97 175.5,183C 179.152,183.499 182.818,183.665 186.5,183.5C 188.153,183.34 189.486,182.674 190.5,181.5C 191.833,180.833 192.833,179.833 193.5,178.5C 194.376,178.369 195.043,178.702 195.5,179.5C 194.119,180.881 192.785,182.215 191.5,183.5C 184.427,189.866 176.093,193.2 166.5,193.5C 165.081,192.995 164.415,191.995 164.5,190.5C 165.167,190.5 165.5,190.167 165.5,189.5C 169.463,190.44 173.463,190.607 177.5,190C 174.471,189.461 171.471,188.794 168.5,188C 166.34,187.004 164.673,185.504 163.5,183.5C 163.263,182.209 163.596,181.209 164.5,180.5C 167.254,184.141 170.921,185.975 175.5,186C 172.271,183.259 168.938,180.759 165.5,178.5C 166.29,177.599 167.29,176.932 168.5,176.5 Z"/></g>
<g><path style="opacity:1" fill="#c98e7e" d="M 88.5,188.5 C 85.5416,189.467 83.8749,191.467 83.5,194.5C 80.9956,194.828 79.1622,196.162 78,198.5C 77.6667,198.167 77.3333,197.833 77,197.5C 75.8904,199.037 74.3904,199.703 72.5,199.5C 73.3891,197.264 74.7224,195.264 76.5,193.5C 74.919,188.321 76.919,185.155 82.5,184C 81.2888,183.107 81.2888,182.274 82.5,181.5C 85.6608,182.812 87.6608,185.145 88.5,188.5 Z"/></g>
<g><path style="opacity:1" fill="#222632" d="M 191.5,183.5 C 192.833,183.833 194.167,184.167 195.5,184.5C 195.666,192.174 195.5,199.841 195,207.5C 194.667,204.5 194.333,201.5 194,198.5C 192.333,199.833 190.667,199.833 189,198.5C 190.199,203.325 188.199,205.992 183,206.5C 182.256,212.065 180.756,217.398 178.5,222.5C 179.618,225.155 179.618,227.822 178.5,230.5C 177.833,230.5 177.167,230.5 176.5,230.5C 176.928,224.791 177.594,219.124 178.5,213.5C 178.167,212.833 177.833,212.167 177.5,211.5C 178.962,211.935 179.962,211.102 180.5,209C 179.258,203.07 178.424,203.236 178,209.5C 177.085,208.672 176.419,207.672 176,206.5C 175.024,208.887 173.191,210.054 170.5,210C 169.667,211.5 168.5,212.667 167,213.5C 166.667,212.833 166.333,212.167 166,211.5C 164.601,211.501 163.101,211.835 161.5,212.5C 161.167,212.333 160.833,212.167 160.5,212C 162.944,209.605 165.61,207.438 168.5,205.5C 167.319,204.691 165.986,204.691 164.5,205.5C 163.353,205.182 162.519,204.516 162,203.5C 161.667,204.167 161.333,204.833 161,205.5C 159.883,204.051 159.216,202.384 159,200.5C 157.661,202.665 156.161,204.665 154.5,206.5C 154.833,207.167 155.167,207.833 155.5,208.5C 156.711,207.726 156.711,206.893 155.5,206C 157.074,205.301 158.407,205.635 159.5,207C 157.612,209.19 155.445,211.023 153,212.5C 151.768,210.173 150.268,209.006 148.5,209C 148.63,207.941 149.13,207.108 150,206.5C 150.893,207.711 151.726,207.711 152.5,206.5C 150.887,205.573 149.221,204.739 147.5,204C 150.844,202.106 152.178,199.273 151.5,195.5C 153.711,195.102 156.044,194.936 158.5,195C 159.977,193.188 161.31,191.355 162.5,189.5C 163.167,189.833 163.833,190.167 164.5,190.5C 164.415,191.995 165.081,192.995 166.5,193.5C 176.093,193.2 184.427,189.866 191.5,183.5 Z"/></g>
<g><path style="opacity:1" fill="#9b7159" d="M 48.5,170.5 C 48.8368,175.429 48.3368,180.429 47,185.5C 43.5931,192.067 40.4265,198.734 37.5,205.5C 35.8762,205.36 34.7096,206.027 34,207.5C 33.5357,206.906 33.369,206.239 33.5,205.5C 33.631,204.761 33.4643,204.094 33,203.5C 32.1482,204.571 31.3149,205.571 30.5,206.5C 30.1855,200.909 32.1855,195.909 36.5,191.5C 37.5937,192.868 37.2603,194.035 35.5,195C 36.1667,195.667 36.8333,195.667 37.5,195C 38.218,193.013 39.218,191.179 40.5,189.5C 41.2231,191.164 40.8897,192.831 39.5,194.5C 39.8457,195.696 40.3457,195.696 41,194.5C 42.1466,189.225 43.98,184.225 46.5,179.5C 46.523,177.933 46.023,176.6 45,175.5C 42.6175,177.385 40.7841,179.718 39.5,182.5C 38.1575,183.902 37.3242,183.569 37,181.5C 36.2597,183.319 35.0931,184.652 33.5,185.5C 34.1098,184.609 34.4431,183.609 34.5,182.5C 36.1667,179.5 38.5,177.167 41.5,175.5C 44.0934,174.246 46.4268,172.58 48.5,170.5 Z"/></g>
<g><path style="opacity:1" fill="#a27b65" d="M 59.5,174.5 C 60.6291,176.628 60.7958,178.961 60,181.5C 58.3451,185.432 57.3451,189.432 57,193.5C 58.7742,192.035 60.6075,190.702 62.5,189.5C 62.2671,191.062 61.6005,192.395 60.5,193.5C 54.434,199.561 48.7673,205.894 43.5,212.5C 42.6618,212.842 42.3284,213.508 42.5,214.5C 36.8012,219.198 31.8012,224.531 27.5,230.5C 26.8333,230.5 26.1667,230.5 25.5,230.5C 26.3201,228.86 27.1534,227.193 28,225.5C 36.0184,219.739 41.8518,212.406 45.5,203.5C 53.0973,195.304 57.764,185.637 59.5,174.5 Z"/></g>
<g><path style="opacity:1" fill="#482f28" d="M 65.5,191.5 C 64.8333,193.167 64.1667,194.833 63.5,196.5C 61.4082,199.088 60.0749,202.088 59.5,205.5C 59.1667,206.167 58.8333,206.833 58.5,207.5C 57.29,210.889 55.9566,214.222 54.5,217.5C 55.0599,213.807 55.7265,210.14 56.5,206.5C 56.44,205.957 56.1067,205.624 55.5,205.5C 51.2527,207.582 47.4194,210.249 44,213.5C 43.6012,213.272 43.4346,212.938 43.5,212.5C 48.7673,205.894 54.434,199.561 60.5,193.5C 62.1667,192.833 63.8333,192.167 65.5,191.5 Z"/></g>
<g><path style="opacity:1" fill="#e7b6a9" d="M 145.5,194.5 C 145.167,195.167 144.833,195.833 144.5,196.5C 143.448,196.351 142.448,196.517 141.5,197C 140.167,197.667 140.167,198.333 141.5,199C 137.915,200.758 135.249,203.258 133.5,206.5C 130.593,206.575 127.927,207.409 125.5,209C 123.937,209.759 122.937,210.926 122.5,212.5C 119.421,214.545 116.088,216.378 112.5,218C 107.02,221.719 102.02,225.886 97.5,230.5C 95.5,230.5 93.5,230.5 91.5,230.5C 88.9715,224.652 90.6382,220.652 96.5,218.5C 97.9242,216.709 99.2576,214.875 100.5,213C 98.5506,211.165 96.2173,209.999 93.5,209.5C 92.2117,206.966 92.2117,204.466 93.5,202C 93,201.833 92.5,201.667 92,201.5C 89.6747,203.774 86.8414,204.941 83.5,205C 82.7107,208.097 81.544,208.264 80,205.5C 78.2691,207.617 76.1024,209.117 73.5,210C 72.1667,210.667 72.1667,211.333 73.5,212C 69.6548,212.31 66.9881,214.143 65.5,217.5C 64.914,217.291 64.414,216.957 64,216.5C 62.3219,219.555 59.9886,221.888 57,223.5C 56.023,225.74 55.523,228.073 55.5,230.5C 55.1667,230.5 54.8333,230.5 54.5,230.5C 54.443,225.259 55.443,220.259 57.5,215.5C 58.7382,216.412 60.0715,216.579 61.5,216C 67.2823,212.928 72.6157,209.095 77.5,204.5C 80.1071,203.682 82.7737,203.182 85.5,203C 87.492,202.426 88.992,201.259 90,199.5C 90.3333,199.833 90.6667,200.167 91,200.5C 92.4705,199.733 93.9705,199.067 95.5,198.5C 96.6049,199.6 97.9382,200.267 99.5,200.5C 99.6715,202.492 99.0049,204.158 97.5,205.5C 99.0026,206.052 100.669,206.052 102.5,205.5C 102.5,206.5 102.5,207.5 102.5,208.5C 103.5,208.5 104.5,208.5 105.5,208.5C 105.48,206.857 106.147,205.524 107.5,204.5C 106.189,203.742 105.689,202.742 106,201.5C 113.961,197.436 121.128,192.269 127.5,186C 131.167,183.224 135.167,182.724 139.5,184.5C 139.833,188.167 141.833,190.167 145.5,190.5C 145.5,191.833 145.5,193.167 145.5,194.5 Z"/></g>
<g><path style="opacity:1" fill="#282c39" d="M 195.5,184.5 C 196.167,184.5 196.833,184.5 197.5,184.5C 197.5,199.833 197.5,215.167 197.5,230.5C 191.167,230.5 184.833,230.5 178.5,230.5C 179.618,227.822 179.618,225.155 178.5,222.5C 180.756,217.398 182.256,212.065 183,206.5C 188.199,205.992 190.199,203.325 189,198.5C 190.667,199.833 192.333,199.833 194,198.5C 194.333,201.5 194.667,204.5 195,207.5C 195.5,199.841 195.666,192.174 195.5,184.5 Z"/></g>
<g><path style="opacity:1" fill="#c4a5a1" d="M 144.5,196.5 C 144.631,197.239 144.464,197.906 144,198.5C 140.535,200.963 137.369,203.796 134.5,207C 131.199,208.318 128.199,210.152 125.5,212.5C 124.473,211.209 123.473,211.209 122.5,212.5C 122.937,210.926 123.937,209.759 125.5,209C 127.927,207.409 130.593,206.575 133.5,206.5C 135.249,203.258 137.915,200.758 141.5,199C 140.167,198.333 140.167,197.667 141.5,197C 142.448,196.517 143.448,196.351 144.5,196.5 Z"/></g>
<g><path style="opacity:1" fill="#d7a293" d="M 88.5,188.5 C 90.8333,191.833 93.1667,195.167 95.5,198.5C 93.9705,199.067 92.4705,199.733 91,200.5C 90.6667,200.167 90.3333,199.833 90,199.5C 88.992,201.259 87.492,202.426 85.5,203C 82.7737,203.182 80.1071,203.682 77.5,204.5C 72.6157,209.095 67.2823,212.928 61.5,216C 60.0715,216.579 58.7382,216.412 57.5,215.5C 57.8333,212.833 58.1667,210.167 58.5,207.5C 58.8333,206.833 59.1667,206.167 59.5,205.5C 63.6383,203.267 67.9716,201.267 72.5,199.5C 74.3904,199.703 75.8904,199.037 77,197.5C 77.3333,197.833 77.6667,198.167 78,198.5C 79.1622,196.162 80.9956,194.828 83.5,194.5C 83.8749,191.467 85.5416,189.467 88.5,188.5 Z"/></g>
<g><path style="opacity:1" fill="#ecc2b7" d="M 91.5,230.5 C 79.5,230.5 67.5,230.5 55.5,230.5C 55.523,228.073 56.023,225.74 57,223.5C 59.9886,221.888 62.3219,219.555 64,216.5C 64.414,216.957 64.914,217.291 65.5,217.5C 66.9881,214.143 69.6548,212.31 73.5,212C 72.1667,211.333 72.1667,210.667 73.5,210C 76.1024,209.117 78.2691,207.617 80,205.5C 81.544,208.264 82.7107,208.097 83.5,205C 86.8414,204.941 89.6747,203.774 92,201.5C 92.5,201.667 93,201.833 93.5,202C 92.2117,204.466 92.2117,206.966 93.5,209.5C 96.2173,209.999 98.5506,211.165 100.5,213C 99.2576,214.875 97.9242,216.709 96.5,218.5C 90.6382,220.652 88.9715,224.652 91.5,230.5 Z"/></g>
<g><path style="opacity:1" fill="#242a37" d="M 151.5,195.5 C 152.178,199.273 150.844,202.106 147.5,204C 149.221,204.739 150.887,205.573 152.5,206.5C 151.726,207.711 150.893,207.711 150,206.5C 149.13,207.108 148.63,207.941 148.5,209C 150.268,209.006 151.768,210.173 153,212.5C 155.445,211.023 157.612,209.19 159.5,207C 158.407,205.635 157.074,205.301 155.5,206C 156.711,206.893 156.711,207.726 155.5,208.5C 155.167,207.833 154.833,207.167 154.5,206.5C 156.161,204.665 157.661,202.665 159,200.5C 159.216,202.384 159.883,204.051 161,205.5C 161.333,204.833 161.667,204.167 162,203.5C 162.519,204.516 163.353,205.182 164.5,205.5C 165.986,204.691 167.319,204.691 168.5,205.5C 165.61,207.438 162.944,209.605 160.5,212C 160.833,212.167 161.167,212.333 161.5,212.5C 163.101,211.835 164.601,211.501 166,211.5C 166.333,212.167 166.667,212.833 167,213.5C 168.5,212.667 169.667,211.5 170.5,210C 173.191,210.054 175.024,208.887 176,206.5C 176.419,207.672 177.085,208.672 178,209.5C 178.424,203.236 179.258,203.07 180.5,209C 179.962,211.102 178.962,211.935 177.5,211.5C 177.833,212.167 178.167,212.833 178.5,213.5C 177.594,219.124 176.928,224.791 176.5,230.5C 163.833,230.5 151.167,230.5 138.5,230.5C 139.602,228.908 138.935,228.075 136.5,228C 140.111,227.744 141.111,226.078 139.5,223C 140.835,221.326 142.169,219.659 143.5,218C 135.703,217.449 135.703,216.449 143.5,215C 146.184,212.017 145.684,209.517 142,207.5C 140.527,209.046 138.694,210.046 136.5,210.5C 135.5,210.333 134.5,210.167 133.5,210C 134.416,209.722 135.082,209.222 135.5,208.5C 138.072,204.253 141.738,201.586 146.5,200.5C 146.33,197.509 147.663,195.509 150.5,194.5C 151.107,194.624 151.44,194.957 151.5,195.5 Z"/></g>
<g><path style="opacity:1" fill="#a98872" d="M 34.5,182.5 C 34.4431,183.609 34.1098,184.609 33.5,185.5C 30.4607,193.107 27.7941,200.94 25.5,209C 25.9784,211.226 26.645,213.392 27.5,215.5C 28.8764,212.607 29.8764,209.607 30.5,206.5C 31.3149,205.571 32.1482,204.571 33,203.5C 33.4643,204.094 33.631,204.761 33.5,205.5C 31.783,208.845 31.1164,212.511 31.5,216.5C 30.0578,218.637 28.8911,220.97 28,223.5C 27.3162,222.216 27.4829,221.049 28.5,220C 27.5509,219.383 26.7175,219.549 26,220.5C 25.6667,219.167 25.3333,217.833 25,216.5C 23.6211,221.036 23.1211,225.703 23.5,230.5C 22.8333,230.5 22.1667,230.5 21.5,230.5C 21.3336,221.494 21.5002,212.494 22,203.5C 24.6558,195.509 28.8224,188.509 34.5,182.5 Z"/></g>
<g><path style="opacity:1" fill="#362a2f" d="M 156.5,186.5 C 159.313,186.025 161.313,187.025 162.5,189.5C 161.31,191.355 159.977,193.188 158.5,195C 156.044,194.936 153.711,195.102 151.5,195.5C 151.44,194.957 151.107,194.624 150.5,194.5C 147.663,195.509 146.33,197.509 146.5,200.5C 141.738,201.586 138.072,204.253 135.5,208.5C 134.5,208.5 133.5,208.5 132.5,208.5C 132.579,209.93 132.246,211.264 131.5,212.5C 119.724,215.469 110.057,221.469 102.5,230.5C 100.833,230.5 99.1667,230.5 97.5,230.5C 102.02,225.886 107.02,221.719 112.5,218C 116.088,216.378 119.421,214.545 122.5,212.5C 123.473,211.209 124.473,211.209 125.5,212.5C 128.199,210.152 131.199,208.318 134.5,207C 137.369,203.796 140.535,200.963 144,198.5C 144.464,197.906 144.631,197.239 144.5,196.5C 144.833,195.833 145.167,195.167 145.5,194.5C 147.606,193.217 149.94,192.384 152.5,192C 154.746,190.743 156.079,188.91 156.5,186.5 Z"/></g>
<g><path style="opacity:1" fill="#69534a" d="M 56.5,206.5 C 50.0695,209.03 45.4028,213.363 42.5,219.5C 41.1127,221.877 40.2794,224.543 40,227.5C 39.123,222.791 39.9564,218.457 42.5,214.5C 42.3284,213.508 42.6618,212.842 43.5,212.5C 43.4346,212.938 43.6012,213.272 44,213.5C 47.4194,210.249 51.2527,207.582 55.5,205.5C 56.1067,205.624 56.44,205.957 56.5,206.5 Z"/></g>
<g><path style="opacity:1" fill="#a98981" d="M 58.5,207.5 C 58.1667,210.167 57.8333,212.833 57.5,215.5C 55.443,220.259 54.443,225.259 54.5,230.5C 54.1667,230.5 53.8333,230.5 53.5,230.5C 53.2307,226.069 53.564,221.735 54.5,217.5C 55.9566,214.222 57.29,210.889 58.5,207.5 Z"/></g>
<g><path style="opacity:1" fill="#bd987c" d="M 45.5,203.5 C 41.8518,212.406 36.0184,219.739 28,225.5C 27.1534,227.193 26.3201,228.86 25.5,230.5C 24.8333,230.5 24.1667,230.5 23.5,230.5C 23.1211,225.703 23.6211,221.036 25,216.5C 25.3333,217.833 25.6667,219.167 26,220.5C 26.7175,219.549 27.5509,219.383 28.5,220C 27.4829,221.049 27.3162,222.216 28,223.5C 28.8911,220.97 30.0578,218.637 31.5,216.5C 32.0431,216.56 32.3764,216.893 32.5,217.5C 31.1666,218.62 30.6666,219.953 31,221.5C 35.385,215.565 40.2183,209.565 45.5,203.5 Z"/></g>
<g><path style="opacity:1" fill="#352a29" d="M 56.5,206.5 C 55.7265,210.14 55.0599,213.807 54.5,217.5C 53.564,221.735 53.2307,226.069 53.5,230.5C 52.8333,230.5 52.1667,230.5 51.5,230.5C 51.5,225.833 51.5,221.167 51.5,216.5C 50.1667,216.5 48.8333,216.5 47.5,216.5C 46.6669,218.752 46.6669,220.919 47.5,223C 46.2845,225.096 45.4512,224.929 45,222.5C 44.1389,223.748 43.6389,225.081 43.5,226.5C 42.5222,226.189 41.8555,225.522 41.5,224.5C 42.3094,222.929 42.6427,221.262 42.5,219.5C 45.4028,213.363 50.0695,209.03 56.5,206.5 Z"/></g>
<g><path style="opacity:1" fill="#313038" d="M 51.5,230.5 C 48.8333,230.5 46.1667,230.5 43.5,230.5C 43.5,229.167 43.5,227.833 43.5,226.5C 43.6389,225.081 44.1389,223.748 45,222.5C 45.4512,224.929 46.2845,225.096 47.5,223C 46.6669,220.919 46.6669,218.752 47.5,216.5C 48.8333,216.5 50.1667,216.5 51.5,216.5C 51.5,221.167 51.5,225.833 51.5,230.5 Z"/></g>
<g><path style="opacity:1" fill="#1e2532" d="M 138.5,230.5 C 126.5,230.5 114.5,230.5 102.5,230.5C 110.057,221.469 119.724,215.469 131.5,212.5C 132.246,211.264 132.579,209.93 132.5,208.5C 133.5,208.5 134.5,208.5 135.5,208.5C 135.082,209.222 134.416,209.722 133.5,210C 134.5,210.167 135.5,210.333 136.5,210.5C 138.694,210.046 140.527,209.046 142,207.5C 145.684,209.517 146.184,212.017 143.5,215C 135.703,216.449 135.703,217.449 143.5,218C 142.169,219.659 140.835,221.326 139.5,223C 141.111,226.078 140.111,227.744 136.5,228C 138.935,228.075 139.602,228.908 138.5,230.5 Z"/></g>
<g><path style="opacity:1" fill="#4e3b33" d="M 42.5,214.5 C 39.9564,218.457 39.123,222.791 40,227.5C 40.2794,224.543 41.1127,221.877 42.5,219.5C 42.6427,221.262 42.3094,222.929 41.5,224.5C 41.8555,225.522 42.5222,226.189 43.5,226.5C 43.5,227.833 43.5,229.167 43.5,230.5C 38.1667,230.5 32.8333,230.5 27.5,230.5C 31.8012,224.531 36.8012,219.198 42.5,214.5 Z"/></g>
</svg>
