<?xml version="1.0" encoding="UTF-8"?>
<!DOCTYPE svg PUBLIC "-//W3C//DTD SVG 1.1//EN" "http://www.w3.org/Graphics/SVG/1.1/DTD/svg11.dtd">
<svg xmlns="http://www.w3.org/2000/svg" version="1.1" width="231px" height="231px" style="shape-rendering:geometricPrecision; text-rendering:geometricPrecision; image-rendering:optimizeQuality; fill-rule:evenodd; clip-rule:evenodd" xmlns:xlink="http://www.w3.org/1999/xlink">
<g><path style="opacity:1" fill="#26241e" d="M 133.5,19.5 C 138.599,22.9444 142.266,27.6111 144.5,33.5C 144.959,36.8774 145.626,40.2107 146.5,43.5C 146.576,51.0056 145.243,51.339 142.5,44.5C 141.675,43.6143 140.675,43.281 139.5,43.5C 139.208,38.0435 137.542,33.0435 134.5,28.5C 131.312,26.1457 128.645,23.3124 126.5,20C 123.568,19.0467 120.568,18.5467 117.5,18.5C 112.381,17.8969 107.715,18.5636 103.5,20.5C 100.15,20.335 96.8168,20.5017 93.5,21C 90.7251,22.649 87.7251,23.8157 84.5,24.5C 83.2867,24.2528 82.62,23.5862 82.5,22.5C 92.4527,11.4562 104.786,7.95621 119.5,12C 124.075,14.7583 128.742,17.2583 133.5,19.5 Z"/></g>
<g><path style="opacity:1" fill="#80807c" d="M 133.5,19.5 C 128.742,17.2583 124.075,14.7583 119.5,12C 104.786,7.95621 92.4527,11.4562 82.5,22.5C 78.7899,26.2079 75.4566,30.2079 72.5,34.5C 85.6263,8.73527 104.96,2.5686 130.5,16C 131.71,17.0391 132.71,18.2058 133.5,19.5 Z"/></g>
<g><path style="opacity:1" fill="#dba386" d="M 116.5,47.5 C 113.769,48.0271 111.102,48.8604 108.5,50C 107.978,50.5613 107.645,51.228 107.5,52C 108.016,56.5125 109.016,60.8459 110.5,65C 109.923,67.137 109.59,69.3037 109.5,71.5C 110.5,71.5 111.5,71.5 112.5,71.5C 113.093,77.4421 110.759,78.9421 105.5,76C 104.978,75.4387 104.645,74.772 104.5,74C 107.122,71.3669 107.122,68.8669 104.5,66.5C 104.113,62.0108 103.113,57.6775 101.5,53.5C 97.5132,52.2948 93.5132,52.2948 89.5,53.5C 87.1432,53.6633 84.8098,53.4966 82.5,53C 80.7174,51.9335 80.2174,50.4335 81,48.5C 81.7199,50.2552 82.8866,51.0885 84.5,51C 83.3705,46.9215 83.2039,42.7548 84,38.5C 88.4331,36.1251 91.5998,32.6251 93.5,28C 98.6811,27.2068 103.848,26.3735 109,25.5C 112.072,27.2167 115.239,28.5501 118.5,29.5C 118.5,30.5 118.5,31.5 118.5,32.5C 119.5,32.5 120.5,32.5 121.5,32.5C 122.465,36.7726 123.131,41.1059 123.5,45.5C 120.612,44.9898 118.279,45.6565 116.5,47.5 Z"/></g>
<g><path style="opacity:1" fill="#564840" d="M 103.5,20.5 C 103.5,20.8333 103.5,21.1667 103.5,21.5C 103.158,22.3382 102.492,22.6716 101.5,22.5C 92.781,21.9033 85.6144,24.9033 80,31.5C 76.3283,41.5655 75.495,51.8989 77.5,62.5C 77.4714,65.2695 76.8048,67.6028 75.5,69.5C 72.8982,67.2561 72.2315,64.4228 73.5,61C 70.992,58.6761 69.6586,55.8427 69.5,52.5C 71.5415,47.0345 72.5415,41.3678 72.5,35.5C 72.5,35.1667 72.5,34.8333 72.5,34.5C 75.4566,30.2079 78.7899,26.2079 82.5,22.5C 82.62,23.5862 83.2867,24.2528 84.5,24.5C 87.7251,23.8157 90.7251,22.649 93.5,21C 96.8168,20.5017 100.15,20.335 103.5,20.5 Z"/></g>
<g><path style="opacity:1" fill="#be8f72" d="M 103.5,21.5 C 107.182,21.3347 110.848,21.5014 114.5,22C 116.962,23.2156 119.629,23.8823 122.5,24C 123.376,25.5848 124.709,26.5848 126.5,27C 130.349,32.8812 132.349,39.3812 132.5,46.5C 130.833,46.5 129.167,46.5 127.5,46.5C 127.265,45.9033 126.765,45.5699 126,45.5C 123.114,47.2254 119.948,47.8921 116.5,47.5C 118.279,45.6565 120.612,44.9898 123.5,45.5C 123.131,41.1059 122.465,36.7726 121.5,32.5C 120.5,32.5 119.5,32.5 118.5,32.5C 118.5,31.5 118.5,30.5 118.5,29.5C 115.239,28.5501 112.072,27.2167 109,25.5C 103.848,26.3735 98.6811,27.2068 93.5,28C 91.5998,32.6251 88.4331,36.1251 84,38.5C 83.2039,42.7548 83.3705,46.9215 84.5,51C 82.8866,51.0885 81.7199,50.2552 81,48.5C 80.2174,50.4335 80.7174,51.9335 82.5,53C 84.8098,53.4966 87.1432,53.6633 89.5,53.5C 88.834,55.6734 87.6674,56.0067 86,54.5C 84.3566,55.3146 82.8566,56.3146 81.5,57.5C 80.7784,57.0825 80.2784,56.4158 80,55.5C 79.1697,49.4724 79.3364,43.4724 80.5,37.5C 81.5195,36.3128 82.6861,35.3128 84,34.5C 84.2326,32.2199 85.066,30.2199 86.5,28.5C 91.135,25.2948 96.135,23.2948 101.5,22.5C 102.492,22.6716 103.158,22.3382 103.5,21.5 Z"/></g>
<g><path style="opacity:1" fill="#58473b" d="M 117.5,18.5 C 120.568,18.5467 123.568,19.0467 126.5,20C 128.645,23.3124 131.312,26.1457 134.5,28.5C 137.542,33.0435 139.208,38.0435 139.5,43.5C 140.675,43.281 141.675,43.6143 142.5,44.5C 145.243,51.339 146.576,51.0056 146.5,43.5C 147.485,47.6344 147.818,51.9677 147.5,56.5C 145.855,57.4787 144.521,58.812 143.5,60.5C 142.345,56.5734 141.512,52.5734 141,48.5C 138.626,46.461 136.626,44.1277 135,41.5C 134.497,33.6744 131.33,27.1744 125.5,22C 122.208,21.9964 119.542,20.8297 117.5,18.5 Z"/></g>
<g><path style="opacity:1" fill="#a77865" d="M 104.5,66.5 C 103.883,66.6107 103.383,66.944 103,67.5C 102.077,65.0758 100.577,63.0758 98.5,61.5C 95.3986,63.5792 92.0653,65.2459 88.5,66.5C 88.1667,66 87.8333,65.5 87.5,65C 88.3185,63.6812 89.3185,62.5145 90.5,61.5C 93.9758,60.9226 97.3091,59.9226 100.5,58.5C 96.5917,56.1083 92.5917,55.9416 88.5,58C 85.5093,59.8782 82.8427,62.0449 80.5,64.5C 80.448,62.0971 80.7814,59.7638 81.5,57.5C 82.8566,56.3146 84.3566,55.3146 86,54.5C 87.6674,56.0067 88.834,55.6734 89.5,53.5C 93.5132,52.2948 97.5132,52.2948 101.5,53.5C 103.113,57.6775 104.113,62.0108 104.5,66.5 Z"/></g>
<g><path style="opacity:1" fill="#daa18c" d="M 131.5,58.5 C 132.833,58.5 134.167,58.5 135.5,58.5C 134.601,62.6912 134.935,66.8579 136.5,71C 133.912,74.6941 132.245,78.8608 131.5,83.5C 130.325,82.1451 129.325,82.3117 128.5,84C 124.524,85.0027 121.524,83.836 119.5,80.5C 119.982,77.2791 119.982,73.9458 119.5,70.5C 120.675,70.719 121.675,70.3857 122.5,69.5C 121.147,68.4763 120.48,67.143 120.5,65.5C 123.083,64.5793 125.416,63.246 127.5,61.5C 128.795,60.5116 130.128,59.5116 131.5,58.5 Z"/></g>
<g><path style="opacity:1" fill="#c49277" d="M 129.5,108.5 C 129.5,107.5 129.5,106.5 129.5,105.5C 127.784,105.629 126.117,105.962 124.5,106.5C 123.898,104.662 123.565,102.829 123.5,101C 124.448,100.517 125.448,100.351 126.5,100.5C 126.703,98.6096 126.037,97.1096 124.5,96C 122.618,95.8019 120.952,95.3019 119.5,94.5C 122.969,95.1128 124.969,93.7794 125.5,90.5C 121.818,90.3347 118.152,90.5014 114.5,91C 112.007,92.2691 109.34,93.1024 106.5,93.5C 107.635,91.7868 109.302,91.1201 111.5,91.5C 111.5,90.5 111.5,89.5 111.5,88.5C 112.873,88.6567 114.207,88.49 115.5,88C 114.594,86.3005 114.261,84.4672 114.5,82.5C 116.322,82.1692 117.989,81.5025 119.5,80.5C 121.524,83.836 124.524,85.0027 128.5,84C 129.325,82.3117 130.325,82.1451 131.5,83.5C 132.245,78.8608 133.912,74.6941 136.5,71C 134.935,66.8579 134.601,62.6912 135.5,58.5C 134.167,58.5 132.833,58.5 131.5,58.5C 131.67,57.1779 131.337,56.0113 130.5,55C 132.218,54.654 133.885,54.154 135.5,53.5C 136.48,54.9814 137.647,56.3147 139,57.5C 139.278,69.4741 139.444,81.3075 139.5,93C 139.333,95.5 139.167,98 139,100.5C 136.923,102.076 135.423,104.076 134.5,106.5C 132.978,107.562 131.312,108.229 129.5,108.5 Z"/></g>
<g><path style="opacity:1" fill="#b19389" d="M 144.5,33.5 C 147.046,43.9666 150.046,54.2999 153.5,64.5C 149.746,77.6463 147.079,90.9797 145.5,104.5C 144.362,101.696 144.195,98.6965 145,95.5C 146.853,89.8087 148.02,83.9754 148.5,78C 145.307,70.8379 144.974,63.6712 147.5,56.5C 147.818,51.9677 147.485,47.6344 146.5,43.5C 145.626,40.2107 144.959,36.8774 144.5,33.5 Z"/></g>
<g><path style="opacity:1" fill="#c18b79" d="M 127.5,46.5 C 123.752,48.0918 119.752,48.9251 115.5,49C 114.833,49.6667 114.167,50.3333 113.5,51C 117.833,51.3333 122.167,51.6667 126.5,52C 127.167,52.6667 127.833,53.3333 128.5,54C 124.5,54.3333 120.5,54.6667 116.5,55C 116.043,55.414 115.709,55.914 115.5,56.5C 118.693,60.0093 122.693,61.676 127.5,61.5C 125.416,63.246 123.083,64.5793 120.5,65.5C 120.48,67.143 121.147,68.4763 122.5,69.5C 121.675,70.3857 120.675,70.719 119.5,70.5C 119.982,73.9458 119.982,77.2791 119.5,80.5C 117.989,81.5025 116.322,82.1692 114.5,82.5C 114.389,81.8826 114.056,81.3826 113.5,81C 110.518,80.502 107.518,80.3354 104.5,80.5C 103.716,76.1997 102.049,72.3664 99.5,69C 99.6448,68.228 99.9781,67.5613 100.5,67C 97.4424,69.4514 93.7757,70.9514 89.5,71.5C 88.3049,69.703 86.6382,68.703 84.5,68.5C 84.631,67.7611 84.4643,67.0944 84,66.5C 82.6976,65.9152 81.531,65.2485 80.5,64.5C 82.8427,62.0449 85.5093,59.8782 88.5,58C 92.5917,55.9416 96.5917,56.1083 100.5,58.5C 97.3091,59.9226 93.9758,60.9226 90.5,61.5C 89.3185,62.5145 88.3185,63.6812 87.5,65C 87.8333,65.5 88.1667,66 88.5,66.5C 92.0653,65.2459 95.3986,63.5792 98.5,61.5C 100.577,63.0758 102.077,65.0758 103,67.5C 103.383,66.944 103.883,66.6107 104.5,66.5C 107.122,68.8669 107.122,71.3669 104.5,74C 104.645,74.772 104.978,75.4387 105.5,76C 110.759,78.9421 113.093,77.4421 112.5,71.5C 111.5,71.5 110.5,71.5 109.5,71.5C 109.59,69.3037 109.923,67.137 110.5,65C 109.016,60.8459 108.016,56.5125 107.5,52C 107.645,51.228 107.978,50.5613 108.5,50C 111.102,48.8604 113.769,48.0271 116.5,47.5C 119.948,47.8921 123.114,47.2254 126,45.5C 126.765,45.5699 127.265,45.9033 127.5,46.5 Z"/></g>
<g><path style="opacity:1" fill="#bc967f" d="M 101.5,22.5 C 96.135,23.2948 91.135,25.2948 86.5,28.5C 85.066,30.2199 84.2326,32.2199 84,34.5C 82.6861,35.3128 81.5195,36.3128 80.5,37.5C 79.3364,43.4724 79.1697,49.4724 80,55.5C 80.2784,56.4158 80.7784,57.0825 81.5,57.5C 80.7814,59.7638 80.448,62.0971 80.5,64.5C 81.531,65.2485 82.6976,65.9152 84,66.5C 84.4643,67.0944 84.631,67.7611 84.5,68.5C 82.7538,69.2495 81.7538,70.5828 81.5,72.5C 83.2428,75.8665 85.0762,79.1998 87,82.5C 86.4591,87.662 88.2924,91.662 92.5,94.5C 93.086,94.2907 93.586,93.9574 94,93.5C 95.7936,96.2145 96.9603,99.2145 97.5,102.5C 100.35,105.182 103.016,108.016 105.5,111C 112.728,112.62 119.062,111.12 124.5,106.5C 126.117,105.962 127.784,105.629 129.5,105.5C 129.5,106.5 129.5,107.5 129.5,108.5C 128.284,110.451 126.618,111.951 124.5,113C 107.834,117.417 95.6678,111.917 88,96.5C 87.586,96.9574 87.086,97.2907 86.5,97.5C 83.7143,93.1139 82.0476,88.4472 81.5,83.5C 80.0751,78.6915 78.0751,74.0248 75.5,69.5C 76.8048,67.6028 77.4714,65.2695 77.5,62.5C 75.495,51.8989 76.3283,41.5655 80,31.5C 85.6144,24.9033 92.781,21.9033 101.5,22.5 Z"/></g>
<g><path style="opacity:1" fill="#766961" d="M 72.5,35.5 C 72.5415,41.3678 71.5415,47.0345 69.5,52.5C 69.6586,55.8427 70.992,58.6761 73.5,61C 72.2315,64.4228 72.8982,67.2561 75.5,69.5C 78.0751,74.0248 80.0751,78.6915 81.5,83.5C 81.3359,86.1873 81.5026,88.854 82,91.5C 83.9097,96.4483 86.0763,101.115 88.5,105.5C 89.5,105.5 90.5,105.5 91.5,105.5C 91.3213,111.404 91.9879,117.071 93.5,122.5C 93.5,124.833 93.5,127.167 93.5,129.5C 92.6909,127.708 92.1909,125.708 92,123.5C 91.4867,124.527 90.9867,125.527 90.5,126.5C 90.1583,127.338 89.4916,127.672 88.5,127.5C 90.2187,123.05 90.3854,118.384 89,113.5C 85.7453,107.992 82.7453,102.325 80,96.5C 76.0452,83.5877 72.3785,70.5877 69,57.5C 68.3333,52.8333 68.3333,48.1667 69,43.5C 69.7048,40.5243 70.8714,37.8577 72.5,35.5 Z"/></g>
<g><path style="opacity:1" fill="#d9a58d" d="M 114.5,82.5 C 114.261,84.4672 114.594,86.3005 115.5,88C 114.207,88.49 112.873,88.6567 111.5,88.5C 111.5,89.5 111.5,90.5 111.5,91.5C 109.302,91.1201 107.635,91.7868 106.5,93.5C 105.571,94.3149 104.571,95.1482 103.5,96C 105.289,96.5205 106.956,96.1871 108.5,95C 112.152,94.5014 115.818,94.3347 119.5,94.5C 120.952,95.3019 122.618,95.8019 124.5,96C 126.037,97.1096 126.703,98.6096 126.5,100.5C 125.448,100.351 124.448,100.517 123.5,101C 123.565,102.829 123.898,104.662 124.5,106.5C 119.062,111.12 112.728,112.62 105.5,111C 103.016,108.016 100.35,105.182 97.5,102.5C 96.9603,99.2145 95.7936,96.2145 94,93.5C 93.586,93.9574 93.086,94.2907 92.5,94.5C 88.2924,91.662 86.4591,87.662 87,82.5C 85.0762,79.1998 83.2428,75.8665 81.5,72.5C 81.7538,70.5828 82.7538,69.2495 84.5,68.5C 86.6382,68.703 88.3049,69.703 89.5,71.5C 93.7757,70.9514 97.4424,69.4514 100.5,67C 99.9781,67.5613 99.6448,68.228 99.5,69C 102.049,72.3664 103.716,76.1997 104.5,80.5C 107.518,80.3354 110.518,80.502 113.5,81C 114.056,81.3826 114.389,81.8826 114.5,82.5 Z"/></g>
<g><path style="opacity:1" fill="#98745f" d="M 117.5,18.5 C 119.542,20.8297 122.208,21.9964 125.5,22C 131.33,27.1744 134.497,33.6744 135,41.5C 136.626,44.1277 138.626,46.461 141,48.5C 141.512,52.5734 142.345,56.5734 143.5,60.5C 144.521,58.812 145.855,57.4787 147.5,56.5C 144.974,63.6712 145.307,70.8379 148.5,78C 148.02,83.9754 146.853,89.8087 145,95.5C 144.195,98.6965 144.362,101.696 145.5,104.5C 145.203,110.574 147.537,115.24 152.5,118.5C 151.448,118.351 150.448,118.517 149.5,119C 153.42,122.542 153.42,126.042 149.5,129.5C 149.665,126.482 149.498,123.482 149,120.5C 145.179,116.194 143.012,111.194 142.5,105.5C 138.528,106.949 135.194,109.449 132.5,113C 128.063,114.894 123.73,116.727 119.5,118.5C 110.214,121.029 101.881,119.362 94.5,113.5C 93.5159,116.428 93.1826,119.428 93.5,122.5C 91.9879,117.071 91.3213,111.404 91.5,105.5C 90.5,105.5 89.5,105.5 88.5,105.5C 86.0763,101.115 83.9097,96.4483 82,91.5C 81.5026,88.854 81.3359,86.1873 81.5,83.5C 82.0476,88.4472 83.7143,93.1139 86.5,97.5C 87.086,97.2907 87.586,96.9574 88,96.5C 95.6678,111.917 107.834,117.417 124.5,113C 126.618,111.951 128.284,110.451 129.5,108.5C 131.312,108.229 132.978,107.562 134.5,106.5C 135.423,104.076 136.923,102.076 139,100.5C 139.167,98 139.333,95.5 139.5,93C 139.444,81.3075 139.278,69.4741 139,57.5C 137.647,56.3147 136.48,54.9814 135.5,53.5C 133.885,54.154 132.218,54.654 130.5,55C 131.337,56.0113 131.67,57.1779 131.5,58.5C 130.128,59.5116 128.795,60.5116 127.5,61.5C 122.693,61.676 118.693,60.0093 115.5,56.5C 115.709,55.914 116.043,55.414 116.5,55C 120.5,54.6667 124.5,54.3333 128.5,54C 127.833,53.3333 127.167,52.6667 126.5,52C 122.167,51.6667 117.833,51.3333 113.5,51C 114.167,50.3333 114.833,49.6667 115.5,49C 119.752,48.9251 123.752,48.0918 127.5,46.5C 129.167,46.5 130.833,46.5 132.5,46.5C 132.349,39.3812 130.349,32.8812 126.5,27C 124.709,26.5848 123.376,25.5848 122.5,24C 119.629,23.8823 116.962,23.2156 114.5,22C 110.848,21.5014 107.182,21.3347 103.5,21.5C 103.5,21.1667 103.5,20.8333 103.5,20.5C 107.715,18.5636 112.381,17.8969 117.5,18.5 Z"/></g>
<g><path style="opacity:1" fill="#af7162" d="M 119.5,94.5 C 115.818,94.3347 112.152,94.5014 108.5,95C 106.956,96.1871 105.289,96.5205 103.5,96C 104.571,95.1482 105.571,94.3149 106.5,93.5C 109.34,93.1024 112.007,92.2691 114.5,91C 118.152,90.5014 121.818,90.3347 125.5,90.5C 124.969,93.7794 122.969,95.1128 119.5,94.5 Z"/></g>
<g><path style="opacity:1" fill="#b78d70" d="M 149.5,129.5 C 147.696,131.495 145.696,133.162 143.5,134.5C 141.544,132.886 139.544,131.219 137.5,129.5C 136.675,124.797 136.675,120.297 137.5,116C 136.167,115.333 134.833,115.333 133.5,116C 131.062,117.46 128.728,118.96 126.5,120.5C 124.423,119.063 122.09,118.396 119.5,118.5C 123.73,116.727 128.063,114.894 132.5,113C 135.194,109.449 138.528,106.949 142.5,105.5C 143.012,111.194 145.179,116.194 149,120.5C 149.498,123.482 149.665,126.482 149.5,129.5 Z"/></g>
<g><path style="opacity:1" fill="#ca9f80" d="M 119.5,118.5 C 122.09,118.396 124.423,119.063 126.5,120.5C 128.728,118.96 131.062,117.46 133.5,116C 134.833,115.333 136.167,115.333 137.5,116C 136.675,120.297 136.675,124.797 137.5,129.5C 139.544,131.219 141.544,132.886 143.5,134.5C 139.345,138.404 134.345,140.404 128.5,140.5C 132.078,139.317 135.078,137.15 137.5,134C 135.245,133.547 133.911,132.214 133.5,130C 134.256,126.875 134.589,123.709 134.5,120.5C 133.5,120.5 132.5,120.5 131.5,120.5C 131.649,121.552 131.483,122.552 131,123.5C 129.287,124.878 127.953,126.545 127,128.5C 125.701,129.98 124.034,130.646 122,130.5C 117.996,128.847 113.829,127.68 109.5,127C 107.824,125.823 106.491,124.323 105.5,122.5C 103.604,121.534 101.604,121.201 99.5,121.5C 99.335,124.85 99.5017,128.183 100,131.5C 103.465,133.632 106.299,136.465 108.5,140C 115.128,141.052 121.794,141.552 128.5,141.5C 119.297,143.421 110.297,142.588 101.5,139C 98.9983,135.667 96.3316,132.501 93.5,129.5C 93.5,127.167 93.5,124.833 93.5,122.5C 93.1826,119.428 93.5159,116.428 94.5,113.5C 101.881,119.362 110.214,121.029 119.5,118.5 Z"/></g>
<g><path style="opacity:0.753" fill="#8a8a8a" d="M 86.5,128.5 C 85.089,130.539 83.089,131.539 80.5,131.5C 82.1815,129.992 84.1815,128.992 86.5,128.5 Z"/></g>
<g><path style="opacity:1" fill="#ddaf8b" d="M 128.5,140.5 C 128.5,140.833 128.5,141.167 128.5,141.5C 121.794,141.552 115.128,141.052 108.5,140C 106.299,136.465 103.465,133.632 100,131.5C 99.5017,128.183 99.335,124.85 99.5,121.5C 101.604,121.201 103.604,121.534 105.5,122.5C 106.491,124.323 107.824,125.823 109.5,127C 113.829,127.68 117.996,128.847 122,130.5C 124.034,130.646 125.701,129.98 127,128.5C 127.953,126.545 129.287,124.878 131,123.5C 131.483,122.552 131.649,121.552 131.5,120.5C 132.5,120.5 133.5,120.5 134.5,120.5C 134.589,123.709 134.256,126.875 133.5,130C 133.911,132.214 135.245,133.547 137.5,134C 135.078,137.15 132.078,139.317 128.5,140.5 Z"/></g>
<g><path style="opacity:1" fill="#343534" d="M 90.5,126.5 C 91.3138,128.631 91.8138,130.964 92,133.5C 101.538,143.921 113.371,147.421 127.5,144C 134.806,140.56 142.472,138.393 150.5,137.5C 150.877,133.788 152.544,130.788 155.5,128.5C 153.908,132.628 152.908,136.962 152.5,141.5C 148.768,143.598 145.435,144.931 142.5,145.5C 141.886,150.031 143.886,152.197 148.5,152C 150.366,155.054 153.033,156.554 156.5,156.5C 156.676,160.192 155.009,162.192 151.5,162.5C 151.5,163.5 151.5,164.5 151.5,165.5C 155.224,165.05 157.391,166.717 158,170.5C 158.999,166.763 160.332,166.763 162,170.5C 164.091,169.5 165.757,170.167 167,172.5C 169.565,170.821 172.398,170.154 175.5,170.5C 175.5,171.5 175.5,172.5 175.5,173.5C 179.167,174.167 182.833,174.833 186.5,175.5C 189.136,167.254 189.136,158.921 186.5,150.5C 186.833,149.167 187.167,147.833 187.5,146.5C 189.183,152.901 191.016,159.234 193,165.5C 193.789,169.091 193.622,172.591 192.5,176C 193.025,176.692 193.692,177.192 194.5,177.5C 195.076,173.512 196.409,169.845 198.5,166.5C 197.69,162.902 197.357,159.402 197.5,156C 200.023,154.089 200.023,152.255 197.5,150.5C 198.531,149.3 199.365,147.966 200,146.5C 201.212,147.776 202.045,149.276 202.5,151C 200.416,152.907 200.416,154.573 202.5,156C 201.643,156.689 200.977,157.522 200.5,158.5C 201.122,161.37 201.789,164.204 202.5,167C 201.975,167.692 201.308,168.192 200.5,168.5C 199.38,174.555 198.047,180.555 196.5,186.5C 195.833,185.5 195.167,184.5 194.5,183.5C 194.245,192.515 192.912,201.515 190.5,210.5C 191.803,212.589 191.303,214.256 189,215.5C 187.344,224.665 186.01,224.332 185,214.5C 183.482,214.943 182.315,214.276 181.5,212.5C 184.182,209.665 183.516,208.498 179.5,209C 177.939,209.941 176.605,211.108 175.5,212.5C 175.808,213.308 176.308,213.975 177,214.5C 177.499,219.823 177.666,225.156 177.5,230.5C 170.167,230.5 162.833,230.5 155.5,230.5C 156.764,227.567 158.764,225.234 161.5,223.5C 160.619,222.029 159.286,221.196 157.5,221C 155.86,218.224 156.527,216.224 159.5,215C 158.833,214.333 158.167,213.667 157.5,213C 159.167,212 160.833,211 162.5,210C 160.543,208.254 159.543,206.088 159.5,203.5C 154.446,203.037 151.113,204.704 149.5,208.5C 146.357,205.309 147.024,203.643 151.5,203.5C 151.64,201.876 150.973,200.71 149.5,200C 151.932,198.913 151.598,198.413 148.5,198.5C 148.628,196.345 148.128,194.345 147,192.5C 144.341,191.065 141.508,190.065 138.5,189.5C 137.253,187.994 137.253,186.494 138.5,185C 140.167,184.667 141.833,184.333 143.5,184C 136.867,178.882 130.533,174.216 124.5,170C 123.663,168.989 123.33,167.822 123.5,166.5C 122.167,166.5 120.833,166.5 119.5,166.5C 119.707,169.745 118.207,171.745 115,172.5C 114.517,173.448 114.351,174.448 114.5,175.5C 116.288,175.215 117.955,175.548 119.5,176.5C 116.572,177.484 113.572,177.817 110.5,177.5C 110.5,176.167 110.5,174.833 110.5,173.5C 109.127,173.657 107.793,173.49 106.5,173C 107.833,172 109.167,171 110.5,170C 107.599,168.686 104.599,167.52 101.5,166.5C 102.274,165.289 103.107,165.289 104,166.5C 104.833,165.667 105.667,164.833 106.5,164C 106.056,162.467 105.723,160.967 105.5,159.5C 103.539,161.058 101.706,162.724 100,164.5C 99.5,164.333 99,164.167 98.5,164C 97.898,161.964 96.898,160.13 95.5,158.5C 95.7093,157.914 96.0426,157.414 96.5,157C 93.4025,155.39 90.0692,154.39 86.5,154C 85.5419,152.853 85.8753,151.853 87.5,151C 85.8333,150.333 84.1667,150.333 82.5,151C 79.5458,154.055 78.5458,157.555 79.5,161.5C 90.0193,163.709 90.0193,165.376 79.5,166.5C 77.1807,170.257 75.6807,174.257 75,178.5C 73.3831,177.464 73.2164,176.297 74.5,175C 71.9053,173.107 69.2386,173.107 66.5,175C 70.3757,181.326 69.3757,181.993 63.5,177C 60.854,176.503 58.1873,176.336 55.5,176.5C 54.9856,178.698 53.9856,180.698 52.5,182.5C 53.2634,183.719 54.2634,184.719 55.5,185.5C 54.9747,186.192 54.3081,186.692 53.5,187C 53.8333,187.333 54.1667,187.667 54.5,188C 52.8333,189 51.1667,190 49.5,191C 49.6932,192.645 49.8598,194.479 50,196.5C 50.8333,198.167 51.6667,199.833 52.5,201.5C 50.458,202.503 50.1246,203.837 51.5,205.5C 48.8997,208.041 48.8997,210.541 51.5,213C 49.5223,216.933 49.0223,221.1 50,225.5C 50.6667,224.833 51.3333,224.167 52,223.5C 52.7175,224.451 53.5509,224.617 54.5,224C 53.2309,221.861 53.2309,219.695 54.5,217.5C 55.9374,214.956 57.4374,214.956 59,217.5C 59.711,219.899 59.5443,222.232 58.5,224.5C 60.0863,226.173 60.7529,228.173 60.5,230.5C 44.1667,230.5 27.8333,230.5 11.5,230.5C 12.0473,212.383 13.714,194.383 16.5,176.5C 20.4714,168.874 24.8047,161.541 29.5,154.5C 31.3936,153.952 33.0603,152.952 34.5,151.5C 37.1581,156.983 37.8248,156.817 36.5,151C 37.6721,150.581 38.6721,149.915 39.5,149C 47.7272,145.713 55.7272,142.213 63.5,138.5C 68.5326,134.844 74.1993,132.511 80.5,131.5C 83.089,131.539 85.089,130.539 86.5,128.5C 86.8417,127.662 87.5084,127.328 88.5,127.5C 89.4916,127.672 90.1583,127.338 90.5,126.5 Z"/></g>
<g><path style="opacity:1" fill="#453a31" d="M 152.5,118.5 C 156.295,121.569 160.295,124.403 164.5,127C 178.501,132.184 192.501,137.018 206.5,141.5C 195.323,139.86 184.323,137.36 173.5,134C 168.498,128.889 162.498,127.056 155.5,128.5C 152.544,130.788 150.877,133.788 150.5,137.5C 142.472,138.393 134.806,140.56 127.5,144C 113.371,147.421 101.538,143.921 92,133.5C 91.8138,130.964 91.3138,128.631 90.5,126.5C 90.9867,125.527 91.4867,124.527 92,123.5C 92.1909,125.708 92.6909,127.708 93.5,129.5C 96.3316,132.501 98.9983,135.667 101.5,139C 110.297,142.588 119.297,143.421 128.5,141.5C 128.5,141.167 128.5,140.833 128.5,140.5C 134.345,140.404 139.345,138.404 143.5,134.5C 145.696,133.162 147.696,131.495 149.5,129.5C 153.42,126.042 153.42,122.542 149.5,119C 150.448,118.517 151.448,118.351 152.5,118.5 Z"/></g>
<g><path style="opacity:1" fill="#2d2e2d" d="M 206.5,141.5 C 209.689,142.514 212.522,144.18 215,146.5C 224.195,157.921 229.361,170.921 230.5,185.5C 230.5,200.5 230.5,215.5 230.5,230.5C 212.833,230.5 195.167,230.5 177.5,230.5C 177.666,225.156 177.499,219.823 177,214.5C 176.308,213.975 175.808,213.308 175.5,212.5C 176.605,211.108 177.939,209.941 179.5,209C 183.516,208.498 184.182,209.665 181.5,212.5C 182.315,214.276 183.482,214.943 185,214.5C 186.01,224.332 187.344,224.665 189,215.5C 191.303,214.256 191.803,212.589 190.5,210.5C 192.912,201.515 194.245,192.515 194.5,183.5C 195.167,184.5 195.833,185.5 196.5,186.5C 198.047,180.555 199.38,174.555 200.5,168.5C 201.308,168.192 201.975,167.692 202.5,167C 201.789,164.204 201.122,161.37 200.5,158.5C 200.977,157.522 201.643,156.689 202.5,156C 200.416,154.573 200.416,152.907 202.5,151C 202.045,149.276 201.212,147.776 200,146.5C 199.365,147.966 198.531,149.3 197.5,150.5C 200.023,152.255 200.023,154.089 197.5,156C 197.357,159.402 197.69,162.902 198.5,166.5C 196.409,169.845 195.076,173.512 194.5,177.5C 193.692,177.192 193.025,176.692 192.5,176C 193.622,172.591 193.789,169.091 193,165.5C 191.016,159.234 189.183,152.901 187.5,146.5C 187.167,147.833 186.833,149.167 186.5,150.5C 189.136,158.921 189.136,167.254 186.5,175.5C 182.833,174.833 179.167,174.167 175.5,173.5C 175.5,172.5 175.5,171.5 175.5,170.5C 172.398,170.154 169.565,170.821 167,172.5C 165.757,170.167 164.091,169.5 162,170.5C 160.332,166.763 158.999,166.763 158,170.5C 157.391,166.717 155.224,165.05 151.5,165.5C 151.5,164.5 151.5,163.5 151.5,162.5C 155.009,162.192 156.676,160.192 156.5,156.5C 153.033,156.554 150.366,155.054 148.5,152C 143.886,152.197 141.886,150.031 142.5,145.5C 145.435,144.931 148.768,143.598 152.5,141.5C 152.908,136.962 153.908,132.628 155.5,128.5C 162.498,127.056 168.498,128.889 173.5,134C 184.323,137.36 195.323,139.86 206.5,141.5 Z"/></g>
<g><path style="opacity:1" fill="#6d615c" d="M 63.5,138.5 C 55.7272,142.213 47.7272,145.713 39.5,149C 38.6721,149.915 37.6721,150.581 36.5,151C 37.8248,156.817 37.1581,156.983 34.5,151.5C 33.0603,152.952 31.3936,153.952 29.5,154.5C 32.7636,150.753 36.7636,147.92 41.5,146C 48.745,143.196 56.0784,140.696 63.5,138.5 Z"/></g>
<g><path style="opacity:0.839" fill="#979592" d="M 29.5,154.5 C 24.8047,161.541 20.4714,168.874 16.5,176.5C 16.1667,176.5 15.8333,176.5 15.5,176.5C 18.3068,170.886 21.1401,165.22 24,159.5C 25.7038,157.627 27.5372,155.96 29.5,154.5 Z"/></g>
<g><path style="opacity:1" fill="#393b3a" d="M 155.5,230.5 C 123.833,230.5 92.1667,230.5 60.5,230.5C 60.7529,228.173 60.0863,226.173 58.5,224.5C 59.5443,222.232 59.711,219.899 59,217.5C 57.4374,214.956 55.9374,214.956 54.5,217.5C 53.2309,219.695 53.2309,221.861 54.5,224C 53.5509,224.617 52.7175,224.451 52,223.5C 51.3333,224.167 50.6667,224.833 50,225.5C 49.0223,221.1 49.5223,216.933 51.5,213C 48.8997,210.541 48.8997,208.041 51.5,205.5C 50.1246,203.837 50.458,202.503 52.5,201.5C 51.6667,199.833 50.8333,198.167 50,196.5C 49.8598,194.479 49.6932,192.645 49.5,191C 51.1667,190 52.8333,189 54.5,188C 54.1667,187.667 53.8333,187.333 53.5,187C 54.3081,186.692 54.9747,186.192 55.5,185.5C 54.2634,184.719 53.2634,183.719 52.5,182.5C 53.9856,180.698 54.9856,178.698 55.5,176.5C 58.1873,176.336 60.854,176.503 63.5,177C 69.3757,181.993 70.3757,181.326 66.5,175C 69.2386,173.107 71.9053,173.107 74.5,175C 73.2164,176.297 73.3831,177.464 75,178.5C 75.6807,174.257 77.1807,170.257 79.5,166.5C 90.0193,165.376 90.0193,163.709 79.5,161.5C 78.5458,157.555 79.5458,154.055 82.5,151C 84.1667,150.333 85.8333,150.333 87.5,151C 85.8753,151.853 85.5419,152.853 86.5,154C 90.0692,154.39 93.4025,155.39 96.5,157C 96.0426,157.414 95.7093,157.914 95.5,158.5C 96.898,160.13 97.898,161.964 98.5,164C 99,164.167 99.5,164.333 100,164.5C 101.706,162.724 103.539,161.058 105.5,159.5C 105.723,160.967 106.056,162.467 106.5,164C 105.667,164.833 104.833,165.667 104,166.5C 103.107,165.289 102.274,165.289 101.5,166.5C 104.599,167.52 107.599,168.686 110.5,170C 109.167,171 107.833,172 106.5,173C 107.793,173.49 109.127,173.657 110.5,173.5C 110.5,174.833 110.5,176.167 110.5,177.5C 113.572,177.817 116.572,177.484 119.5,176.5C 117.955,175.548 116.288,175.215 114.5,175.5C 114.351,174.448 114.517,173.448 115,172.5C 118.207,171.745 119.707,169.745 119.5,166.5C 120.833,166.5 122.167,166.5 123.5,166.5C 123.33,167.822 123.663,168.989 124.5,170C 130.533,174.216 136.867,178.882 143.5,184C 141.833,184.333 140.167,184.667 138.5,185C 137.253,186.494 137.253,187.994 138.5,189.5C 141.508,190.065 144.341,191.065 147,192.5C 148.128,194.345 148.628,196.345 148.5,198.5C 151.598,198.413 151.932,198.913 149.5,200C 150.973,200.71 151.64,201.876 151.5,203.5C 147.024,203.643 146.357,205.309 149.5,208.5C 151.113,204.704 154.446,203.037 159.5,203.5C 159.543,206.088 160.543,208.254 162.5,210C 160.833,211 159.167,212 157.5,213C 158.167,213.667 158.833,214.333 159.5,215C 156.527,216.224 155.86,218.224 157.5,221C 159.286,221.196 160.619,222.029 161.5,223.5C 158.764,225.234 156.764,227.567 155.5,230.5 Z"/></g>
<g><path style="opacity:1" fill="#786349" d="M 15.5,176.5 C 15.8333,176.5 16.1667,176.5 16.5,176.5C 13.714,194.383 12.0473,212.383 11.5,230.5C 10.5,230.5 9.5,230.5 8.5,230.5C 9.86994,220.004 11.2033,209.504 12.5,199C 12.0398,197.699 11.7065,196.366 11.5,195C 11.8583,188.489 13.1916,182.323 15.5,176.5 Z"/></g>
</svg>
