<?xml version="1.0" encoding="UTF-8"?>
<!DOCTYPE svg PUBLIC "-//W3C//DTD SVG 1.1//EN" "http://www.w3.org/Graphics/SVG/1.1/DTD/svg11.dtd">
<svg xmlns="http://www.w3.org/2000/svg" version="1.1" width="231px" height="231px" style="shape-rendering:geometricPrecision; text-rendering:geometricPrecision; image-rendering:optimizeQuality; fill-rule:evenodd; clip-rule:evenodd" xmlns:xlink="http://www.w3.org/1999/xlink">
<g><path style="opacity:1" fill="#8b7a62" d="M 142.5,14.5 C 139.189,14.0909 136.189,12.9242 133.5,11C 119.969,10.6091 106.636,10.4424 93.5,10.5C 107.41,6.72733 121.41,6.56067 135.5,10C 138.239,11.0259 140.572,12.5259 142.5,14.5 Z"/></g>
<g><path style="opacity:1" fill="#635543" d="M 93.5,10.5 C 106.636,10.4424 119.969,10.6091 133.5,11C 136.189,12.9242 139.189,14.0909 142.5,14.5C 143.551,15.2223 144.218,16.2223 144.5,17.5C 143.81,18.8802 143.476,20.2135 143.5,21.5C 142.914,21.2907 142.414,20.9574 142,20.5C 142.997,15.515 141.33,14.515 137,17.5C 134.293,16.795 132.126,15.295 130.5,13C 129,12.8333 127.5,12.6667 126,12.5C 122.464,13.4346 118.964,13.4346 115.5,12.5C 113.334,12.4296 113.001,13.0962 114.5,14.5C 114,14.8333 113.5,15.1667 113,15.5C 110.547,14.5071 108.047,14.3405 105.5,15C 106.416,15.2784 107.082,15.7784 107.5,16.5C 106.399,17.5983 105.066,17.765 103.5,17C 102.532,13.5953 101.032,13.0953 99,15.5C 98.6667,15.1667 98.3333,14.8333 98,14.5C 94.7703,15.7272 92.1036,17.7272 90,20.5C 88.5598,21.6071 87.0598,21.6071 85.5,20.5C 81.5932,21.7397 79.5932,24.4064 79.5,28.5C 77.8008,30.7277 76.4675,33.2277 75.5,36C 76.0219,36.5613 76.3552,37.228 76.5,38C 75.1439,39.5671 74.4772,41.4004 74.5,43.5C 73.5,43.5 72.5,43.5 71.5,43.5C 74.1365,36.9623 76.4698,30.2957 78.5,23.5C 79.2026,21.2843 80.5359,19.451 82.5,18C 86.2614,15.4672 89.928,12.9672 93.5,10.5 Z"/></g>
<g><path style="opacity:1" fill="#463f37" d="M 144.5,17.5 C 146.816,18.422 148.483,20.0887 149.5,22.5C 148.236,24.7721 148.402,27.1055 150,29.5C 151.113,30.7111 152.28,30.7111 153.5,29.5C 154.287,30.2421 154.953,31.0754 155.5,32C 153.503,33.1531 153.17,34.6531 154.5,36.5C 157.458,33.7071 159.458,34.3737 160.5,38.5C 162.017,42.7152 161.35,46.5485 158.5,50C 159.178,55.6853 160.678,55.852 163,50.5C 163.626,52.7135 163.459,54.8801 162.5,57C 163.167,58 163.833,59 164.5,60C 162.786,62.5962 160.953,65.0962 159,67.5C 156.72,65.3861 154.887,63.0528 153.5,60.5C 153.038,55.9719 152.371,51.4719 151.5,47C 149.721,44.5539 147.388,42.8872 144.5,42C 127.195,42.7492 109.861,42.5825 92.5,41.5C 92.5,41.1667 92.5,40.8333 92.5,40.5C 94.5563,39.7839 96.723,39.1172 99,38.5C 99.5908,37.5165 99.2575,36.8499 98,36.5C 96.899,37.2913 96.0656,37.2913 95.5,36.5C 96.09,35.2011 97.09,34.3678 98.5,34C 101.822,34.4051 105.155,35.2384 108.5,36.5C 110.299,36.423 111.966,35.923 113.5,35C 110.378,32.8024 107.045,31.3024 103.5,30.5C 104.635,29.5255 105.635,28.3588 106.5,27C 103.447,26.8214 100.447,26.3214 97.5,25.5C 98.9122,24.1936 100.579,23.3603 102.5,23C 103.705,20.2945 105.705,18.4611 108.5,17.5C 108.376,16.8933 108.043,16.56 107.5,16.5C 107.082,15.7784 106.416,15.2784 105.5,15C 108.047,14.3405 110.547,14.5071 113,15.5C 113.5,15.1667 114,14.8333 114.5,14.5C 113.001,13.0962 113.334,12.4296 115.5,12.5C 118.964,13.4346 122.464,13.4346 126,12.5C 127.5,12.6667 129,12.8333 130.5,13C 132.126,15.295 134.293,16.795 137,17.5C 141.33,14.515 142.997,15.515 142,20.5C 142.414,20.9574 142.914,21.2907 143.5,21.5C 143.476,20.2135 143.81,18.8802 144.5,17.5 Z"/></g>
<g><path style="opacity:1" fill="#524a41" d="M 107.5,16.5 C 108.043,16.56 108.376,16.8933 108.5,17.5C 105.705,18.4611 103.705,20.2945 102.5,23C 100.579,23.3603 98.9122,24.1936 97.5,25.5C 100.447,26.3214 103.447,26.8214 106.5,27C 105.635,28.3588 104.635,29.5255 103.5,30.5C 98.8235,29.9652 94.1569,29.2985 89.5,28.5C 86.5701,28.1536 84.2368,29.1536 82.5,31.5C 81.452,30.452 80.452,29.452 79.5,28.5C 79.5932,24.4064 81.5932,21.7397 85.5,20.5C 87.0598,21.6071 88.5598,21.6071 90,20.5C 92.1036,17.7272 94.7703,15.7272 98,14.5C 98.3333,14.8333 98.6667,15.1667 99,15.5C 101.032,13.0953 102.532,13.5953 103.5,17C 105.066,17.765 106.399,17.5983 107.5,16.5 Z"/></g>
<g><path style="opacity:1" fill="#2b2720" d="M 122.5,19.5 C 129.035,20.015 135.368,21.3484 141.5,23.5C 141.187,28.3773 143.52,31.2106 148.5,32C 148.043,32.414 147.709,32.914 147.5,33.5C 150.736,35.1208 152.736,37.7875 153.5,41.5C 153.167,42.5 152.833,43.5 152.5,44.5C 151.437,42.5653 150.103,40.8986 148.5,39.5C 141.205,39.1987 133.872,39.032 126.5,39C 124.475,37.3228 122.141,36.3228 119.5,36C 120.833,35 122.167,34 123.5,33C 120.583,31.8955 117.583,30.8955 114.5,30C 114.167,29.6667 113.833,29.3333 113.5,29C 117.363,27.1865 117.03,26.0198 112.5,25.5C 112.5,24.5 112.5,23.5 112.5,22.5C 116.207,22.3956 119.54,21.3956 122.5,19.5 Z"/></g>
<g><path style="opacity:1" fill="#868271" d="M 142.5,14.5 C 155.635,20.052 162.968,30.052 164.5,44.5C 163.049,40.256 161.215,35.9227 159,31.5C 156.889,28.9409 155.056,26.2743 153.5,23.5C 151.901,23.7678 150.568,23.4345 149.5,22.5C 148.483,20.0887 146.816,18.422 144.5,17.5C 144.218,16.2223 143.551,15.2223 142.5,14.5 Z"/></g>
<g><path style="opacity:1" fill="#3d3026" d="M 79.5,28.5 C 80.452,29.452 81.452,30.452 82.5,31.5C 84.2368,29.1536 86.5701,28.1536 89.5,28.5C 94.1569,29.2985 98.8235,29.9652 103.5,30.5C 107.045,31.3024 110.378,32.8024 113.5,35C 111.966,35.923 110.299,36.423 108.5,36.5C 105.155,35.2384 101.822,34.4051 98.5,34C 97.09,34.3678 96.09,35.2011 95.5,36.5C 96.0656,37.2913 96.899,37.2913 98,36.5C 99.2575,36.8499 99.5908,37.5165 99,38.5C 96.723,39.1172 94.5563,39.7839 92.5,40.5C 91.5,40.5 90.5,40.5 89.5,40.5C 89.4142,39.5041 89.7476,38.6708 90.5,38C 83.7694,39.0371 78.1027,42.2038 73.5,47.5C 72.8333,46.5 72.1667,45.5 71.5,44.5C 71.5,44.1667 71.5,43.8333 71.5,43.5C 72.5,43.5 73.5,43.5 74.5,43.5C 74.4772,41.4004 75.1439,39.5671 76.5,38C 76.3552,37.228 76.0219,36.5613 75.5,36C 76.4675,33.2277 77.8008,30.7277 79.5,28.5 Z"/></g>
<g><path style="opacity:1" fill="#705433" d="M 78.5,23.5 C 76.4698,30.2957 74.1365,36.9623 71.5,43.5C 71.5,43.8333 71.5,44.1667 71.5,44.5C 70.8826,44.3893 70.3826,44.056 70,43.5C 69.1877,50.3186 68.3544,56.9852 67.5,63.5C 67.1667,63.5 66.8333,63.5 66.5,63.5C 65.8545,51.5775 68.0212,40.2441 73,29.5C 74.331,27.0038 76.1644,25.0038 78.5,23.5 Z"/></g>
<g><path style="opacity:1" fill="#8c6d58" d="M 92.5,41.5 C 109.861,42.5825 127.195,42.7492 144.5,42C 147.388,42.8872 149.721,44.5539 151.5,47C 152.371,51.4719 153.038,55.9719 153.5,60.5C 153.167,60.5 152.833,60.5 152.5,60.5C 151.598,48.9395 145.264,43.6062 133.5,44.5C 133.167,44.5 132.833,44.5 132.5,44.5C 120.824,43.7615 108.991,43.0948 97,42.5C 95.1216,42.6962 93.2883,43.0295 91.5,43.5C 91.8333,42.8333 92.1667,42.1667 92.5,41.5 Z"/></g>
<g><path style="opacity:1" fill="#bb9277" d="M 132.5,44.5 C 124.846,45.0705 117.179,45.4038 109.5,45.5C 104.684,44.3503 99.6842,44.1837 94.5,45C 91.6282,46.3714 89.6282,48.5381 88.5,51.5C 87.1667,51.5 86.5,50.8333 86.5,49.5C 87.4701,46.941 89.1368,44.941 91.5,43.5C 93.2883,43.0295 95.1216,42.6962 97,42.5C 108.991,43.0948 120.824,43.7615 132.5,44.5 Z"/></g>
<g><path style="opacity:1" fill="#7c5236" d="M 92.5,41.5 C 92.1667,42.1667 91.8333,42.8333 91.5,43.5C 89.1368,44.941 87.4701,46.941 86.5,49.5C 85.6773,52.977 85.1773,56.6437 85,60.5C 83.3853,61.3862 81.8853,62.3862 80.5,63.5C 81.522,59.2226 82.3553,54.8893 83,50.5C 85.8103,48.5439 87.3103,45.8772 87.5,42.5C 89.2161,42.3713 90.8828,42.038 92.5,41.5 Z"/></g>
<g><path style="opacity:1" fill="#605d56" d="M 149.5,22.5 C 150.568,23.4345 151.901,23.7678 153.5,23.5C 155.056,26.2743 156.889,28.9409 159,31.5C 161.215,35.9227 163.049,40.256 164.5,44.5C 164.5,45.1667 164.5,45.8333 164.5,46.5C 164.891,53.5275 165.558,60.5275 166.5,67.5C 166.315,68.5837 165.982,69.5837 165.5,70.5C 163.36,72.458 161.027,74.1247 158.5,75.5C 157.419,70.2565 155.752,65.2565 153.5,60.5C 154.887,63.0528 156.72,65.3861 159,67.5C 160.953,65.0962 162.786,62.5962 164.5,60C 163.833,59 163.167,58 162.5,57C 163.459,54.8801 163.626,52.7135 163,50.5C 160.678,55.852 159.178,55.6853 158.5,50C 161.35,46.5485 162.017,42.7152 160.5,38.5C 159.458,34.3737 157.458,33.7071 154.5,36.5C 153.17,34.6531 153.503,33.1531 155.5,32C 154.953,31.0754 154.287,30.2421 153.5,29.5C 152.28,30.7111 151.113,30.7111 150,29.5C 148.402,27.1055 148.236,24.7721 149.5,22.5 Z"/></g>
<g><path style="opacity:1" fill="#332117" d="M 89.5,40.5 C 87.1563,41.9166 84.8229,43.2499 82.5,44.5C 81.2969,49.9548 80.2969,55.4548 79.5,61C 77.9762,62.1942 76.8096,63.6942 76,65.5C 75.0922,63.5614 73.5922,62.5614 71.5,62.5C 71.7615,57.4049 72.4282,52.4049 73.5,47.5C 78.1027,42.2038 83.7694,39.0371 90.5,38C 89.7476,38.6708 89.4142,39.5041 89.5,40.5 Z"/></g>
<g><path style="opacity:1" fill="#d4a285" d="M 133.5,44.5 C 145.264,43.6062 151.598,48.9395 152.5,60.5C 151.883,60.3893 151.383,60.056 151,59.5C 150.64,61.4211 149.806,63.0878 148.5,64.5C 149.243,65.1818 149.909,65.8485 150.5,66.5C 144.879,65.6463 139.212,65.313 133.5,65.5C 134.609,64.71 135.942,64.21 137.5,64C 134.833,63.6667 132.167,63.3333 129.5,63C 130.167,61.6667 130.833,60.3333 131.5,59C 129.964,55.76 130.297,52.76 132.5,50C 128.245,47.1629 128.578,45.3296 133.5,44.5 Z"/></g>
<g><path style="opacity:1" fill="#e1a884" d="M 109.5,45.5 C 106.813,45.3359 104.146,45.5026 101.5,46C 102.227,47.3988 102.727,48.8988 103,50.5C 105.944,51.7226 108.444,53.5559 110.5,56C 108.963,57.1096 108.297,58.6096 108.5,60.5C 106.801,60.3398 105.134,60.5065 103.5,61C 104.416,61.2784 105.082,61.7784 105.5,62.5C 101.629,62.185 97.9619,62.5184 94.5,63.5C 92.847,63.6596 91.5137,64.3263 90.5,65.5C 90.1667,65.5 89.8333,65.5 89.5,65.5C 90.2598,64.1067 90.9265,62.6067 91.5,61C 90.7779,57.6706 89.7779,54.5039 88.5,51.5C 89.6282,48.5381 91.6282,46.3714 94.5,45C 99.6842,44.1837 104.684,44.3503 109.5,45.5 Z"/></g>
<g><path style="opacity:1" fill="#e6b09b" d="M 132.5,44.5 C 132.833,44.5 133.167,44.5 133.5,44.5C 128.578,45.3296 128.245,47.1629 132.5,50C 130.297,52.76 129.964,55.76 131.5,59C 130.833,60.3333 130.167,61.6667 129.5,63C 132.167,63.3333 134.833,63.6667 137.5,64C 135.942,64.21 134.609,64.71 133.5,65.5C 132.508,65.3284 131.842,65.6618 131.5,66.5C 129.833,66.5 128.167,66.5 126.5,66.5C 124.027,66.2009 121.86,65.2009 120,63.5C 117.097,64.9395 114.43,64.6061 112,62.5C 109.784,63.773 107.617,63.773 105.5,62.5C 105.082,61.7784 104.416,61.2784 103.5,61C 105.134,60.5065 106.801,60.3398 108.5,60.5C 108.297,58.6096 108.963,57.1096 110.5,56C 108.444,53.5559 105.944,51.7226 103,50.5C 102.727,48.8988 102.227,47.3988 101.5,46C 104.146,45.5026 106.813,45.3359 109.5,45.5C 117.179,45.4038 124.846,45.0705 132.5,44.5 Z"/></g>
<g><path style="opacity:1" fill="#4a311d" d="M 89.5,40.5 C 90.5,40.5 91.5,40.5 92.5,40.5C 92.5,40.8333 92.5,41.1667 92.5,41.5C 90.8828,42.038 89.2161,42.3713 87.5,42.5C 87.3103,45.8772 85.8103,48.5439 83,50.5C 82.3553,54.8893 81.522,59.2226 80.5,63.5C 79.5987,64.2905 78.9321,65.2905 78.5,66.5C 77.9373,68.3195 76.7706,69.6529 75,70.5C 72.0844,69.4108 69.5844,67.7442 67.5,65.5C 67.5,64.8333 67.5,64.1667 67.5,63.5C 68.3544,56.9852 69.1877,50.3186 70,43.5C 70.3826,44.056 70.8826,44.3893 71.5,44.5C 72.1667,45.5 72.8333,46.5 73.5,47.5C 72.4282,52.4049 71.7615,57.4049 71.5,62.5C 73.5922,62.5614 75.0922,63.5614 76,65.5C 76.8096,63.6942 77.9762,62.1942 79.5,61C 80.2969,55.4548 81.2969,49.9548 82.5,44.5C 84.8229,43.2499 87.1563,41.9166 89.5,40.5 Z"/></g>
<g><path style="opacity:1" fill="#c68a60" d="M 86.5,49.5 C 86.5,50.8333 87.1667,51.5 88.5,51.5C 89.7779,54.5039 90.7779,57.6706 91.5,61C 90.9265,62.6067 90.2598,64.1067 89.5,65.5C 87.8991,67.4787 86.5657,69.6454 85.5,72C 86.4923,73.9231 87.659,75.7564 89,77.5C 89.6708,78.2524 90.5041,78.5858 91.5,78.5C 90.791,79.404 89.791,79.7373 88.5,79.5C 84.1965,79.7352 82.5298,82.0685 83.5,86.5C 82.1411,85.9935 81.1411,84.9935 80.5,83.5C 79.8243,84.6016 79.1577,85.6016 78.5,86.5C 78.5,85.8333 78.5,85.1667 78.5,84.5C 78.5,80.8333 78.5,77.1667 78.5,73.5C 78.5,71.1667 78.5,68.8333 78.5,66.5C 78.9321,65.2905 79.5987,64.2905 80.5,63.5C 81.8853,62.3862 83.3853,61.3862 85,60.5C 85.1773,56.6437 85.6773,52.977 86.5,49.5 Z"/></g>
<g><path style="opacity:1" fill="#754c3a" d="M 131.5,66.5 C 137.516,66.5925 143.516,66.9258 149.5,67.5C 149.5,68.5 149.5,69.5 149.5,70.5C 146.159,69.9947 142.826,69.8281 139.5,70C 138.167,70.6667 138.167,71.3333 139.5,72C 143.047,71.9138 146.047,73.0805 148.5,75.5C 144.576,75.3347 140.576,75.668 136.5,76.5C 135.952,73.9162 134.285,72.9162 131.5,73.5C 131.5,71.1667 131.5,68.8333 131.5,66.5 Z"/></g>
<g><path style="opacity:1" fill="#945b42" d="M 89.5,65.5 C 89.8333,65.5 90.1667,65.5 90.5,65.5C 96.8421,65.3338 103.175,65.5005 109.5,66C 110.357,66.6891 111.023,67.5224 111.5,68.5C 111.433,70.4244 111.1,72.4244 110.5,74.5C 108.689,75.7357 106.856,75.7357 105,74.5C 100.382,75.7833 95.8823,77.1166 91.5,78.5C 90.5041,78.5858 89.6708,78.2524 89,77.5C 87.659,75.7564 86.4923,73.9231 85.5,72C 86.5657,69.6454 87.8991,67.4787 89.5,65.5 Z"/></g>
<g><path style="opacity:1" fill="#b58670" d="M 99.5,67.5 C 101.262,67.3573 102.929,67.6906 104.5,68.5C 105.833,69.1667 105.833,69.8333 104.5,70.5C 99.611,71.5552 94.9444,73.2219 90.5,75.5C 89.1667,74.5 89.1667,73.5 90.5,72.5C 93.4383,70.5352 96.4383,68.8685 99.5,67.5 Z"/></g>
<g><path style="opacity:1" fill="#693e25" d="M 67.5,65.5 C 69.5844,67.7442 72.0844,69.4108 75,70.5C 76.7706,69.6529 77.9373,68.3195 78.5,66.5C 78.5,68.8333 78.5,71.1667 78.5,73.5C 77.596,74.209 77.2627,75.209 77.5,76.5C 75.0712,76.415 73.0712,75.415 71.5,73.5C 68.7943,71.4763 67.461,68.8097 67.5,65.5 Z"/></g>
<g><path style="opacity:1" fill="#9b7763" d="M 131.5,66.5 C 131.842,65.6618 132.508,65.3284 133.5,65.5C 139.212,65.313 144.879,65.6463 150.5,66.5C 151.501,69.1716 152.501,71.8382 153.5,74.5C 153.5,76.1667 153.5,77.8333 153.5,79.5C 151.833,79.5 150.167,79.5 148.5,79.5C 144.768,77.8693 140.768,76.8693 136.5,76.5C 140.576,75.668 144.576,75.3347 148.5,75.5C 146.047,73.0805 143.047,71.9138 139.5,72C 138.167,71.3333 138.167,70.6667 139.5,70C 142.826,69.8281 146.159,69.9947 149.5,70.5C 149.5,69.5 149.5,68.5 149.5,67.5C 143.516,66.9258 137.516,66.5925 131.5,66.5 Z"/></g>
<g><path style="opacity:1" fill="#975835" d="M 66.5,63.5 C 66.8333,63.5 67.1667,63.5 67.5,63.5C 67.5,64.1667 67.5,64.8333 67.5,65.5C 67.461,68.8097 68.7943,71.4763 71.5,73.5C 73.0712,75.415 75.0712,76.415 77.5,76.5C 77.2627,75.209 77.596,74.209 78.5,73.5C 78.5,77.1667 78.5,80.8333 78.5,84.5C 77.8501,84.8039 77.1835,85.1373 76.5,85.5C 75.4035,83.4654 73.7368,82.1321 71.5,81.5C 71.9312,80.7065 72.2645,79.8732 72.5,79C 68.8328,74.8259 66.8328,69.9926 66.5,64.5C 66.5,64.1667 66.5,63.8333 66.5,63.5 Z"/></g>
<g><path style="opacity:1" fill="#e5a486" d="M 88.5,79.5 C 90.6257,80.7299 92.7924,82.0633 95,83.5C 100.145,82.6688 105.312,82.0021 110.5,81.5C 110.318,83.5914 110.652,85.5914 111.5,87.5C 111.081,88.6721 110.415,89.6721 109.5,90.5C 106.027,92.1397 103.36,94.6397 101.5,98C 99.5595,98.3036 97.8928,99.1369 96.5,100.5C 94.8717,100.421 93.2051,100.088 91.5,99.5C 88.8248,98.5219 87.3248,96.5219 87,93.5C 86.3333,94.1667 85.6667,94.8333 85,95.5C 84.8195,92.3054 84.3195,89.3054 83.5,86.5C 82.5298,82.0685 84.1965,79.7352 88.5,79.5 Z"/></g>
<g><path style="opacity:1" fill="#c68f7b" d="M 126.5,66.5 C 128.167,66.5 129.833,66.5 131.5,66.5C 131.5,68.8333 131.5,71.1667 131.5,73.5C 134.285,72.9162 135.952,73.9162 136.5,76.5C 140.768,76.8693 144.768,77.8693 148.5,79.5C 141.959,79.5378 141.959,80.2045 148.5,81.5C 145.934,82.5468 143.267,83.2135 140.5,83.5C 136.868,82.7543 133.202,82.421 129.5,82.5C 129.227,84.451 129.893,85.951 131.5,87C 131.167,87.3333 130.833,87.6667 130.5,88C 133.336,90.9927 135.336,94.4927 136.5,98.5C 139.024,99.5923 141.357,100.926 143.5,102.5C 143.631,103.239 143.464,103.906 143,104.5C 139.474,102.294 135.974,100.127 132.5,98C 129.961,97.2042 127.628,97.3709 125.5,98.5C 123.167,98.5 120.833,98.5 118.5,98.5C 118.167,97.8333 117.833,97.1667 117.5,96.5C 119.5,96.5 121.5,96.5 123.5,96.5C 122.068,88.4255 122.401,80.4255 124.5,72.5C 123.926,70.9411 123.26,69.4411 122.5,68C 124.058,67.79 125.391,67.29 126.5,66.5 Z"/></g>
<g><path style="opacity:1" fill="#d08663" d="M 66.5,64.5 C 66.8328,69.9926 68.8328,74.8259 72.5,79C 72.2645,79.8732 71.9312,80.7065 71.5,81.5C 73.7368,82.1321 75.4035,83.4654 76.5,85.5C 77.1835,85.1373 77.8501,84.8039 78.5,84.5C 78.5,85.1667 78.5,85.8333 78.5,86.5C 77.8592,87.4822 77.1925,88.4822 76.5,89.5C 77.3107,92.5519 77.3107,95.3852 76.5,98C 75.2642,99.3875 73.9308,100.554 72.5,101.5C 70.8712,100.375 69.3712,99.0414 68,97.5C 66.5539,89.3234 65.0539,81.1568 63.5,73C 64.6372,70.0817 65.6372,67.2484 66.5,64.5 Z"/></g>
<g><path style="opacity:1" fill="#e19f88" d="M 94.5,63.5 C 97.9619,62.5184 101.629,62.185 105.5,62.5C 107.617,63.773 109.784,63.773 112,62.5C 114.43,64.6061 117.097,64.9395 120,63.5C 121.86,65.2009 124.027,66.2009 126.5,66.5C 125.391,67.29 124.058,67.79 122.5,68C 123.26,69.4411 123.926,70.9411 124.5,72.5C 122.401,80.4255 122.068,88.4255 123.5,96.5C 121.5,96.5 119.5,96.5 117.5,96.5C 116.351,96.2089 115.684,95.3756 115.5,94C 116.875,91.3281 118.208,88.6615 119.5,86C 119.334,79.4647 117.834,73.2981 115,67.5C 112.242,65.357 109.076,64.1903 105.5,64C 101.848,63.5014 98.1817,63.3347 94.5,63.5 Z"/></g>
<g><path style="opacity:1" fill="#daa28a" d="M 153.5,74.5 C 154.648,78.9811 154.815,83.6478 154,88.5C 153.79,91.2342 152.956,93.7342 151.5,96C 152.267,97.4705 152.933,98.9705 153.5,100.5C 151.259,101.3 150.259,102.966 150.5,105.5C 149.5,105.5 148.5,105.5 147.5,105.5C 149.602,100.212 148.269,99.2119 143.5,102.5C 141.357,100.926 139.024,99.5923 136.5,98.5C 135.336,94.4927 133.336,90.9927 130.5,88C 130.833,87.6667 131.167,87.3333 131.5,87C 129.893,85.951 129.227,84.451 129.5,82.5C 133.202,82.421 136.868,82.7543 140.5,83.5C 143.267,83.2135 145.934,82.5468 148.5,81.5C 141.959,80.2045 141.959,79.5378 148.5,79.5C 150.167,79.5 151.833,79.5 153.5,79.5C 153.5,77.8333 153.5,76.1667 153.5,74.5 Z"/></g>
<g><path style="opacity:1" fill="#cd896e" d="M 94.5,63.5 C 98.1817,63.3347 101.848,63.5014 105.5,64C 109.076,64.1903 112.242,65.357 115,67.5C 117.834,73.2981 119.334,79.4647 119.5,86C 118.208,88.6615 116.875,91.3281 115.5,94C 115.684,95.3756 116.351,96.2089 117.5,96.5C 117.833,97.1667 118.167,97.8333 118.5,98.5C 115.904,97.7347 113.237,97.4013 110.5,97.5C 110.371,99.2161 110.038,100.883 109.5,102.5C 105.644,101.881 101.977,101.881 98.5,102.5C 94.7565,104.753 92.4231,103.753 91.5,99.5C 93.2051,100.088 94.8717,100.421 96.5,100.5C 97.8928,99.1369 99.5595,98.3036 101.5,98C 103.36,94.6397 106.027,92.1397 109.5,90.5C 110.415,89.6721 111.081,88.6721 111.5,87.5C 110.652,85.5914 110.318,83.5914 110.5,81.5C 105.312,82.0021 100.145,82.6688 95,83.5C 92.7924,82.0633 90.6257,80.7299 88.5,79.5C 89.791,79.7373 90.791,79.404 91.5,78.5C 95.8823,77.1166 100.382,75.7833 105,74.5C 106.856,75.7357 108.689,75.7357 110.5,74.5C 111.1,72.4244 111.433,70.4244 111.5,68.5C 111.023,67.5224 110.357,66.6891 109.5,66C 103.175,65.5005 96.8421,65.3338 90.5,65.5C 91.5137,64.3263 92.847,63.6596 94.5,63.5 Z"/></g>
<g><path style="opacity:1" fill="#c2ab9d" d="M 164.5,46.5 C 166.044,51.9191 166.877,57.5858 167,63.5C 169.52,66.2083 171.354,69.3749 172.5,73C 172.109,81.6114 169.943,89.778 166,97.5C 162.849,100.407 159.516,103.074 156,105.5C 155.814,114.564 152.981,122.564 147.5,129.5C 151.898,120.417 153.898,110.751 153.5,100.5C 152.933,98.9705 152.267,97.4705 151.5,96C 152.956,93.7342 153.79,91.2342 154,88.5C 154.815,83.6478 154.648,78.9811 153.5,74.5C 152.501,71.8382 151.501,69.1716 150.5,66.5C 149.909,65.8485 149.243,65.1818 148.5,64.5C 149.806,63.0878 150.64,61.4211 151,59.5C 151.383,60.056 151.883,60.3893 152.5,60.5C 152.833,60.5 153.167,60.5 153.5,60.5C 155.752,65.2565 157.419,70.2565 158.5,75.5C 158.833,81.5 159.167,87.5 159.5,93.5C 162.793,93.1032 165.626,91.7698 168,89.5C 168.765,83.1828 169.265,76.8495 169.5,70.5C 167.861,70.9258 166.528,70.9258 165.5,70.5C 165.982,69.5837 166.315,68.5837 166.5,67.5C 165.558,60.5275 164.891,53.5275 164.5,46.5 Z"/></g>
<g><path style="opacity:1" fill="#b5857c" d="M 165.5,70.5 C 166.528,70.9258 167.861,70.9258 169.5,70.5C 169.265,76.8495 168.765,83.1828 168,89.5C 165.626,91.7698 162.793,93.1032 159.5,93.5C 159.167,87.5 158.833,81.5 158.5,75.5C 161.027,74.1247 163.36,72.458 165.5,70.5 Z"/></g>
<g><path style="opacity:1" fill="#b67a4c" d="M 83.5,86.5 C 82.9896,96.9656 83.823,107.299 86,117.5C 87.2551,121.014 89.2551,124.014 92,126.5C 92.4935,128.134 92.6602,129.801 92.5,131.5C 89.4815,130.023 86.4815,128.689 83.5,127.5C 83.5,126.833 83.1667,126.5 82.5,126.5C 82.4142,125.504 82.7476,124.671 83.5,124C 81.0772,119.066 79.2438,113.9 78,108.5C 76.629,105.734 74.7957,103.401 72.5,101.5C 73.9308,100.554 75.2642,99.3875 76.5,98C 77.3107,95.3852 77.3107,92.5519 76.5,89.5C 77.1925,88.4822 77.8592,87.4822 78.5,86.5C 79.1577,85.6016 79.8243,84.6016 80.5,83.5C 81.1411,84.9935 82.1411,85.9935 83.5,86.5 Z"/></g>
<g><path style="opacity:1" fill="#83584a" d="M 118.5,98.5 C 120.833,98.5 123.167,98.5 125.5,98.5C 127.5,98.5 129.5,98.5 131.5,98.5C 132.577,103.782 135.91,105.949 141.5,105C 145.342,109.439 146.509,114.605 145,120.5C 142.619,121.435 140.119,121.768 137.5,121.5C 135.012,121.317 133.012,120.317 131.5,118.5C 122.374,114.859 113.041,114.526 103.5,117.5C 100.672,118.497 98.005,118.497 95.5,117.5C 96.791,117.737 97.791,117.404 98.5,116.5C 109.335,114.259 120.335,113.926 131.5,115.5C 131.833,115.5 132.167,115.5 132.5,115.5C 135.241,119.202 138.907,120.702 143.5,120C 144.617,116.927 144.784,113.76 144,110.5C 138.325,108.575 133.159,105.908 128.5,102.5C 124.954,102.085 121.287,102.085 117.5,102.5C 115.038,99.996 112.371,99.996 109.5,102.5C 110.038,100.883 110.371,99.2161 110.5,97.5C 113.237,97.4013 115.904,97.7347 118.5,98.5 Z"/></g>
<g><path style="opacity:1" fill="#694632" d="M 117.5,102.5 C 113.41,102.543 112.743,103.876 115.5,106.5C 114.972,109.729 113.305,110.729 110.5,109.5C 109.227,110.257 109.227,110.923 110.5,111.5C 105.875,111.514 101.209,111.514 96.5,111.5C 96.0773,113.781 96.744,115.448 98.5,116.5C 97.791,117.404 96.791,117.737 95.5,117.5C 94.2459,112.019 95.2459,107.019 98.5,102.5C 101.977,101.881 105.644,101.881 109.5,102.5C 112.371,99.996 115.038,99.996 117.5,102.5 Z"/></g>
<g><path style="opacity:1" fill="#452e22" d="M 128.5,102.5 C 128.562,105.753 129.396,108.753 131,111.5C 131.085,109.915 131.251,108.582 131.5,107.5C 132.795,109.328 133.795,111.328 134.5,113.5C 136.071,114.309 137.738,114.643 139.5,114.5C 139.719,115.675 139.386,116.675 138.5,117.5C 136.827,115.914 134.827,115.247 132.5,115.5C 132.167,115.5 131.833,115.5 131.5,115.5C 131.631,114.624 131.298,113.957 130.5,113.5C 123.959,111.794 117.292,111.127 110.5,111.5C 109.227,110.923 109.227,110.257 110.5,109.5C 113.305,110.729 114.972,109.729 115.5,106.5C 112.743,103.876 113.41,102.543 117.5,102.5C 121.287,102.085 124.954,102.085 128.5,102.5 Z"/></g>
<g><path style="opacity:1" fill="#5b2f20" d="M 110.5,111.5 C 117.292,111.127 123.959,111.794 130.5,113.5C 131.298,113.957 131.631,114.624 131.5,115.5C 120.335,113.926 109.335,114.259 98.5,116.5C 96.744,115.448 96.0773,113.781 96.5,111.5C 101.209,111.514 105.875,111.514 110.5,111.5 Z"/></g>
<g><path style="opacity:1" fill="#634939" d="M 128.5,102.5 C 133.159,105.908 138.325,108.575 144,110.5C 144.784,113.76 144.617,116.927 143.5,120C 138.907,120.702 135.241,119.202 132.5,115.5C 134.827,115.247 136.827,115.914 138.5,117.5C 139.386,116.675 139.719,115.675 139.5,114.5C 137.738,114.643 136.071,114.309 134.5,113.5C 133.795,111.328 132.795,109.328 131.5,107.5C 131.251,108.582 131.085,109.915 131,111.5C 129.396,108.753 128.562,105.753 128.5,102.5 Z"/></g>
<g><path style="opacity:1" fill="#a96456" d="M 131.5,118.5 C 126.511,120.778 121.178,121.778 115.5,121.5C 113.04,120.122 110.374,119.122 107.5,118.5C 106.446,118.68 105.446,119.013 104.5,119.5C 103.702,119.043 103.369,118.376 103.5,117.5C 113.041,114.526 122.374,114.859 131.5,118.5 Z"/></g>
<g><path style="opacity:1" fill="#bf8361" d="M 83.5,86.5 C 84.3195,89.3054 84.8195,92.3054 85,95.5C 85.6667,94.8333 86.3333,94.1667 87,93.5C 87.3248,96.5219 88.8248,98.5219 91.5,99.5C 92.4231,103.753 94.7565,104.753 98.5,102.5C 95.2459,107.019 94.2459,112.019 95.5,117.5C 98.005,118.497 100.672,118.497 103.5,117.5C 103.369,118.376 103.702,119.043 104.5,119.5C 105.446,119.013 106.446,118.68 107.5,118.5C 110.374,119.122 113.04,120.122 115.5,121.5C 115.272,125.718 115.606,130.051 116.5,134.5C 115.833,134.5 115.167,134.5 114.5,134.5C 110.818,133.899 107.485,132.732 104.5,131C 103.707,132.085 103.04,133.252 102.5,134.5C 104.297,135.695 105.297,137.362 105.5,139.5C 102.427,138.801 99.4271,137.801 96.5,136.5C 95.5113,134.414 94.178,132.747 92.5,131.5C 92.6602,129.801 92.4935,128.134 92,126.5C 89.2551,124.014 87.2551,121.014 86,117.5C 83.823,107.299 82.9896,96.9656 83.5,86.5 Z"/></g>
<g><path style="opacity:1" fill="#c3937f" d="M 131.5,118.5 C 133.012,120.317 135.012,121.317 137.5,121.5C 137.417,125.176 136.417,128.509 134.5,131.5C 128.379,132.325 122.379,133.325 116.5,134.5C 115.606,130.051 115.272,125.718 115.5,121.5C 121.178,121.778 126.511,120.778 131.5,118.5 Z"/></g>
<g><path style="opacity:1" fill="#ac917f" d="M 125.5,98.5 C 127.628,97.3709 129.961,97.2042 132.5,98C 135.974,100.127 139.474,102.294 143,104.5C 143.464,103.906 143.631,103.239 143.5,102.5C 148.269,99.2119 149.602,100.212 147.5,105.5C 148.5,105.5 149.5,105.5 150.5,105.5C 150.259,102.966 151.259,101.3 153.5,100.5C 153.898,110.751 151.898,120.417 147.5,129.5C 147.5,130.167 147.167,130.5 146.5,130.5C 143.769,134.03 140.102,135.696 135.5,135.5C 135.777,138.448 135.444,141.281 134.5,144C 136.75,147.978 138.083,152.145 138.5,156.5C 138.996,161.436 137.33,165.269 133.5,168C 131.831,168.122 130.165,167.788 128.5,167C 127.295,165.624 125.962,164.458 124.5,163.5C 123.167,162.833 122.167,161.833 121.5,160.5C 125.508,163.223 129.841,163.89 134.5,162.5C 135.647,160.235 135.814,157.902 135,155.5C 132.956,151.632 131.789,147.466 131.5,143C 133.525,139.57 134.525,135.737 134.5,131.5C 136.417,128.509 137.417,125.176 137.5,121.5C 140.119,121.768 142.619,121.435 145,120.5C 146.509,114.605 145.342,109.439 141.5,105C 135.91,105.949 132.577,103.782 131.5,98.5C 129.5,98.5 127.5,98.5 125.5,98.5 Z"/></g>
<g><path style="opacity:1" fill="#ab9d94" d="M 146.5,130.5 C 146.443,131.609 146.11,132.609 145.5,133.5C 145.8,141.917 143.467,149.583 138.5,156.5C 138.083,152.145 136.75,147.978 134.5,144C 135.444,141.281 135.777,138.448 135.5,135.5C 140.102,135.696 143.769,134.03 146.5,130.5 Z"/></g>
<g><path style="opacity:1" fill="#7c6c5a" d="M 82.5,126.5 C 83.1667,126.5 83.5,126.833 83.5,127.5C 83.5,128.167 83.5,128.833 83.5,129.5C 83.67,130.822 83.3366,131.989 82.5,133C 76.7323,136.738 71.3989,141.072 66.5,146C 64.1902,146.497 61.8568,146.663 59.5,146.5C 68.9928,142.012 76.6594,135.345 82.5,126.5 Z"/></g>
<g><path style="opacity:1" fill="#dcc1b2" d="M 99.5,143.5 C 102.027,145.605 104.36,147.939 106.5,150.5C 100.47,147.816 94.4697,145.15 88.5,142.5C 85.974,138.585 84.6407,134.252 84.5,129.5C 84.4346,129.062 84.6012,128.728 85,128.5C 89.302,133.969 94.1354,138.969 99.5,143.5 Z"/></g>
<g><path style="opacity:1" fill="#aa7c61" d="M 83.5,127.5 C 86.4815,128.689 89.4815,130.023 92.5,131.5C 94.178,132.747 95.5113,134.414 96.5,136.5C 99.4271,137.801 102.427,138.801 105.5,139.5C 105.297,137.362 104.297,135.695 102.5,134.5C 103.04,133.252 103.707,132.085 104.5,131C 107.485,132.732 110.818,133.899 114.5,134.5C 116.292,135.309 118.292,135.809 120.5,136C 114.94,138.653 112.273,142.82 112.5,148.5C 108.276,146.461 103.943,144.794 99.5,143.5C 94.1354,138.969 89.302,133.969 85,128.5C 84.6012,128.728 84.4346,129.062 84.5,129.5C 84.1667,129.5 83.8333,129.5 83.5,129.5C 83.5,128.833 83.5,128.167 83.5,127.5 Z"/></g>
<g><path style="opacity:1" fill="#7a767d" d="M 83.5,129.5 C 83.8333,129.5 84.1667,129.5 84.5,129.5C 84.6407,134.252 85.974,138.585 88.5,142.5C 88.5,142.833 88.5,143.167 88.5,143.5C 87.2905,143.932 86.2905,144.599 85.5,145.5C 84.1634,146.315 83.1634,147.482 82.5,149C 79.1486,149.791 75.9819,150.958 73,152.5C 71.9412,152.37 71.1079,151.87 70.5,151C 71.8333,150.333 71.8333,149.667 70.5,149C 62.7792,147.677 56.1126,149.511 50.5,154.5C 48.5648,155.15 46.5648,155.483 44.5,155.5C 47.5208,153.47 50.5208,151.47 53.5,149.5C 55.0301,147.654 57.0301,146.654 59.5,146.5C 61.8568,146.663 64.1902,146.497 66.5,146C 71.3989,141.072 76.7323,136.738 82.5,133C 83.3366,131.989 83.67,130.822 83.5,129.5 Z"/></g>
<g><path style="opacity:1" fill="#b28a78" d="M 134.5,131.5 C 134.525,135.737 133.525,139.57 131.5,143C 131.789,147.466 132.956,151.632 135,155.5C 135.814,157.902 135.647,160.235 134.5,162.5C 129.841,163.89 125.508,163.223 121.5,160.5C 116.63,156.904 111.63,153.57 106.5,150.5C 104.36,147.939 102.027,145.605 99.5,143.5C 103.943,144.794 108.276,146.461 112.5,148.5C 112.273,142.82 114.94,138.653 120.5,136C 118.292,135.809 116.292,135.309 114.5,134.5C 115.167,134.5 115.833,134.5 116.5,134.5C 122.379,133.325 128.379,132.325 134.5,131.5 Z"/></g>
<g><path style="opacity:1" fill="#93816f" d="M 53.5,149.5 C 50.5208,151.47 47.5208,153.47 44.5,155.5C 33.9726,160.182 23.6393,165.349 13.5,171C 11.1902,171.497 8.85684,171.663 6.5,171.5C 21.988,163.924 37.6547,156.591 53.5,149.5 Z"/></g>
<g><path style="opacity:1" fill="#7c7f90" d="M 85.5,145.5 C 87.34,147.168 89.34,148.668 91.5,150C 90.0394,151.351 88.706,152.851 87.5,154.5C 88.1667,155.167 88.8333,155.833 89.5,156.5C 83.3317,159.579 76.9983,160.913 70.5,160.5C 67.1113,162.357 66.778,164.857 69.5,168C 73.5354,168.798 77.5354,169.631 81.5,170.5C 81.5,171.833 81.5,173.167 81.5,174.5C 76.5275,173.836 71.5275,173.503 66.5,173.5C 62.0425,169.794 61.3758,165.294 64.5,160C 63.0103,156.786 63.3437,153.786 65.5,151C 63.8333,150.333 62.1667,150.333 60.5,151C 58.2688,152.147 55.9355,153.147 53.5,154C 52.6195,154.708 51.9528,155.542 51.5,156.5C 49.5214,158.168 47.188,158.834 44.5,158.5C 46.5,157.167 48.5,155.833 50.5,154.5C 56.1126,149.511 62.7792,147.677 70.5,149C 71.8333,149.667 71.8333,150.333 70.5,151C 71.1079,151.87 71.9412,152.37 73,152.5C 75.9819,150.958 79.1486,149.791 82.5,149C 83.1634,147.482 84.1634,146.315 85.5,145.5 Z"/></g>
<g><path style="opacity:1" fill="#e7e4e9" d="M 88.5,143.5 C 88.5,143.167 88.5,142.833 88.5,142.5C 94.4697,145.15 100.47,147.816 106.5,150.5C 111.63,153.57 116.63,156.904 121.5,160.5C 122.167,161.833 123.167,162.833 124.5,163.5C 124.414,164.496 124.748,165.329 125.5,166C 120.84,169.813 117.173,174.313 114.5,179.5C 112.851,180.649 111.351,181.982 110,183.5C 109.5,183.167 109,182.833 108.5,182.5C 105.548,176.376 103.048,170.043 101,163.5C 98.9937,159.035 96.4937,155.035 93.5,151.5C 91.8302,148.825 90.1635,146.159 88.5,143.5 Z"/></g>
<g><path style="opacity:1" fill="#7b85a2" d="M 52.5,182.5 C 49.8024,182.092 47.469,180.926 45.5,179C 47.1667,177.333 48.8333,175.667 50.5,174C 48.4049,174.319 46.4049,174.152 44.5,173.5C 42.9707,173.529 41.804,174.196 41,175.5C 40.6667,174.5 40.3333,173.5 40,172.5C 39.3333,171.167 38.6667,171.167 38,172.5C 36.7343,168.438 34.5677,167.772 31.5,170.5C 32.0402,171.748 32.7069,172.915 33.5,174C 33.1667,174.167 32.8333,174.333 32.5,174.5C 30.8333,173.167 29.1667,173.167 27.5,174.5C 25.4664,173.441 23.4664,172.441 21.5,171.5C 27.2458,167.234 33.0792,163.234 39,159.5C 40.7659,158.767 42.5992,158.433 44.5,158.5C 47.188,158.834 49.5214,158.168 51.5,156.5C 53.7451,155.365 56.0784,154.865 58.5,155C 57.5004,157.091 58.1671,158.757 60.5,160C 58.9683,162.33 59.3017,164.33 61.5,166C 60.2567,167.154 59.2567,168.488 58.5,170C 61.1667,170.667 61.1667,171.333 58.5,172C 59.6721,172.419 60.6721,173.085 61.5,174C 58.7111,174.241 56.0444,174.908 53.5,176C 59.1748,176.464 59.5081,177.131 54.5,178C 55.5,178.833 56.5,179.667 57.5,180.5C 55.7086,181.17 54.0419,181.837 52.5,182.5 Z"/></g>
<g><path style="opacity:1" fill="#939ea7" d="M 148.5,144.5 C 161.179,149.896 173.845,155.396 186.5,161C 190.773,162.535 195.106,163.869 199.5,165C 203.393,166.759 206.06,169.592 207.5,173.5C 207.5,174.167 207.5,174.833 207.5,175.5C 206.833,175.167 206.167,174.833 205.5,174.5C 205.156,171.804 203.823,169.804 201.5,168.5C 200.572,170.335 199.406,170.668 198,169.5C 197.383,170.449 197.549,171.282 198.5,172C 197.552,172.483 196.552,172.649 195.5,172.5C 195.663,168.965 194.33,167.965 191.5,169.5C 188.581,168.087 186.081,166.087 184,163.5C 181.152,164.257 178.819,163.257 177,160.5C 176.333,161.833 175.667,161.833 175,160.5C 174.016,162.795 173.183,162.461 172.5,159.5C 172.833,158.833 173.167,158.167 173.5,157.5C 171.101,155.461 168.434,154.295 165.5,154C 166.687,155.019 167.687,156.186 168.5,157.5C 168.043,158.298 167.376,158.631 166.5,158.5C 162.681,155.897 159.014,153.063 155.5,150C 153.807,149.516 152.473,150.016 151.5,151.5C 150.833,151.5 150.167,151.5 149.5,151.5C 148.883,151.611 148.383,151.944 148,152.5C 147.501,157.489 147.334,162.489 147.5,167.5C 146.835,163.849 146.501,160.015 146.5,156C 146.51,151.771 147.177,147.938 148.5,144.5 Z"/></g>
<g><path style="opacity:1" fill="#868c9f" d="M 88.5,143.5 C 90.1635,146.159 91.8302,148.825 93.5,151.5C 93.8938,152.967 94.2272,154.467 94.5,156C 94.2451,157.326 93.5784,158.326 92.5,159C 94.9152,162.776 96.0818,166.943 96,171.5C 96.7412,170.359 97.5745,170.359 98.5,171.5C 99.6536,174.073 101.32,176.239 103.5,178C 102.216,178.684 101.049,178.517 100,177.5C 98.7163,178.572 98.3829,179.905 99,181.5C 98.586,181.043 98.086,180.709 97.5,180.5C 96.316,182.046 95.316,183.713 94.5,185.5C 92.1614,184.582 90.6614,182.916 90,180.5C 86.8221,182.903 86.9887,184.736 90.5,186C 88.2189,187.851 88.2189,189.518 90.5,191C 90.1667,191.333 89.8333,191.667 89.5,192C 91.7457,194.427 92.4124,197.094 91.5,200C 94.3131,204.476 94.6465,208.976 92.5,213.5C 93.5,213.5 94.5,213.5 95.5,213.5C 95.5,212.167 95.5,210.833 95.5,209.5C 96.791,209.263 97.791,209.596 98.5,210.5C 98.297,212.638 97.297,214.305 95.5,215.5C 96.122,218.37 96.7887,221.204 97.5,224C 96.9056,224.464 96.2389,224.631 95.5,224.5C 94.5,224.5 93.5,224.5 92.5,224.5C 92.6567,223.127 92.49,221.793 92,220.5C 85.5048,209.512 78.5048,198.845 71,188.5C 70.2531,184.915 71.0865,181.748 73.5,179C 71.3111,176.793 68.9777,174.96 66.5,173.5C 71.5275,173.503 76.5275,173.836 81.5,174.5C 81.5,173.167 81.5,171.833 81.5,170.5C 77.5354,169.631 73.5354,168.798 69.5,168C 66.778,164.857 67.1113,162.357 70.5,160.5C 76.9983,160.913 83.3317,159.579 89.5,156.5C 88.8333,155.833 88.1667,155.167 87.5,154.5C 88.706,152.851 90.0394,151.351 91.5,150C 89.34,148.668 87.34,147.168 85.5,145.5C 86.2905,144.599 87.2905,143.932 88.5,143.5 Z"/></g>
<g><path style="opacity:1" fill="#818795" d="M 191.5,169.5 C 192.376,169.369 193.043,169.702 193.5,170.5C 192.06,174.317 190.06,177.65 187.5,180.5C 189.056,183.974 188.723,187.141 186.5,190C 187.167,190.333 187.833,190.667 188.5,191C 187.333,191.5 186.5,192.333 186,193.5C 185.25,192.874 184.416,192.374 183.5,192C 182.877,189.393 182.21,186.893 181.5,184.5C 180.391,181.153 178.724,178.153 176.5,175.5C 175.068,173.353 173.235,173.02 171,174.5C 169.812,173.437 169.312,172.103 169.5,170.5C 170.873,170.657 172.207,170.49 173.5,170C 172.594,168.301 172.261,166.467 172.5,164.5C 171.5,164.5 170.5,164.5 169.5,164.5C 169.688,166.103 169.188,167.437 168,168.5C 167.508,167.451 167.674,166.451 168.5,165.5C 166.009,164.459 166.009,163.626 168.5,163C 166.963,161.89 166.297,160.39 166.5,158.5C 167.376,158.631 168.043,158.298 168.5,157.5C 167.687,156.186 166.687,155.019 165.5,154C 168.434,154.295 171.101,155.461 173.5,157.5C 173.167,158.167 172.833,158.833 172.5,159.5C 173.183,162.461 174.016,162.795 175,160.5C 175.667,161.833 176.333,161.833 177,160.5C 178.819,163.257 181.152,164.257 184,163.5C 186.081,166.087 188.581,168.087 191.5,169.5 Z"/></g>
<g><path style="opacity:1" fill="#d3d7e1" d="M 145.5,133.5 C 144.944,137.666 145.944,141.332 148.5,144.5C 147.177,147.938 146.51,151.771 146.5,156C 146.501,160.015 146.835,163.849 147.5,167.5C 149.071,171.323 150.071,175.323 150.5,179.5C 150.877,182.525 151.044,185.525 151,188.5C 147.958,183.581 144.791,178.748 141.5,174C 139.301,172.303 136.968,170.803 134.5,169.5C 133.614,170.325 133.281,171.325 133.5,172.5C 132.883,172.611 132.383,172.944 132,173.5C 130.432,171.763 128.432,170.763 126,170.5C 124.341,171.98 122.508,173.314 120.5,174.5C 116.993,179.654 118.326,181.988 124.5,181.5C 124.325,183.621 124.659,185.621 125.5,187.5C 121.177,185.527 117.511,182.861 114.5,179.5C 117.173,174.313 120.84,169.813 125.5,166C 124.748,165.329 124.414,164.496 124.5,163.5C 125.962,164.458 127.295,165.624 128.5,167C 130.165,167.788 131.831,168.122 133.5,168C 137.33,165.269 138.996,161.436 138.5,156.5C 143.467,149.583 145.8,141.917 145.5,133.5 Z"/></g>
<g><path style="opacity:1" fill="#7d87a1" d="M 66.5,173.5 C 68.9777,174.96 71.3111,176.793 73.5,179C 71.0865,181.748 70.2531,184.915 71,188.5C 78.5048,198.845 85.5048,209.512 92,220.5C 92.49,221.793 92.6567,223.127 92.5,224.5C 93.5,224.5 94.5,224.5 95.5,224.5C 95.7036,226.685 96.3702,228.685 97.5,230.5C 96.8333,230.5 96.1667,230.5 95.5,230.5C 93.6753,228.197 91.8419,225.864 90,223.5C 83.9483,212.127 77.115,201.294 69.5,191C 68.552,190.517 67.552,190.351 66.5,190.5C 66.5,191.5 66.5,192.5 66.5,193.5C 66.631,194.239 66.4643,194.906 66,195.5C 62.392,194.393 59.892,192.06 58.5,188.5C 57.5344,186.604 57.2011,184.604 57.5,182.5C 55.8333,182.5 54.1667,182.5 52.5,182.5C 54.0419,181.837 55.7086,181.17 57.5,180.5C 56.5,179.667 55.5,178.833 54.5,178C 59.5081,177.131 59.1748,176.464 53.5,176C 56.0444,174.908 58.7111,174.241 61.5,174C 60.6721,173.085 59.6721,172.419 58.5,172C 61.1667,171.333 61.1667,170.667 58.5,170C 59.2567,168.488 60.2567,167.154 61.5,166C 59.3017,164.33 58.9683,162.33 60.5,160C 58.1671,158.757 57.5004,157.091 58.5,155C 56.0784,154.865 53.7451,155.365 51.5,156.5C 51.9528,155.542 52.6195,154.708 53.5,154C 55.9355,153.147 58.2688,152.147 60.5,151C 62.1667,150.333 63.8333,150.333 65.5,151C 63.3437,153.786 63.0103,156.786 64.5,160C 61.3758,165.294 62.0425,169.794 66.5,173.5 Z"/></g>
<g><path style="opacity:1" fill="#79899d" d="M 166.5,158.5 C 166.297,160.39 166.963,161.89 168.5,163C 166.009,163.626 166.009,164.459 168.5,165.5C 167.674,166.451 167.508,167.451 168,168.5C 169.188,167.437 169.688,166.103 169.5,164.5C 170.5,164.5 171.5,164.5 172.5,164.5C 172.261,166.467 172.594,168.301 173.5,170C 172.207,170.49 170.873,170.657 169.5,170.5C 169.312,172.103 169.812,173.437 171,174.5C 173.235,173.02 175.068,173.353 176.5,175.5C 174.235,175.441 173.902,176.274 175.5,178C 173.106,179.551 171.773,181.718 171.5,184.5C 174.718,184.651 175.051,185.484 172.5,187C 174.301,187.317 174.634,187.984 173.5,189C 175.832,192.548 176.166,196.382 174.5,200.5C 175.32,202.111 176.654,202.778 178.5,202.5C 178.284,205.432 178.951,208.098 180.5,210.5C 179.083,217.26 178.75,223.926 179.5,230.5C 177.167,230.5 174.833,230.5 172.5,230.5C 172.665,227.482 172.498,224.482 172,221.5C 171.333,222.833 170.667,222.833 170,221.5C 167.463,211.653 166.297,201.653 166.5,191.5C 165.5,191.5 164.5,191.5 163.5,191.5C 163.305,187.804 161.638,184.971 158.5,183C 159.728,182.221 160.728,181.221 161.5,180C 159.48,175.743 158.147,171.243 157.5,166.5C 158.311,165.784 158.978,164.95 159.5,164C 155.959,160.424 153.292,156.257 151.5,151.5C 152.473,150.016 153.807,149.516 155.5,150C 159.014,153.063 162.681,155.897 166.5,158.5 Z"/></g>
<g><path style="opacity:1" fill="#80899b" d="M 191.5,169.5 C 194.33,167.965 195.663,168.965 195.5,172.5C 196.552,172.649 197.552,172.483 198.5,172C 197.549,171.282 197.383,170.449 198,169.5C 199.406,170.668 200.572,170.335 201.5,168.5C 203.823,169.804 205.156,171.804 205.5,174.5C 203.328,192.704 202.328,211.371 202.5,230.5C 202.167,230.5 201.833,230.5 201.5,230.5C 199.888,216.158 198.055,201.825 196,187.5C 195.576,185.385 194.409,184.552 192.5,185C 192.957,185.414 193.291,185.914 193.5,186.5C 192.504,192.646 191.504,198.812 190.5,205C 192.33,211.518 191.497,217.684 188,223.5C 185.314,218.097 182.814,212.263 180.5,206C 182.708,204.199 184.041,201.866 184.5,199C 183.407,196.557 182.407,194.057 181.5,191.5C 180.975,190.808 180.308,190.308 179.5,190C 180.516,189.481 181.182,188.647 181.5,187.5C 180.846,186.185 180.846,185.185 181.5,184.5C 182.21,186.893 182.877,189.393 183.5,192C 184.416,192.374 185.25,192.874 186,193.5C 186.5,192.333 187.333,191.5 188.5,191C 187.833,190.667 187.167,190.333 186.5,190C 188.723,187.141 189.056,183.974 187.5,180.5C 190.06,177.65 192.06,174.317 193.5,170.5C 193.043,169.702 192.376,169.369 191.5,169.5 Z"/></g>
<g><path style="opacity:1" fill="#8c92a5" d="M 93.5,151.5 C 96.4937,155.035 98.9937,159.035 101,163.5C 103.048,170.043 105.548,176.376 108.5,182.5C 109,182.833 109.5,183.167 110,183.5C 111.351,181.982 112.851,180.649 114.5,179.5C 117.511,182.861 121.177,185.527 125.5,187.5C 126.492,187.328 127.158,187.662 127.5,188.5C 128.539,192.283 127.205,193.616 123.5,192.5C 121.027,190.857 119.027,188.69 117.5,186C 115.512,185.82 113.512,185.986 111.5,186.5C 111.814,189.947 112.648,193.28 114,196.5C 115.905,201.308 118.071,205.975 120.5,210.5C 120.917,213.079 120.25,215.246 118.5,217C 118.957,217.414 119.291,217.914 119.5,218.5C 118.431,218.36 117.264,218.36 116,218.5C 115.73,221.362 114.896,224.028 113.5,226.5C 109.468,222.742 107.135,218.075 106.5,212.5C 104.737,209.98 102.737,207.647 100.5,205.5C 99.8302,207.291 99.1635,208.958 98.5,210.5C 97.791,209.596 96.791,209.263 95.5,209.5C 95.5,210.833 95.5,212.167 95.5,213.5C 94.5,213.5 93.5,213.5 92.5,213.5C 94.6465,208.976 94.3131,204.476 91.5,200C 92.4124,197.094 91.7457,194.427 89.5,192C 89.8333,191.667 90.1667,191.333 90.5,191C 88.2189,189.518 88.2189,187.851 90.5,186C 86.9887,184.736 86.8221,182.903 90,180.5C 90.6614,182.916 92.1614,184.582 94.5,185.5C 95.316,183.713 96.316,182.046 97.5,180.5C 98.086,180.709 98.586,181.043 99,181.5C 98.3829,179.905 98.7163,178.572 100,177.5C 101.049,178.517 102.216,178.684 103.5,178C 101.32,176.239 99.6536,174.073 98.5,171.5C 97.5745,170.359 96.7412,170.359 96,171.5C 96.0818,166.943 94.9152,162.776 92.5,159C 93.5784,158.326 94.2451,157.326 94.5,156C 94.2272,154.467 93.8938,152.967 93.5,151.5 Z"/></g>
<g><path style="opacity:1" fill="#7f8ba7" d="M 52.5,182.5 C 54.1667,182.5 55.8333,182.5 57.5,182.5C 57.2011,184.604 57.5344,186.604 58.5,188.5C 59.892,192.06 62.392,194.393 66,195.5C 66.4643,194.906 66.631,194.239 66.5,193.5C 67.3091,195.292 67.8091,197.292 68,199.5C 68.3333,199.833 68.6667,200.167 69,200.5C 69.8105,196.099 70.9772,195.766 72.5,199.5C 70.9095,201.633 68.9095,203.299 66.5,204.5C 65.2888,203.726 65.2888,202.893 66.5,202C 65.5,201.667 64.5,201.333 63.5,201C 63.8333,200.667 64.1667,200.333 64.5,200C 58.4413,193.937 52.1079,188.27 45.5,183C 41.1257,180.899 36.4591,180.065 31.5,180.5C 31.6495,181.552 31.4828,182.552 31,183.5C 28.2955,181.761 25.7955,179.761 23.5,177.5C 21.4374,180.732 18.9374,180.732 16,177.5C 15.4054,178.899 15.5721,180.232 16.5,181.5C 14.7605,182.809 13.4271,182.476 12.5,180.5C 12.0651,178.297 12.0651,176.297 12.5,174.5C 15.341,173.331 18.341,172.331 21.5,171.5C 23.4664,172.441 25.4664,173.441 27.5,174.5C 29.1667,173.167 30.8333,173.167 32.5,174.5C 32.8333,174.333 33.1667,174.167 33.5,174C 32.7069,172.915 32.0402,171.748 31.5,170.5C 34.5677,167.772 36.7343,168.438 38,172.5C 38.6667,171.167 39.3333,171.167 40,172.5C 40.3333,173.5 40.6667,174.5 41,175.5C 41.804,174.196 42.9707,173.529 44.5,173.5C 46.4049,174.152 48.4049,174.319 50.5,174C 48.8333,175.667 47.1667,177.333 45.5,179C 47.469,180.926 49.8024,182.092 52.5,182.5 Z"/></g>
<g><path style="opacity:1" fill="#e2eaf1" d="M 133.5,172.5 C 136.204,172.67 137.871,174.003 138.5,176.5C 139.314,181.119 139.647,185.786 139.5,190.5C 136.482,190.296 133.482,189.963 130.5,189.5C 129.609,188.89 128.609,188.557 127.5,188.5C 127.158,187.662 126.492,187.328 125.5,187.5C 124.659,185.621 124.325,183.621 124.5,181.5C 118.326,181.988 116.993,179.654 120.5,174.5C 122.508,173.314 124.341,171.98 126,170.5C 128.432,170.763 130.432,171.763 132,173.5C 132.383,172.944 132.883,172.611 133.5,172.5 Z"/></g>
<g><path style="opacity:1" fill="#828291" d="M 50.5,154.5 C 48.5,155.833 46.5,157.167 44.5,158.5C 42.5992,158.433 40.7659,158.767 39,159.5C 33.0792,163.234 27.2458,167.234 21.5,171.5C 18.341,172.331 15.341,173.331 12.5,174.5C 7.35208,175.126 6.35208,177.459 9.5,181.5C 6.20209,186.334 7.20209,189.667 12.5,191.5C 12.2837,193.681 13.117,195.347 15,196.5C 15.7991,201.087 15.6324,205.587 14.5,210C 15.3367,212.589 17.0034,214.422 19.5,215.5C 20.5488,218.08 21.2155,220.746 21.5,223.5C 23.1439,223.286 24.6439,223.62 26,224.5C 26.4955,226.473 26.6621,228.473 26.5,230.5C 21.1667,230.5 15.8333,230.5 10.5,230.5C 10.5858,229.504 10.2524,228.671 9.5,228C 10.5784,227.326 11.2451,226.326 11.5,225C 10.6896,220.447 9.68955,215.947 8.5,211.5C 10.9114,209.681 11.078,207.681 9,205.5C 8.10774,209.173 6.60774,209.34 4.5,206C 5.36166,203.266 6.195,203.099 7,205.5C 7.49621,203.965 7.32954,202.465 6.5,201C 6.90536,200.055 7.57203,199.388 8.5,199C 7.12144,194.253 5.95477,189.42 5,184.5C 3.62901,181.734 1.79568,179.401 -0.5,177.5C -0.5,176.5 -0.5,175.5 -0.5,174.5C 1.71283,173.227 4.04616,172.227 6.5,171.5C 8.85684,171.663 11.1902,171.497 13.5,171C 23.6393,165.349 33.9726,160.182 44.5,155.5C 46.5648,155.483 48.5648,155.15 50.5,154.5 Z"/></g>
<g><path style="opacity:1" fill="#828189" d="M -0.5,177.5 C 1.79568,179.401 3.62901,181.734 5,184.5C 5.95477,189.42 7.12144,194.253 8.5,199C 7.57203,199.388 6.90536,200.055 6.5,201C 7.32954,202.465 7.49621,203.965 7,205.5C 6.195,203.099 5.36166,203.266 4.5,206C 6.60774,209.34 8.10774,209.173 9,205.5C 11.078,207.681 10.9114,209.681 8.5,211.5C 9.68955,215.947 10.6896,220.447 11.5,225C 11.2451,226.326 10.5784,227.326 9.5,228C 10.2524,228.671 10.5858,229.504 10.5,230.5C 6.83333,230.5 3.16667,230.5 -0.5,230.5C -0.5,212.833 -0.5,195.167 -0.5,177.5 Z"/></g>
<g><path style="opacity:1" fill="#8c98ac" d="M 35.5,184.5 C 38.6016,186.146 41.935,187.313 45.5,188C 45.0426,188.414 44.7093,188.914 44.5,189.5C 46.012,190.862 47.512,191.196 49,190.5C 50.1414,193.472 52.3081,195.139 55.5,195.5C 58.0678,199.361 60.9011,203.028 64,206.5C 65.4056,205.332 66.5723,205.665 67.5,207.5C 68.3857,208.325 68.719,209.325 68.5,210.5C 73.0885,210.881 73.4218,212.047 69.5,214C 70.2529,215.487 71.0862,215.654 72,214.5C 72.1515,217.119 72.9848,219.453 74.5,221.5C 74.2577,224.319 74.2577,227.319 74.5,230.5C 65.1667,230.5 55.8333,230.5 46.5,230.5C 45.135,224.368 43.4683,218.368 41.5,212.5C 41.722,210.945 42.3887,209.611 43.5,208.5C 38.9642,206.603 37.6309,203.436 39.5,199C 38.2068,198.51 36.8734,198.343 35.5,198.5C 36.1637,196.133 37.497,194.133 39.5,192.5C 38.2889,191.28 38.2889,190.113 39.5,189C 37.9586,187.629 36.6253,186.129 35.5,184.5 Z"/></g>
<g><path style="opacity:1" fill="#8599b2" d="M 149.5,151.5 C 150.167,151.5 150.833,151.5 151.5,151.5C 153.292,156.257 155.959,160.424 159.5,164C 158.978,164.95 158.311,165.784 157.5,166.5C 158.147,171.243 159.48,175.743 161.5,180C 160.728,181.221 159.728,182.221 158.5,183C 161.638,184.971 163.305,187.804 163.5,191.5C 164.5,191.5 165.5,191.5 166.5,191.5C 166.297,201.653 167.463,211.653 170,221.5C 170.667,222.833 171.333,222.833 172,221.5C 172.498,224.482 172.665,227.482 172.5,230.5C 170.167,230.5 167.833,230.5 165.5,230.5C 165.217,229.711 164.717,229.044 164,228.5C 163.326,219.923 162.159,211.423 160.5,203C 161.382,199 160.716,195.167 158.5,191.5C 158.931,190.707 159.265,189.873 159.5,189C 157.645,185.053 156.478,180.887 156,176.5C 155,174.833 154,173.167 153,171.5C 152.154,164.755 150.987,158.088 149.5,151.5 Z"/></g>
<g><path style="opacity:1" fill="#989fb0" d="M 150.5,179.5 C 152.938,185.134 153.938,191.134 153.5,197.5C 151.145,196.452 149.479,194.785 148.5,192.5C 147.324,188.819 144.824,186.485 141,185.5C 141.07,182.008 140.237,179.008 138.5,176.5C 137.871,174.003 136.204,172.67 133.5,172.5C 133.281,171.325 133.614,170.325 134.5,169.5C 136.968,170.803 139.301,172.303 141.5,174C 144.791,178.748 147.958,183.581 151,188.5C 151.044,185.525 150.877,182.525 150.5,179.5 Z"/></g>
<g><path style="opacity:1" fill="#7b8aa0" d="M 149.5,151.5 C 150.987,158.088 152.154,164.755 153,171.5C 154,173.167 155,174.833 156,176.5C 156.478,180.887 157.645,185.053 159.5,189C 159.265,189.873 158.931,190.707 158.5,191.5C 160.716,195.167 161.382,199 160.5,203C 162.159,211.423 163.326,219.923 164,228.5C 164.717,229.044 165.217,229.711 165.5,230.5C 162.833,230.5 160.167,230.5 157.5,230.5C 157.847,220.07 157.013,209.737 155,199.5C 154.722,198.584 154.222,197.918 153.5,197.5C 153.938,191.134 152.938,185.134 150.5,179.5C 150.071,175.323 149.071,171.323 147.5,167.5C 147.334,162.489 147.501,157.489 148,152.5C 148.383,151.944 148.883,151.611 149.5,151.5 Z"/></g>
<g><path style="opacity:1" fill="#cdd6e3" d="M 123.5,192.5 C 123.962,193.88 124.962,194.547 126.5,194.5C 128.577,193.063 130.91,192.396 133.5,192.5C 133.716,194.681 132.883,196.347 131,197.5C 130.667,200.5 130.333,203.5 130,206.5C 127.598,209.722 125.098,212.722 122.5,215.5C 121.976,213.694 121.309,212.028 120.5,210.5C 118.071,205.975 115.905,201.308 114,196.5C 112.648,193.28 111.814,189.947 111.5,186.5C 113.512,185.986 115.512,185.82 117.5,186C 119.027,188.69 121.027,190.857 123.5,192.5 Z"/></g>
<g><path style="opacity:1" fill="#afbbca" d="M 148.5,192.5 C 149.479,194.785 151.145,196.452 153.5,197.5C 154.222,197.918 154.722,198.584 155,199.5C 157.013,209.737 157.847,220.07 157.5,230.5C 155.5,230.5 153.5,230.5 151.5,230.5C 151.5,227.833 151.5,225.167 151.5,222.5C 152.5,222.5 153.5,222.5 154.5,222.5C 152.714,212.449 150.714,202.449 148.5,192.5 Z"/></g>
<g><path style="opacity:1" fill="#838b9f" d="M 12.5,174.5 C 12.0651,176.297 12.0651,178.297 12.5,180.5C 11.7041,183.619 12.7041,186.285 15.5,188.5C 21.4256,199.084 26.759,210.084 31.5,221.5C 34.5674,223.988 36.9007,226.988 38.5,230.5C 34.5,230.5 30.5,230.5 26.5,230.5C 26.6621,228.473 26.4955,226.473 26,224.5C 24.6439,223.62 23.1439,223.286 21.5,223.5C 21.2155,220.746 20.5488,218.08 19.5,215.5C 17.0034,214.422 15.3367,212.589 14.5,210C 15.6324,205.587 15.7991,201.087 15,196.5C 13.117,195.347 12.2837,193.681 12.5,191.5C 7.20209,189.667 6.20209,186.334 9.5,181.5C 6.35208,177.459 7.35208,175.126 12.5,174.5 Z"/></g>
<g><path style="opacity:1" fill="#8691aa" d="M 66.5,193.5 C 66.5,192.5 66.5,191.5 66.5,190.5C 67.552,190.351 68.552,190.517 69.5,191C 77.115,201.294 83.9483,212.127 90,223.5C 91.8419,225.864 93.6753,228.197 95.5,230.5C 88.5,230.5 81.5,230.5 74.5,230.5C 74.2577,227.319 74.2577,224.319 74.5,221.5C 72.9848,219.453 72.1515,217.119 72,214.5C 71.0862,215.654 70.2529,215.487 69.5,214C 73.4218,212.047 73.0885,210.881 68.5,210.5C 68.719,209.325 68.3857,208.325 67.5,207.5C 66.5723,205.665 65.4056,205.332 64,206.5C 60.9011,203.028 58.0678,199.361 55.5,195.5C 52.3081,195.139 50.1414,193.472 49,190.5C 47.512,191.196 46.012,190.862 44.5,189.5C 44.7093,188.914 45.0426,188.414 45.5,188C 41.935,187.313 38.6016,186.146 35.5,184.5C 34.8826,184.389 34.3826,184.056 34,183.5C 33.8485,186.119 33.0152,188.453 31.5,190.5C 30.7568,189.092 29.9234,187.759 29,186.5C 25.8683,189.456 23.8683,188.79 23,184.5C 20.9095,185.152 18.7429,185.319 16.5,185C 15.6634,186.011 15.33,187.178 15.5,188.5C 12.7041,186.285 11.7041,183.619 12.5,180.5C 13.4271,182.476 14.7605,182.809 16.5,181.5C 15.5721,180.232 15.4054,178.899 16,177.5C 18.9374,180.732 21.4374,180.732 23.5,177.5C 25.7955,179.761 28.2955,181.761 31,183.5C 31.4828,182.552 31.6495,181.552 31.5,180.5C 36.4591,180.065 41.1257,180.899 45.5,183C 52.1079,188.27 58.4413,193.937 64.5,200C 64.1667,200.333 63.8333,200.667 63.5,201C 64.5,201.333 65.5,201.667 66.5,202C 65.2888,202.893 65.2888,203.726 66.5,204.5C 68.9095,203.299 70.9095,201.633 72.5,199.5C 70.9772,195.766 69.8105,196.099 69,200.5C 68.6667,200.167 68.3333,199.833 68,199.5C 67.8091,197.292 67.3091,195.292 66.5,193.5 Z"/></g>
<g><path style="opacity:1" fill="#8a95ad" d="M 35.5,184.5 C 36.6253,186.129 37.9586,187.629 39.5,189C 38.2889,190.113 38.2889,191.28 39.5,192.5C 37.497,194.133 36.1637,196.133 35.5,198.5C 36.8734,198.343 38.2068,198.51 39.5,199C 37.6309,203.436 38.9642,206.603 43.5,208.5C 42.3887,209.611 41.722,210.945 41.5,212.5C 43.4683,218.368 45.135,224.368 46.5,230.5C 43.8333,230.5 41.1667,230.5 38.5,230.5C 36.9007,226.988 34.5674,223.988 31.5,221.5C 26.759,210.084 21.4256,199.084 15.5,188.5C 15.33,187.178 15.6634,186.011 16.5,185C 18.7429,185.319 20.9095,185.152 23,184.5C 23.8683,188.79 25.8683,189.456 29,186.5C 29.9234,187.759 30.7568,189.092 31.5,190.5C 33.0152,188.453 33.8485,186.119 34,183.5C 34.3826,184.056 34.8826,184.389 35.5,184.5 Z"/></g>
<g><path style="opacity:1" fill="#9bb5dd" d="M 136.5,191.5 C 137.822,191.33 138.989,191.663 140,192.5C 140.696,195.478 141.196,198.478 141.5,201.5C 140.052,203.51 138.719,205.677 137.5,208C 136.451,208.492 135.451,208.326 134.5,207.5C 133.345,204.554 133.179,201.554 134,198.5C 135.411,196.35 136.245,194.016 136.5,191.5 Z"/></g>
<g><path style="opacity:1" fill="#666f81" d="M 205.5,174.5 C 206.167,174.833 206.833,175.167 207.5,175.5C 208.435,187.154 208.602,198.821 208,210.5C 206.518,217.112 205.351,223.779 204.5,230.5C 203.833,230.5 203.167,230.5 202.5,230.5C 202.328,211.371 203.328,192.704 205.5,174.5 Z"/></g>
<g><path style="opacity:1" fill="#8c94a9" d="M 120.5,210.5 C 121.309,212.028 121.976,213.694 122.5,215.5C 122.018,216.416 121.685,217.416 121.5,218.5C 123.41,222.317 124.743,226.317 125.5,230.5C 116.167,230.5 106.833,230.5 97.5,230.5C 96.3702,228.685 95.7036,226.685 95.5,224.5C 96.2389,224.631 96.9056,224.464 97.5,224C 96.7887,221.204 96.122,218.37 95.5,215.5C 97.297,214.305 98.297,212.638 98.5,210.5C 99.1635,208.958 99.8302,207.291 100.5,205.5C 102.737,207.647 104.737,209.98 106.5,212.5C 107.135,218.075 109.468,222.742 113.5,226.5C 114.896,224.028 115.73,221.362 116,218.5C 117.264,218.36 118.431,218.36 119.5,218.5C 119.291,217.914 118.957,217.414 118.5,217C 120.25,215.246 120.917,213.079 120.5,210.5 Z"/></g>
<g><path style="opacity:1" fill="#899ab8" d="M 127.5,188.5 C 128.609,188.557 129.609,188.89 130.5,189.5C 132.214,190.738 134.214,191.405 136.5,191.5C 136.245,194.016 135.411,196.35 134,198.5C 133.179,201.554 133.345,204.554 134.5,207.5C 135.451,208.326 136.451,208.492 137.5,208C 138.719,205.677 140.052,203.51 141.5,201.5C 139.165,208.044 136.998,214.71 135,221.5C 131.666,223.65 129.833,226.65 129.5,230.5C 128.167,230.5 126.833,230.5 125.5,230.5C 124.743,226.317 123.41,222.317 121.5,218.5C 121.685,217.416 122.018,216.416 122.5,215.5C 125.098,212.722 127.598,209.722 130,206.5C 130.333,203.5 130.667,200.5 131,197.5C 132.883,196.347 133.716,194.681 133.5,192.5C 130.91,192.396 128.577,193.063 126.5,194.5C 124.962,194.547 123.962,193.88 123.5,192.5C 127.205,193.616 128.539,192.283 127.5,188.5 Z"/></g>
<g><path style="opacity:1" fill="#cbdae7" d="M 138.5,176.5 C 140.237,179.008 141.07,182.008 141,185.5C 144.824,186.485 147.324,188.819 148.5,192.5C 150.714,202.449 152.714,212.449 154.5,222.5C 153.5,222.5 152.5,222.5 151.5,222.5C 151.5,225.167 151.5,227.833 151.5,230.5C 151.167,230.5 150.833,230.5 150.5,230.5C 149.13,223.698 147.13,217.031 144.5,210.5C 142.618,211.093 140.785,211.76 139,212.5C 138.28,214.112 138.446,215.612 139.5,217C 137.653,221.645 135.653,226.145 133.5,230.5C 132.167,230.5 130.833,230.5 129.5,230.5C 129.833,226.65 131.666,223.65 135,221.5C 136.998,214.71 139.165,208.044 141.5,201.5C 141.196,198.478 140.696,195.478 140,192.5C 138.989,191.663 137.822,191.33 136.5,191.5C 134.214,191.405 132.214,190.738 130.5,189.5C 133.482,189.963 136.482,190.296 139.5,190.5C 139.647,185.786 139.314,181.119 138.5,176.5 Z"/></g>
<g><path style="opacity:1" fill="#a6b6c3" d="M 207.5,173.5 C 208.117,173.611 208.617,173.944 209,174.5C 212.344,193.052 214.844,211.719 216.5,230.5C 214.833,230.5 213.167,230.5 211.5,230.5C 211.154,215.497 210.654,200.497 210,185.5C 209.465,181.962 208.632,178.628 207.5,175.5C 207.5,174.833 207.5,174.167 207.5,173.5 Z"/></g>
<g><path style="opacity:1" fill="#818ea0" d="M 176.5,175.5 C 178.724,178.153 180.391,181.153 181.5,184.5C 180.846,185.185 180.846,186.185 181.5,187.5C 181.182,188.647 180.516,189.481 179.5,190C 180.308,190.308 180.975,190.808 181.5,191.5C 182.407,194.057 183.407,196.557 184.5,199C 184.041,201.866 182.708,204.199 180.5,206C 182.814,212.263 185.314,218.097 188,223.5C 191.497,217.684 192.33,211.518 190.5,205C 191.504,198.812 192.504,192.646 193.5,186.5C 193.291,185.914 192.957,185.414 192.5,185C 194.409,184.552 195.576,185.385 196,187.5C 198.055,201.825 199.888,216.158 201.5,230.5C 194.167,230.5 186.833,230.5 179.5,230.5C 178.75,223.926 179.083,217.26 180.5,210.5C 178.951,208.098 178.284,205.432 178.5,202.5C 176.654,202.778 175.32,202.111 174.5,200.5C 176.166,196.382 175.832,192.548 173.5,189C 174.634,187.984 174.301,187.317 172.5,187C 175.051,185.484 174.718,184.651 171.5,184.5C 171.773,181.718 173.106,179.551 175.5,178C 173.902,176.274 174.235,175.441 176.5,175.5 Z"/></g>
<g><path style="opacity:1" fill="#e4ecf0" d="M 150.5,230.5 C 144.833,230.5 139.167,230.5 133.5,230.5C 135.653,226.145 137.653,221.645 139.5,217C 138.446,215.612 138.28,214.112 139,212.5C 140.785,211.76 142.618,211.093 144.5,210.5C 147.13,217.031 149.13,223.698 150.5,230.5 Z"/></g>
<g><path style="opacity:1" fill="#7a8698" d="M 207.5,175.5 C 208.632,178.628 209.465,181.962 210,185.5C 210.654,200.497 211.154,215.497 211.5,230.5C 209.167,230.5 206.833,230.5 204.5,230.5C 205.351,223.779 206.518,217.112 208,210.5C 208.602,198.821 208.435,187.154 207.5,175.5 Z"/></g>
</svg>
